<svg width="112" height="112" viewBox="0 0 112 112" fill="none" xmlns="http://www.w3.org/2000/svg">
<rect x="18" y="19" width="73" height="73" rx="36.5" fill="#124530"/>
<path d="M67 43C67.7956 43 68.5587 43.3161 69.1213 43.8787C69.6839 44.4413 70 45.2044 70 46V61C70 62.665 68.665 64 67 64H73V67H37V64H43C42.2044 64 41.4413 63.6839 40.8787 63.1213C40.3161 62.5587 40 61.7956 40 61V46C40 44.335 41.335 43 43 43H67ZM67 46H43V61H67V46ZM55 55C58.315 55 61 56.35 61 58V59.5H49V58C49 56.35 51.685 55 55 55ZM55 47.5C55.7956 47.5 56.5587 47.8161 57.1213 48.3787C57.6839 48.9413 58 49.7044 58 50.5C58 51.2956 57.6839 52.0587 57.1213 52.6213C56.5587 53.1839 55.7956 53.5 55 53.5C53.335 53.5 52 52.165 52 50.5C52 48.835 53.35 47.5 55 47.5Z" fill="white"/>
<circle cx="56" cy="56" r="42.75" stroke="#4CCD99" stroke-opacity="0.6" stroke-width="0.5"/>
<circle cx="56" cy="56" r="49.75" stroke="#4CCD99" stroke-opacity="0.2" stroke-width="0.5"/>
<circle cx="56" cy="56" r="55.75" stroke="#4CCD99" stroke-opacity="0.05" stroke-width="0.5"/>
</svg>
