<svg width="570" height="312" viewBox="0 0 570 312" fill="none" xmlns="http://www.w3.org/2000/svg">
<g clip-path="url(#clip0_88_310)">
<g style="mix-blend-mode:luminosity">
<path d="M203.646 137.601L191.606 182.863C191.547 183.092 191.541 183.321 191.582 183.544C191.629 183.767 191.729 183.984 191.864 184.16C192.005 184.348 192.187 184.495 192.392 184.589C192.598 184.694 192.827 184.747 193.05 184.747L218.787 184.741V189.502H144.847C143.819 189.502 142.81 189.268 141.888 188.816C140.96 188.363 140.156 187.712 139.522 186.896C138.894 186.086 138.454 185.141 138.248 184.137C138.037 183.133 138.06 182.088 138.307 181.09L150.013 135.006L203.646 137.601Z" fill="white"/>
<path d="M191.653 182.875L200.2 150.545L149.584 153.316L141.97 180.978C141.853 181.425 141.829 181.888 141.917 182.34C142.005 182.787 142.193 183.209 142.475 183.573C142.751 183.943 143.109 184.237 143.52 184.442C143.931 184.648 144.383 184.747 144.841 184.747H193.05C192.833 184.736 192.61 184.683 192.41 184.583C192.211 184.471 192.04 184.325 191.905 184.149C191.77 183.967 191.682 183.761 191.635 183.538C191.594 183.321 191.6 183.092 191.653 182.875Z" fill="#DA914E"/>
<path d="M147.307 161.594L141.97 180.978C141.853 181.425 141.829 181.888 141.917 182.34C142.005 182.787 142.193 183.209 142.475 183.573C142.751 183.943 143.109 184.237 143.52 184.442C143.931 184.647 144.383 184.747 144.841 184.747H193.05" stroke="#DA914E" stroke-width="1.76117" stroke-linecap="round" stroke-linejoin="round"/>
<path d="M75.3837 34.2612C75.372 34.2495 75.3603 34.2494 75.3426 34.2553C75.3309 34.2553 75.325 34.2612 75.3133 34.2729L73.4464 37.2434C72.7185 38.4176 72.4426 39.8148 72.6774 41.1709L94.0639 163.255C94.2694 164.429 94.8917 165.486 95.7957 166.255C96.7115 167.018 97.868 167.441 99.0539 167.441H266.072C266.43 167.441 266.788 167.359 267.117 167.2C267.44 167.042 267.721 166.807 267.944 166.519L270.428 163.578C270.428 163.572 270.434 163.566 270.434 163.566C270.434 163.561 270.434 163.555 270.434 163.543C270.434 163.537 270.434 163.531 270.428 163.525C270.428 163.525 270.422 163.519 270.416 163.514L75.3837 34.2612Z" fill="white"/>
<path d="M99.0517 167.488C97.8541 167.494 96.6858 167.071 95.7642 166.296C94.8425 165.527 94.2202 164.447 94.0147 163.261L72.6224 41.1825C72.3876 39.8088 72.6635 38.3999 73.409 37.214L75.27 34.2493C75.2876 34.22 75.3228 34.2083 75.3522 34.2024C75.3698 34.2024 75.3933 34.2083 75.405 34.22L270.443 163.42C270.455 163.431 270.461 163.443 270.467 163.449C270.478 163.461 270.484 163.478 270.484 163.49C270.484 163.502 270.484 163.519 270.478 163.525C270.478 163.543 270.467 163.555 270.461 163.566L267.983 166.554C267.754 166.854 267.467 167.089 267.132 167.253C266.803 167.412 266.439 167.494 266.069 167.494L99.0517 167.488Z" fill="#BA6518"/>
<path d="M270.934 161.418C271.028 161.805 271.028 162.204 270.934 162.586C270.851 162.973 270.669 163.331 270.423 163.631C270.17 163.936 269.853 164.177 269.49 164.341C269.131 164.5 268.738 164.576 268.345 164.558H100.758C99.8769 164.529 99.0374 164.2 98.3682 163.637C97.699 163.061 97.241 162.281 97.0649 161.418L74.9329 35.9283C74.8507 35.5467 74.8507 35.1475 74.9387 34.7659C75.0268 34.3785 75.2088 34.0262 75.4554 33.721C75.7078 33.4157 76.0248 33.175 76.3829 33.0106C76.741 32.8521 77.1285 32.7758 77.5218 32.7876H245.115C245.995 32.8169 246.841 33.1456 247.51 33.7151C248.179 34.2904 248.637 35.0653 248.807 35.9283L270.934 161.418Z" fill="white"/>
<path d="M269.561 164.3C269.186 164.47 268.775 164.564 268.346 164.558H100.759C99.8784 164.529 99.0389 164.2 98.3697 163.637C97.7005 163.061 97.2425 162.281 97.0664 161.418L74.9344 35.9283C74.8933 35.67 74.8815 35.3999 74.8992 35.1357" stroke="#BA6518" stroke-width="1.76117" stroke-linecap="round" stroke-linejoin="round"/>
<path d="M260.163 143.295L105.468 142.503L95.388 135.534L78.0698 37.3255C78.0287 37.1436 78.0287 36.9498 78.0698 36.7678C78.1109 36.58 78.1989 36.4097 78.3222 36.263C78.4396 36.1162 78.5922 35.9988 78.7684 35.9225C78.9386 35.8403 79.1323 35.8051 79.3202 35.8109H244.389C244.818 35.8285 245.228 35.9871 245.551 36.263C245.88 36.533 246.097 36.9146 246.179 37.3255L263.486 135.487L260.163 143.295Z" fill="#EFAD71"/>
<path d="M163.582 34.8658C163.875 34.5429 163.805 33.991 163.418 33.6388C163.036 33.2866 162.484 33.269 162.185 33.5918C161.891 33.9088 161.968 34.4607 162.349 34.8129C162.731 35.1652 163.283 35.1886 163.582 34.8658Z" fill="#EFAD71"/>
<path d="M265.606 147.498C265.606 147.504 265.606 147.51 265.606 147.516C265.606 147.528 265.6 147.534 265.6 147.534C265.594 147.54 265.588 147.54 265.582 147.545C265.576 147.545 265.571 147.551 265.559 147.551H97.5548C97.5431 147.545 97.5254 147.54 97.5196 147.534C97.5078 147.528 97.4961 147.51 97.4961 147.498L95.3885 135.534L263.486 135.487L265.606 147.498Z" fill="black"/>
<path d="M191.118 160.173C192.968 158.154 192.516 154.737 190.109 152.536C187.708 150.334 184.262 150.187 182.412 152.201C180.563 154.22 181.015 157.643 183.422 159.844C185.823 162.04 189.269 162.193 191.118 160.173Z" fill="#EDBD92"/>
<path d="M229.197 135.499H164.163C154.894 134.542 149.211 134.595 141.385 135.499H129.803C129.803 133.28 131.071 130.926 132.621 128.9C133.953 127.18 135.485 125.63 137.194 124.286C139.337 122.648 139.712 121.885 142.231 120.752C142.489 120.635 142.871 120.464 143.334 120.247C145.659 119.167 150.215 117.007 153.678 115.369C156.126 114.195 158.034 113.291 158.222 113.202C158.228 113.202 158.234 113.197 158.24 113.191C158.246 113.185 158.246 113.179 158.246 113.173L160.365 107.937C160.365 107.925 160.377 107.919 160.388 107.913C160.4 107.901 160.412 107.901 160.424 107.901L183.777 106.762C183.806 106.768 183.83 106.78 183.847 106.798L185.837 109.786C185.843 109.792 185.843 109.792 185.843 109.798C185.92 110.021 186.055 110.226 186.231 110.385C186.683 110.801 187.252 111.083 187.857 111.177C188.737 111.365 190.88 111.617 193.217 111.923C195.547 112.222 198.066 112.563 199.704 112.944C202.979 113.701 207.142 115.216 209.155 117.101C211.075 118.903 223.051 129.611 224.19 130.638C224.196 130.638 224.202 130.65 224.202 130.656C224.202 130.667 224.202 130.673 224.202 130.679C224.202 130.691 224.196 130.697 224.184 130.703C224.184 130.709 224.172 130.709 224.166 130.709L229.197 135.499Z" fill="#97607A"/>
<path d="M157.159 114.377L158.997 128.443L172.734 121.14" stroke="#3D3D3D" stroke-width="1.76117" stroke-linecap="round" stroke-linejoin="round"/>
<path d="M149.209 65.8916L146.89 68.0872C145.681 69.2378 144.894 70.7524 144.66 72.4021C144.419 74.0517 144.742 75.7307 145.575 77.1748L150.8 86.2273" stroke="#333333" stroke-width="1.76117" stroke-linecap="round" stroke-linejoin="round"/>
<path d="M161.482 108.418C161.476 108.412 161.464 108.406 161.464 108.4C161.464 108.389 161.458 108.383 161.464 108.371L162.21 102.683C162.21 102.671 162.21 102.665 162.204 102.653C161.945 102.278 156.674 94.6927 156.181 94.1174C155.676 93.5303 154.754 91.5989 154.249 91.4345C153.744 91.2643 152.488 91.9394 151.144 89.4151C149.799 86.8907 148.537 83.0279 148.878 81.3489C149.189 79.7932 150.944 79.03 151.196 78.9244C151.208 78.9244 151.214 78.9126 151.22 78.9067C151.226 78.9009 151.226 78.8891 151.226 78.8833C151.185 78.3197 150.639 70.6586 150.721 67.9934C150.809 65.2166 156.685 54.3795 167.446 54.2973C178.201 54.2093 181.811 56.5634 184.248 59.5045C186.602 62.3459 188.011 71.2867 188.111 71.9032C188.111 71.9149 188.116 71.9208 188.116 71.9325C188.128 71.9384 188.134 71.9384 188.146 71.9384C188.985 72.044 189.79 72.3611 190.465 72.8659C191.304 73.6174 192.566 81.3489 191.727 82.3586C190.952 83.2803 190.247 83.9965 190.142 84.1022C190.136 84.1081 190.13 84.1198 190.13 84.1198C190.124 84.1257 190.124 84.1374 190.124 84.1374C190.165 84.6306 190.758 94.0117 189.291 96.4715C187.776 98.9959 183.743 102.272 183.238 103.023C182.733 103.78 182.563 104.033 182.487 105.377C182.404 106.669 182.95 109.363 182.991 109.563C182.991 109.575 182.991 109.575 182.991 109.586L177.837 124.885C177.796 124.997 177.731 125.096 177.643 125.173C177.555 125.255 177.444 125.302 177.326 125.319C177.209 125.343 177.091 125.331 176.98 125.284C176.868 125.237 176.774 125.167 176.704 125.073C174.332 121.967 167.059 112.439 166.777 112.011C166.448 111.53 161.857 108.653 161.482 108.418Z" fill="#E77240"/>
<path d="M155.105 83.9494C155.117 83.9494 155.117 83.9494 155.123 83.9494C155.134 83.9494 155.134 83.9436 155.14 83.9436C155.146 83.9377 155.152 83.9318 155.152 83.926C155.152 83.9201 155.158 83.9142 155.158 83.9083C155.945 75.3314 157.007 71.5684 157.101 71.2514C157.107 71.2455 157.107 71.2338 157.113 71.2338C157.119 71.2279 157.125 71.222 157.13 71.2162C157.33 71.1575 158.927 70.635 163.03 69.4609C167.445 68.2046 172.042 65.9972 174.437 63.4788C176.703 61.0894 178.805 56.4399 179.022 55.9586C179.028 55.9468 179.034 55.9409 179.045 55.9351C179.057 55.9292 179.069 55.9292 179.081 55.9351C180.795 56.7217 182.339 57.8254 183.642 59.1932C185.468 61.2714 186.73 65.6215 187.358 68.7094C187.91 71.4334 188.908 76.0594 189.137 77.1161C189.137 77.1337 189.137 77.1455 189.149 77.1513C189.154 77.1572 189.172 77.1631 189.178 77.1631C189.196 77.1631 189.207 77.1572 189.213 77.1513C189.219 77.1455 189.225 77.1337 189.225 77.1161C189.436 75.9361 190.393 70.2828 190.505 66.1264C190.628 61.4593 189.56 59.6981 188.426 58.8116C187.364 57.9898 183.806 56.8274 183.366 56.6865C183.36 56.6865 183.354 56.6865 183.348 56.6806C183.348 56.6748 183.343 56.6689 183.343 56.6689C183.337 56.6571 183.331 56.6513 183.331 56.6513C183.331 56.6395 183.337 56.6337 183.337 56.6337C183.448 56.3284 184.053 54.4909 183.067 53.3931C181.998 52.2014 179.668 50.8101 172.23 49.8003C164.797 48.7906 155.34 52.5125 150.996 56.481C146.657 60.4378 144.702 70.0421 149.141 80.4154C149.141 80.4271 149.146 80.433 149.152 80.433C149.158 80.4388 149.164 80.4447 149.176 80.4447C149.182 80.4506 149.193 80.4447 149.193 80.4447C149.205 80.4388 149.211 80.433 149.211 80.4271C149.563 79.9046 150.062 79.4996 150.649 79.2765C151.231 79.0534 151.876 79.0123 152.481 79.1649C152.487 79.1649 152.499 79.1649 152.504 79.1708C152.51 79.1825 152.51 79.1825 152.51 79.1943C152.604 79.5524 153.684 83.6794 155.105 83.9494Z" fill="#693820"/>
<path d="M168.538 81.3253C169.342 81.3253 169.988 80.3919 169.988 79.253C169.988 78.1082 169.342 77.1807 168.538 77.1807C167.74 77.1807 167.088 78.1082 167.088 79.253C167.088 80.3919 167.74 81.3253 168.538 81.3253Z" fill="#333333"/>
<path d="M181.811 81.4014C182.616 81.4014 183.261 80.4739 183.261 79.3291C183.261 78.1902 182.616 77.2627 181.811 77.2627C181.013 77.2627 180.361 78.1902 180.361 79.3291C180.361 80.4739 181.013 81.4014 181.811 81.4014Z" fill="#333333"/>
<path d="M175.676 74.7151C175.676 74.7151 175.259 77.3216 175.43 77.9909C175.6 78.6601 178.283 83.9495 178.617 85.7224C178.952 87.4895 177.02 89.0804 177.02 89.0804" stroke="#52200A" stroke-width="1.76117" stroke-linecap="round" stroke-linejoin="round"/>
<path d="M178.095 70.4354C179.275 69.5901 182.833 67.5706 185.721 71.3571C185.751 71.3865 185.762 71.4276 185.768 71.4687C185.768 71.5098 185.756 71.5509 185.739 71.5861C185.715 71.6213 185.692 71.6507 185.657 71.6683C185.616 71.6859 185.575 71.6976 185.533 71.6917L178.195 70.8053C178.154 70.8053 178.113 70.7818 178.084 70.7583C178.054 70.729 178.031 70.6938 178.019 70.6527C178.007 70.6174 178.013 70.5763 178.025 70.5352C178.043 70.4941 178.066 70.4648 178.095 70.4354Z" fill="#693820"/>
<path d="M162.948 72.5077C163.857 71.1868 166.793 67.7408 171.225 70.5881C171.26 70.6115 171.296 70.6467 171.313 70.6878C171.331 70.7289 171.337 70.7759 171.331 70.8229C171.319 70.864 171.301 70.9109 171.272 70.9403C171.243 70.9755 171.202 70.999 171.155 71.0107L163.188 72.86C163.141 72.8717 163.1 72.8658 163.053 72.8541C163.012 72.8306 162.971 72.8013 162.948 72.766C162.924 72.7249 162.906 72.6838 162.906 72.6369C162.906 72.5899 162.918 72.5488 162.948 72.5077Z" fill="#693820"/>
<path d="M170.468 90.9297C171.431 92.1273 172.722 93.0196 174.184 93.4951C175.651 93.9706 177.219 94.0117 178.704 93.6184" stroke="#52200A" stroke-width="1.76117" stroke-linecap="round" stroke-linejoin="round"/>
<path d="M150.638 81.9419L152.739 84.3782L152.569 86.5562" stroke="#52200A" stroke-width="1.76117" stroke-linecap="round" stroke-linejoin="round"/>
<path d="M211.193 133.233C211.187 133.233 211.187 133.233 211.175 133.227C211.169 133.227 211.169 133.227 211.164 133.221C210.847 132.822 204.354 124.756 203.866 123.529C203.362 122.272 193.276 108.659 192.02 105.888C190.757 103.111 194.162 102.858 195.043 104.121C195.841 105.254 198.653 107.396 199.229 107.825C199.235 107.831 199.246 107.837 199.252 107.837C199.264 107.837 199.27 107.831 199.282 107.825C199.287 107.825 199.293 107.813 199.293 107.807C199.299 107.801 199.299 107.79 199.299 107.778C199.164 107.273 198.647 105.359 198.319 104.373C197.984 103.357 198.554 101.843 198.677 101.532C198.683 101.526 198.683 101.52 198.683 101.514C198.683 101.508 198.677 101.496 198.671 101.491C198.671 101.491 198.665 101.479 198.659 101.479C198.653 101.473 198.648 101.473 198.642 101.473C197.99 101.42 192.337 100.968 191.262 100.845C190.129 100.722 189.372 98.3264 190.006 98.1972C190.64 98.0739 203.491 97.6923 206.896 97.9506C210.295 98.1972 211.181 98.7021 211.809 99.841C212.437 100.974 221.431 121.445 221.513 121.644L222.852 124.198C222.864 124.221 222.881 124.257 222.893 124.28L223.639 126.018C223.644 126.03 223.644 126.041 223.644 126.053C223.644 126.071 223.644 126.082 223.633 126.094L219.394 133.832C219.388 133.843 219.377 133.855 219.365 133.861C219.353 133.867 219.341 133.867 219.324 133.867L211.193 133.233Z" fill="#E77240"/>
<path d="M208.704 131.349C208.698 131.343 208.704 131.337 208.704 131.331C208.704 131.325 208.709 131.319 208.709 131.313C208.709 131.307 208.721 131.307 208.727 131.302C208.727 131.302 208.733 131.296 208.745 131.296C209.367 131.237 216.024 130.597 218.102 129.957C220.286 129.282 222.875 124.239 222.875 124.239L229.198 135.499H209.367L208.704 131.349Z" fill="#97607A"/>
<path d="M209.267 134.888L208.704 131.348C208.698 131.343 208.704 131.337 208.704 131.331C208.704 131.325 208.709 131.319 208.709 131.313C208.709 131.307 208.721 131.307 208.727 131.301C208.727 131.301 208.733 131.296 208.745 131.296C208.85 131.29 209.138 131.26 209.549 131.213" stroke="#3D3D3D" stroke-width="1.76117" stroke-linecap="round" stroke-linejoin="round"/>
<path d="M165.385 130.486C165.385 132.799 164.34 134.842 164.181 135.499H141.386C141.668 133.433 142.66 125.66 143.335 120.247C143.693 117.406 143.963 115.216 143.998 114.829C144.127 113.567 143.752 103.992 143.752 102.859C143.752 101.726 145.642 100.469 146.523 101.726C147.08 102.571 147.556 103.469 147.943 104.403C148.442 105.577 148.853 106.792 149.17 108.031C149.763 110.414 149.798 114.248 149.798 114.67C149.798 114.676 149.804 114.688 149.81 114.694C149.816 114.706 149.828 114.711 149.834 114.711C150.104 114.752 151.771 115.04 153.679 115.369C155.833 115.733 158.287 116.15 159.379 116.343C161.416 116.707 161.745 120.717 161.769 121.104C161.769 121.11 161.774 121.122 161.78 121.122C161.78 121.134 161.786 121.14 161.798 121.14C162.044 121.228 163.841 121.862 164.539 123.153C165.244 124.439 163.988 126.711 163.811 127.022C163.806 127.028 163.8 127.045 163.806 127.051C163.806 127.063 163.811 127.069 163.817 127.081C163.958 127.18 164.522 127.674 165.173 129.2C165.332 129.611 165.402 130.051 165.385 130.486Z" fill="#E77240"/>
<path d="M198.7 101.473L205.88 99.4595" stroke="#52200A" stroke-width="1.76117" stroke-linecap="round" stroke-linejoin="round"/>
<path d="M199.506 106.322L207.143 101.978" stroke="#52200A" stroke-width="1.76117" stroke-linecap="round" stroke-linejoin="round"/>
<path d="M201.22 110.543L208.405 105.383" stroke="#52200A" stroke-width="1.76117" stroke-linecap="round" stroke-linejoin="round"/>
<path d="M204.876 121.891L206.261 114.958" stroke="#52200A" stroke-width="1.76117" stroke-linecap="round" stroke-linejoin="round"/>
<path d="M207.266 111.43C207.266 111.43 212.303 112.181 210.665 115.21C209.197 115.269 207.718 115.181 206.256 114.958C203.485 114.582 202.98 113.954 202.1 112.944C201.213 111.934 199.329 107.901 199.329 107.901" stroke="#52200A" stroke-width="1.76117" stroke-linecap="round" stroke-linejoin="round"/>
<path d="M157.359 130.709L164.733 132.129" stroke="#52200A" stroke-width="1.76117" stroke-linecap="round" stroke-linejoin="round"/>
<path d="M154.467 124.286L163.79 127.057" stroke="#52200A" stroke-width="1.76117" stroke-linecap="round" stroke-linejoin="round"/>
<path d="M152.323 118.867L161.417 120.957" stroke="#52200A" stroke-width="1.76117" stroke-linecap="round" stroke-linejoin="round"/>
<path d="M182.902 103.557C181.581 104.203 180.161 104.62 178.705 104.79C176.016 104.96 173.914 104.878 173.58 105.295C173.245 105.718 172.822 106.305 174.255 106.557C175.112 106.71 179.456 107.76 182.808 108.582C182.638 107.003 182.274 104.925 182.902 103.557Z" fill="#52200A"/>
<path d="M173.156 105.717C173.403 105.717 175.927 106.134 177.947 105.964C179.168 105.864 180.359 105.553 181.475 105.042L182.115 104.725" stroke="#52200A" stroke-width="1.76117" stroke-linecap="round" stroke-linejoin="round"/>
<path d="M179.845 121.087L195.419 126.552L192.613 112.516" stroke="#3D3D3D" stroke-width="1.76117" stroke-linecap="round" stroke-linejoin="round"/>
<path d="M183.978 99.0779H189.232C189.79 99.0779 190.335 98.9605 190.834 98.7198C191.339 98.485 191.786 98.1386 192.138 97.7159C192.49 97.2874 192.742 96.7884 192.883 96.2542C193.018 95.7199 193.036 95.1563 192.936 94.6104L190.741 84.2253" stroke="#333333" stroke-width="1.76117" stroke-linecap="round" stroke-linejoin="round"/>
<path d="M152.795 89.3034C152.085 89.6498 151.263 89.6967 150.512 89.4384C149.766 89.186 149.156 88.6342 148.809 87.9238L147.524 85.2821C147.347 84.9298 147.248 84.5483 147.218 84.1549C147.195 83.7616 147.248 83.3683 147.377 82.9925C147.5 82.6227 147.7 82.2763 147.964 81.9828C148.222 81.6893 148.539 81.4486 148.891 81.2725C149.25 81.1022 149.631 81.0024 150.024 80.9789C150.418 80.9555 150.811 81.0142 151.181 81.1433C151.557 81.2725 151.891 81.4721 152.191 81.7363C152.484 82.0004 152.719 82.3174 152.889 82.6755L154.175 85.3173C154.515 86.0276 154.568 86.8495 154.31 87.6009C154.052 88.3465 153.506 88.957 152.795 89.3034Z" fill="#333333"/>
<path d="M183.033 99.9293H180.315C179.863 99.9293 179.434 99.7473 179.117 99.4303C178.8 99.1133 178.618 98.6848 178.618 98.2327C178.618 97.7866 178.8 97.358 179.117 97.041C179.434 96.724 179.863 96.542 180.315 96.542H183.033C183.479 96.542 183.913 96.724 184.23 97.041C184.547 97.358 184.724 97.7866 184.724 98.2327C184.724 98.6848 184.547 99.1133 184.23 99.4303C183.913 99.7473 183.479 99.9293 183.033 99.9293Z" fill="#333333"/>
<path d="M68.1351 192.473L66.8142 220.399L56.7345 433.571C56.6875 434.652 56.9751 435.714 57.5387 436.536C58.1082 437.352 58.9066 437.851 59.7637 437.933C60.6208 438.021 61.472 437.669 62.1295 436.97C62.787 436.272 63.198 435.274 63.2801 434.194L78.2325 228.706L80.9095 191.974L68.1351 192.473Z" fill="white"/>
<path d="M288.229 192.473L290.572 241.997L299.63 433.571C299.683 434.652 299.389 435.714 298.82 436.536C298.256 437.352 297.458 437.851 296.601 437.933C295.744 438.021 294.893 437.669 294.235 436.97C293.583 436.272 293.167 435.274 293.084 434.194L278.449 233.085L275.455 191.974L288.229 192.473Z" fill="white"/>
<path d="M81.3069 191.974L67.8457 192.473L66.8125 220.399L78.2308 228.706L81.3069 191.974Z" fill="#DDDDDD"/>
<path d="M288.434 192.473L275.29 191.974L278.449 233.085L290.571 241.997L288.434 192.473Z" fill="#DDDDDD"/>
<path d="M25.4669 189.526C25.4551 189.526 25.4493 189.532 25.4434 189.538C25.4317 189.549 25.4258 189.561 25.4258 189.579C25.4375 190.336 25.6547 199.089 30.6154 199.089H312.802C320.434 199.089 321.496 189.902 321.579 189.074C321.579 189.068 321.579 189.062 321.579 189.056C321.579 189.05 321.573 189.039 321.567 189.033C321.567 189.027 321.561 189.021 321.555 189.021C321.549 189.021 321.543 189.021 321.537 189.021L25.4669 189.526Z" fill="#A97247"/>
<path d="M64.7447 142.725C64.7271 142.702 64.7036 142.679 64.6742 142.661L62.0618 140.859C62.0618 140.853 62.056 140.853 62.0501 140.853C62.0442 140.853 62.0325 140.853 62.0266 140.853C62.0207 140.853 62.0149 140.853 62.009 140.859L62.0031 140.865L49.8863 163.578C49.7923 163.76 49.7571 163.953 49.7982 164.147C49.8276 164.341 49.9332 164.523 50.0917 164.681C50.2561 164.84 50.4675 164.969 50.7199 165.063C50.9723 165.151 51.2424 165.198 51.5242 165.198H81.3114C81.3173 165.198 81.3232 165.198 81.329 165.198C81.3349 165.192 81.3349 165.192 81.3408 165.186C81.3467 165.186 81.3467 165.18 81.3467 165.175C81.3467 165.169 81.3408 165.169 81.3408 165.163L64.7447 142.725Z" fill="#E66A48"/>
<path d="M65.0964 171.21C65.0905 171.198 65.0846 171.186 65.0729 171.18C65.0612 171.174 65.0494 171.168 65.0318 171.168H52.8445C52.639 171.168 52.4277 171.204 52.2457 171.274C52.0578 171.345 51.8993 171.438 51.7878 171.562C51.6704 171.685 51.6058 171.82 51.5882 171.967C51.5647 172.108 51.5999 172.255 51.6821 172.39L61.6797 188.346C61.6856 188.352 61.6973 188.357 61.7091 188.363C61.7208 188.369 61.7384 188.369 61.756 188.369L69.4641 187.054C69.4817 187.054 69.4935 187.048 69.5052 187.042C69.5111 187.031 69.5169 187.019 69.5111 187.007L65.0964 171.21Z" fill="#E66A48"/>
<path d="M51.5241 165.233C51.2365 165.233 50.9488 165.186 50.6964 165.092C50.4381 164.999 50.2091 164.869 50.0506 164.705C49.8804 164.541 49.7747 164.353 49.7395 164.153C49.6984 163.954 49.7336 163.748 49.8334 163.566L61.9503 140.853C61.9679 140.829 61.9972 140.818 62.0325 140.812C62.0501 140.812 62.0618 140.812 62.0736 140.818C62.0853 140.818 62.0912 140.824 62.097 140.829L64.7153 142.638C64.7505 142.655 64.774 142.679 64.7975 142.702L81.3936 165.145C81.3995 165.169 81.3995 165.186 81.3936 165.21C81.3819 165.216 81.3701 165.227 81.3525 165.227C81.3408 165.233 81.329 165.233 81.3114 165.233H51.5241Z" fill="#B0472A"/>
<path d="M61.7379 188.41C61.7144 188.41 61.6968 188.405 61.6733 188.393C61.6557 188.387 61.6381 188.375 61.6264 188.358L51.6288 172.401C51.5466 172.26 51.5114 172.114 51.529 171.961C51.5466 171.808 51.6229 171.668 51.7462 171.538C51.8636 171.415 52.0221 171.309 52.2217 171.239C52.4096 171.169 52.6326 171.127 52.8498 171.127H65.0372C65.0606 171.127 65.09 171.139 65.1135 171.151C65.1311 171.163 65.1487 171.18 65.1546 171.198L69.5751 187.001C69.5751 187.025 69.5692 187.043 69.5575 187.06C69.5399 187.078 69.5105 187.09 69.4812 187.095L61.7731 188.405L61.7379 188.41Z" fill="#B0472A"/>
<path d="M165.502 141.428V188.381C165.502 188.645 165.349 188.898 165.073 189.085C164.803 189.273 164.439 189.379 164.052 189.379H63.1483C62.7667 189.379 62.3968 189.273 62.1268 189.085C61.8567 188.898 61.7041 188.645 61.7041 188.381V141.428C61.7041 141.164 61.8567 140.912 62.1268 140.724C62.3968 140.536 62.7667 140.43 63.1483 140.43H164.052C164.439 140.43 164.803 140.536 165.073 140.724C165.349 140.912 165.502 141.164 165.502 141.428Z" fill="#E66A48"/>
<path d="M61.7041 164.905V141.428" stroke="#B0472A" stroke-width="1.76117" stroke-linecap="round" stroke-linejoin="round"/>
<path d="M61.7041 188.381V171.392" stroke="#B0472A" stroke-width="1.76117" stroke-linecap="round" stroke-linejoin="round"/>
<path d="M165.502 187.207C165.496 187.242 165.449 187.236 165.408 187.219C165.02 187.06 164.598 186.913 164.175 186.778L160.541 167.423C159.96 165.615 156.672 164.329 153.984 164.318C155.328 164.276 156.608 163.907 157.6 163.284C158.586 162.656 159.232 161.811 159.414 160.889L162.813 143.589C162.83 143.577 162.842 143.571 162.86 143.559C163.283 141.868 164.421 141.328 165.402 141.193C165.408 141.193 165.414 141.193 165.419 141.193C165.425 141.193 165.437 141.199 165.443 141.199C165.449 141.205 165.455 141.205 165.46 141.211C165.46 141.217 165.466 141.223 165.466 141.229H165.472C165.49 141.299 165.502 141.364 165.502 141.428C166.089 156.081 165.566 169.284 165.502 187.207Z" fill="#D0502D"/>
<path d="M103.104 164.323C101.795 164.323 100.527 164.629 99.5057 165.192C98.4901 165.756 97.7739 166.548 97.4921 167.429L90.8877 188.052L90.8818 188.064L91.2986 142.033L91.3045 142.05L97.4862 161.218C97.7739 162.104 98.4842 162.885 99.5057 163.454C100.527 164.018 101.795 164.323 103.104 164.323Z" fill="#D0502D"/>
<path d="M91.2949 142.033L91.3008 142.05L97.4825 161.218C97.7702 162.104 98.4805 162.885 99.502 163.455C100.523 164.018 101.791 164.323 103.101 164.323H153.711C155.102 164.323 156.447 163.977 157.497 163.343C158.548 162.715 159.223 161.84 159.411 160.889L162.81 143.588L163.174 141.739" stroke="#B0472A" stroke-width="1.76117" stroke-linecap="round" stroke-linejoin="round"/>
<path d="M103.104 164.323C101.795 164.323 100.527 164.629 99.5057 165.192C98.4901 165.756 97.7739 166.548 97.4921 167.429L90.8877 188.052L90.8818 188.064" stroke="#B0472A" stroke-width="1.76117" stroke-linecap="round" stroke-linejoin="round"/>
<path d="M164.286 187.371L164.175 186.778L160.541 167.423C159.96 165.615 156.672 164.329 153.983 164.318H153.96" stroke="#B0472A" stroke-width="1.76117" stroke-linecap="round" stroke-linejoin="round"/>
<path d="M147.185 157.766H112.15C111.974 157.766 111.809 157.719 111.686 157.631C111.557 157.543 111.486 157.425 111.486 157.308V147.299C111.486 147.175 111.557 147.064 111.686 146.976C111.809 146.894 111.974 146.841 112.15 146.841H147.185C147.356 146.841 147.526 146.894 147.655 146.976C147.778 147.064 147.849 147.175 147.849 147.299V157.308C147.849 157.425 147.778 157.543 147.655 157.631C147.526 157.719 147.356 157.766 147.185 157.766Z" fill="white"/>
<path d="M423.85 310.419L431.5 349.646L448.289 435.703C448.289 435.703 448.289 435.714 448.289 435.72C448.284 435.726 448.284 435.732 448.278 435.738C448.272 435.744 448.272 435.744 448.26 435.75C448.254 435.75 448.248 435.755 448.242 435.755H358.581C358.575 435.755 358.564 435.75 358.558 435.75C358.552 435.744 358.546 435.744 358.54 435.738C358.534 435.726 358.534 435.726 358.534 435.714C358.534 435.708 358.534 435.703 358.534 435.697L377.637 372.617L396.74 309.532L423.85 310.419Z" fill="#E66A48"/>
<path d="M377.635 372.617L394.888 314.094L396.738 309.532L423.848 310.419L424.811 314.141L431.497 349.646L377.635 372.617Z" fill="#EB3402"/>
<path d="M487.85 201.52C487.85 201.526 487.85 201.526 487.85 201.531C487.838 202.083 486.065 264.27 484.738 281.084C483.406 297.967 480.734 314.417 458.514 314.417H323.884C323.873 314.417 323.861 314.411 323.849 314.405C323.843 314.393 323.838 314.387 323.838 314.376C323.644 313.278 319.593 288.627 347.402 288.193C375.845 287.747 372.287 271.743 374.072 261.083C375.851 250.416 380.295 209.967 381.181 200.633C382.068 191.299 390.069 189.52 394.513 189.52H478.069C487.398 189.52 486.963 194.857 487.85 201.52Z" fill="#E66A48"/>
<path d="M467.848 229.528C469.586 240.999 470.332 252.594 470.073 264.194C469.968 269.706 469.14 275.178 467.608 280.467C467.619 280.42 467.59 280.514 467.608 280.467C463.733 293.3 455.139 303.75 440.292 303.75H378.07C378.07 303.75 382.514 318.415 385.408 325.084C388.296 331.752 395.852 343.969 396.738 345.971C397.625 347.973 384.739 360.418 375.405 363.307C366.07 366.195 360.957 367.528 360.071 365.972C359.184 364.416 351.629 346.857 350.073 344.192C348.517 341.527 337.046 317.006 337.046 317.006C337.046 317.006 334.61 323.639 331.469 332.428C326.579 346.118 319.998 364.945 318.513 371.303C316.071 381.746 312.29 401.078 311.844 402.634C311.398 404.19 297.179 401.078 288.291 398.636C279.403 396.188 269.177 387.523 269.846 385.744C270.509 383.965 279.403 359.743 282.291 350.409C285.18 341.081 295.4 299.077 298.512 281.078C301.629 263.079 309.625 257.748 309.625 257.748C309.625 257.748 305.404 239.074 312.513 229.299C315.266 225.507 326.479 222.114 339.171 219.39C359.214 215.075 382.96 207.032 382.96 207.032L394.29 185.076L449.403 183.521L467.848 229.528Z" fill="#2A2C45"/>
<path d="M339.167 219.495C339.173 219.501 339.173 219.507 339.184 219.513C339.19 219.518 339.202 219.518 339.214 219.518C340.229 219.36 366.811 215.251 381.846 212.632C391.521 217.781 400.972 225.436 401.594 225.935C401.606 225.947 401.612 225.947 401.624 225.947C401.636 225.947 401.647 225.947 401.653 225.935L409.344 218.245C409.35 218.245 409.355 218.239 409.367 218.233C409.373 218.233 409.379 218.227 409.391 218.233C409.402 218.239 409.402 218.245 409.408 218.245C409.42 218.25 409.42 218.262 409.42 218.268L412.731 233.273C412.731 233.279 412.737 233.291 412.743 233.297C412.749 233.297 412.754 233.303 412.76 233.308C413.318 233.52 423.82 237.512 441.409 246.858C447.866 250.222 454.148 253.938 460.2 257.983C465.038 261.288 468.085 263.9 470.01 265.873C469.852 269.213 469.441 272.536 468.771 275.811C470.891 275.395 473.174 274.127 473.292 270.745C473.292 270.745 472.194 236.332 470.538 223.957C470.538 223.945 470.539 223.933 470.544 223.921C470.55 223.916 470.556 223.91 470.562 223.91C470.562 223.91 470.574 223.91 470.58 223.91C478.875 223.123 481.857 192.831 481.857 178.859C481.857 164.858 481.71 148.314 478.857 136.526C476.298 125.971 472.505 122.343 470.949 120.341C469.394 118.339 442.002 101.526 442.002 101.526L439.272 91.041C439.272 91.0293 439.266 91.0293 439.26 91.0234C439.254 91.0175 439.248 91.0117 439.243 91.0117C438.591 90.771 423.95 85.3231 418.519 86.1919C412.966 87.0784 397.109 94.1935 397.109 94.1935C397.109 94.1935 395.26 104.408 394.814 105.078C394.368 105.747 378.511 115.668 374.96 119.003C371.402 122.337 367.181 140.63 363.63 153.075C360.072 165.521 355.622 191.522 355.622 191.522C355.622 191.522 337.846 196.629 335.181 202.635C332.592 208.458 338.809 218.902 339.167 219.495Z" fill="#97607A"/>
<path d="M410.37 184.448C409.143 184.448 408.146 183.456 408.146 182.229C408.146 181.002 409.143 180.01 410.37 180.01C411.597 180.01 412.59 181.002 412.59 182.229C412.59 183.456 411.597 184.448 410.37 184.448Z" fill="#EFAD71"/>
<path d="M335.181 202.641C336.097 200.574 338.803 198.619 341.956 196.935C341.967 196.929 341.973 196.929 341.985 196.929C341.997 196.929 342.002 196.935 342.008 196.94C345.202 199.876 348.959 204.067 348.959 207.525C348.959 213.513 342.989 217.358 342.959 217.376L339.226 219.501C339.22 219.501 339.214 219.507 339.208 219.507C339.202 219.507 339.196 219.507 339.19 219.507C339.185 219.507 339.179 219.501 339.173 219.501C339.173 219.495 339.167 219.495 339.167 219.489C338.75 218.814 332.604 208.435 335.181 202.641Z" fill="#97607A"/>
<path d="M335.181 202.641C336.096 200.574 338.803 198.619 341.955 196.935C341.967 196.929 341.973 196.929 341.985 196.929C341.996 196.929 342.002 196.935 342.008 196.94C345.202 199.876 348.959 204.067 348.959 207.525C348.959 213.478 343.053 217.311 342.959 217.37L339.184 219.519C339.184 219.519 332.515 208.635 335.181 202.641Z" fill="#7A3957"/>
<path d="M415.143 126.476C414.984 126.188 414.79 125.936 414.556 125.707L415.143 126.476Z" fill="#7A3957"/>
<path d="M393.449 136.773C393.455 136.785 393.473 136.785 393.485 136.796C394.982 136.28 396.361 135.787 397.659 135.311C403.089 129.951 407.292 127.691 413.386 126.734C413.773 126.405 414.161 126.059 414.554 125.707C411.049 121.075 391.776 132.276 393.449 136.773Z" fill="#97607A"/>
<path d="M393.449 136.773C393.455 136.785 393.473 136.785 393.485 136.796C394.982 136.28 396.361 135.787 397.659 135.311C403.089 129.951 407.292 127.691 413.386 126.734C413.773 126.405 414.161 126.059 414.554 125.707C411.049 121.075 391.776 132.276 393.449 136.773Z" fill="#7A3957"/>
<path d="M414.554 125.707C411.049 121.075 391.776 132.276 393.449 136.773" stroke="#7A3957" stroke-width="1.76117" stroke-linecap="round" stroke-linejoin="round"/>
<path d="M351.247 204.466C351.247 204.472 351.247 204.478 351.247 204.484C351.247 204.49 351.247 204.496 351.247 204.508C351.147 204.866 349.591 210.361 348.588 213.231C347.607 216.02 343.468 217.235 342.999 217.364C342.993 217.37 342.975 217.364 342.969 217.358C342.958 217.352 342.946 217.346 342.946 217.329L337.627 200.645C337.621 200.639 337.621 200.633 337.621 200.627C338.467 188.563 345.717 194.792 351.247 204.466Z" fill="#B66B35"/>
<path d="M351.206 204.473C351.223 204.478 351.229 204.484 351.235 204.496C351.247 204.508 351.247 204.52 351.241 204.531C351.088 205.071 349.573 210.414 348.587 213.232C347.607 216.02 343.468 217.235 342.998 217.364C342.993 217.37 342.975 217.37 342.969 217.364C342.957 217.353 342.946 217.347 342.946 217.335L337.65 200.721C337.644 200.71 337.644 200.704 337.644 200.692C337.65 200.686 337.656 200.68 337.662 200.674C337.662 200.663 337.674 200.663 337.68 200.663C337.686 200.663 337.697 200.663 337.703 200.663L351.206 204.473Z" fill="#694022"/>
<path d="M342.959 217.376L339.184 219.525C339.184 219.525 332.515 208.635 335.181 202.641C335.586 201.807 336.149 201.056 336.836 200.434" stroke="#7A3957" stroke-width="1.76117" stroke-linecap="round" stroke-linejoin="round"/>
<path d="M335.187 197.087C335.187 199.083 337.635 204.866 338.521 207.085C340.1 211.03 343.975 212.11 342.965 207.525V207.519L339.225 195.901C339.225 195.89 339.225 195.878 339.231 195.866C339.231 195.86 339.243 195.848 339.255 195.843C339.261 195.843 339.278 195.843 339.284 195.843C339.296 195.848 339.308 195.854 339.314 195.866L345.413 207.308C347.186 210.965 350.744 212.497 351.378 208.036C351.378 208.024 351.383 208.012 351.395 208.012C351.401 208.001 351.407 207.995 351.419 207.995C351.43 207.995 351.442 207.995 351.448 208.001C351.46 208.012 351.46 208.012 351.466 208.024C352.34 210.126 355.786 211.922 356.685 207.519C356.685 207.502 356.685 207.496 356.696 207.49C356.708 207.478 356.714 207.478 356.726 207.478C356.737 207.478 356.749 207.484 356.755 207.49C356.767 207.502 356.773 207.507 356.773 207.519C357.195 210.748 360.753 210.813 361.187 209.304C361.628 207.748 361.405 200.856 360.072 197.081C358.739 193.306 355.669 189.197 354.736 188.862C352.293 187.97 352.293 188.193 350.744 188.862C349.188 189.526 348.742 188.639 347.409 188.639C346.071 188.639 345.63 189.972 343.628 189.972C341.632 189.972 340.077 190.641 338.521 192.42C336.965 194.199 335.187 195.091 335.187 197.087Z" fill="#B66B35"/>
<path d="M340.08 209.527C341.776 211.212 343.714 210.924 342.962 207.525L339.223 195.901C339.223 195.89 339.223 195.878 339.229 195.866C339.229 195.86 339.24 195.849 339.252 195.843C339.258 195.843 339.276 195.843 339.281 195.843C339.293 195.849 339.299 195.855 339.311 195.866L345.41 207.308C346.49 209.539 348.234 210.983 349.578 210.748" stroke="#694022" stroke-width="1.76117" stroke-linecap="round" stroke-linejoin="round"/>
<path d="M392.099 31.1499C392.087 31.1499 392.075 31.1558 392.064 31.1617C392.052 31.1675 392.052 31.1793 392.046 31.1851C391.923 31.8602 390.373 40.1906 388.7 44.5759C386.956 49.1315 380.675 61.5653 383.041 75.2203C383.041 75.232 383.046 75.2379 383.052 75.2438C383.058 75.2555 383.07 75.2555 383.07 75.2555C383.082 75.2614 383.093 75.2555 383.099 75.2555C383.111 75.2555 383.111 75.2497 383.123 75.2438L385.089 72.784C385.095 72.7723 385.107 72.7723 385.113 72.7664C385.125 72.7664 385.131 72.7664 385.142 72.7723C385.154 72.7723 385.16 72.7781 385.166 72.7899C385.172 72.7958 385.172 72.8075 385.172 72.8192C384.855 74.6508 384.725 76.5118 384.796 78.3728C384.796 78.3845 384.802 78.3963 384.814 78.4022C384.819 78.4139 384.831 78.4198 384.843 78.4198C390.737 78.8542 396.255 86.1924 411.795 84.0496C426.999 81.9538 432.218 71.152 432.459 70.6413C432.465 70.6354 432.465 70.6295 432.465 70.6236C432.465 70.6178 432.465 70.606 432.459 70.606C432.072 69.6726 417.113 34.6312 392.099 31.1499Z" fill="#0D1111"/>
<path d="M434.486 92.2446L433.811 77.4684L441.736 58.5358C441.736 58.5358 448.124 57.7843 449.333 49.9941C450.542 42.2038 443.116 40.4779 443.116 40.4779C443.116 40.4779 446.304 16.5084 431.803 11.671C417.303 6.83952 405.891 7.91385 397.026 14.3597C388.167 20.8056 391.39 40.6775 391.39 45.3798C391.39 50.0763 388.972 52.63 391.39 60.4202C393.809 68.2046 399.715 80.2921 402.263 81.0964C404.816 81.9007 412.067 81.7656 412.067 81.7656L410.458 93.9823L412.877 95.8668L413.299 108.612L420.532 94.9216C420.526 94.9275 429.52 94.3874 434.486 92.2446Z" fill="#B66B35"/>
<path d="M412.889 95.861C412.883 95.8668 412.877 95.8668 412.871 95.861C412.866 95.861 412.86 95.8551 412.86 95.8492L410.476 94C410.465 93.9941 410.459 93.9882 410.459 93.9824C410.459 93.9765 410.453 93.9648 410.459 93.9589L412.055 81.7951C412.055 81.7892 412.061 81.7774 412.073 81.7716C412.073 81.7657 412.085 81.7598 412.097 81.754C412.725 81.6189 422.728 79.3881 427.436 76.8696C427.442 76.8638 427.448 76.8638 427.46 76.8638C427.466 76.8638 427.472 76.8638 427.483 76.8696C427.489 76.8696 427.495 76.8814 427.495 76.8873C427.501 76.8931 427.507 76.899 427.507 76.9107C427.237 82.8283 426.391 88.6989 424.971 94.452C424.965 94.4579 424.959 94.4696 424.959 94.4696C424.947 94.4814 424.941 94.4872 424.93 94.4872C422.446 94.8101 420.585 94.9217 420.527 94.9275L412.889 95.861Z" fill="#694022"/>
<path d="M412.061 81.7658C412.061 81.7658 422.67 79.4469 427.507 76.8286" stroke="#694022" stroke-width="1.76117" stroke-linecap="round" stroke-linejoin="round"/>
<path d="M426.566 40.9476C425.961 41.1472 423.812 38.5289 419.515 38.4644C415.218 38.3998 412.6 39.4682 411.86 39.3978C411.126 39.3332 410.316 37.12 411.261 36.7854C412.2 36.4507 416.897 35.441 420.325 36.1103C423.748 36.7854 426.366 39.0632 426.636 39.7383C426.713 39.932 426.748 40.1433 426.736 40.3488C426.718 40.5602 426.666 40.7597 426.566 40.9476Z" fill="#1B2020"/>
<path d="M403.94 37.7248C404.005 37.9244 404.204 39.668 403.94 39.7384C403.67 39.803 399.502 39.1983 396.754 39.3334C394.007 39.4625 392.257 41.2765 391.987 40.9419C391.712 40.6073 393.796 37.719 396.484 37.0438C399.167 36.3746 403.94 37.7248 403.94 37.7248Z" fill="#1B2020"/>
<path d="M416.257 49.2898C416.004 48.0335 416.539 46.8711 417.443 46.6833C418.359 46.5013 419.298 47.3701 419.544 48.6264C419.803 49.8827 419.269 51.0451 418.359 51.2271C417.449 51.4149 416.509 50.5461 416.257 49.2898Z" fill="#1B2020"/>
<path d="M398.263 48.7439C398.016 47.4935 398.544 46.3252 399.454 46.1432C400.364 45.9612 401.304 46.8301 401.556 48.0864C401.808 49.3368 401.274 50.5051 400.37 50.6929C399.46 50.869 398.515 50.0002 398.263 48.7439Z" fill="#1B2020"/>
<path d="M405.015 40.6775C405.015 40.6775 406.36 44.3701 406.829 45.4503C407.299 46.5246 406.154 48.8024 405.62 50.2817C405.08 51.7553 404.07 54.2385 403.736 55.4479C403.401 56.6631 403.601 58.4007 404.61 58.8763C405.62 59.3518 407.029 59.886 407.029 59.886" stroke="#694022" stroke-width="1.76117" stroke-linecap="round" stroke-linejoin="round"/>
<path d="M416.291 64.2422C416.291 64.2422 412.393 68.0698 406.082 66.4613" stroke="#694022" stroke-width="1.76117" stroke-linecap="round" stroke-linejoin="round"/>
<path d="M391.025 45.873C390.872 49.049 391.753 53.6222 395.428 54.6789C399.103 55.7356 401.621 54.3267 401.621 54.3267C401.621 54.3267 404.862 51.7201 404.862 45.8848" stroke="#EFAD71" stroke-width="1.76117" stroke-linecap="round" stroke-linejoin="bevel"/>
<path d="M409.781 45.791C409.781 45.791 409.523 49.8946 410.081 52.2604C410.427 53.6811 411.284 54.9198 412.499 55.7299C417.883 59.0937 429.324 56.9979 427.951 47.8927" stroke="#EFAD71" stroke-width="1.76117" stroke-linecap="round" stroke-linejoin="bevel"/>
<path d="M443.017 25.3672C446.234 25.602 449.469 25.1206 452.48 23.9582C452.598 23.9113 452.656 23.8819 452.774 23.8291C457.171 21.6981 459.308 14.5066 454.394 7.34452C449.357 -0.00543299 444.626 -2.42411 438.08 -0.2109C431.528 2.00818 430.524 8.65366 430.524 8.65366L443.017 25.3672Z" fill="#1B2020"/>
<path d="M430.906 7.20945C445.964 5.74181 451.095 15.8274 452.774 23.829C450.115 25.373 445.764 25.6607 443.011 25.373L430.524 8.65948C430.612 8.16635 430.736 7.68497 430.906 7.20945Z" fill="#0D1111"/>
<path d="M389.372 16.9135C395.988 8.70641 407.947 7.67319 408.293 7.64384C408.299 7.64384 408.311 7.64384 408.317 7.63797C408.657 7.48534 421.519 1.81436 435.298 7.51468C449.264 13.2855 451.947 39.6032 453.426 49.1371C454.899 58.6709 456.649 66.9953 452.487 75.7249C448.483 84.1257 434.147 85.3056 433.079 85.382C433.073 85.382 433.067 85.382 433.061 85.382C433.049 85.382 433.049 85.3761 433.043 85.3644C433.037 85.3644 433.032 85.3585 433.032 85.3467C433.032 85.3409 433.032 85.335 433.032 85.3291C433.29 84.2079 433.46 83.069 433.542 81.9242C433.548 81.9125 433.542 81.9007 433.536 81.8948C433.536 81.8831 433.525 81.8831 433.519 81.8772C433.507 81.8714 433.495 81.8714 433.49 81.8772C433.478 81.8772 433.472 81.8831 433.466 81.889C430.325 85.9984 424.872 85.4935 424.114 85.4055C424.102 85.3996 424.091 85.3996 424.091 85.3937C424.085 85.382 424.079 85.382 424.073 85.3702C424.067 85.3644 424.067 85.3585 424.067 85.3467C424.073 85.3409 424.079 85.3291 424.085 85.3233C424.848 84.4955 432.627 75.8129 432.756 67.1245C432.879 58.2423 432.122 40.1962 432.081 39.2393C432.081 39.2275 432.075 39.2158 432.075 39.2099C432.063 39.1982 432.051 39.1923 432.04 39.1923C410.612 36.9321 409.567 22.2851 409.526 20.2304C409.526 20.2245 409.52 20.2127 409.514 20.2069C409.508 20.1951 409.496 20.1893 409.485 20.1893C409.479 20.1893 409.461 20.1892 409.455 20.1951C409.444 20.201 409.438 20.2069 409.438 20.2186C408.933 21.4397 406.191 27.3631 399.722 30.2045C390.951 34.0497 390.247 39.5093 390.194 40.613C390.188 40.6247 390.188 40.6306 390.182 40.6423C390.176 40.6482 390.165 40.6541 390.153 40.6541C390.147 40.6541 390.135 40.6541 390.124 40.6541C390.118 40.6482 390.106 40.6365 390.1 40.6306C389.296 38.8694 383.079 24.7096 389.372 16.9135ZM448.653 48.597C449.041 42.4387 442.36 42.9025 441.779 42.9553C441.767 42.9553 441.755 42.9671 441.749 42.9671C441.744 42.9788 441.738 42.9906 441.738 43.0023C441.714 43.7655 441.303 55.0898 441.303 55.3833C441.303 55.6769 448.248 55.0487 448.653 48.597Z" fill="#1B2020"/>
<path d="M434.751 7.29175C434.933 7.36219 435.115 7.43851 435.297 7.51482C441.807 10.2094 445.87 17.3656 448.5 25.2087" stroke="#0D1111" stroke-width="1.76117" stroke-linecap="round" stroke-linejoin="round"/>
<path d="M393.533 122.654C393.932 125.009 396.744 132.64 397.63 135.253C397.636 135.27 397.648 135.294 397.66 135.311C404.675 132.717 408.92 130.55 413.387 126.734C412.213 123.946 411.186 121.105 410.311 118.21C410.088 116.878 410.534 115.099 411.42 113.543C412.307 111.988 419.422 98.6555 420.309 95.321C421.189 91.9924 417.866 87.3195 415.418 84.9889C413.217 82.8872 409.882 79.3296 407.886 81.625C407.88 81.6367 407.869 81.6426 407.863 81.6485C407.851 81.6485 407.839 81.6485 407.828 81.6426C405.004 80.2454 403.924 82.0712 403.765 82.394C403.753 82.3999 403.748 82.4117 403.73 82.4117C403.718 82.4175 403.707 82.4117 403.695 82.4117C403.337 82.1651 400.883 80.6329 399.544 82.9635C399.538 82.9694 399.533 82.9752 399.527 82.9811C399.521 82.987 399.509 82.987 399.503 82.987C396.856 82.7756 395.969 83.7736 395.306 85.6581C394.572 87.66 394.085 89.7558 393.862 91.8809C393.727 92.7615 393.891 93.6656 394.325 94.4522C394.76 95.233 395.447 95.8435 396.269 96.1899C396.28 96.1958 396.286 96.2075 396.292 96.2134C396.298 96.231 396.298 96.2369 396.298 96.2545C396.057 96.8885 393.175 104.591 392.535 108.207C391.866 111.988 392.646 117.43 393.533 122.654Z" fill="#B66B35"/>
<path d="M427.996 48.2039C428.049 48.198 428.102 48.1862 428.149 48.1569C428.196 48.1334 428.231 48.0982 428.266 48.0571L429.288 46.4896L429.317 46.472L441.728 43.0025C441.734 42.9966 441.745 42.9908 441.751 42.9908C441.751 42.979 441.757 42.9673 441.757 42.9614L441.88 41.1709C441.898 41.0711 441.857 41.0887 441.798 41.0887L430.163 42.2804C430.157 42.2804 430.151 42.2804 430.145 42.2804C429.652 42.075 425.349 40.4019 419.114 40.4019C413.197 40.4019 410.267 43.3724 409.651 44.1297C409.651 44.1355 409.639 44.1414 409.627 44.1414C409.627 44.1473 409.616 44.1473 409.61 44.1414C408.042 43.7598 406.974 43.5133 405.125 44.1121C405.113 44.1121 405.107 44.1121 405.095 44.1121C405.084 44.1121 405.084 44.1062 405.078 44.0945C404.491 43.4604 401.861 41.0124 398.28 40.6132C397.575 40.5369 396.871 40.5017 396.172 40.5017C394.288 40.5251 392.415 40.7424 390.583 41.1592C390.307 41.2179 390.096 41.259 390.014 41.2707C389.861 41.2707 389.714 41.3118 389.585 41.394C389.456 41.4762 389.35 41.5877 389.286 41.7286C388.875 42.5857 389.72 44.4936 390.742 46.02C390.777 46.0552 390.818 46.0904 390.859 46.1139C390.906 46.1433 390.959 46.155 391.012 46.155C391.094 46.1609 391.17 46.1315 391.229 46.0787C391.288 46.0259 391.329 45.9496 391.329 45.8732C391.517 44.1708 393.777 42.4155 397.252 42.4155C397.628 42.4155 397.998 42.4331 398.373 42.4683C399.589 42.5974 400.775 42.9732 401.837 43.5778C402.906 44.1825 403.833 45.0044 404.567 45.9848C404.596 46.0317 404.637 46.0787 404.69 46.1081C404.743 46.1433 404.796 46.1609 404.855 46.1668C404.896 46.1668 404.943 46.155 404.978 46.1374C405.735 45.8321 406.539 45.6854 407.35 45.6912C408.142 45.6912 408.929 45.8145 409.692 46.0552C409.715 46.067 409.739 46.067 409.762 46.067C409.903 46.067 410.009 45.9378 410.079 45.8497V45.8439C410.531 45.1511 414.406 42.0926 419.819 42.0926C419.96 42.0926 420.1 42.0926 420.247 42.0985C421.967 42.0867 423.64 42.6562 424.997 43.7246C426.347 44.7872 427.292 46.2783 427.685 47.9573C427.697 48.0219 427.732 48.0747 427.779 48.1158C427.826 48.1628 427.885 48.1921 427.944 48.198C427.961 48.2038 427.979 48.2039 427.996 48.2039Z" fill="#2A2C45"/>
<path d="M404.924 89.4855C404.924 89.4855 402.418 85.1002 399.529 82.9868" stroke="#694022" stroke-width="1.76117" stroke-linecap="round" stroke-linejoin="round"/>
<path d="M403.742 82.4351C405.856 83.9614 407.722 85.8048 409.284 87.8888" stroke="#694022" stroke-width="1.76117" stroke-linecap="round" stroke-linejoin="round"/>
<path d="M407.862 81.6543C409.94 83.2217 411.86 84.9829 413.586 86.932" stroke="#694022" stroke-width="1.76117" stroke-linecap="round" stroke-linejoin="round"/>
<path d="M399.368 91.9277L396.31 96.2133" stroke="#694022" stroke-width="1.76117" stroke-linecap="round" stroke-linejoin="round"/>
<path d="M396.482 90.1548L398.596 92.82" stroke="#694022" stroke-width="1.76117" stroke-linecap="round" stroke-linejoin="round"/>
<path d="M447.403 146.266L447.632 168.633" stroke="#7A3957" stroke-width="1.76117" stroke-linecap="round" stroke-linejoin="round"/>
<path d="M470.532 223.91L469.035 224.638C469.035 224.638 456.889 230.121 447.108 222.712C437.334 215.303 430.665 207.901 422.517 195.602C414.368 183.303 393.463 136.802 393.463 136.802C393.475 136.802 393.475 136.802 393.486 136.796C394.983 136.28 396.363 135.787 397.66 135.311C404.676 132.716 408.92 130.55 413.388 126.734C413.775 126.405 414.163 126.059 414.556 125.707L415.143 126.476L415.149 126.482L458.368 183.004" stroke="#7A3957" stroke-width="1.76117" stroke-linecap="round" stroke-linejoin="round"/>
<path d="M345.406 190.97C345.406 190.97 347.625 196.97 349.069 200.081C350.514 203.193 351.4 207.86 351.4 207.86" stroke="#694022" stroke-width="1.76117" stroke-linecap="round" stroke-linejoin="round"/>
<path d="M350.513 190.195C350.513 190.195 354.405 195.972 355.403 198.08C356.401 200.193 356.735 207.191 356.735 207.191" stroke="#694022" stroke-width="1.76117" stroke-linecap="round" stroke-linejoin="round"/>
<path d="M377.03 135.006L380.441 178.713C380.441 178.713 377.03 185.229 376.144 186.415C375.257 187.601 374.665 189.966 375.105 191.152C375.545 192.344 378.803 197.821 378.803 197.821C378.803 197.821 372.434 202.265 370.361 205.083C368.289 207.901 367.843 214.124 367.843 214.124" stroke="#7A3957" stroke-width="1.76117" stroke-linecap="round" stroke-linejoin="round"/>
<path d="M441.999 101.526L426.225 113.819L419.016 100.123" stroke="#7A3957" stroke-width="1.76117" stroke-linecap="round" stroke-linejoin="round"/>
<path d="M412.962 240.195L398.521 240.641L360.961 246.635" stroke="black" stroke-width="1.76117" stroke-linecap="round" stroke-linejoin="round"/>
<path d="M399.187 229.968L397.402 240.412" stroke="black" stroke-width="1.76117" stroke-linecap="round" stroke-linejoin="round"/>
<path d="M352.517 242.414L362.074 247.75L378.071 303.75" stroke="black" stroke-width="1.76117" stroke-linecap="round" stroke-linejoin="round"/>
<path d="M337.047 317.006C337.047 317.006 333.713 308.382 329.862 298.425C327.384 292.032 324.69 285.093 322.518 279.534C316.964 265.309 309.626 257.748 309.626 257.748" stroke="black" stroke-width="1.76117" stroke-linecap="round" stroke-linejoin="round"/>
<path d="M329.849 298.642L331.469 332.427C334.04 325.964 336.218 319.495 337.046 317.005C337.046 317.005 333.711 308.382 329.86 298.425C329.854 298.49 329.849 298.566 329.849 298.642Z" fill="black"/>
<path d="M410.414 210.983C409.157 210.983 408.142 210.191 408.142 209.216C408.142 208.242 409.157 207.449 410.414 207.449C411.67 207.449 412.685 208.242 412.685 209.216C412.685 210.191 411.67 210.983 410.414 210.983Z" fill="#EFAD71"/>
<path d="M385.772 197.375L378.81 197.821" stroke="#7A3957" stroke-width="1.76117" stroke-linecap="round" stroke-linejoin="round"/>
<path d="M438.773 91.2761C437.734 91.7751 436.413 91.9865 434.487 92.2448" stroke="#7A3957" stroke-width="1.76117" stroke-linecap="round" stroke-linejoin="round"/>
<path d="M468.777 275.782C471.958 275.342 473.673 272.735 473.279 270.64C473.209 270.229 472.769 268.708 470.039 265.902L470.009 265.873C469.857 269.201 469.44 272.518 468.777 275.782Z" fill="#97607A"/>
<path d="M468.777 275.782C471.958 275.342 473.673 272.735 473.279 270.64C473.209 270.229 472.769 268.708 470.039 265.902L470.009 265.873C469.857 269.201 469.44 272.518 468.777 275.782Z" fill="#7A3957"/>
<path d="M460.198 257.983C461.642 260.425 462.916 262.961 464.032 265.567C465.464 268.867 466.503 272.319 467.137 275.859C467.39 277.385 467.548 278.923 467.601 280.467C468.969 276.457 470.073 269.43 470.008 265.873C467.554 262.867 465.106 261.012 460.198 257.983Z" fill="black"/>
<path d="M473.279 270.64C473.208 270.229 472.768 268.708 470.038 265.902" stroke="#7A3957" stroke-width="1.76117" stroke-linecap="round" stroke-linejoin="round"/>
<path d="M407.829 81.6424C405.006 80.2453 403.925 82.071 403.767 82.3939C403.755 82.3998 403.749 82.4115 403.732 82.4115" stroke="#694022" stroke-width="1.76117" stroke-linecap="round" stroke-linejoin="round"/>
<path d="M420.31 95.321C421.197 91.9865 417.868 87.3194 415.42 84.9888" stroke="#694022" stroke-width="1.76117" stroke-linecap="round" stroke-linejoin="round"/>
<path d="M415.42 84.9889C413.218 82.8872 409.884 79.3296 407.888 81.625" stroke="#694022" stroke-width="1.76117" stroke-linecap="round" stroke-linejoin="round"/>
</g>
</g>
<defs>
<clipPath id="clip0_88_310">
<rect width="570" height="312" fill="white"/>
</clipPath>
</defs>
</svg>
