<svg width="509" height="309" viewBox="0 0 509 309" fill="none" xmlns="http://www.w3.org/2000/svg">
<g clip-path="url(#clip0_93_284)">
<path d="M485.664 165.265C485.664 166.064 485.5 166.854 485.197 167.586C484.898 168.333 484.441 169.007 483.887 169.566C483.314 170.134 482.639 170.572 481.907 170.876C481.166 171.189 480.376 171.343 479.572 171.343H266.076C264.462 171.343 262.916 170.702 261.78 169.551C260.629 168.415 259.988 166.869 259.988 165.251V6.5615C348.122 -2.49268 407.581 -1.87623 485.664 6.5615V165.265Z" fill="#FFDECC"/>
<path d="M422.318 233.008C422.313 233.003 422.309 232.998 422.304 232.993C422.304 232.988 422.304 232.979 422.304 232.974C422.371 232.661 423.185 229.203 426.344 227.445C429.653 225.601 433.833 226.887 434.272 227.614C434.705 228.341 433.713 232.035 430.366 233.721C427.149 235.339 422.66 233.176 422.318 233.008Z" fill="white"/>
<path d="M432.918 272.528C434.223 283.764 435.456 294.345 435.749 296.878C436.645 304.521 431.685 312.809 431.685 312.809H414.934C414.934 312.809 409.733 306.471 410.952 297.201C411.611 292.192 413.865 276.376 415.797 262.915C419.437 241.508 418.436 242.115 420.69 242.115C420.719 242.115 423.497 242.143 426.609 242.143C426.854 242.143 427.124 242.119 427.394 242.119C429.291 242.119 429.045 243.357 429.229 245.009C430.004 252.04 430.697 258.59 432.918 272.528Z" fill="#97607A"/>
<path d="M419.414 225.581C419.414 225.581 423.479 233.142 424.452 244.118" stroke="white" stroke-width="1.43166" stroke-linecap="round" stroke-linejoin="round"/>
<path d="M425.753 224.546C424.298 227.84 419.964 226.207 419.511 226.024C419.506 226.024 419.501 226.024 419.497 226.024C419.492 226.024 419.487 226.024 419.487 226.029C419.477 226.034 419.477 226.034 419.472 226.039C419.472 226.043 419.468 226.048 419.468 226.053C419.429 226.496 418.962 230.421 414.536 229.733C410.105 229.039 411.324 224.705 411.468 224.223C411.473 224.218 411.473 224.213 411.473 224.209C411.468 224.204 411.468 224.199 411.468 224.194C411.463 224.194 411.463 224.189 411.454 224.184C411.454 224.184 411.444 224.184 411.439 224.184C410.885 224.233 405.337 224.608 405.453 220.033C405.564 215.511 409.811 216.04 410.336 216.122C410.341 216.122 410.346 216.122 410.351 216.118C410.356 216.118 410.36 216.113 410.36 216.108C410.365 216.108 410.37 216.098 410.37 216.093C410.37 216.089 410.37 216.084 410.37 216.079C410.177 215.602 408.81 211.773 412.523 210.459C416.27 209.134 417.671 212.982 417.816 213.411C417.816 213.411 417.821 213.416 417.825 213.421C417.825 213.425 417.83 213.425 417.835 213.425C417.84 213.425 417.845 213.43 417.849 213.425C417.854 213.425 417.859 213.425 417.864 213.425C418.283 213.141 422.651 210.333 425.146 213.811C427.592 217.23 423.662 219.051 423.128 219.277C423.123 219.277 423.118 219.282 423.113 219.287C423.113 219.291 423.113 219.296 423.109 219.301C423.109 219.306 423.113 219.315 423.113 219.315C423.118 219.325 423.118 219.325 423.128 219.33C423.609 219.595 427.058 221.598 425.753 224.546Z" fill="#E66A48"/>
<path d="M415.708 222.278C414.494 222.278 413.512 221.295 413.512 220.081C413.512 218.873 414.494 217.89 415.708 217.89C416.922 217.89 417.899 218.873 417.899 220.081C417.899 221.295 416.922 222.278 415.708 222.278Z" fill="#C4005E"/>
<path d="M418.636 243.213C418.694 242.808 418.892 242.442 419.2 242.173C419.513 241.903 419.903 241.754 420.312 241.749L427.797 241.691C428.216 241.686 428.625 241.84 428.938 242.12C429.256 242.399 429.463 242.784 429.511 243.203C430.012 247.538 431.51 260.411 432.921 272.528C431.837 275.586 430.287 278.413 428.273 278.259C423.963 277.937 422.586 262.005 418.193 261.514C417.322 261.418 416.522 261.971 415.8 262.915C417.062 254.131 418.184 246.339 418.636 243.213Z" fill="#E66A48"/>
<path d="M337.843 95.6199L286.707 95.6055C285.503 95.6055 284.347 95.1239 283.494 94.2763C282.642 93.4238 282.16 92.2631 282.16 91.0591V38.8435C282.16 37.6394 282.642 36.4836 283.494 35.6311C284.347 34.7787 285.503 34.2971 286.707 34.2971L337.834 34.2778C339.047 34.2826 340.203 34.7691 341.056 35.6215C341.908 36.474 342.39 37.6346 342.39 38.8435V91.064C342.39 92.2728 341.913 93.4286 341.061 94.2811C340.208 95.1335 339.052 95.6151 337.843 95.6199Z" fill="#EFAD71"/>
<path d="M337.847 95.6342C337.838 95.6342 337.833 95.6343 337.823 95.6246C337.818 95.6198 337.813 95.615 337.813 95.6054C337.813 95.5957 337.818 95.5909 337.823 95.5813C337.833 95.5765 337.838 95.5716 337.847 95.5716C337.871 95.5716 340.38 95.4175 340.38 92.5568V39.2479C340.38 35.1398 337.866 34.3355 337.842 34.3307C337.833 34.3259 337.823 34.321 337.823 34.3162C337.818 34.3066 337.813 34.3018 337.818 34.297C337.818 34.2873 337.823 34.2825 337.828 34.2729C337.833 34.2729 337.842 34.2681 337.852 34.2681C339.061 34.2681 340.222 34.7497 341.084 35.6117C341.941 36.4642 342.422 37.6297 342.422 38.8433V91.059C342.422 92.2726 341.941 93.4381 341.079 94.2954C340.222 95.1526 339.061 95.6342 337.847 95.6342Z" fill="#554230"/>
<path d="M308.106 75.8785C308.106 77.2944 307.721 78.6814 306.989 79.8951C306.257 81.1039 305.207 82.0912 303.96 82.751C302.703 83.406 301.296 83.7094 299.885 83.6275C298.474 83.5456 297.111 83.0737 295.946 82.2742C294.78 81.4699 293.855 80.3622 293.273 79.0763C292.69 77.7856 292.473 76.3649 292.637 74.9586C292.806 73.5571 293.355 72.2231 294.226 71.1058C295.093 69.9884 296.254 69.136 297.573 68.6303C298.951 66.5016 303.247 67.3252 303.757 68.9096C304.523 69.2853 305.221 69.7813 305.823 70.3833C305.977 70.5519 307.745 71.3803 308.039 74.896C308.082 75.2235 308.101 75.551 308.106 75.8785Z" fill="#E66A48"/>
<path d="M304.036 71.8765C303.131 71.0626 301.975 70.5858 300.761 70.5232C299.548 70.4606 298.349 70.8122 297.366 71.5298C296.384 72.2426 295.671 73.2732 295.358 74.4483C295.045 75.6234 295.141 76.8708 295.637 77.9833C296.133 79.091 296.995 79.9964 298.079 80.5503C299.163 81.0993 300.405 81.263 301.595 81.0126C302.779 80.7574 303.849 80.1024 304.614 79.1584C305.38 78.2097 305.794 77.0297 305.794 75.8161C305.794 75.6571 305.785 75.5079 305.77 75.3537" stroke="#914935" stroke-width="1.43166" stroke-linecap="round" stroke-linejoin="round"/>
<path d="M319.297 47.5845C319.297 47.5845 305.927 50.6908 303.336 51.235C300.745 51.7793 299.387 55.0494 298.978 57.2262C298.679 58.8203 297.947 65.2594 297.571 68.6306C298.564 68.2502 299.628 68.0768 300.692 68.1298C301.757 68.1731 302.797 68.4428 303.755 68.91C304.251 67.0413 304.8 64.9849 305.109 63.9398C305.744 61.7629 306.197 60.949 307.651 60.766C309.106 60.583 311.105 60.6745 312.463 60.6745C313.826 60.6745 315.55 62.8562 313.826 64.2143C312.747 65.0668 308.692 68.1827 305.797 70.4029C305.778 70.4222 305.754 70.4415 305.735 70.4511C305.691 70.4848 305.643 70.5234 305.585 70.5715C305.306 70.7979 304.829 71.188 304.112 71.7948C302.835 72.8784 303.644 75.8692 306.467 75.2864C309.178 74.6074 318.449 72.2957 321.17 71.6599C323.65 71.1013 325.803 69.5842 327.166 67.4363C328.115 65.9385 330.605 61.1465 330.605 61.1465C326.998 54.929 324.18 51.8274 319.297 47.5845Z" fill="white"/>
<path d="M330.605 61.1462L334.94 57.2356C335.262 56.9418 335.464 56.5324 335.493 56.0942C335.522 55.6559 335.378 55.2225 335.094 54.8853L326.131 44.3045C325.847 43.9722 325.447 43.7603 325.009 43.7169C324.575 43.6736 324.142 43.7988 323.795 44.0685L319.297 47.5842L330.605 61.1462Z" fill="#554230"/>
<path d="M257.462 113.107C257.472 113.107 257.486 113.117 257.496 113.117C257.511 113.117 257.515 113.107 257.53 113.107C257.539 113.103 257.544 113.093 257.554 113.083C257.559 113.069 257.568 113.064 257.568 113.05C257.756 111.46 260.155 91.5171 260.858 86.8166C261.595 81.9235 260.366 75.9179 257.679 70.2831C254.982 64.6435 250.205 57.7902 247.758 55.9505C245.307 54.1156 242.61 56.3165 241.141 56.0757C239.672 55.8349 237.591 55.7097 235.997 56.8126C234.403 57.9106 233.055 57.5446 231.22 58.5223C229.38 59.4999 225.339 61.8309 223.745 64.6435C222.233 67.3116 223.813 70.4276 223.971 70.7358C223.981 70.7599 223.986 70.7743 223.981 70.7984C223.283 73.2305 222.792 75.7204 222.517 78.2392C222.392 80.941 224.964 84.3652 229.134 85.8341C232.66 87.1923 236.122 88.7382 239.489 90.4575C239.503 90.4624 239.518 90.4768 239.523 90.4913C239.532 90.5057 239.532 90.5298 239.523 90.5442L235.159 102.546C235.15 102.56 235.15 102.584 235.159 102.599C235.164 102.618 235.178 102.633 235.198 102.642L257.462 113.107Z" fill="#B76C5E"/>
<path d="M30.7084 206.77C30.7229 206.756 30.7421 206.742 30.7566 206.732C30.7614 206.727 30.7758 206.727 30.7855 206.727C30.7999 206.727 30.8047 206.732 30.8144 206.742L106.499 245.886C106.513 245.891 106.528 245.915 106.537 245.935C106.754 247.177 112.62 280.485 116.877 311.568H21.6253C21.6109 311.568 21.5916 311.558 21.5772 311.544C21.5676 311.539 21.5531 311.515 21.5531 311.5C20.0553 301.16 18.5093 290.82 17.026 281.506C11.2853 245.487 29.8126 208.533 30.7084 206.77Z" fill="#1F1C33"/>
<path d="M155.598 129.857C161.753 129.636 167.879 130.748 173.562 133.118C182.708 137.038 210.554 149.247 210.554 149.247L234.394 98.6157C234.394 98.6157 250.238 103.677 261.508 116.575C257.26 132.583 242.889 177.821 239.783 184.028C236.672 190.241 228.022 191.542 223.774 191.542C219.527 191.542 170.123 181.457 170.123 181.457C170.123 181.457 137.625 205.301 136.478 207.425C135.332 209.549 126.509 239.269 126.509 239.269C126.509 239.269 129.486 283.528 129.664 292.231C129.702 292.698 129.688 293.18 129.611 293.656C129.119 294.47 100.907 299.007 99.7656 296.387C98.629 293.772 91.5591 271.767 91.5591 271.767C91.5591 271.767 52.8476 258.865 38.149 247.437C23.4504 236.008 20.8305 231.264 20.5078 230.118C20.1851 228.972 29.822 208.393 34.5562 196.473C39.2856 184.553 79.9572 128.697 81.5898 126.082C97.0012 101.361 126.355 104.554 136.955 124.28L155.598 129.857Z" fill="#EFAD71"/>
<path d="M99.6099 295.978C99.5907 295.568 99.6822 295.154 99.8845 294.793C100.087 294.437 100.395 294.143 100.766 293.955C100.766 293.955 125.385 291.142 128.082 291.508C130.192 291.788 130.023 293.705 129.315 293.984C125.612 295.448 100.072 301.974 99.6099 295.978Z" fill="#D1833C"/>
<path d="M128.083 291.508C130.193 291.788 130.024 293.704 129.316 293.984" stroke="#D1833C" stroke-width="1.43166" stroke-linecap="round" stroke-linejoin="round"/>
<path d="M83.2523 224.498C84.8464 239.196 91.5793 271.777 91.5793 271.777C83.6328 269.682 75.9175 266.788 68.5537 263.147C70.8124 246.772 81.8557 211.644 83.2523 224.498Z" fill="#D1833C"/>
<path d="M152.499 128.211V128.22C152.658 128.654 162.136 155.494 161.977 155.985C161.823 156.457 147.158 152.045 146.18 151.752C146.166 151.742 146.151 151.742 146.137 151.752C146.122 151.757 146.108 151.766 146.098 151.781C145.776 152.238 142.939 156.101 138.942 155.494C135.017 154.882 133.186 149.541 132.931 148.732C132.931 148.722 132.922 148.708 132.917 148.703C132.907 148.693 132.893 148.689 132.883 148.689C132.869 148.679 132.864 148.679 132.849 148.679C132.835 148.689 132.825 148.689 132.82 148.693C131.982 149.334 125.197 154.444 124.734 153.37C124.248 152.243 126.588 114.885 126.69 113.243C126.69 113.223 126.699 113.209 126.714 113.194C126.718 113.19 126.733 113.175 126.747 113.175C127.552 113.011 136.861 111.162 141.234 113.348C145.756 115.612 152.345 127.931 152.499 128.211Z" fill="white"/>
<path d="M127.962 94.8641L127.958 94.8496C125.848 90.5682 124.278 86.0411 123.296 81.3647C121.745 73.8179 126.604 61.118 140.98 62.2787C140.995 62.2835 141.009 62.2787 141.024 62.269C141.038 62.2642 141.043 62.2546 141.052 62.2401C146.283 51.8471 160.822 51.3414 166.568 57.4337C166.578 57.4482 166.592 57.4578 166.611 57.4578C166.631 57.4578 166.645 57.4578 166.659 57.4434C169.01 56.0756 171.634 55.2617 174.346 55.0594C177.048 54.8619 179.769 55.2761 182.292 56.2827C191.038 59.5817 192.801 68.3325 192.888 68.7755C192.888 68.7803 192.888 68.7803 192.897 68.79C192.897 68.7996 192.902 68.7996 192.902 68.7996C193.225 68.973 198.479 71.9349 200.945 77.4107C203.488 83.0648 195.922 93.4482 185.538 93.2363C175.155 93.0196 164.425 101.78 164.555 102.632C164.694 103.48 164.203 105.883 153.68 106.447C143.152 107.015 134.392 103.34 133.048 101.501C131.719 99.6946 128.097 95.0423 127.962 94.8641Z" fill="#192532"/>
<path d="M185.202 100.6C185.197 100.615 185.197 100.629 185.202 100.643C185.211 100.658 185.216 100.672 185.231 100.682C185.828 101.034 191.386 104.487 190.48 110.401C189.57 116.358 183.184 117.702 182.572 117.813C182.567 117.818 182.548 117.818 182.534 117.832C182.529 117.842 182.519 117.856 182.519 117.871C182.303 118.761 178.97 132.16 172.107 136.966C165.027 141.932 157.423 140.997 151.595 136.899C151.581 136.889 151.566 136.884 151.542 136.889C151.528 136.889 151.513 136.899 151.499 136.913C150.916 137.559 144.737 144.417 144.232 144.918C143.702 145.447 142.642 144.917 142.32 143.858C142.002 142.808 134.72 122.008 134.58 121.613V121.603C134.508 121.463 133.001 118.636 132.779 113.387C132.779 113.372 132.779 113.358 132.765 113.348C132.76 113.334 132.75 113.329 132.736 113.319C123.874 110.102 120.821 94.2478 128.753 90.3371C136.526 86.5035 138.631 93.4194 138.717 93.718C138.717 93.7276 138.717 93.7324 138.717 93.7421C138.717 94.007 138.717 99.2854 138.823 100.73C138.924 102.214 141.039 101.578 141.366 101.159C141.674 100.73 145.017 87.7798 145.272 86.8021C145.272 86.7877 145.281 86.7732 145.296 86.7588C145.31 86.754 145.325 86.7444 145.349 86.7444C146.201 86.7829 156.094 87.0333 158.391 79.4528C158.391 79.4384 158.4 79.4239 158.405 79.4191C158.42 79.4095 158.429 79.4047 158.444 79.4047C158.458 79.3951 158.473 79.3951 158.482 79.4047C158.497 79.4047 158.511 79.4095 158.516 79.4239C165.263 86.571 175.387 83.9799 176.09 83.7921C176.099 83.7921 176.114 83.7921 176.128 83.7921C176.133 83.7969 176.148 83.8066 176.157 83.8114C176.624 84.24 182.572 89.5906 188.438 90.4431C188.453 90.4431 188.457 90.4479 188.467 90.4575C188.472 90.4623 188.481 90.472 188.491 90.4768C188.496 90.4864 188.496 90.5009 188.506 90.5057C188.506 90.5153 188.506 90.5298 188.496 90.5394L185.202 100.6Z" fill="#B76C5E"/>
<path d="M142.995 128.562C143.876 130.05 144.974 131.408 146.245 132.593C147.864 134.192 149.631 135.627 151.543 136.87C150.763 138.021 149.896 138.998 147.271 141.594C143.505 137.794 140.712 131.688 140.519 129.983C140.312 128.071 142.152 127.43 142.995 128.562Z" fill="#8D473A"/>
<path d="M162.539 106.095C161.571 105.898 160.983 104.757 161.224 103.548C161.474 102.334 162.452 101.501 163.42 101.703C164.383 101.891 164.971 103.032 164.73 104.246C164.484 105.464 163.502 106.288 162.539 106.095Z" fill="#192532"/>
<path d="M178.627 108.807C177.875 108.633 177.5 107.458 177.793 106.168C178.097 104.891 178.949 103.996 179.705 104.169C180.457 104.347 180.827 105.522 180.534 106.803C180.235 108.089 179.383 108.985 178.627 108.807Z" fill="#192532"/>
<path d="M179.033 96.8438C179.033 96.8438 175.71 101.149 174.862 102.353C174.019 103.562 174.019 106.105 174.511 107.579C175.002 109.057 177.193 114.292 177.545 116.907C177.896 119.523 172.599 119.802 172.175 119.739" stroke="#8D473A" stroke-width="1.43166" stroke-linecap="round" stroke-linejoin="round"/>
<path d="M170.057 124.078C170.057 124.078 163.935 124.088 160.121 117.745C157.973 123.154 161.821 125.932 165.905 127.18C167.446 126.375 168.853 125.33 170.057 124.078Z" fill="#FCFCFC"/>
<path d="M173.152 92.0225C173.157 92.0273 173.167 92.0418 173.171 92.0562C173.364 92.6631 172.805 95.2204 171.967 95.0037C169.93 94.2475 167.859 93.607 165.75 93.0965C162.287 92.3163 158.473 94.0886 157.832 93.3084C157.197 92.5282 160.943 89.2822 165.538 89.4219C168.278 89.4989 170.932 90.414 173.152 92.0225Z" fill="#192532"/>
<path d="M181.556 93.8721C181.541 93.8721 181.527 93.8721 181.512 93.8817C181.498 93.8865 181.493 93.901 181.484 93.9202C181.219 94.4693 180.111 97.1229 180.515 97.1952C181.695 97.2819 182.866 97.5419 183.978 97.9754C184.667 98.3992 185.25 98.9819 185.673 99.6706C185.885 99.8873 187.513 98.6785 186.805 96.4246C186.145 94.2911 182.057 93.9106 181.556 93.8721Z" fill="#192532"/>
<path d="M129.856 93.0195C129.856 93.0195 134.234 95.6395 134.663 99.5164C130.848 102.767 133.252 105.874 133.252 105.874" stroke="#8D473A" stroke-width="1.43166" stroke-linecap="round" stroke-linejoin="round"/>
<path d="M185.187 101.453L182.755 116.753" stroke="#8D473A" stroke-width="1.43166" stroke-linecap="round" stroke-linejoin="round"/>
<path d="M151.543 136.87C151.543 136.87 146.361 133.311 143.318 128.793" stroke="#8D473A" stroke-width="1.43166" stroke-linecap="round" stroke-linejoin="round"/>
<path d="M128.045 291.494C128.06 291.494 128.069 291.504 128.084 291.508C128.093 291.508 128.098 291.518 128.108 291.523L131.243 295.756C131.253 295.766 131.257 295.771 131.267 295.78C131.282 295.785 131.286 295.785 131.296 295.785C131.884 295.877 140.755 297.134 145.84 297.134C151.109 297.134 153.681 301.174 157.727 306.318C161.767 311.461 162.133 312.689 162.499 314.645C162.87 316.6 159.865 317.804 157.308 315.449C157.298 315.439 157.283 315.43 157.274 315.425C157.259 315.425 157.255 315.425 157.24 315.425C157.23 315.425 157.216 315.43 157.211 315.439C157.202 315.449 157.197 315.454 157.187 315.464C155.945 317.775 152.997 317.087 151.413 315.439C151.403 315.43 151.398 315.425 151.389 315.425C151.374 315.415 151.365 315.415 151.35 315.415C151.345 315.415 151.331 315.425 151.321 315.425C151.316 315.43 151.307 315.439 151.302 315.449C150.912 315.96 150.421 316.388 149.852 316.696C149.289 317.005 148.663 317.183 148.017 317.226C147.367 317.27 146.731 317.173 146.125 316.947C145.523 316.711 144.974 316.359 144.526 315.897C144.516 315.887 144.502 315.883 144.497 315.883C144.482 315.873 144.468 315.873 144.458 315.883C140.201 316.851 138.978 317.091 136.651 315.011C135.486 313.932 134.219 312.954 132.88 312.087C132.876 312.083 132.861 312.083 132.852 312.083C132.837 312.073 132.832 312.083 132.823 312.083C132.163 312.295 121.168 315.748 115.706 315.873C113.51 315.931 111.343 315.353 109.474 314.197C107.601 313.041 106.108 311.375 105.174 309.386C103.883 306.563 101.008 294.928 100.781 294.008C100.772 293.984 100.781 293.969 100.786 293.955C100.796 293.941 100.801 293.926 100.815 293.921C101.514 293.599 108.983 290.333 128.045 291.494Z" fill="#B76C5E"/>
<path d="M122.942 149.782C122.942 149.782 124.411 200.736 124.652 203.433C124.898 206.13 126.511 239.269 126.511 239.269" stroke="#D1833C" stroke-width="1.43166" stroke-linecap="round" stroke-linejoin="round"/>
<path d="M74.8008 170.972C74.8008 170.972 80.6812 174.522 80.556 179.054C80.4308 183.59 81.2928 215.068 82.0249 225.355C82.7617 235.647 91.5607 271.767 91.5607 271.767" stroke="#D1833C" stroke-width="1.43166" stroke-linecap="round" stroke-linejoin="round"/>
<path d="M60.4677 200.244L79.3273 186.774" stroke="#D1833C" stroke-width="1.43166" stroke-linecap="round" stroke-linejoin="round"/>
<path d="M170.125 181.457L193.006 175.504" stroke="#D1833C" stroke-width="1.43166" stroke-linecap="round" stroke-linejoin="round"/>
<path d="M136.229 207.998C136.229 207.998 128.326 214.206 125.879 218.377" stroke="#D1833C" stroke-width="1.43166" stroke-linecap="round" stroke-linejoin="round"/>
<path d="M224.498 70.3647L225.182 69.3871C225.182 69.3871 228.038 65.2982 229.834 67.0995C231.626 68.9007 231.139 71.3472 230.566 72.5657C230.094 73.683 229.685 74.8292 229.338 75.9995L243.96 79.3515" stroke="#8D473A" stroke-width="1.43166" stroke-linecap="round" stroke-linejoin="round"/>
<path d="M247.804 65.5488L243.715 65.7896" stroke="#8D473A" stroke-width="1.43166" stroke-linecap="round" stroke-linejoin="round"/>
<path d="M245.917 65.9531C245.917 65.9531 247.877 70.774 246.326 72.9798C244.775 75.1855 243.224 74.6895 240.369 75.1036C237.508 75.513 231.873 75.9994 231.873 75.9994" stroke="#8D473A" stroke-width="1.43166" stroke-linecap="round" stroke-linejoin="round"/>
<path d="M240.404 56.5957L239.306 57.7901C238.068 59.1338 236.951 60.5786 235.954 62.1149C234.644 64.2388 235.54 66.6902 236.113 67.7545C236.686 68.8189 241.025 74.3092 241.025 74.3092" stroke="#8D473A" stroke-width="1.43166" stroke-linecap="round" stroke-linejoin="round"/>
<path d="M231.714 59.2593C230.986 60.3381 230.355 61.4939 229.835 62.6883C229.296 63.8297 229.118 65.1156 229.339 66.363" stroke="#8D473A" stroke-width="1.43166" stroke-linecap="round" stroke-linejoin="round"/>
<path d="M231.38 72.2432L232.931 74.0396" stroke="#8D473A" stroke-width="1.43166" stroke-linecap="round" stroke-linejoin="round"/>
<path d="M210.556 149.247C210.556 149.247 215.295 158.109 215.545 161.292" stroke="#D1833C" stroke-width="1.43166" stroke-linecap="round" stroke-linejoin="round"/>
<path d="M221.54 150.518C221.54 150.518 215.544 148.452 211.966 148.452" stroke="#D1833C" stroke-width="1.43166" stroke-linecap="round" stroke-linejoin="round"/>
<path d="M132.882 312.087L128.697 309.265L122.205 313.864" stroke="#8D473A" stroke-width="1.43166" stroke-linecap="round" stroke-linejoin="round"/>
<path d="M128.819 301.666C135.923 303.115 140.195 307.753 144.125 314.982" stroke="#8D473A" stroke-width="1.43166" stroke-linecap="round" stroke-linejoin="round"/>
<path d="M138.741 299.585C146.018 304.252 147.767 307.305 151.123 314.601" stroke="#8D473A" stroke-width="1.43166" stroke-linecap="round" stroke-linejoin="round"/>
<path d="M147.926 299.585C152.197 303.741 155.357 308.904 157.115 314.601" stroke="#8D473A" stroke-width="1.43166" stroke-linecap="round" stroke-linejoin="round"/>
<path d="M79.5762 273.737L75.9834 278.963C75.9834 278.963 76.3494 293.758 76.6817 311.567" stroke="#0C0A19" stroke-width="1.43166" stroke-linecap="round" stroke-linejoin="round"/>
<path d="M39.4786 251.367L30.3377 261.163" stroke="#0C0A19" stroke-width="1.43166" stroke-linecap="round" stroke-linejoin="round"/>
<path d="M99.6099 295.978C99.5907 295.559 99.6822 295.154 99.8845 294.793C100.087 294.437 100.395 294.143 100.766 293.955" stroke="#D1833C" stroke-width="1.43166" stroke-linecap="round" stroke-linejoin="round"/>
<path d="M422.23 39.1714V39.1666C422.23 39.051 422.274 34.8514 425.399 33.9749C428.429 33.1273 431.458 35.5208 431.723 35.7376C431.723 35.7424 431.733 35.7424 431.737 35.7424C431.747 35.7472 431.752 35.7424 431.757 35.7376C432.05 35.5594 435.383 33.5944 437.565 36.2577C439.708 38.8776 439.169 41.3868 439.091 41.6758C439.091 41.6854 439.091 41.695 439.096 41.6998C439.101 41.7095 439.106 41.7143 439.116 41.7191C439.356 41.8154 441.129 42.6053 441.369 44.4931C441.49 45.7742 441.182 47.0649 440.488 48.1534C440.488 48.1582 440.488 48.163 440.483 48.1678C440.483 48.1726 440.483 48.1774 440.488 48.1871C440.58 48.4279 441.644 51.3079 439.337 53.4896C437.112 55.599 435.104 54.997 434.815 54.8958C434.81 54.8958 434.8 54.8958 434.8 54.8958C434.791 54.8958 434.791 54.8958 434.786 54.8958C434.781 54.9007 434.776 54.9055 434.776 54.9055C434.772 54.9103 434.771 54.9151 434.771 54.9199C434.56 55.7724 434.117 56.5526 433.495 57.1738C432.869 57.7951 432.084 58.2286 431.227 58.426C428.26 59.1725 424.566 54.9633 424.393 54.761C424.388 54.7562 424.388 54.7514 424.388 54.7465L422.23 39.1714Z" fill="#1E2430"/>
<path d="M415.411 171.338H407.224L398.141 169.58C398.136 169.58 398.136 169.58 398.131 169.58C398.126 169.575 398.126 169.57 398.126 169.57C398.122 169.561 398.122 169.561 398.122 169.556C398.122 169.551 398.122 169.546 398.126 169.541L406.208 151.52C406.217 151.505 406.217 151.481 406.208 151.462L396.099 127.863C396.089 127.844 396.084 127.825 396.08 127.801L393.725 104.385C393.725 104.375 393.725 104.361 393.725 104.351C393.729 104.342 393.734 104.337 393.744 104.327L402.899 94.2135C402.909 94.199 402.923 94.1798 402.933 94.1605L403.545 93.0913C403.545 93.0865 403.549 93.0769 403.554 93.0673C403.559 93.0576 403.569 93.0432 403.569 93.0335L404.869 88.6461C404.874 88.6365 404.879 88.6365 404.883 88.6269C405.153 88.4487 410.793 84.7451 414.429 84.7451C414.511 84.7451 414.588 84.7499 414.665 84.7547C418.248 84.9137 423.864 84.7644 424.278 84.7547C424.283 84.7547 424.287 84.7547 424.297 84.7644C424.302 84.7644 424.307 84.7692 424.311 84.774C424.408 85.0389 425.356 87.5384 426.377 89.0796C426.628 89.5034 426.951 89.8646 427.341 90.1584C428.67 90.9915 435.379 95.8943 435.615 96.0677L435.624 96.0821L458.92 141.666C458.934 141.685 458.944 141.709 458.944 141.729C458.944 141.729 450.66 169.325 415.411 171.338Z" fill="white"/>
<path d="M465.825 160.068C464.938 161.585 462.275 164.754 462.275 164.754C462.275 164.754 463.773 167.933 465.329 171.295C465.333 171.299 465.333 171.304 465.333 171.309C465.333 171.319 465.333 171.319 465.329 171.328C465.324 171.328 465.319 171.333 465.314 171.338C465.309 171.338 465.304 171.338 465.3 171.338H415.405C415.482 171.174 415.559 171.006 415.641 170.837C416.908 168.179 417.669 162.476 416.908 160.068C416.147 157.66 415.892 154.236 415.892 154.236L416.147 151.703C416.402 149.17 416.527 120.398 417.033 114.571C417.539 108.744 417.163 104.689 418.935 100.128C419.576 98.4806 420.78 96.5205 422.051 94.6904C423.747 92.2438 425.577 90.0285 426.376 89.0797C426.641 88.7666 426.795 88.5933 426.795 88.5933C426.795 88.5933 445.424 98.4806 447.196 101.139C448.968 103.798 451.126 109.375 452.393 111.653C453.659 113.935 463.922 140.043 465.189 142.832C466.455 145.615 466.711 158.546 465.825 160.068Z" fill="#EFAD71"/>
<path d="M407.225 171.338H393.788C393.783 171.338 393.778 171.338 393.768 171.338C393.768 171.333 393.759 171.328 393.759 171.328C393.759 171.319 393.754 171.319 393.754 171.309C393.754 171.304 393.754 171.299 393.759 171.295C396.441 165.862 403.405 152.266 403.612 151.236C403.853 150.027 398.204 138.372 397.694 137.322C397.689 137.317 397.684 137.312 397.679 137.312C397.674 137.308 397.665 137.303 397.66 137.303C397.65 137.308 397.645 137.312 397.641 137.312C397.631 137.317 397.631 137.322 397.631 137.332C397.198 138.69 391.307 157.034 387.772 160.694C384.098 164.499 380.804 168.93 378.015 168.554C375.227 168.174 368.258 164.754 366.736 163.608C365.238 162.481 345.049 128.817 344.519 127.931C344.519 127.931 344.515 127.921 344.515 127.916C344.515 127.907 344.519 127.902 344.519 127.897C344.731 127.57 347.809 122.758 350.01 121.41C352.293 120.018 356.324 119.874 356.324 119.874L376.243 143.588C376.243 143.588 387.016 114.566 388.028 112.664C389.044 110.766 389.68 103.417 390.816 102.02C391.958 100.629 401.84 94.7963 401.84 94.7963L403.555 93.0674H403.559C403.531 93.2263 403.083 95.7499 402.591 97.5897C402.086 99.492 401.831 114.826 402.977 120.148C404.118 125.47 408.929 151.072 409.44 154.872C409.811 157.66 408.14 166.705 407.225 171.338Z" fill="#EFAD71"/>
<path d="M350.551 121.925L349.068 122.142C346.477 123.519 344.733 127.406 344.512 127.916C344.512 127.921 344.512 127.931 344.512 127.931C344.512 127.941 344.512 127.945 344.517 127.95C344.521 127.955 344.526 127.96 344.531 127.96C344.536 127.965 344.545 127.965 344.55 127.965C345.6 127.729 346.626 127.377 347.604 126.91C348.437 126.544 349.429 126.062 350.633 125.388C353.421 122.85 350.551 121.925 350.551 121.925Z" fill="#EC7204"/>
<path d="M350.551 121.925L349.068 122.142C346.477 123.519 344.733 127.406 344.512 127.916C344.512 127.921 344.512 127.931 344.512 127.931C344.512 127.941 344.512 127.945 344.517 127.95C344.521 127.955 344.526 127.96 344.531 127.96C344.536 127.965 344.545 127.965 344.55 127.965C345.6 127.729 346.626 127.377 347.604 126.91C348.437 126.544 349.429 126.062 350.633 125.388C353.421 122.85 350.551 121.925 350.551 121.925Z" fill="#EC7204"/>
<path d="M405.724 79.6065C405.728 79.6065 405.733 79.6065 405.738 79.6065C405.743 79.6065 405.748 79.6065 405.748 79.6113C405.753 79.6162 405.757 79.6161 405.757 79.621C405.757 79.6258 405.762 79.6258 405.762 79.6354L406.143 83.9843L406.518 88.1791C406.518 88.1887 406.523 88.1984 406.528 88.208C406.538 88.208 406.542 88.2128 406.552 88.2128H407.631C407.64 88.2176 407.65 88.2176 407.655 88.2224C407.664 88.2273 407.669 88.2369 407.674 88.2465L410.819 96.0389C410.824 96.0582 410.833 96.0582 410.838 96.0389L412.09 88.7522C412.095 88.7426 412.095 88.7329 412.105 88.7233C412.11 88.7185 412.119 88.7137 412.129 88.7089L421.443 85.3087C421.453 85.3039 421.458 85.2991 421.463 85.2895C421.467 85.2798 421.467 85.2702 421.463 85.2654L417.682 71.6552C417.682 71.6456 417.682 71.6408 417.682 71.6359C417.687 71.6311 417.687 71.6263 417.692 71.6215C417.966 71.3036 422.951 65.4714 425.787 58.936C428.701 52.2176 423.63 38.4052 417.927 36.8833C412.225 35.3614 402.088 37.2637 397.271 40.3075C395.918 41.1696 394.859 42.4218 394.228 43.9003C392.744 47.2185 392.976 51.2977 392.711 52.9785C392.33 55.3866 390.558 58.5555 390.177 60.5831C389.792 62.6107 390.428 68.0576 391.694 72.368C392.961 76.6784 396.13 79.4669 398.413 79.9725C400.58 80.459 405.266 79.6836 405.724 79.6065Z" fill="#786356"/>
<path d="M397.79 55.7766C397.761 56.6772 397.64 57.573 397.433 58.4495C396.258 60.1929 394.274 62.7454 391.129 61.1513C390.599 60.9008 390.118 60.5541 389.718 60.1303C389.718 60.1303 388.552 59.2778 388.394 55.5358C388.273 52.6943 389.299 51.0183 389.8 50.373C389.872 50.2814 389.968 50.1996 390.074 50.1466C390.185 50.0936 390.305 50.0647 390.426 50.0599C393.012 50.0358 395.208 51.341 395.96 52.2127C396.745 53.1277 397.79 55.7766 397.79 55.7766Z" stroke="white" stroke-width="1.43166" stroke-linecap="round" stroke-linejoin="round"/>
<path d="M356.323 119.873C356.323 119.878 356.323 119.888 356.323 119.893C356.323 119.902 356.323 119.912 356.318 119.912C354.165 122.339 350.751 126.337 347.601 126.91C347.591 126.91 347.582 126.91 347.577 126.91C347.567 126.905 347.567 126.895 347.562 126.89L343.165 117.133C343.16 117.123 343.156 117.119 343.151 117.119C343.146 117.114 343.136 117.109 343.127 117.114C342.616 117.186 334.371 118.361 333.268 117.995C332.127 117.615 326.044 115.587 324.397 114.951C322.75 114.32 318.189 111.532 318.189 110.646C318.189 109.866 319.966 110.366 320.381 110.492C320.39 110.497 320.395 110.497 320.4 110.492C320.409 110.492 320.414 110.487 320.419 110.482C320.424 110.477 320.424 110.468 320.424 110.463C320.424 110.453 320.424 110.448 320.419 110.444C320.14 109.991 318.748 107.703 319.201 107.352C320.477 106.08 323.511 110.217 323.636 110.391C323.636 110.391 323.641 110.395 323.646 110.395L325.341 111.431C325.356 111.44 325.36 111.436 325.351 111.421L323.424 108.83V108.825C323.376 108.739 321.782 105.825 322.5 104.693V104.688C322.87 104.202 324.431 105.738 325.678 107.795C325.683 107.804 325.693 107.804 325.702 107.809C325.707 107.814 325.712 107.814 325.726 107.809C325.731 107.804 325.736 107.8 325.741 107.795C325.746 107.785 325.746 107.78 325.746 107.771C325.071 104.934 325.813 104.708 326.555 105.449C327.311 106.205 331.202 110.598 331.246 110.641C331.27 110.67 332.522 112.163 333.524 112.038C334.472 111.917 337.526 109.586 337.921 109.283C337.921 109.278 337.925 109.273 337.93 109.268C337.93 109.264 337.93 109.259 337.93 109.254C337.93 109.244 337.93 109.244 337.925 109.235C337.921 109.235 337.921 109.23 337.911 109.225C337.391 108.96 332.695 106.49 331.496 104.814C330.229 103.041 332.002 102.406 333.398 102.911C334.795 103.417 338.845 105.319 342.52 106.21C346.195 107.096 347.336 106.841 348.477 108.363C349.585 109.842 355.976 119.363 356.323 119.873Z" fill="#786356"/>
<path d="M426.921 163.743C426.921 163.743 428.785 168.135 429.372 168.053C429.642 168.015 429.854 166.888 430.076 165.144C430.336 163.093 430.485 160.776 430.302 160.362C429.965 159.606 426.584 161.971 426.584 161.971L426.921 163.743Z" fill="#EC7204"/>
<path d="M426.921 163.743C426.921 163.743 428.785 168.135 429.372 168.053C429.642 168.015 429.854 166.888 430.076 165.144C430.336 163.093 430.485 160.776 430.302 160.362C429.965 159.606 426.584 161.971 426.584 161.971L426.921 163.743Z" fill="#EC7204"/>
<path d="M427.694 155.642C427.69 155.637 427.69 155.637 427.685 155.633C427.68 155.633 427.675 155.633 427.67 155.633L423.004 155.758C422.999 155.758 422.994 155.758 422.984 155.758C422.652 155.536 412.832 149.155 411.464 148.288C410.072 147.397 404.495 146.766 400.946 147.527C397.401 148.288 396.005 149.555 395.244 149.935C395.027 150.036 394.849 150.195 394.714 150.393C394.579 150.59 394.497 150.821 394.483 151.057C394.483 151.062 394.483 151.072 394.478 151.072C394.478 151.081 394.473 151.081 394.468 151.086C393.693 151.65 393.346 152.584 394.781 152.844C395.542 152.95 396.313 152.993 397.084 152.964C397.093 152.964 397.098 152.964 397.103 152.969C397.112 152.974 397.117 152.984 397.117 152.993C397.117 152.998 397.117 153.008 397.112 153.017C397.103 153.022 397.098 153.027 397.088 153.027C393.924 153.562 394.806 154.795 395.932 155.031C397.257 155.31 399.361 155.295 400.291 155.271C400.301 155.271 400.305 155.271 400.315 155.281C400.32 155.281 400.325 155.295 400.325 155.3C400.325 155.31 400.325 155.32 400.32 155.329C400.315 155.334 400.305 155.339 400.296 155.339C399.477 155.503 397.854 155.907 397.758 156.572C397.633 157.458 400.065 158.045 403.609 158.045C407.154 158.045 407.794 158.431 410.578 159.823C413.367 161.214 416.155 163.622 419.199 164.128C422.141 164.619 429.568 165.115 430.054 165.144C430.059 165.149 430.064 165.144 430.074 165.139C430.078 165.139 430.083 165.13 430.088 165.125C430.632 163.478 430.695 161.715 430.276 160.034C429.847 158.354 428.956 156.832 427.694 155.642Z" fill="#786356"/>
<path d="M429.557 53.5756C429.557 53.932 429.523 54.2836 429.461 54.6303C428.95 57.2888 427.727 56.4893 427.347 60.6697C427.159 62.7598 426.48 64.0987 425.647 65.0619C424.813 66.0251 423.816 66.6079 422.993 67.1762C421.447 68.2453 418.119 71.2409 417.714 71.5973C417.714 71.6021 417.705 71.6069 417.7 71.6069C417.695 71.6118 417.69 71.6118 417.686 71.6069C417.681 71.6069 417.676 71.6021 417.671 71.5973C417.671 71.5925 417.666 71.5877 417.662 71.5829C417.454 70.9375 417.373 70.2584 417.416 69.5842C417.546 68.698 419.318 67.1762 420.585 65.5291C421.851 63.8772 422.738 61.3439 422.993 59.1911C423.214 57.3129 420.859 54.7315 417.594 57.414C417.084 57.8427 416.621 58.3243 416.212 58.854C416.207 58.854 416.202 58.8588 416.197 58.8636C416.188 58.8636 416.183 58.8636 416.173 58.8636C416.169 58.8588 416.164 58.854 416.159 58.8492C416.154 58.8444 416.149 58.8396 416.149 58.8299C416.188 58.4447 416.173 58.0497 416.12 57.6645C415.619 54.8422 412.219 55.4732 411.208 53.1133C410.067 50.45 412.6 48.8029 411.208 46.2697C409.816 43.7412 403.507 45.8796 401.966 41.863C401.966 41.8533 401.956 41.8437 401.947 41.8389C401.942 41.8389 401.932 41.8389 401.927 41.8389C400.964 42.1134 394.819 43.7412 394.27 43.8905C394.265 43.8905 394.26 43.8905 394.256 43.8905C394.251 43.8905 394.246 43.8857 394.241 43.8857C394.236 43.8857 394.231 43.8809 394.231 43.8761C394.231 43.8713 394.227 43.8664 394.227 43.8616V43.8568C394.135 42.4265 395.647 38.275 398.157 37.3937C399.428 36.9506 400.41 36.6616 401.297 36.3149C402.221 35.9633 403.088 35.4721 403.864 34.8556C405.636 33.4638 408.044 32.4476 410.577 32.5776C412.094 32.6643 413.525 33.2856 414.623 34.3355V34.3403L414.632 34.3451C414.642 34.3499 414.647 34.3499 414.651 34.3451H414.656C414.965 34.244 418.437 33.1604 421.221 34.7352C422.054 35.1976 422.738 35.8718 423.21 36.6953C423.677 37.5189 423.913 38.4532 423.884 39.402C423.884 39.4212 423.884 39.4309 423.903 39.4357C425.507 40.4567 426.846 41.8437 427.814 43.4812C429.283 46.0481 428.392 49.2026 428.324 49.429V49.4338C428.319 49.4338 428.319 49.4386 428.319 49.4386C428.319 49.4386 428.319 49.4386 428.324 49.4434V49.4483C429.085 50.6908 429.504 52.1164 429.557 53.5756Z" fill="#1E2430"/>
<path d="M422.884 36.1943C423.563 37.1238 423.91 38.2508 423.881 39.4018C423.881 39.4211 423.881 39.4307 423.895 39.4355C425.499 40.4565 426.838 41.8436 427.806 43.481C429.275 46.0432 428.384 49.2025 428.316 49.424V49.4288C428.311 49.4337 428.311 49.4337 428.311 49.4385C428.311 49.4385 428.311 49.4385 428.316 49.4433C429.077 50.6907 429.501 52.121 429.554 53.5803C429.554 53.9319 429.52 54.2834 429.458 54.6302C429.125 56.364 428.49 56.6288 427.984 57.751" stroke="#161A22" stroke-width="1.43166" stroke-linecap="round" stroke-linejoin="round"/>
<path d="M409.818 77.8248C408.532 78.5664 407.174 79.1588 405.758 79.5971C405.806 81.0708 405.936 82.53 406.143 83.9845C407.911 82.3663 410.439 79.9342 411.084 78.9662C412.096 77.4395 411.72 76.6785 409.818 77.8248Z" fill="#614D42"/>
<path d="M409.818 77.8247C408.532 78.5664 407.174 79.1588 405.758 79.597" stroke="#554135" stroke-width="1.43166" stroke-linecap="round" stroke-linejoin="round"/>
<path d="M325.794 107.982C325.794 107.982 328.496 112.798 329.849 113.728C331.198 114.657 331.79 115.081 331.79 115.081" stroke="#554135" stroke-width="1.43166" stroke-linecap="round" stroke-linejoin="round"/>
<path d="M325.368 111.445C325.368 111.445 327.964 115.361 328.638 116.295" stroke="#554135" stroke-width="1.43166" stroke-linecap="round" stroke-linejoin="round"/>
<path d="M320.469 110.521L323.647 114.427" stroke="#554135" stroke-width="1.43166" stroke-linecap="round" stroke-linejoin="round"/>
<path d="M333.225 112.207L335.507 112.968L342.52 109.673" stroke="#554135" stroke-width="1.43166" stroke-linecap="round" stroke-linejoin="round"/>
<path d="M400.294 155.339C402.774 155.089 405.274 155.132 407.744 155.464" stroke="#554135" stroke-width="1.43166" stroke-linecap="round" stroke-linejoin="round"/>
<path d="M397.089 153.027C397.089 153.027 400.229 152.083 402.001 152.001C403.412 151.972 404.823 152.025 406.225 152.17" stroke="#554135" stroke-width="1.43166" stroke-linecap="round" stroke-linejoin="round"/>
<path d="M394.482 151.072C394.482 151.072 398.533 149.3 400.984 149.045C402.703 148.905 404.428 148.934 406.142 149.127" stroke="#554135" stroke-width="1.43166" stroke-linecap="round" stroke-linejoin="round"/>
<path d="M393.129 48.933C393.129 48.933 393.129 48.9282 393.134 48.9233C393.481 48.4225 396.255 48.2539 397.353 48.5043C397.917 48.6199 398.461 48.8463 398.938 49.169C398.942 49.1738 398.947 49.1786 398.952 49.1834C398.952 49.193 398.952 49.1978 398.952 49.2075L398.548 50.6571C398.548 50.6571 398.543 50.6668 398.543 50.6716C398.533 50.6716 398.533 50.6764 398.523 50.6812H398.514C398.504 50.6812 398.499 50.6764 398.495 50.6716C398.254 50.4837 396.958 49.4964 395.663 49.2653L394.232 49.01C394.228 49.01 394.223 49.01 394.213 49.01L392.99 49.4194C392.971 49.429 392.961 49.4146 392.971 49.4001L393.129 48.933Z" fill="#1E2430"/>
<path d="M402.927 52.7285C402.927 52.9837 404.362 52.897 405.884 53.4075C407.338 53.8939 409.337 56.0034 409.505 56.1816C409.51 56.1864 409.515 56.1912 409.515 56.1912C409.525 56.1912 409.53 56.1912 409.534 56.1912L410.146 56.1141H410.156C410.165 56.1093 410.165 56.1045 410.17 56.0997C410.17 56.0901 410.175 56.0901 410.175 56.0804C410.17 56.0756 410.17 56.0708 410.165 56.066C409.934 55.6807 408.21 52.8585 406.558 52.3095C404.945 51.7701 403.259 51.2307 402.97 51.144C402.96 51.1392 402.96 51.1392 402.951 51.1392C402.951 51.144 402.941 51.144 402.941 51.144C402.936 51.1488 402.932 51.1536 402.932 51.1584C402.927 51.1632 402.927 51.1681 402.927 51.1777V52.7285Z" fill="#1E2430"/>
<path d="M398.788 52.8965C398.788 52.8965 399.294 56.3592 399.212 56.9516C399.15 57.4139 398.172 58.6324 397.103 59.5475C396.809 59.8075 396.501 60.0387 396.168 60.2506C395.34 60.7659 394.704 61.315 394.454 61.8977C394.367 62.0759 394.329 62.2733 394.333 62.4708C394.338 62.6683 394.386 62.8609 394.483 63.0343C394.988 64.0505 396.255 64.7247 396.255 64.7247" stroke="#554135" stroke-width="1.43166" stroke-linecap="round" stroke-linejoin="round"/>
<path d="M432.5 93.1973C432.5 93.1973 431.32 99.6171 431.147 100.797C430.978 101.982 431.065 108.575 430.81 109.842C430.555 111.103 420.33 124.372 420.33 124.372C420.33 124.372 425.146 131.384 425.315 131.808C425.483 132.231 426.076 132.992 425.401 134.09C424.722 135.188 416.81 146.4 416.81 146.4" stroke="#EF8829" stroke-width="1.43166" stroke-linecap="round" stroke-linejoin="round"/>
<path d="M399.998 96.2993C399.998 96.2993 394.738 115.25 394.652 116.093C394.57 116.936 394.994 117.273 395.837 118.208C396.679 119.137 400.821 123.361 400.821 123.361C400.821 123.361 397.777 131.384 397.522 132.063C397.267 132.738 397.777 134.178 398.452 134.765C399.16 135.386 406.928 145.365 407.4 145.977" stroke="#EF8829" stroke-width="1.43166" stroke-linecap="round" stroke-linejoin="round"/>
<path d="M435.033 121.333C435.033 121.333 439.257 128.596 440.018 130.455C440.779 132.314 441.371 134.51 441.458 135.608C441.54 136.706 441.877 138.396 442.975 139.668C444.078 140.934 445.85 143.549 446.442 144.31C447.03 145.071 447.117 149.295 447.117 149.295" stroke="#EF8829" stroke-width="1.43166" stroke-linecap="round" stroke-linejoin="round"/>
<path d="M450.662 147.691C450.662 147.691 448.129 149.55 445.596 150.311C443.063 151.072 427.579 155.633 427.579 155.633" stroke="#EF8829" stroke-width="1.43166" stroke-linecap="round" stroke-linejoin="round"/>
<path d="M376.402 143.973L380.202 148.197" stroke="#EF8829" stroke-width="1.43166" stroke-linecap="round" stroke-linejoin="round"/>
<path d="M429.373 168.054L462.276 164.755" stroke="#EF8829" stroke-width="1.43166" stroke-linecap="round" stroke-linejoin="round"/>
<path d="M397.654 137.25C397.654 137.25 393.132 132.569 392.79 130.03C392.453 127.497 392.833 118.756 392.833 118.756L391.249 115.144" stroke="#EF8829" stroke-width="1.43166" stroke-linecap="round" stroke-linejoin="round"/>
<path d="M407.376 88.6079L403.86 96.6652" stroke="#F7F7F7" stroke-width="1.43166" stroke-linecap="round" stroke-linejoin="round"/>
<path d="M410.022 104.823C410.706 104.823 411.255 104.274 411.255 103.59C411.255 102.911 410.706 102.357 410.022 102.357C409.343 102.357 408.794 102.911 408.794 103.59C408.794 104.274 409.343 104.823 410.022 104.823Z" fill="#FFAFC2"/>
<path d="M413.956 148.033C414.635 148.033 415.188 147.484 415.188 146.805C415.188 146.121 414.635 145.572 413.956 145.572C413.276 145.572 412.723 146.121 412.723 146.805C412.723 147.484 413.276 148.033 413.956 148.033Z" fill="#FFAFC2"/>
<path d="M409.517 125.35C410.201 125.35 410.75 124.801 410.75 124.117C410.75 123.438 410.201 122.884 409.517 122.884C408.838 122.884 408.289 123.438 408.289 124.117C408.289 124.801 408.838 125.35 409.517 125.35Z" fill="#FFAFC2"/>
<path d="M405.679 60.1643C405.905 59.4275 405.669 58.7051 405.154 58.5462C404.639 58.3824 404.032 58.8544 403.805 59.5864C403.579 60.3185 403.81 61.0457 404.33 61.2046C404.846 61.3635 405.448 60.8964 405.679 60.1643Z" fill="#1E2430"/>
<path d="M395.791 57.1924C396.022 56.4555 395.781 55.7283 395.266 55.5693C394.75 55.4104 394.143 55.8728 393.917 56.6096C393.691 57.3465 393.927 58.0737 394.442 58.2278C394.962 58.3916 395.564 57.9244 395.791 57.1924Z" fill="#1E2430"/>
<path d="M396.004 68.4432C397.502 68.5154 399.004 68.4769 400.502 68.318C403.348 68.0627 403.165 68.0001 403.348 68.6358C403.536 69.2716 402.207 70.9187 399.929 71.4243" stroke="#554135" stroke-width="1.43166" stroke-linecap="round" stroke-linejoin="round"/>
<path d="M420.398 59.3789C420.398 59.3789 418.437 60.5829 417.927 61.3439C417.416 62.1048 418.086 62.23 418.182 63.4051C418.279 64.5754 416.882 65.0811 416.882 65.0811" stroke="#554135" stroke-width="1.43166" stroke-linecap="round" stroke-linejoin="round"/>
<path d="M399.945 56.3018C399.641 56.0706 399.29 55.9068 398.919 55.8202C398.548 55.7286 398.163 55.719 397.787 55.7768" stroke="white" stroke-width="1.43166" stroke-linecap="round" stroke-linejoin="round"/>
<path d="M403.339 55.1166C401.957 55.1166 399.65 54.8277 399.457 58.512C399.269 62.1963 399.626 62.3167 399.626 62.3167C399.626 62.3167 400.656 65.2593 404.986 65.2593C409.311 65.2593 410.5 59.4607 410.5 59.4607C410.5 59.4607 408.266 55.1166 403.339 55.1166Z" stroke="white" stroke-width="1.43166" stroke-linecap="round" stroke-linejoin="round"/>
<path d="M410.499 59.4613C412.599 59.2687 416.211 58.8545 416.211 58.8545" stroke="white" stroke-width="1.43166" stroke-linecap="round" stroke-linejoin="round"/>
<path d="M412.335 88.9404L417.459 97.4215L421.76 94.7293" stroke="#F7F7F7" stroke-width="1.43166" stroke-linecap="round" stroke-linejoin="round"/>
<path d="M183.639 262.294C183.634 262.299 183.63 262.313 183.625 262.323C183.625 262.328 183.625 262.342 183.625 262.352C183.803 262.925 184.044 263.474 184.362 263.984C184.92 264.909 186.958 265.843 190.295 265.843H289.332C292.67 265.843 295.088 264.924 296.754 262.694C298.425 260.469 316.23 241.922 318.455 239.138C320.569 236.494 320.849 235.026 320.868 234.886C320.868 234.881 320.868 234.876 320.868 234.871L320.324 232.507C320.324 232.492 320.314 232.483 320.304 232.478C320.295 232.468 320.28 232.463 320.271 232.463H214.597C211.625 232.463 210.701 233.205 208.846 235.242C207.021 237.246 184.424 261.451 183.639 262.294Z" fill="#DD4E27"/>
<path d="M183.639 262.294C183.634 262.299 183.63 262.313 183.625 262.323C183.625 262.328 183.625 262.342 183.625 262.352C183.803 262.925 184.044 263.474 184.362 263.984C184.92 264.909 186.958 265.843 190.295 265.843H289.332C292.67 265.843 295.088 264.924 296.754 262.694C298.425 260.469 316.23 241.922 318.455 239.138C320.569 236.494 320.849 235.026 320.868 234.886C320.868 234.881 320.868 234.876 320.868 234.871L320.324 232.507C320.324 232.492 320.314 232.483 320.304 232.478C320.295 232.468 320.28 232.463 320.271 232.463H214.597C211.625 232.463 210.701 233.205 208.846 235.242C207.021 237.246 184.424 261.451 183.639 262.294Z" fill="#DD4E27"/>
<path d="M217.378 234.308H317.162C321.612 234.308 323.471 231.337 324.761 227.821C326.062 224.295 339.595 171.434 340.707 167.919C341.82 164.403 340.154 162.722 337.182 162.722H233.324C229.428 162.722 228.503 164.947 227.761 167.731C227.015 170.51 214.04 224.117 213.294 228.009C212.547 231.905 214.772 234.308 217.378 234.308Z" fill="#E66A48"/>
<path d="M336.816 165.756H234.716C231.744 165.756 231.118 166.705 230.377 169.108C229.63 171.526 217.354 221.546 216.622 226.93C216.405 228.115 216.526 229.333 216.959 230.45C217.397 231.573 218.134 232.55 219.093 233.273C219.964 233.947 221.034 234.308 222.127 234.308H314.735" stroke="#DD4E27" stroke-width="1.43166" stroke-linecap="round" stroke-linejoin="round"/>
<path d="M285.599 203.914C289.244 200.48 289.736 195.081 286.706 191.86C283.667 188.633 278.254 188.801 274.608 192.23C270.958 195.659 270.466 201.058 273.501 204.285C276.535 207.507 281.953 207.338 285.599 203.914Z" fill="white"/>
<path d="M185.729 264.197L186.73 263.118C186.73 263.118 208.908 239.172 211.379 236.947C213.849 234.722 217.38 234.308 217.38 234.308" stroke="#E66A48" stroke-width="1.43166" stroke-linecap="round" stroke-linejoin="round"/>
<path d="M309.864 296.503C307.418 288.556 297.092 261.162 293.528 251.747C293.167 250.798 292.527 249.989 291.698 249.411C290.865 248.838 289.878 248.53 288.866 248.53H236.834C235.538 248.53 234.257 248.809 233.077 249.339C231.897 249.869 230.847 250.644 229.99 251.612L217.892 265.319C217.887 265.328 217.883 265.333 217.883 265.343C217.878 265.357 217.878 265.367 217.883 265.376L218.6 267.043C218.605 267.052 218.61 267.057 218.619 267.062C218.629 267.072 218.639 267.076 218.648 267.076H235.625C235.639 267.076 235.654 267.081 235.663 267.086C235.673 267.096 235.683 267.11 235.683 267.125C235.842 268.218 238.673 287.771 239.637 293.786C240.629 299.975 237.903 308.133 230.737 308.133H203.338C203.319 308.133 203.309 308.138 203.3 308.148C203.285 308.157 203.28 308.172 203.28 308.186V311.538C203.28 311.553 203.285 311.562 203.3 311.577C203.309 311.586 203.319 311.591 203.338 311.591H300.463C305.66 311.582 312.826 306.149 309.864 296.503ZM276.504 289.283C270.204 289.283 264.107 284.173 262.884 277.884C261.661 271.599 265.778 266.489 272.063 266.489C278.353 266.489 284.46 271.599 285.683 277.884C286.906 284.173 282.793 289.283 276.504 289.283Z" fill="#97607A"/>
<path d="M218.69 266.98C218.686 266.99 218.681 267.004 218.681 267.014C218.681 267.019 218.681 267.028 218.686 267.043C218.69 267.052 218.7 267.057 218.705 267.062C218.715 267.076 218.724 267.076 218.739 267.076L235.682 267.125L233.702 254.27C233.654 253.943 233.509 253.644 233.293 253.394C233.076 253.148 232.797 252.965 232.479 252.874C232.161 252.782 231.829 252.782 231.511 252.874C231.203 252.965 230.918 253.144 230.702 253.394L218.69 266.98Z" fill="#77495F"/>
<path d="M218.69 266.98C218.686 266.99 218.681 267.004 218.681 267.014C218.681 267.019 218.681 267.028 218.686 267.043C218.69 267.052 218.7 267.057 218.705 267.062C218.715 267.076 218.724 267.076 218.739 267.076L235.682 267.125L233.702 254.27C233.654 253.943 233.509 253.644 233.293 253.394C233.076 253.148 232.797 252.965 232.479 252.874C232.161 252.782 231.829 252.782 231.511 252.874C231.203 252.965 230.918 253.144 230.702 253.394L218.69 266.98Z" fill="#77495F"/>
<path d="M230.699 253.394L219.155 266.455" stroke="#77495F" stroke-width="1.43166" stroke-linecap="round" stroke-linejoin="round"/>
<path d="M233.704 254.27C233.655 253.948 233.511 253.644 233.294 253.399C233.077 253.148 232.798 252.97 232.48 252.874C232.162 252.787 231.83 252.787 231.512 252.874C231.204 252.965 230.92 253.148 230.703 253.394" stroke="#77495F" stroke-width="1.43166" stroke-linecap="round" stroke-linejoin="round"/>
<path d="M235.56 266.368L233.701 254.271" stroke="#77495F" stroke-width="1.43166" stroke-linecap="round" stroke-linejoin="round"/>
<path d="M230.234 311.606C230.214 311.606 230.205 311.596 230.19 311.586C230.181 311.577 230.176 311.562 230.176 311.548C230.176 311.533 230.181 311.519 230.19 311.509C230.205 311.5 230.214 311.49 230.234 311.49C236.798 311.49 240.285 304.704 240.318 304.632C240.323 304.627 240.328 304.617 240.338 304.608C240.347 304.603 240.357 304.603 240.371 304.603H309.862C309.877 304.603 309.882 304.603 309.891 304.608C309.896 304.617 309.901 304.622 309.906 304.627C309.915 304.632 309.92 304.642 309.92 304.656C309.92 304.661 309.92 304.67 309.915 304.675C308.258 309.255 303.914 311.649 300.461 311.649L230.234 311.606Z" fill="#77495F"/>
<path d="M282.499 287.289C283.342 286.172 283.925 284.881 284.214 283.509C284.513 282.141 284.498 280.73 284.195 279.367C282.976 273.106 276.889 268.015 270.628 268.015C268.451 267.977 266.327 268.656 264.579 269.951C264.569 269.956 264.56 269.961 264.54 269.961C264.531 269.961 264.511 269.956 264.507 269.947C264.497 269.937 264.492 269.923 264.492 269.908C264.492 269.894 264.492 269.884 264.502 269.874C265.422 268.757 266.587 267.861 267.907 267.264C269.231 266.662 270.666 266.378 272.121 266.426C278.435 266.426 284.566 271.555 285.794 277.864C286.535 281.679 285.341 285.238 282.581 287.362C282.567 287.371 282.557 287.371 282.543 287.371C282.528 287.371 282.519 287.366 282.509 287.357C282.499 287.352 282.495 287.337 282.49 287.323C282.49 287.313 282.495 287.299 282.499 287.289Z" fill="#77495F"/>
<path d="M282.499 287.289C283.342 286.172 283.925 284.881 284.214 283.509C284.513 282.141 284.498 280.73 284.195 279.367C282.976 273.106 276.889 268.015 270.628 268.015C268.451 267.977 266.327 268.656 264.579 269.951C264.569 269.956 264.56 269.961 264.54 269.961C264.531 269.961 264.511 269.956 264.507 269.947C264.497 269.937 264.492 269.923 264.492 269.908C264.492 269.894 264.492 269.884 264.502 269.874C265.422 268.757 266.587 267.861 267.907 267.264C269.231 266.662 270.666 266.378 272.121 266.426C278.435 266.426 284.566 271.555 285.794 277.864C286.535 281.679 285.341 285.238 282.581 287.362C282.567 287.371 282.557 287.371 282.543 287.371C282.528 287.371 282.519 287.366 282.509 287.357C282.499 287.352 282.495 287.337 282.49 287.323C282.49 287.313 282.495 287.299 282.499 287.289Z" fill="#77495F"/>
</g>
<defs>
<clipPath id="clip0_93_284">
<rect width="509" height="309" fill="white"/>
</clipPath>
</defs>
</svg>
