<svg width="483" height="527" viewBox="0 0 483 527" fill="none" xmlns="http://www.w3.org/2000/svg">
<g filter="url(#filter0_b_221_7143)">
<g clip-path="url(#clip0_221_7143)">
<rect width="483" height="527" rx="24" fill="#4CCD99" fill-opacity="0.2"/>
<g filter="url(#filter1_f_221_7143)">
<circle cx="73.5" cy="106.5" r="138.5" fill="#4CCD99"/>
</g>
<path d="M49.5 134.188H39.6094V139.078H47.9688L47.9375 143.75H39.6094V153H34.4375V129.312H49.5312L49.5 134.188ZM56.5625 138.766C56.7917 138.297 57.1406 137.906 57.6094 137.594C58.0781 137.281 58.599 137.068 59.1719 136.953C59.7552 136.828 60.3542 136.771 60.9688 136.781C61.5938 136.792 62.1979 136.865 62.7812 137V141.281H61.2031C59.776 141.281 58.6719 141.688 57.8906 142.5C57.1198 143.312 56.7344 144.5 56.7344 146.062V153H51.7656V137.031H56.3125L56.5625 138.766ZM65.9062 151.109C64.4583 149.557 63.7344 147.51 63.7344 144.969C63.7344 142.427 64.4583 140.38 65.9062 138.828C67.3646 137.266 69.276 136.484 71.6406 136.484C73.9948 136.484 75.8542 137.255 77.2188 138.797C78.5833 140.328 79.2656 142.375 79.2656 144.938V146.188H68.5156C68.5156 147.177 68.7865 147.943 69.3281 148.484C69.8698 149.016 70.6615 149.281 71.7031 149.281C72.474 149.281 73.1458 149.115 73.7188 148.781C74.2917 148.438 74.6562 148 74.8125 147.469H79.3281C79.0365 149.219 78.1771 150.651 76.75 151.766C75.3229 152.87 73.6094 153.422 71.6094 153.422C69.2552 153.422 67.3542 152.651 65.9062 151.109ZM68.5781 143.141H74.3594C74.3594 142.359 74.0938 141.729 73.5625 141.25C73.0417 140.76 72.349 140.516 71.4844 140.516C70.6094 140.516 69.9062 140.76 69.375 141.25C68.8438 141.729 68.5781 142.359 68.5781 143.141ZM83.4688 151.109C82.0208 149.557 81.2969 147.51 81.2969 144.969C81.2969 142.427 82.0208 140.38 83.4688 138.828C84.9271 137.266 86.8385 136.484 89.2031 136.484C91.5573 136.484 93.4167 137.255 94.7812 138.797C96.1458 140.328 96.8281 142.375 96.8281 144.938V146.188H86.0781C86.0781 147.177 86.349 147.943 86.8906 148.484C87.4323 149.016 88.224 149.281 89.2656 149.281C90.0365 149.281 90.7083 149.115 91.2812 148.781C91.8542 148.438 92.2188 148 92.375 147.469H96.8906C96.599 149.219 95.7396 150.651 94.3125 151.766C92.8854 152.87 91.1719 153.422 89.1719 153.422C86.8177 153.422 84.9167 152.651 83.4688 151.109ZM86.1406 143.141H91.9219C91.9219 142.359 91.6562 141.729 91.125 141.25C90.6042 140.76 89.9115 140.516 89.0469 140.516C88.1719 140.516 87.4688 140.76 86.9375 141.25C86.4062 141.729 86.1406 142.359 86.1406 143.141ZM119.047 153.391C117.339 153.391 115.776 153.12 114.359 152.578C112.943 152.026 111.724 151.24 110.703 150.219C109.693 149.188 108.906 147.906 108.344 146.375C107.781 144.833 107.5 143.104 107.5 141.188C107.5 138.76 107.984 136.62 108.953 134.766C109.922 132.901 111.297 131.458 113.078 130.438C114.859 129.417 116.922 128.906 119.266 128.906C122.057 128.906 124.411 129.698 126.328 131.281C128.255 132.865 129.401 134.974 129.766 137.609H124.297C123.953 136.443 123.318 135.536 122.391 134.891C121.464 134.245 120.38 133.922 119.141 133.922C117.182 133.922 115.661 134.573 114.578 135.875C113.505 137.177 112.969 138.938 112.969 141.156C112.969 143.417 113.526 145.172 114.641 146.422C115.755 147.672 117.255 148.297 119.141 148.297C120.464 148.297 121.646 147.958 122.688 147.281C123.74 146.604 124.458 145.714 124.844 144.609H130.219C129.802 147.266 128.573 149.396 126.531 151C124.49 152.594 121.995 153.391 119.047 153.391ZM134.531 151.078C132.979 149.536 132.203 147.5 132.203 144.969C132.203 142.438 132.979 140.396 134.531 138.844C136.094 137.292 138.156 136.516 140.719 136.516C143.26 136.516 145.307 137.292 146.859 138.844C148.422 140.396 149.203 142.438 149.203 144.969C149.203 147.5 148.427 149.536 146.875 151.078C145.323 152.62 143.271 153.391 140.719 153.391C138.156 153.391 136.094 152.62 134.531 151.078ZM137.172 144.938C137.172 146.156 137.495 147.135 138.141 147.875C138.786 148.604 139.646 148.969 140.719 148.969C141.781 148.969 142.635 148.604 143.281 147.875C143.927 147.135 144.25 146.156 144.25 144.938C144.25 143.74 143.922 142.776 143.266 142.047C142.62 141.307 141.771 140.938 140.719 140.938C139.646 140.938 138.786 141.302 138.141 142.031C137.495 142.76 137.172 143.729 137.172 144.938ZM158.062 153.422C156.198 153.422 154.75 152.844 153.719 151.688C152.688 150.531 152.172 148.984 152.172 147.047V137H157.094V145.25C157.094 146.656 157.339 147.641 157.828 148.203C158.328 148.755 159.057 149.031 160.016 149.031C161.109 149.031 161.875 148.729 162.312 148.125C162.76 147.51 162.984 146.573 162.984 145.312V137H167.922V153H163.281L162.953 151.203C162.453 151.859 161.755 152.396 160.859 152.812C159.964 153.219 159.031 153.422 158.062 153.422ZM172.047 153V137H176.688L177.016 138.656C177.526 137.958 178.208 137.422 179.062 137.047C179.927 136.672 180.875 136.484 181.906 136.484C183.875 136.484 185.37 137.078 186.391 138.266C187.411 139.453 187.922 141.068 187.922 143.109V153H183V144.297C183 143.714 182.922 143.203 182.766 142.766C182.62 142.328 182.443 142 182.234 141.781C182.026 141.562 181.776 141.385 181.484 141.25C181.203 141.115 180.964 141.036 180.766 141.016C180.578 140.984 180.38 140.969 180.172 140.969C179.932 140.969 179.703 140.984 179.484 141.016C179.266 141.036 178.995 141.115 178.672 141.25C178.349 141.375 178.073 141.547 177.844 141.766C177.615 141.984 177.411 142.307 177.234 142.734C177.068 143.161 176.984 143.661 176.984 144.234V153H172.047ZM194.812 147.938C194.812 148.51 195 148.953 195.375 149.266C195.76 149.578 196.307 149.734 197.016 149.734C197.63 149.734 198.115 149.62 198.469 149.391C198.823 149.151 199 148.828 199 148.422C199 147.859 198.604 147.474 197.812 147.266L195 146.531C192.104 145.771 190.656 144.193 190.656 141.797C190.656 140.214 191.24 138.932 192.406 137.953C193.583 136.974 195.068 136.484 196.859 136.484C198.641 136.484 200.099 136.974 201.234 137.953C202.37 138.932 202.969 140.245 203.031 141.891H198.594C198.604 141.349 198.443 140.911 198.109 140.578C197.776 140.245 197.328 140.078 196.766 140.078C196.266 140.078 195.859 140.203 195.547 140.453C195.245 140.703 195.094 141.036 195.094 141.453C195.094 141.839 195.224 142.125 195.484 142.312C195.755 142.49 196.182 142.651 196.766 142.797L199.609 143.5C200.922 143.823 201.922 144.37 202.609 145.141C203.297 145.911 203.641 146.891 203.641 148.078C203.641 149.714 203.036 151.016 201.828 151.984C200.62 152.943 199.036 153.422 197.078 153.422C195.089 153.422 193.484 152.917 192.266 151.906C191.057 150.896 190.422 149.573 190.359 147.938H194.812ZM207.75 151.109C206.302 149.557 205.578 147.51 205.578 144.969C205.578 142.427 206.302 140.38 207.75 138.828C209.208 137.266 211.12 136.484 213.484 136.484C215.839 136.484 217.698 137.255 219.062 138.797C220.427 140.328 221.109 142.375 221.109 144.938V146.188H210.359C210.359 147.177 210.63 147.943 211.172 148.484C211.714 149.016 212.505 149.281 213.547 149.281C214.318 149.281 214.99 149.115 215.562 148.781C216.135 148.438 216.5 148 216.656 147.469H221.172C220.88 149.219 220.021 150.651 218.594 151.766C217.167 152.87 215.453 153.422 213.453 153.422C211.099 153.422 209.198 152.651 207.75 151.109ZM210.422 143.141H216.203C216.203 142.359 215.938 141.729 215.406 141.25C214.885 140.76 214.193 140.516 213.328 140.516C212.453 140.516 211.75 140.76 211.219 141.25C210.688 141.729 210.422 142.359 210.422 143.141ZM224.297 153V128.875H229.266V153H224.297ZM235.953 134.5C235.172 134.5 234.505 134.229 233.953 133.688C233.411 133.135 233.141 132.469 233.141 131.688C233.141 130.906 233.411 130.25 233.953 129.719C234.505 129.177 235.172 128.906 235.953 128.906C236.724 128.906 237.38 129.177 237.922 129.719C238.464 130.25 238.734 130.906 238.734 131.688C238.734 132.469 238.464 133.135 237.922 133.688C237.38 134.229 236.724 134.5 235.953 134.5ZM233.453 137H238.422V153H233.453V137ZM242.578 153V137H247.219L247.547 138.656C248.057 137.958 248.74 137.422 249.594 137.047C250.458 136.672 251.406 136.484 252.438 136.484C254.406 136.484 255.901 137.078 256.922 138.266C257.943 139.453 258.453 141.068 258.453 143.109V153H253.531V144.297C253.531 143.714 253.453 143.203 253.297 142.766C253.151 142.328 252.974 142 252.766 141.781C252.557 141.562 252.307 141.385 252.016 141.25C251.734 141.115 251.495 141.036 251.297 141.016C251.109 140.984 250.911 140.969 250.703 140.969C250.464 140.969 250.234 140.984 250.016 141.016C249.797 141.036 249.526 141.115 249.203 141.25C248.88 141.375 248.604 141.547 248.375 141.766C248.146 141.984 247.943 142.307 247.766 142.734C247.599 143.161 247.516 143.661 247.516 144.234V153H242.578ZM274.391 137H278.844V151.969C278.844 154.781 278.036 157.016 276.422 158.672C274.818 160.328 272.646 161.156 269.906 161.156C267.583 161.156 265.646 160.484 264.094 159.141C262.552 157.797 261.667 156.026 261.438 153.828H266.422C266.464 154.724 266.828 155.422 267.516 155.922C268.203 156.432 269.099 156.688 270.203 156.688C271.401 156.688 272.333 156.354 273 155.688C273.667 155.021 274 154.125 274 153V150.797C273.542 151.422 272.875 151.917 272 152.281C271.125 152.635 270.151 152.812 269.078 152.812C266.839 152.812 265.016 152.068 263.609 150.578C262.203 149.078 261.5 147.125 261.5 144.719C261.5 142.281 262.214 140.297 263.641 138.766C265.078 137.224 266.922 136.453 269.172 136.453C270.255 136.453 271.24 136.651 272.125 137.047C273.021 137.443 273.693 137.969 274.141 138.625L274.391 137ZM270 148.516C271.135 148.516 272.068 148.151 272.797 147.422C273.536 146.693 273.906 145.745 273.906 144.578C273.906 143.422 273.536 142.495 272.797 141.797C272.057 141.099 271.115 140.75 269.969 140.75C268.979 140.75 268.151 141.104 267.484 141.812C266.818 142.521 266.484 143.443 266.484 144.578C266.484 145.734 266.823 146.682 267.5 147.422C268.177 148.151 269.01 148.516 270 148.516ZM290.406 136.203C290.406 134.068 291.172 132.312 292.703 130.938C294.245 129.562 296.25 128.875 298.719 128.875C301.125 128.875 303.057 129.547 304.516 130.891C305.974 132.234 306.729 133.995 306.781 136.172H301.703C301.703 135.276 301.432 134.604 300.891 134.156C300.349 133.708 299.604 133.484 298.656 133.484C297.677 133.484 296.922 133.708 296.391 134.156C295.859 134.604 295.594 135.198 295.594 135.938C295.594 136.552 295.776 137.042 296.141 137.406C296.516 137.76 297.078 138.042 297.828 138.25L301.5 139.203C303.562 139.755 305.12 140.646 306.172 141.875C307.224 143.094 307.75 144.531 307.75 146.188C307.75 148.344 306.927 150.089 305.281 151.422C303.646 152.755 301.5 153.422 298.844 153.422C296.229 153.422 294.125 152.766 292.531 151.453C290.938 150.141 290.12 148.365 290.078 146.125H295.141C295.13 146.979 295.453 147.641 296.109 148.109C296.766 148.578 297.688 148.812 298.875 148.812C300.042 148.812 300.948 148.594 301.594 148.156C302.24 147.708 302.562 147.104 302.562 146.344C302.562 145.802 302.385 145.359 302.031 145.016C301.677 144.661 301.13 144.38 300.391 144.172L296.641 143.109C292.484 141.943 290.406 139.641 290.406 136.203ZM311.906 151.109C310.458 149.557 309.734 147.51 309.734 144.969C309.734 142.427 310.458 140.38 311.906 138.828C313.365 137.266 315.276 136.484 317.641 136.484C319.995 136.484 321.854 137.255 323.219 138.797C324.583 140.328 325.266 142.375 325.266 144.938V146.188H314.516C314.516 147.177 314.786 147.943 315.328 148.484C315.87 149.016 316.661 149.281 317.703 149.281C318.474 149.281 319.146 149.115 319.719 148.781C320.292 148.438 320.656 148 320.812 147.469H325.328C325.036 149.219 324.177 150.651 322.75 151.766C321.323 152.87 319.609 153.422 317.609 153.422C315.255 153.422 313.354 152.651 311.906 151.109ZM314.578 143.141H320.359C320.359 142.359 320.094 141.729 319.562 141.25C319.042 140.76 318.349 140.516 317.484 140.516C316.609 140.516 315.906 140.76 315.375 141.25C314.844 141.729 314.578 142.359 314.578 143.141ZM331.562 147.938C331.562 148.51 331.75 148.953 332.125 149.266C332.51 149.578 333.057 149.734 333.766 149.734C334.38 149.734 334.865 149.62 335.219 149.391C335.573 149.151 335.75 148.828 335.75 148.422C335.75 147.859 335.354 147.474 334.562 147.266L331.75 146.531C328.854 145.771 327.406 144.193 327.406 141.797C327.406 140.214 327.99 138.932 329.156 137.953C330.333 136.974 331.818 136.484 333.609 136.484C335.391 136.484 336.849 136.974 337.984 137.953C339.12 138.932 339.719 140.245 339.781 141.891H335.344C335.354 141.349 335.193 140.911 334.859 140.578C334.526 140.245 334.078 140.078 333.516 140.078C333.016 140.078 332.609 140.203 332.297 140.453C331.995 140.703 331.844 141.036 331.844 141.453C331.844 141.839 331.974 142.125 332.234 142.312C332.505 142.49 332.932 142.651 333.516 142.797L336.359 143.5C337.672 143.823 338.672 144.37 339.359 145.141C340.047 145.911 340.391 146.891 340.391 148.078C340.391 149.714 339.786 151.016 338.578 151.984C337.37 152.943 335.786 153.422 333.828 153.422C331.839 153.422 330.234 152.917 329.016 151.906C327.807 150.896 327.172 149.573 327.109 147.938H331.562ZM346.375 147.938C346.375 148.51 346.562 148.953 346.938 149.266C347.323 149.578 347.87 149.734 348.578 149.734C349.193 149.734 349.677 149.62 350.031 149.391C350.385 149.151 350.562 148.828 350.562 148.422C350.562 147.859 350.167 147.474 349.375 147.266L346.562 146.531C343.667 145.771 342.219 144.193 342.219 141.797C342.219 140.214 342.802 138.932 343.969 137.953C345.146 136.974 346.63 136.484 348.422 136.484C350.203 136.484 351.661 136.974 352.797 137.953C353.932 138.932 354.531 140.245 354.594 141.891H350.156C350.167 141.349 350.005 140.911 349.672 140.578C349.339 140.245 348.891 140.078 348.328 140.078C347.828 140.078 347.422 140.203 347.109 140.453C346.807 140.703 346.656 141.036 346.656 141.453C346.656 141.839 346.786 142.125 347.047 142.312C347.318 142.49 347.745 142.651 348.328 142.797L351.172 143.5C352.484 143.823 353.484 144.37 354.172 145.141C354.859 145.911 355.203 146.891 355.203 148.078C355.203 149.714 354.599 151.016 353.391 151.984C352.182 152.943 350.599 153.422 348.641 153.422C346.651 153.422 345.047 152.917 343.828 151.906C342.62 150.896 341.984 149.573 341.922 147.938H346.375ZM360.547 134.5C359.766 134.5 359.099 134.229 358.547 133.688C358.005 133.135 357.734 132.469 357.734 131.688C357.734 130.906 358.005 130.25 358.547 129.719C359.099 129.177 359.766 128.906 360.547 128.906C361.318 128.906 361.974 129.177 362.516 129.719C363.057 130.25 363.328 130.906 363.328 131.688C363.328 132.469 363.057 133.135 362.516 133.688C361.974 134.229 361.318 134.5 360.547 134.5ZM358.047 137H363.016V153H358.047V137ZM368.344 151.078C366.792 149.536 366.016 147.5 366.016 144.969C366.016 142.438 366.792 140.396 368.344 138.844C369.906 137.292 371.969 136.516 374.531 136.516C377.073 136.516 379.12 137.292 380.672 138.844C382.234 140.396 383.016 142.438 383.016 144.969C383.016 147.5 382.24 149.536 380.688 151.078C379.135 152.62 377.083 153.391 374.531 153.391C371.969 153.391 369.906 152.62 368.344 151.078ZM370.984 144.938C370.984 146.156 371.307 147.135 371.953 147.875C372.599 148.604 373.458 148.969 374.531 148.969C375.594 148.969 376.448 148.604 377.094 147.875C377.74 147.135 378.062 146.156 378.062 144.938C378.062 143.74 377.734 142.776 377.078 142.047C376.432 141.307 375.583 140.938 374.531 140.938C373.458 140.938 372.599 141.302 371.953 142.031C371.307 142.76 370.984 143.729 370.984 144.938ZM385.984 153V137H390.625L390.953 138.656C391.464 137.958 392.146 137.422 393 137.047C393.865 136.672 394.812 136.484 395.844 136.484C397.812 136.484 399.307 137.078 400.328 138.266C401.349 139.453 401.859 141.068 401.859 143.109V153H396.938V144.297C396.938 143.714 396.859 143.203 396.703 142.766C396.557 142.328 396.38 142 396.172 141.781C395.964 141.562 395.714 141.385 395.422 141.25C395.141 141.115 394.901 141.036 394.703 141.016C394.516 140.984 394.318 140.969 394.109 140.969C393.87 140.969 393.641 140.984 393.422 141.016C393.203 141.036 392.932 141.115 392.609 141.25C392.286 141.375 392.01 141.547 391.781 141.766C391.552 141.984 391.349 142.307 391.172 142.734C391.005 143.161 390.922 143.661 390.922 144.234V153H385.984ZM408.75 147.938C408.75 148.51 408.938 148.953 409.312 149.266C409.698 149.578 410.245 149.734 410.953 149.734C411.568 149.734 412.052 149.62 412.406 149.391C412.76 149.151 412.938 148.828 412.938 148.422C412.938 147.859 412.542 147.474 411.75 147.266L408.938 146.531C406.042 145.771 404.594 144.193 404.594 141.797C404.594 140.214 405.177 138.932 406.344 137.953C407.521 136.974 409.005 136.484 410.797 136.484C412.578 136.484 414.036 136.974 415.172 137.953C416.307 138.932 416.906 140.245 416.969 141.891H412.531C412.542 141.349 412.38 140.911 412.047 140.578C411.714 140.245 411.266 140.078 410.703 140.078C410.203 140.078 409.797 140.203 409.484 140.453C409.182 140.703 409.031 141.036 409.031 141.453C409.031 141.839 409.161 142.125 409.422 142.312C409.693 142.49 410.12 142.651 410.703 142.797L413.547 143.5C414.859 143.823 415.859 144.37 416.547 145.141C417.234 145.911 417.578 146.891 417.578 148.078C417.578 149.714 416.974 151.016 415.766 151.984C414.557 152.943 412.974 153.422 411.016 153.422C409.026 153.422 407.422 152.917 406.203 151.906C404.995 150.896 404.359 149.573 404.297 147.938H408.75Z" fill="#F5FBFF"/>
<path d="M39.5 196.24C38.1933 196.24 37.0467 195.94 36.06 195.34C35.0733 194.727 34.3067 193.88 33.76 192.8C33.2133 191.707 32.94 190.447 32.94 189.02C32.94 187.593 33.2133 186.333 33.76 185.24C34.32 184.147 35.1067 183.293 36.12 182.68C37.1467 182.067 38.3533 181.76 39.74 181.76C41.3133 181.76 42.62 182.14 43.66 182.9C44.7133 183.66 45.3933 184.707 45.7 186.04H43.76C43.5733 185.2 43.1267 184.533 42.42 184.04C41.7267 183.547 40.8333 183.3 39.74 183.3C38.7133 183.3 37.82 183.533 37.06 184C36.3 184.453 35.7067 185.107 35.28 185.96C34.8667 186.813 34.66 187.833 34.66 189.02C34.66 190.207 34.8667 191.227 35.28 192.08C35.6933 192.933 36.2667 193.593 37 194.06C37.7333 194.513 38.5867 194.74 39.56 194.74C41.0533 194.74 42.18 194.307 42.94 193.44C43.7 192.56 44.1333 191.36 44.24 189.84H40.2V188.52H45.96V196H44.42L44.28 193.7C43.7733 194.513 43.1533 195.14 42.42 195.58C41.6867 196.02 40.7133 196.24 39.5 196.24ZM52.9767 196.24C52.0301 196.24 51.1901 196.027 50.4567 195.6C49.7234 195.16 49.1434 194.553 48.7167 193.78C48.3034 193.007 48.0967 192.093 48.0967 191.04C48.0967 190 48.3034 189.093 48.7167 188.32C49.1301 187.533 49.7034 186.927 50.4367 186.5C51.1834 186.06 52.0434 185.84 53.0167 185.84C53.9767 185.84 54.8034 186.06 55.4967 186.5C56.2034 186.927 56.7434 187.493 57.1167 188.2C57.4901 188.907 57.6767 189.667 57.6767 190.48C57.6767 190.627 57.6701 190.773 57.6567 190.92C57.6567 191.067 57.6567 191.233 57.6567 191.42H49.7567C49.7967 192.18 49.9701 192.813 50.2767 193.32C50.5967 193.813 50.9901 194.187 51.4567 194.44C51.9367 194.693 52.4434 194.82 52.9767 194.82C53.6701 194.82 54.2501 194.66 54.7167 194.34C55.1834 194.02 55.5234 193.587 55.7367 193.04H57.3967C57.1301 193.96 56.6167 194.727 55.8567 195.34C55.1101 195.94 54.1501 196.24 52.9767 196.24ZM52.9767 187.26C52.1767 187.26 51.4634 187.507 50.8367 188C50.2234 188.48 49.8701 189.187 49.7767 190.12H56.0167C55.9767 189.227 55.6701 188.527 55.0967 188.02C54.5234 187.513 53.8167 187.26 52.9767 187.26ZM63.4914 196C62.5847 196 61.8714 195.78 61.3514 195.34C60.8314 194.9 60.5714 194.107 60.5714 192.96V187.5H58.8514V186.08H60.5714L60.7914 183.7H62.2514V186.08H65.1714V187.5H62.2514V192.96C62.2514 193.587 62.3781 194.013 62.6314 194.24C62.8847 194.453 63.3314 194.56 63.9714 194.56H65.0114V196H63.4914ZM77.0588 196.24C76.1121 196.24 75.2721 196.027 74.5388 195.6C73.8054 195.16 73.2254 194.553 72.7988 193.78C72.3854 193.007 72.1788 192.093 72.1788 191.04C72.1788 190 72.3854 189.093 72.7988 188.32C73.2121 187.533 73.7854 186.927 74.5188 186.5C75.2654 186.06 76.1254 185.84 77.0987 185.84C78.0588 185.84 78.8854 186.06 79.5788 186.5C80.2854 186.927 80.8254 187.493 81.1988 188.2C81.5721 188.907 81.7588 189.667 81.7588 190.48C81.7588 190.627 81.7521 190.773 81.7388 190.92C81.7388 191.067 81.7388 191.233 81.7388 191.42H73.8388C73.8788 192.18 74.0521 192.813 74.3588 193.32C74.6788 193.813 75.0721 194.187 75.5388 194.44C76.0188 194.693 76.5254 194.82 77.0588 194.82C77.7521 194.82 78.3321 194.66 78.7988 194.34C79.2654 194.02 79.6054 193.587 79.8188 193.04H81.4788C81.2121 193.96 80.6988 194.727 79.9388 195.34C79.1921 195.94 78.2321 196.24 77.0588 196.24ZM77.0588 187.26C76.2588 187.26 75.5454 187.507 74.9188 188C74.3054 188.48 73.9521 189.187 73.8587 190.12H80.0988C80.0588 189.227 79.7521 188.527 79.1788 188.02C78.6054 187.513 77.8988 187.26 77.0588 187.26ZM82.5167 196L85.9567 191.04L82.5167 186.08H84.3367L87.1167 190.18L89.9167 186.08H91.7167L88.2767 191.04L91.7167 196H89.9167L87.1167 191.9L84.3367 196H82.5167ZM93.4777 200.4V186.08H94.9977L95.1577 187.72C95.4777 187.24 95.931 186.807 96.5177 186.42C97.1177 186.033 97.8777 185.84 98.7977 185.84C99.7843 185.84 100.644 186.067 101.378 186.52C102.111 186.973 102.678 187.593 103.078 188.38C103.491 189.167 103.698 190.06 103.698 191.06C103.698 192.06 103.491 192.953 103.078 193.74C102.678 194.513 102.104 195.127 101.358 195.58C100.624 196.02 99.7643 196.24 98.7777 196.24C97.9643 196.24 97.2377 196.073 96.5977 195.74C95.971 195.407 95.491 194.94 95.1577 194.34V200.4H93.4777ZM98.5977 194.78C99.2643 194.78 99.851 194.627 100.358 194.32C100.864 194 101.264 193.56 101.558 193C101.851 192.44 101.998 191.787 101.998 191.04C101.998 190.293 101.851 189.64 101.558 189.08C101.264 188.52 100.864 188.087 100.358 187.78C99.851 187.46 99.2643 187.3 98.5977 187.3C97.931 187.3 97.3443 187.46 96.8377 187.78C96.331 188.087 95.931 188.52 95.6377 189.08C95.3443 189.64 95.1977 190.293 95.1977 191.04C95.1977 191.787 95.3443 192.44 95.6377 193C95.931 193.56 96.331 194 96.8377 194.32C97.3443 194.627 97.931 194.78 98.5977 194.78ZM110.496 196.24C109.55 196.24 108.71 196.027 107.976 195.6C107.243 195.16 106.663 194.553 106.236 193.78C105.823 193.007 105.616 192.093 105.616 191.04C105.616 190 105.823 189.093 106.236 188.32C106.65 187.533 107.223 186.927 107.956 186.5C108.703 186.06 109.563 185.84 110.536 185.84C111.496 185.84 112.323 186.06 113.016 186.5C113.723 186.927 114.263 187.493 114.636 188.2C115.01 188.907 115.196 189.667 115.196 190.48C115.196 190.627 115.19 190.773 115.176 190.92C115.176 191.067 115.176 191.233 115.176 191.42H107.276C107.316 192.18 107.49 192.813 107.796 193.32C108.116 193.813 108.51 194.187 108.976 194.44C109.456 194.693 109.963 194.82 110.496 194.82C111.19 194.82 111.77 194.66 112.236 194.34C112.703 194.02 113.043 193.587 113.256 193.04H114.916C114.65 193.96 114.136 194.727 113.376 195.34C112.63 195.94 111.67 196.24 110.496 196.24ZM110.496 187.26C109.696 187.26 108.983 187.507 108.356 188C107.743 188.48 107.39 189.187 107.296 190.12H113.536C113.496 189.227 113.19 188.527 112.616 188.02C112.043 187.513 111.336 187.26 110.496 187.26ZM117.423 196V186.08H118.943L119.083 187.98C119.39 187.327 119.856 186.807 120.483 186.42C121.11 186.033 121.883 185.84 122.803 185.84V187.6H122.343C121.756 187.6 121.216 187.707 120.723 187.92C120.23 188.12 119.836 188.467 119.543 188.96C119.25 189.453 119.103 190.133 119.103 191V196H117.423ZM128.609 196C127.702 196 126.989 195.78 126.469 195.34C125.949 194.9 125.689 194.107 125.689 192.96V187.5H123.969V186.08H125.689L125.909 183.7H127.369V186.08H130.289V187.5H127.369V192.96C127.369 193.587 127.495 194.013 127.749 194.24C128.002 194.453 128.449 194.56 129.089 194.56H130.129V196H128.609ZM141.016 196.24C140.189 196.24 139.503 196.1 138.956 195.82C138.409 195.54 138.003 195.167 137.736 194.7C137.469 194.233 137.336 193.727 137.336 193.18C137.336 192.167 137.723 191.387 138.496 190.84C139.269 190.293 140.323 190.02 141.656 190.02H144.336V189.9C144.336 189.033 144.109 188.38 143.656 187.94C143.203 187.487 142.596 187.26 141.836 187.26C141.183 187.26 140.616 187.427 140.136 187.76C139.669 188.08 139.376 188.553 139.256 189.18H137.536C137.603 188.46 137.843 187.853 138.256 187.36C138.683 186.867 139.209 186.493 139.836 186.24C140.463 185.973 141.129 185.84 141.836 185.84C143.223 185.84 144.263 186.213 144.956 186.96C145.663 187.693 146.016 188.673 146.016 189.9V196H144.516L144.416 194.22C144.136 194.78 143.723 195.26 143.176 195.66C142.643 196.047 141.923 196.24 141.016 196.24ZM141.276 194.82C141.916 194.82 142.463 194.653 142.916 194.32C143.383 193.987 143.736 193.553 143.976 193.02C144.216 192.487 144.336 191.927 144.336 191.34V191.32H141.796C140.809 191.32 140.109 191.493 139.696 191.84C139.296 192.173 139.096 192.593 139.096 193.1C139.096 193.62 139.283 194.04 139.656 194.36C140.043 194.667 140.583 194.82 141.276 194.82ZM153.036 196.24C152.05 196.24 151.183 196.013 150.436 195.56C149.703 195.107 149.13 194.487 148.716 193.7C148.316 192.913 148.116 192.02 148.116 191.02C148.116 190.02 148.323 189.133 148.736 188.36C149.15 187.573 149.723 186.96 150.456 186.52C151.19 186.067 152.056 185.84 153.056 185.84C153.87 185.84 154.59 186.007 155.216 186.34C155.843 186.673 156.33 187.14 156.676 187.74V181.6H158.356V196H156.836L156.676 194.36C156.356 194.84 155.896 195.273 155.296 195.66C154.696 196.047 153.943 196.24 153.036 196.24ZM153.216 194.78C153.883 194.78 154.47 194.627 154.976 194.32C155.496 194 155.896 193.56 156.176 193C156.47 192.44 156.616 191.787 156.616 191.04C156.616 190.293 156.47 189.64 156.176 189.08C155.896 188.52 155.496 188.087 154.976 187.78C154.47 187.46 153.883 187.3 153.216 187.3C152.563 187.3 151.976 187.46 151.456 187.78C150.95 188.087 150.55 188.52 150.256 189.08C149.976 189.64 149.836 190.293 149.836 191.04C149.836 191.787 149.976 192.44 150.256 193C150.55 193.56 150.95 194 151.456 194.32C151.976 194.627 152.563 194.78 153.216 194.78ZM163.955 196L160.195 186.08H161.955L164.935 194.38L167.935 186.08H169.655L165.895 196H163.955ZM172.545 183.88C172.211 183.88 171.931 183.773 171.705 183.56C171.491 183.333 171.385 183.053 171.385 182.72C171.385 182.4 171.491 182.133 171.705 181.92C171.931 181.707 172.211 181.6 172.545 181.6C172.865 181.6 173.138 181.707 173.365 181.92C173.591 182.133 173.705 182.4 173.705 182.72C173.705 183.053 173.591 183.333 173.365 183.56C173.138 183.773 172.865 183.88 172.545 183.88ZM171.705 196V186.08H173.385V196H171.705ZM180.87 196.24C179.923 196.24 179.07 196.027 178.31 195.6C177.563 195.16 176.97 194.553 176.53 193.78C176.103 192.993 175.89 192.08 175.89 191.04C175.89 190 176.103 189.093 176.53 188.32C176.97 187.533 177.563 186.927 178.31 186.5C179.07 186.06 179.923 185.84 180.87 185.84C182.043 185.84 183.03 186.147 183.83 186.76C184.643 187.373 185.156 188.193 185.37 189.22H183.65C183.516 188.607 183.19 188.133 182.67 187.8C182.15 187.453 181.543 187.28 180.85 187.28C180.29 187.28 179.763 187.42 179.27 187.7C178.776 187.98 178.376 188.4 178.07 188.96C177.763 189.52 177.61 190.213 177.61 191.04C177.61 191.867 177.763 192.56 178.07 193.12C178.376 193.68 178.776 194.107 179.27 194.4C179.763 194.68 180.29 194.82 180.85 194.82C181.543 194.82 182.15 194.653 182.67 194.32C183.19 193.973 183.516 193.487 183.65 192.86H185.37C185.17 193.86 184.663 194.673 183.85 195.3C183.036 195.927 182.043 196.24 180.87 196.24ZM192.176 196.24C191.229 196.24 190.389 196.027 189.656 195.6C188.923 195.16 188.343 194.553 187.916 193.78C187.503 193.007 187.296 192.093 187.296 191.04C187.296 190 187.503 189.093 187.916 188.32C188.329 187.533 188.903 186.927 189.636 186.5C190.383 186.06 191.243 185.84 192.216 185.84C193.176 185.84 194.003 186.06 194.696 186.5C195.403 186.927 195.943 187.493 196.316 188.2C196.689 188.907 196.876 189.667 196.876 190.48C196.876 190.627 196.869 190.773 196.856 190.92C196.856 191.067 196.856 191.233 196.856 191.42H188.956C188.996 192.18 189.169 192.813 189.476 193.32C189.796 193.813 190.189 194.187 190.656 194.44C191.136 194.693 191.643 194.82 192.176 194.82C192.869 194.82 193.449 194.66 193.916 194.34C194.383 194.02 194.723 193.587 194.936 193.04H196.596C196.329 193.96 195.816 194.727 195.056 195.34C194.309 195.94 193.349 196.24 192.176 196.24ZM192.176 187.26C191.376 187.26 190.663 187.507 190.036 188C189.423 188.48 189.069 189.187 188.976 190.12H195.216C195.176 189.227 194.869 188.527 194.296 188.02C193.723 187.513 193.016 187.26 192.176 187.26ZM206.396 196L203.496 186.08H205.176L207.276 193.86L209.596 186.08H211.496L213.836 193.86L215.916 186.08H217.616L214.716 196H212.996L210.556 187.82L208.116 196H206.396ZM220.494 183.88C220.16 183.88 219.88 183.773 219.654 183.56C219.44 183.333 219.334 183.053 219.334 182.72C219.334 182.4 219.44 182.133 219.654 181.92C219.88 181.707 220.16 181.6 220.494 181.6C220.814 181.6 221.087 181.707 221.314 181.92C221.54 182.133 221.654 182.4 221.654 182.72C221.654 183.053 221.54 183.333 221.314 183.56C221.087 183.773 220.814 183.88 220.494 183.88ZM219.654 196V186.08H221.334V196H219.654ZM228.179 196C227.272 196 226.559 195.78 226.039 195.34C225.519 194.9 225.259 194.107 225.259 192.96V187.5H223.539V186.08H225.259L225.479 183.7H226.939V186.08H229.859V187.5H226.939V192.96C226.939 193.587 227.066 194.013 227.319 194.24C227.572 194.453 228.019 194.56 228.659 194.56H229.699V196H228.179ZM231.993 196V181.6H233.673V187.78C234.007 187.167 234.48 186.693 235.093 186.36C235.707 186.013 236.373 185.84 237.093 185.84C238.24 185.84 239.16 186.2 239.853 186.92C240.547 187.627 240.893 188.72 240.893 190.2V196H239.233V190.38C239.233 188.313 238.4 187.28 236.733 187.28C235.867 187.28 235.14 187.593 234.553 188.22C233.967 188.833 233.673 189.713 233.673 190.86V196H231.993ZM247.959 196.24C247.025 196.24 246.185 196.027 245.439 195.6C244.692 195.173 244.099 194.573 243.659 193.8C243.232 193.013 243.019 192.093 243.019 191.04C243.019 189.987 243.239 189.073 243.679 188.3C244.119 187.513 244.712 186.907 245.459 186.48C246.219 186.053 247.065 185.84 247.999 185.84C248.932 185.84 249.772 186.053 250.519 186.48C251.265 186.907 251.852 187.513 252.279 188.3C252.719 189.073 252.939 189.987 252.939 191.04C252.939 192.093 252.719 193.013 252.279 193.8C251.839 194.573 251.239 195.173 250.479 195.6C249.732 196.027 248.892 196.24 247.959 196.24ZM247.959 194.8C248.532 194.8 249.065 194.66 249.559 194.38C250.052 194.1 250.452 193.68 250.759 193.12C251.065 192.56 251.219 191.867 251.219 191.04C251.219 190.213 251.065 189.52 250.759 188.96C250.465 188.4 250.072 187.98 249.579 187.7C249.085 187.42 248.559 187.28 247.999 187.28C247.425 187.28 246.892 187.42 246.399 187.7C245.905 187.98 245.505 188.4 245.199 188.96C244.892 189.52 244.739 190.213 244.739 191.04C244.739 191.867 244.892 192.56 245.199 193.12C245.505 193.68 245.899 194.1 246.379 194.38C246.872 194.66 247.399 194.8 247.959 194.8ZM258.895 196.24C257.721 196.24 256.788 195.887 256.095 195.18C255.401 194.46 255.055 193.36 255.055 191.88V186.08H256.735V191.7C256.735 193.767 257.581 194.8 259.275 194.8C260.141 194.8 260.855 194.493 261.415 193.88C261.988 193.253 262.275 192.367 262.275 191.22V186.08H263.955V196H262.435L262.315 194.22C262.008 194.847 261.548 195.34 260.935 195.7C260.335 196.06 259.655 196.24 258.895 196.24ZM270.64 196C269.733 196 269.02 195.78 268.5 195.34C267.98 194.9 267.72 194.107 267.72 192.96V187.5H266V186.08H267.72L267.94 183.7H269.4V186.08H272.32V187.5H269.4V192.96C269.4 193.587 269.527 194.013 269.78 194.24C270.033 194.453 270.48 194.56 271.12 194.56H272.16V196H270.64ZM283.047 196.24C282.221 196.24 281.534 196.1 280.987 195.82C280.441 195.54 280.034 195.167 279.767 194.7C279.501 194.233 279.367 193.727 279.367 193.18C279.367 192.167 279.754 191.387 280.527 190.84C281.301 190.293 282.354 190.02 283.687 190.02H286.367V189.9C286.367 189.033 286.141 188.38 285.687 187.94C285.234 187.487 284.627 187.26 283.867 187.26C283.214 187.26 282.647 187.427 282.167 187.76C281.701 188.08 281.407 188.553 281.287 189.18H279.567C279.634 188.46 279.874 187.853 280.287 187.36C280.714 186.867 281.241 186.493 281.867 186.24C282.494 185.973 283.161 185.84 283.867 185.84C285.254 185.84 286.294 186.213 286.987 186.96C287.694 187.693 288.047 188.673 288.047 189.9V196H286.547L286.447 194.22C286.167 194.78 285.754 195.26 285.207 195.66C284.674 196.047 283.954 196.24 283.047 196.24ZM283.307 194.82C283.947 194.82 284.494 194.653 284.947 194.32C285.414 193.987 285.767 193.553 286.007 193.02C286.247 192.487 286.367 191.927 286.367 191.34V191.32H283.827C282.841 191.32 282.141 191.493 281.727 191.84C281.327 192.173 281.127 192.593 281.127 193.1C281.127 193.62 281.314 194.04 281.687 194.36C282.074 194.667 282.614 194.82 283.307 194.82ZM290.568 196V186.08H292.088L292.188 187.86C292.508 187.233 292.968 186.74 293.568 186.38C294.168 186.02 294.848 185.84 295.608 185.84C296.781 185.84 297.714 186.2 298.408 186.92C299.114 187.627 299.467 188.72 299.467 190.2V196H297.788V190.38C297.788 188.313 296.934 187.28 295.228 187.28C294.374 187.28 293.661 187.593 293.088 188.22C292.528 188.833 292.248 189.713 292.248 190.86V196H290.568ZM302.8 200.4L305.26 195.04H304.68L300.74 186.08H302.56L305.84 193.8L309.32 186.08H311.06L304.56 200.4H302.8ZM322.686 196.24C321.739 196.24 320.886 196.027 320.126 195.6C319.379 195.16 318.786 194.553 318.346 193.78C317.919 192.993 317.706 192.08 317.706 191.04C317.706 190 317.919 189.093 318.346 188.32C318.786 187.533 319.379 186.927 320.126 186.5C320.886 186.06 321.739 185.84 322.686 185.84C323.859 185.84 324.846 186.147 325.646 186.76C326.459 187.373 326.973 188.193 327.186 189.22H325.466C325.333 188.607 325.006 188.133 324.486 187.8C323.966 187.453 323.359 187.28 322.666 187.28C322.106 187.28 321.579 187.42 321.086 187.7C320.593 187.98 320.193 188.4 319.886 188.96C319.579 189.52 319.426 190.213 319.426 191.04C319.426 191.867 319.579 192.56 319.886 193.12C320.193 193.68 320.593 194.107 321.086 194.4C321.579 194.68 322.106 194.82 322.666 194.82C323.359 194.82 323.966 194.653 324.486 194.32C325.006 193.973 325.333 193.487 325.466 192.86H327.186C326.986 193.86 326.479 194.673 325.666 195.3C324.853 195.927 323.859 196.24 322.686 196.24ZM334.052 196.24C333.119 196.24 332.279 196.027 331.532 195.6C330.786 195.173 330.192 194.573 329.752 193.8C329.326 193.013 329.112 192.093 329.112 191.04C329.112 189.987 329.332 189.073 329.772 188.3C330.212 187.513 330.806 186.907 331.552 186.48C332.312 186.053 333.159 185.84 334.092 185.84C335.026 185.84 335.866 186.053 336.612 186.48C337.359 186.907 337.946 187.513 338.372 188.3C338.812 189.073 339.032 189.987 339.032 191.04C339.032 192.093 338.812 193.013 338.372 193.8C337.932 194.573 337.332 195.173 336.572 195.6C335.826 196.027 334.986 196.24 334.052 196.24ZM334.052 194.8C334.626 194.8 335.159 194.66 335.652 194.38C336.146 194.1 336.546 193.68 336.852 193.12C337.159 192.56 337.312 191.867 337.312 191.04C337.312 190.213 337.159 189.52 336.852 188.96C336.559 188.4 336.166 187.98 335.672 187.7C335.179 187.42 334.652 187.28 334.092 187.28C333.519 187.28 332.986 187.42 332.492 187.7C331.999 187.98 331.599 188.4 331.292 188.96C330.986 189.52 330.832 190.213 330.832 191.04C330.832 191.867 330.986 192.56 331.292 193.12C331.599 193.68 331.992 194.1 332.472 194.38C332.966 194.66 333.492 194.8 334.052 194.8ZM345.168 196.24C343.982 196.24 342.995 195.94 342.208 195.34C341.422 194.74 340.962 193.927 340.828 192.9H342.548C342.655 193.42 342.928 193.873 343.368 194.26C343.822 194.633 344.428 194.82 345.188 194.82C345.895 194.82 346.415 194.673 346.748 194.38C347.082 194.073 347.248 193.713 347.248 193.3C347.248 192.7 347.028 192.3 346.588 192.1C346.162 191.9 345.555 191.72 344.768 191.56C344.235 191.453 343.702 191.3 343.168 191.1C342.635 190.9 342.188 190.62 341.828 190.26C341.468 189.887 341.288 189.4 341.288 188.8C341.288 187.933 341.608 187.227 342.248 186.68C342.902 186.12 343.782 185.84 344.888 185.84C345.942 185.84 346.802 186.107 347.468 186.64C348.148 187.16 348.542 187.907 348.648 188.88H346.988C346.922 188.373 346.702 187.98 346.328 187.7C345.968 187.407 345.482 187.26 344.868 187.26C344.268 187.26 343.802 187.387 343.468 187.64C343.148 187.893 342.988 188.227 342.988 188.64C342.988 189.04 343.195 189.353 343.608 189.58C344.035 189.807 344.608 190 345.328 190.16C345.942 190.293 346.522 190.46 347.068 190.66C347.628 190.847 348.082 191.133 348.428 191.52C348.788 191.893 348.968 192.44 348.968 193.16C348.982 194.053 348.642 194.793 347.948 195.38C347.268 195.953 346.342 196.24 345.168 196.24ZM354.839 196C353.932 196 353.219 195.78 352.699 195.34C352.179 194.9 351.919 194.107 351.919 192.96V187.5H350.199V186.08H351.919L352.139 183.7H353.599V186.08H356.519V187.5H353.599V192.96C353.599 193.587 353.726 194.013 353.979 194.24C354.232 194.453 354.679 194.56 355.319 194.56H356.359V196H354.839Z" fill="#F5FBFF" fill-opacity="0.6"/>
<rect x="32" y="25" width="73" height="73" rx="36.5" fill="#4CCD99"/>
<path d="M80 49C80.7956 49 81.5587 49.3161 82.1213 49.8787C82.6839 50.4413 83 51.2044 83 52V67C83 68.665 81.665 70 80 70H86V73H50V70H56C55.2044 70 54.4413 69.6839 53.8787 69.1213C53.3161 68.5587 53 67.7956 53 67V52C53 50.335 54.335 49 56 49H80ZM80 52H56V67H80V52ZM68 61C71.315 61 74 62.35 74 64V65.5H62V64C62 62.35 64.685 61 68 61ZM68 53.5C68.7956 53.5 69.5587 53.8161 70.1213 54.3787C70.6839 54.9413 71 55.7044 71 56.5C71 57.2956 70.6839 58.0587 70.1213 58.6213C69.5587 59.1839 68.7956 59.5 68 59.5C66.335 59.5 65 58.165 65 56.5C65 54.835 66.35 53.5 68 53.5Z" fill="white"/>
<circle cx="69" cy="62" r="42.75" stroke="#4CCD99" stroke-opacity="0.6" stroke-width="0.5"/>
<circle cx="69" cy="62" r="49.75" stroke="#4CCD99" stroke-opacity="0.2" stroke-width="0.5"/>
<circle cx="69" cy="62" r="55.75" stroke="#4CCD99" stroke-opacity="0.05" stroke-width="0.5"/>
<g style="mix-blend-mode:luminosity">
<path d="M202.647 369.601L190.606 414.863C190.548 415.092 190.542 415.321 190.583 415.544C190.63 415.767 190.73 415.984 190.865 416.16C191.006 416.348 191.188 416.495 191.393 416.589C191.598 416.694 191.827 416.747 192.051 416.747L217.787 416.741V421.502H143.847C142.82 421.502 141.81 421.268 140.888 420.816C139.961 420.363 139.157 419.712 138.523 418.896C137.894 418.086 137.454 417.141 137.249 416.137C137.037 415.133 137.061 414.088 137.307 413.09L149.013 367.006L202.647 369.601Z" fill="white"/>
<path d="M190.654 414.875L199.201 382.545L148.585 385.316L140.971 412.978C140.853 413.425 140.83 413.888 140.918 414.34C141.006 414.787 141.194 415.209 141.476 415.573C141.752 415.943 142.11 416.237 142.521 416.442C142.932 416.648 143.384 416.747 143.842 416.747H192.051C191.833 416.736 191.61 416.683 191.411 416.583C191.211 416.471 191.041 416.325 190.906 416.149C190.771 415.967 190.683 415.761 190.636 415.538C190.595 415.321 190.601 415.092 190.654 414.875Z" fill="#DA914E"/>
<path d="M146.307 393.594L140.971 412.978C140.853 413.425 140.83 413.888 140.918 414.34C141.006 414.787 141.194 415.209 141.476 415.573C141.752 415.943 142.11 416.237 142.521 416.442C142.932 416.647 143.384 416.747 143.842 416.747H192.051" stroke="#DA914E" stroke-width="1.76117" stroke-linecap="round" stroke-linejoin="round"/>
<path d="M74.3837 266.261C74.372 266.249 74.3603 266.249 74.3426 266.255C74.3309 266.255 74.325 266.261 74.3133 266.273L72.4464 269.243C71.7185 270.418 71.4426 271.815 71.6774 273.171L93.0639 395.255C93.2694 396.429 93.8917 397.486 94.7957 398.255C95.7115 399.018 96.868 399.441 98.0539 399.441H265.072C265.43 399.441 265.788 399.359 266.117 399.2C266.44 399.042 266.721 398.807 266.944 398.519L269.428 395.578C269.428 395.572 269.434 395.566 269.434 395.566C269.434 395.561 269.434 395.555 269.434 395.543C269.434 395.537 269.434 395.531 269.428 395.525C269.428 395.525 269.422 395.519 269.416 395.514L74.3837 266.261Z" fill="white"/>
<path d="M98.0518 399.488C96.8542 399.494 95.686 399.071 94.7643 398.296C93.8426 397.527 93.2203 396.447 93.0149 395.261L71.6225 273.182C71.3877 271.809 71.6636 270.4 72.4092 269.214L74.2701 266.249C74.2877 266.22 74.323 266.208 74.3523 266.202C74.3699 266.202 74.3934 266.208 74.4051 266.22L269.443 395.42C269.455 395.431 269.461 395.443 269.467 395.449C269.478 395.461 269.484 395.478 269.484 395.49C269.484 395.502 269.484 395.519 269.478 395.525C269.478 395.543 269.467 395.555 269.461 395.566L266.983 398.554C266.754 398.854 266.467 399.089 266.132 399.253C265.803 399.412 265.439 399.494 265.07 399.494L98.0518 399.488Z" fill="#BA6518"/>
<path d="M269.934 393.418C270.028 393.805 270.028 394.204 269.934 394.586C269.852 394.973 269.67 395.331 269.424 395.631C269.171 395.936 268.854 396.177 268.49 396.341C268.132 396.5 267.739 396.576 267.345 396.558H99.7581C98.8775 396.529 98.0381 396.2 97.3688 395.637C96.6996 395.061 96.2417 394.281 96.0655 393.418L73.9335 267.928C73.8513 267.547 73.8513 267.148 73.9393 266.766C74.0274 266.378 74.2094 266.026 74.456 265.721C74.7084 265.416 75.0254 265.175 75.3835 265.011C75.7416 264.852 76.1291 264.776 76.5224 264.788H244.115C244.996 264.817 245.841 265.146 246.511 265.715C247.18 266.29 247.638 267.065 247.808 267.928L269.934 393.418Z" fill="white"/>
<path d="M268.562 396.3C268.186 396.47 267.775 396.564 267.347 396.558H99.7594C98.8788 396.529 98.0393 396.2 97.3701 395.637C96.7008 395.061 96.2429 394.281 96.0668 393.418L73.9347 267.928C73.8937 267.67 73.8819 267.4 73.8995 267.136" stroke="#BA6518" stroke-width="1.76117" stroke-linecap="round" stroke-linejoin="round"/>
<path d="M259.164 375.295L104.468 374.503L94.3886 367.534L77.0704 269.326C77.0293 269.144 77.0293 268.95 77.0704 268.768C77.1115 268.58 77.1995 268.41 77.3228 268.263C77.4402 268.116 77.5929 267.999 77.769 267.922C77.9392 267.84 78.1329 267.805 78.3208 267.811H243.39C243.818 267.829 244.229 267.987 244.552 268.263C244.881 268.533 245.098 268.915 245.18 269.326L262.487 367.487L259.164 375.295Z" fill="#EFAD71"/>
<path d="M162.582 266.866C162.875 266.543 162.805 265.991 162.417 265.639C162.036 265.287 161.484 265.269 161.184 265.592C160.891 265.909 160.967 266.461 161.349 266.813C161.73 267.165 162.282 267.189 162.582 266.866Z" fill="#EFAD71"/>
<path d="M264.606 379.498C264.606 379.504 264.606 379.51 264.606 379.516C264.606 379.528 264.6 379.534 264.6 379.534C264.594 379.54 264.588 379.54 264.582 379.545C264.577 379.545 264.571 379.551 264.559 379.551H96.5549C96.5432 379.545 96.5256 379.54 96.5197 379.534C96.508 379.528 96.4962 379.51 96.4962 379.498L94.3887 367.534L262.487 367.487L264.606 379.498Z" fill="black"/>
<path d="M190.119 392.173C191.968 390.154 191.516 386.737 189.109 384.536C186.708 382.334 183.262 382.187 181.413 384.201C179.564 386.22 180.016 389.643 182.423 391.844C184.824 394.04 188.27 394.193 190.119 392.173Z" fill="#EDBD92"/>
<path d="M228.197 367.499H163.163C153.893 366.542 148.21 366.595 140.385 367.499H128.802C128.802 365.28 130.07 362.926 131.62 360.9C132.953 359.18 134.485 357.63 136.193 356.286C138.336 354.648 138.712 353.885 141.23 352.752C141.489 352.635 141.87 352.464 142.334 352.247C144.659 351.167 149.214 349.007 152.678 347.369C155.126 346.195 157.034 345.291 157.222 345.202C157.228 345.202 157.233 345.197 157.239 345.191C157.245 345.185 157.245 345.179 157.245 345.173L159.364 339.937C159.364 339.925 159.376 339.919 159.388 339.913C159.4 339.901 159.411 339.901 159.423 339.901L182.776 338.762C182.806 338.768 182.829 338.78 182.847 338.798L184.837 341.786C184.843 341.792 184.843 341.792 184.843 341.798C184.919 342.021 185.054 342.226 185.23 342.385C185.682 342.801 186.252 343.083 186.856 343.177C187.737 343.365 189.88 343.617 192.216 343.923C194.547 344.222 197.065 344.563 198.703 344.944C201.979 345.701 206.141 347.216 208.155 349.101C210.074 350.903 222.05 361.611 223.189 362.638C223.195 362.638 223.201 362.65 223.201 362.656C223.201 362.667 223.201 362.673 223.201 362.679C223.201 362.691 223.195 362.697 223.183 362.703C223.183 362.709 223.172 362.709 223.166 362.709L228.197 367.499Z" fill="#97607A"/>
<path d="M156.159 346.377L157.996 360.443L171.733 353.14" stroke="#3D3D3D" stroke-width="1.76117" stroke-linecap="round" stroke-linejoin="round"/>
<path d="M148.209 297.892L145.89 300.087C144.681 301.238 143.894 302.752 143.66 304.402C143.419 306.052 143.742 307.731 144.575 309.175L149.8 318.227" stroke="#333333" stroke-width="1.76117" stroke-linecap="round" stroke-linejoin="round"/>
<path d="M160.481 340.418C160.475 340.412 160.463 340.406 160.463 340.4C160.463 340.389 160.457 340.383 160.463 340.371L161.209 334.682C161.209 334.671 161.209 334.665 161.203 334.653C160.944 334.277 155.673 326.692 155.18 326.117C154.675 325.53 153.753 323.599 153.248 323.434C152.743 323.264 151.487 323.939 150.143 321.415C148.798 318.89 147.536 315.028 147.877 313.349C148.188 311.793 149.943 311.03 150.195 310.924C150.207 310.924 150.213 310.912 150.219 310.907C150.225 310.901 150.225 310.889 150.225 310.883C150.184 310.319 149.638 302.658 149.72 299.993C149.808 297.216 155.684 286.379 166.445 286.297C177.2 286.209 180.81 288.563 183.247 291.504C185.601 294.346 187.01 303.287 187.11 303.903C187.11 303.915 187.115 303.921 187.115 303.932C187.127 303.938 187.133 303.938 187.145 303.938C187.984 304.044 188.789 304.361 189.464 304.866C190.303 305.617 191.565 313.349 190.726 314.358C189.951 315.28 189.246 315.996 189.141 316.102C189.135 316.108 189.129 316.12 189.129 316.12C189.123 316.125 189.123 316.137 189.123 316.137C189.164 316.63 189.757 326.011 188.29 328.471C186.775 330.996 182.742 334.271 182.237 335.023C181.732 335.78 181.562 336.033 181.486 337.377C181.403 338.668 181.949 341.363 181.99 341.563C181.99 341.574 181.99 341.574 181.99 341.586L176.836 356.885C176.795 356.996 176.73 357.096 176.642 357.172C176.554 357.255 176.443 357.302 176.325 357.319C176.208 357.343 176.091 357.331 175.979 357.284C175.867 357.237 175.774 357.167 175.703 357.073C173.331 353.967 166.058 344.439 165.776 344.011C165.447 343.529 160.856 340.653 160.481 340.418Z" fill="#E77240"/>
<path d="M154.105 315.949C154.117 315.949 154.117 315.949 154.123 315.949C154.134 315.949 154.134 315.944 154.14 315.944C154.146 315.938 154.152 315.932 154.152 315.926C154.152 315.92 154.158 315.914 154.158 315.908C154.944 307.331 156.007 303.568 156.101 303.251C156.107 303.246 156.107 303.234 156.113 303.234C156.118 303.228 156.124 303.222 156.13 303.216C156.33 303.157 157.927 302.635 162.03 301.461C166.445 300.205 171.041 297.997 173.437 295.479C175.703 293.089 177.804 288.44 178.022 287.959C178.027 287.947 178.033 287.941 178.045 287.935C178.057 287.929 178.069 287.929 178.08 287.935C179.795 288.722 181.338 289.825 182.642 291.193C184.467 293.271 185.73 297.622 186.358 300.709C186.91 303.433 187.908 308.059 188.137 309.116C188.137 309.134 188.137 309.145 188.148 309.151C188.154 309.157 188.172 309.163 188.178 309.163C188.195 309.163 188.207 309.157 188.213 309.151C188.219 309.145 188.225 309.134 188.225 309.116C188.436 307.936 189.393 302.283 189.504 298.126C189.628 293.459 188.559 291.698 187.426 290.812C186.364 289.99 182.806 288.827 182.366 288.686C182.36 288.686 182.354 288.687 182.348 288.681C182.348 288.675 182.342 288.669 182.342 288.669C182.336 288.657 182.331 288.651 182.331 288.651C182.331 288.64 182.336 288.634 182.336 288.634C182.448 288.328 183.053 286.491 182.066 285.393C180.998 284.201 178.667 282.81 171.229 281.8C163.797 280.791 154.34 284.513 149.995 288.481C145.657 292.438 143.702 302.042 148.14 312.415C148.14 312.427 148.146 312.433 148.152 312.433C148.158 312.439 148.164 312.445 148.176 312.445C148.181 312.451 148.193 312.445 148.193 312.445C148.205 312.439 148.211 312.433 148.211 312.427C148.563 311.905 149.062 311.5 149.649 311.276C150.23 311.053 150.876 311.012 151.481 311.165C151.487 311.165 151.498 311.165 151.504 311.171C151.51 311.183 151.51 311.183 151.51 311.194C151.604 311.552 152.684 315.679 154.105 315.949Z" fill="#693820"/>
<path d="M167.538 313.325C168.342 313.325 168.988 312.392 168.988 311.253C168.988 310.108 168.342 309.181 167.538 309.181C166.74 309.181 166.088 310.108 166.088 311.253C166.088 312.392 166.74 313.325 167.538 313.325Z" fill="#333333"/>
<path d="M180.811 313.402C181.615 313.402 182.261 312.474 182.261 311.329C182.261 310.19 181.615 309.263 180.811 309.263C180.012 309.263 179.361 310.19 179.361 311.329C179.361 312.474 180.012 313.402 180.811 313.402Z" fill="#333333"/>
<path d="M174.675 306.715C174.675 306.715 174.258 309.322 174.429 309.991C174.599 310.66 177.282 315.949 177.616 317.722C177.951 319.489 176.019 321.08 176.019 321.08" stroke="#52200A" stroke-width="1.76117" stroke-linecap="round" stroke-linejoin="round"/>
<path d="M177.095 302.435C178.275 301.59 181.833 299.571 184.721 303.357C184.751 303.386 184.762 303.428 184.768 303.469C184.768 303.51 184.756 303.551 184.739 303.586C184.715 303.621 184.692 303.651 184.657 303.668C184.616 303.686 184.575 303.698 184.533 303.692L177.195 302.805C177.154 302.805 177.113 302.782 177.084 302.758C177.054 302.729 177.031 302.694 177.019 302.653C177.007 302.617 177.013 302.576 177.025 302.535C177.043 302.494 177.066 302.465 177.095 302.435Z" fill="#693820"/>
<path d="M161.947 304.508C162.857 303.187 165.792 299.741 170.224 302.588C170.26 302.612 170.295 302.647 170.312 302.688C170.33 302.729 170.336 302.776 170.33 302.823C170.318 302.864 170.301 302.911 170.271 302.94C170.242 302.975 170.201 302.999 170.154 303.011L162.188 304.86C162.141 304.872 162.099 304.866 162.053 304.854C162.011 304.831 161.97 304.801 161.947 304.766C161.923 304.725 161.906 304.684 161.906 304.637C161.906 304.59 161.917 304.549 161.947 304.508Z" fill="#693820"/>
<path d="M169.468 322.929C170.431 324.127 171.722 325.019 173.184 325.495C174.651 325.97 176.219 326.011 177.704 325.618" stroke="#52200A" stroke-width="1.76117" stroke-linecap="round" stroke-linejoin="round"/>
<path d="M149.637 313.942L151.739 316.378L151.569 318.556" stroke="#52200A" stroke-width="1.76117" stroke-linecap="round" stroke-linejoin="round"/>
<path d="M210.192 365.233C210.186 365.233 210.186 365.233 210.175 365.227C210.169 365.227 210.169 365.227 210.163 365.221C209.846 364.822 203.353 356.756 202.866 355.529C202.361 354.272 192.275 340.659 191.019 337.888C189.757 335.111 193.162 334.858 194.042 336.121C194.841 337.254 197.653 339.396 198.228 339.825C198.234 339.831 198.246 339.837 198.252 339.837C198.263 339.837 198.269 339.831 198.281 339.825C198.287 339.825 198.293 339.813 198.293 339.807C198.299 339.801 198.299 339.79 198.299 339.778C198.164 339.273 197.647 337.359 197.318 336.373C196.984 335.357 197.553 333.843 197.676 333.532C197.682 333.526 197.682 333.52 197.682 333.514C197.682 333.508 197.676 333.496 197.67 333.491C197.67 333.491 197.665 333.479 197.659 333.479C197.653 333.473 197.647 333.473 197.641 333.473C196.989 333.42 191.336 332.968 190.262 332.845C189.129 332.722 188.371 330.326 189.005 330.197C189.639 330.074 202.49 329.692 205.895 329.951C209.294 330.197 210.181 330.702 210.809 331.841C211.437 332.974 220.431 353.445 220.513 353.644L221.851 356.198C221.863 356.221 221.881 356.257 221.892 356.28L222.638 358.018C222.644 358.03 222.644 358.041 222.644 358.053C222.644 358.071 222.644 358.082 222.632 358.094L218.394 365.832C218.388 365.843 218.376 365.855 218.364 365.861C218.352 365.867 218.341 365.867 218.323 365.867L210.192 365.233Z" fill="#E77240"/>
<path d="M207.703 363.349C207.697 363.343 207.703 363.337 207.703 363.331C207.703 363.325 207.709 363.319 207.709 363.313C207.709 363.307 207.721 363.307 207.727 363.302C207.727 363.302 207.733 363.296 207.744 363.296C208.367 363.237 215.024 362.597 217.102 361.957C219.286 361.282 221.875 356.239 221.875 356.239L228.197 367.499H208.367L207.703 363.349Z" fill="#97607A"/>
<path d="M208.267 366.888L207.703 363.348C207.697 363.343 207.703 363.337 207.703 363.331C207.703 363.325 207.709 363.319 207.709 363.313C207.709 363.307 207.721 363.307 207.727 363.301C207.727 363.301 207.733 363.296 207.744 363.296C207.85 363.29 208.138 363.26 208.549 363.213" stroke="#3D3D3D" stroke-width="1.76117" stroke-linecap="round" stroke-linejoin="round"/>
<path d="M164.384 362.486C164.384 364.799 163.339 366.842 163.181 367.499H140.385C140.667 365.433 141.659 357.66 142.334 352.247C142.692 349.406 142.962 347.216 142.998 346.829C143.127 345.567 142.751 335.992 142.751 334.859C142.751 333.726 144.641 332.469 145.522 333.726C146.08 334.571 146.555 335.469 146.943 336.403C147.442 337.577 147.853 338.792 148.17 340.031C148.763 342.414 148.798 346.248 148.798 346.67C148.798 346.676 148.804 346.688 148.81 346.694C148.815 346.706 148.827 346.711 148.833 346.711C149.103 346.752 150.77 347.04 152.678 347.369C154.833 347.733 157.287 348.15 158.379 348.343C160.416 348.707 160.744 352.717 160.768 353.104C160.768 353.11 160.774 353.122 160.78 353.122C160.78 353.134 160.786 353.14 160.797 353.14C161.044 353.228 162.84 353.862 163.539 355.153C164.243 356.439 162.987 358.711 162.811 359.022C162.805 359.028 162.799 359.045 162.805 359.051C162.805 359.063 162.811 359.069 162.817 359.081C162.958 359.18 163.521 359.674 164.173 361.2C164.331 361.611 164.402 362.051 164.384 362.486Z" fill="#E77240"/>
<path d="M197.7 333.473L204.879 331.459" stroke="#52200A" stroke-width="1.76117" stroke-linecap="round" stroke-linejoin="round"/>
<path d="M198.506 338.322L206.143 333.978" stroke="#52200A" stroke-width="1.76117" stroke-linecap="round" stroke-linejoin="round"/>
<path d="M200.219 342.543L207.404 337.383" stroke="#52200A" stroke-width="1.76117" stroke-linecap="round" stroke-linejoin="round"/>
<path d="M203.875 353.891L205.261 346.958" stroke="#52200A" stroke-width="1.76117" stroke-linecap="round" stroke-linejoin="round"/>
<path d="M206.266 343.43C206.266 343.43 211.303 344.181 209.665 347.21C208.197 347.269 206.718 347.181 205.256 346.958C202.485 346.582 201.98 345.954 201.1 344.944C200.213 343.934 198.329 339.901 198.329 339.901" stroke="#52200A" stroke-width="1.76117" stroke-linecap="round" stroke-linejoin="round"/>
<path d="M156.359 362.709L163.733 364.129" stroke="#52200A" stroke-width="1.76117" stroke-linecap="round" stroke-linejoin="round"/>
<path d="M153.466 356.286L162.789 359.057" stroke="#52200A" stroke-width="1.76117" stroke-linecap="round" stroke-linejoin="round"/>
<path d="M151.323 350.867L160.416 352.957" stroke="#52200A" stroke-width="1.76117" stroke-linecap="round" stroke-linejoin="round"/>
<path d="M181.902 335.557C180.581 336.203 179.16 336.62 177.704 336.79C175.015 336.96 172.914 336.878 172.579 337.295C172.244 337.718 171.822 338.305 173.254 338.557C174.111 338.71 178.455 339.76 181.808 340.582C181.637 339.003 181.273 336.925 181.902 335.557Z" fill="#52200A"/>
<path d="M172.156 337.717C172.402 337.717 174.927 338.134 176.946 337.964C178.167 337.864 179.359 337.553 180.474 337.042L181.114 336.725" stroke="#52200A" stroke-width="1.76117" stroke-linecap="round" stroke-linejoin="round"/>
<path d="M178.844 353.087L194.418 358.552L191.612 344.516" stroke="#3D3D3D" stroke-width="1.76117" stroke-linecap="round" stroke-linejoin="round"/>
<path d="M182.977 331.078H188.231C188.789 331.078 189.335 330.96 189.834 330.72C190.339 330.485 190.785 330.139 191.137 329.716C191.489 329.287 191.742 328.788 191.883 328.254C192.018 327.72 192.035 327.156 191.936 326.61L189.74 316.225" stroke="#333333" stroke-width="1.76117" stroke-linecap="round" stroke-linejoin="round"/>
<path d="M151.795 321.303C151.085 321.65 150.263 321.697 149.512 321.438C148.766 321.186 148.156 320.634 147.809 319.924L146.524 317.282C146.347 316.93 146.248 316.548 146.218 316.155C146.195 315.762 146.248 315.368 146.377 314.993C146.5 314.623 146.7 314.276 146.964 313.983C147.222 313.689 147.539 313.449 147.891 313.272C148.25 313.102 148.631 313.002 149.024 312.979C149.418 312.955 149.811 313.014 150.181 313.143C150.557 313.272 150.891 313.472 151.191 313.736C151.484 314 151.719 314.317 151.889 314.676L153.175 317.317C153.515 318.028 153.568 318.85 153.31 319.601C153.052 320.347 152.506 320.957 151.795 321.303Z" fill="#333333"/>
<path d="M182.033 331.929H179.315C178.863 331.929 178.434 331.747 178.117 331.43C177.8 331.113 177.618 330.685 177.618 330.232C177.618 329.786 177.8 329.358 178.117 329.041C178.434 328.724 178.863 328.542 179.315 328.542H182.033C182.479 328.542 182.913 328.724 183.23 329.041C183.547 329.358 183.724 329.786 183.724 330.232C183.724 330.685 183.547 331.113 183.23 331.43C182.913 331.747 182.479 331.929 182.033 331.929Z" fill="#333333"/>
<path d="M67.1356 424.473L65.8147 452.399L55.7349 665.571C55.688 666.652 55.9756 667.714 56.5392 668.536C57.1087 669.352 57.9071 669.851 58.7642 669.933C59.6213 670.021 60.4725 669.669 61.13 668.97C61.7875 668.272 62.1984 667.274 62.2806 666.194L77.233 460.706L79.91 423.974L67.1356 424.473Z" fill="white"/>
<path d="M287.229 424.473L289.572 473.997L298.63 665.571C298.683 666.652 298.389 667.714 297.82 668.536C297.256 669.352 296.458 669.851 295.601 669.933C294.744 670.021 293.893 669.669 293.235 668.97C292.583 668.272 292.167 667.274 292.084 666.194L277.449 465.085L274.455 423.974L287.229 424.473Z" fill="white"/>
<path d="M80.3074 423.974L66.8462 424.473L65.813 452.399L77.2313 460.706L80.3074 423.974Z" fill="#DDDDDD"/>
<path d="M287.434 424.473L274.29 423.974L277.448 465.085L289.571 473.997L287.434 424.473Z" fill="#DDDDDD"/>
<path d="M24.4669 421.526C24.4551 421.526 24.4493 421.532 24.4434 421.538C24.4317 421.549 24.4258 421.561 24.4258 421.579C24.4375 422.336 24.6547 431.089 29.6154 431.089H311.802C319.434 431.089 320.496 421.902 320.579 421.074C320.579 421.068 320.579 421.062 320.579 421.056C320.579 421.05 320.573 421.039 320.567 421.033C320.567 421.027 320.561 421.021 320.555 421.021C320.549 421.021 320.543 421.021 320.537 421.021L24.4669 421.526Z" fill="#A97247"/>
<path d="M63.7457 374.725C63.728 374.702 63.7046 374.679 63.6752 374.661L61.0628 372.859C61.0628 372.853 61.0569 372.853 61.0511 372.853C61.0452 372.853 61.0335 372.853 61.0276 372.853C61.0217 372.853 61.0158 372.853 61.01 372.859L61.0041 372.865L48.8872 395.578C48.7933 395.76 48.7581 395.953 48.7992 396.147C48.8285 396.341 48.9342 396.523 49.0927 396.681C49.2571 396.84 49.4684 396.969 49.7209 397.063C49.9733 397.151 50.2433 397.198 50.5251 397.198H80.3124C80.3183 397.198 80.3242 397.198 80.33 397.198C80.3359 397.192 80.3359 397.192 80.3418 397.186C80.3476 397.186 80.3476 397.18 80.3476 397.175C80.3476 397.169 80.3418 397.169 80.3418 397.163L63.7457 374.725Z" fill="#E66A48"/>
<path d="M64.0974 403.21C64.0915 403.198 64.0856 403.186 64.0739 403.18C64.0621 403.174 64.0504 403.168 64.0328 403.168H51.8455C51.64 403.168 51.4287 403.204 51.2467 403.274C51.0588 403.345 50.9003 403.438 50.7888 403.562C50.6714 403.685 50.6068 403.82 50.5892 403.967C50.5657 404.108 50.6009 404.255 50.6831 404.39L60.6807 420.346C60.6866 420.352 60.6983 420.357 60.7101 420.363C60.7218 420.369 60.7394 420.369 60.757 420.369L68.4651 419.054C68.4827 419.054 68.4944 419.048 68.5062 419.042C68.512 419.031 68.5179 419.019 68.512 419.007L64.0974 403.21Z" fill="#E66A48"/>
<path d="M50.5246 397.233C50.237 397.233 49.9493 397.186 49.6969 397.092C49.4386 396.999 49.2096 396.869 49.0511 396.705C48.8809 396.541 48.7752 396.353 48.74 396.153C48.6989 395.954 48.7341 395.748 48.8339 395.566L60.9508 372.853C60.9684 372.829 60.9977 372.818 61.033 372.812C61.0506 372.812 61.0623 372.812 61.0741 372.818C61.0858 372.818 61.0917 372.824 61.0975 372.829L63.7158 374.638C63.751 374.655 63.7745 374.679 63.798 374.702L80.3941 397.145C80.4 397.169 80.4 397.186 80.3941 397.21C80.3824 397.216 80.3706 397.227 80.353 397.227C80.3413 397.233 80.3295 397.233 80.3119 397.233H50.5246Z" fill="#B0472A"/>
<path d="M60.7383 420.41C60.7148 420.41 60.6972 420.405 60.6737 420.393C60.6561 420.387 60.6385 420.375 60.6267 420.358L50.6291 404.401C50.547 404.26 50.5117 404.114 50.5293 403.961C50.5469 403.808 50.6233 403.668 50.7466 403.538C50.864 403.415 51.0225 403.309 51.2221 403.239C51.4099 403.169 51.633 403.127 51.8502 403.127H64.0375C64.061 403.127 64.0904 403.139 64.1138 403.151C64.1315 403.163 64.1491 403.18 64.1549 403.198L68.5755 419.001C68.5755 419.025 68.5696 419.043 68.5579 419.06C68.5403 419.078 68.5109 419.09 68.4816 419.095L60.7735 420.405L60.7383 420.41Z" fill="#B0472A"/>
<path d="M164.503 373.428V420.381C164.503 420.645 164.35 420.898 164.074 421.085C163.804 421.273 163.44 421.379 163.053 421.379H62.1492C61.7676 421.379 61.3978 421.273 61.1278 421.085C60.8577 420.898 60.7051 420.645 60.7051 420.381V373.428C60.7051 373.164 60.8577 372.912 61.1278 372.724C61.3978 372.536 61.7676 372.43 62.1492 372.43H163.053C163.44 372.43 163.804 372.536 164.074 372.724C164.35 372.912 164.503 373.164 164.503 373.428Z" fill="#E66A48"/>
<path d="M60.7051 396.905V373.428" stroke="#B0472A" stroke-width="1.76117" stroke-linecap="round" stroke-linejoin="round"/>
<path d="M60.7051 420.381V403.392" stroke="#B0472A" stroke-width="1.76117" stroke-linecap="round" stroke-linejoin="round"/>
<path d="M164.502 419.207C164.496 419.242 164.449 419.236 164.408 419.219C164.021 419.06 163.598 418.913 163.175 418.778L159.541 399.423C158.96 397.615 155.673 396.329 152.984 396.318C154.328 396.276 155.608 395.907 156.6 395.284C157.586 394.656 158.232 393.811 158.414 392.889L161.813 375.589C161.831 375.577 161.843 375.571 161.86 375.559C162.283 373.868 163.422 373.328 164.402 373.193C164.408 373.193 164.414 373.193 164.42 373.193C164.426 373.193 164.437 373.199 164.443 373.199C164.449 373.205 164.455 373.205 164.461 373.211C164.461 373.217 164.467 373.223 164.467 373.229H164.473C164.49 373.299 164.502 373.364 164.502 373.428C165.089 388.081 164.567 401.284 164.502 419.207Z" fill="#D0502D"/>
<path d="M102.105 396.323C100.796 396.323 99.5277 396.629 98.5062 397.192C97.4906 397.756 96.7744 398.548 96.4926 399.429L89.8882 420.052L89.8823 420.064L90.2991 374.033L90.305 374.05L96.4867 393.218C96.7744 394.104 97.4847 394.885 98.5062 395.454C99.5277 396.018 100.796 396.323 102.105 396.323Z" fill="#D0502D"/>
<path d="M90.2959 374.033L90.3018 374.05L96.4835 393.218C96.7711 394.104 97.4815 394.885 98.5029 395.455C99.5244 396.018 100.792 396.323 102.102 396.323H152.712C154.103 396.323 155.448 395.977 156.498 395.343C157.549 394.715 158.224 393.84 158.412 392.889L161.811 375.588L162.175 373.739" stroke="#B0472A" stroke-width="1.76117" stroke-linecap="round" stroke-linejoin="round"/>
<path d="M102.105 396.323C100.796 396.323 99.5277 396.629 98.5062 397.192C97.4906 397.756 96.7744 398.548 96.4926 399.429L89.8882 420.052L89.8823 420.064" stroke="#B0472A" stroke-width="1.76117" stroke-linecap="round" stroke-linejoin="round"/>
<path d="M163.287 419.371L163.176 418.778L159.542 399.423C158.961 397.615 155.673 396.329 152.984 396.318H152.961" stroke="#B0472A" stroke-width="1.76117" stroke-linecap="round" stroke-linejoin="round"/>
<path d="M146.186 389.766H111.151C110.975 389.766 110.81 389.719 110.687 389.631C110.558 389.543 110.487 389.425 110.487 389.308V379.299C110.487 379.175 110.558 379.064 110.687 378.976C110.81 378.894 110.975 378.841 111.151 378.841H146.186C146.356 378.841 146.527 378.894 146.656 378.976C146.779 379.064 146.85 379.175 146.85 379.299V389.308C146.85 389.425 146.779 389.543 146.656 389.631C146.527 389.719 146.356 389.766 146.186 389.766Z" fill="white"/>
<path d="M486.849 433.52C486.849 433.526 486.849 433.526 486.849 433.531C486.837 434.083 485.065 496.27 483.738 513.084C482.405 529.967 479.734 546.417 457.514 546.417H322.884C322.872 546.417 322.861 546.411 322.849 546.405C322.843 546.393 322.837 546.387 322.837 546.376C322.643 545.278 318.593 520.627 346.402 520.193C374.845 519.747 371.287 503.743 373.072 493.083C374.85 482.416 379.294 441.967 380.181 432.633C381.067 423.299 389.069 421.52 393.513 421.52H477.069C486.397 421.52 485.963 426.857 486.849 433.52Z" fill="#E66A48"/>
<path d="M466.848 461.528C468.586 472.999 469.331 484.594 469.073 496.194C468.967 501.706 468.139 507.178 466.607 512.467C466.59 512.514 466.619 512.42 466.607 512.467C462.733 525.3 454.138 535.75 439.291 535.75H377.069C377.069 535.75 381.513 550.415 384.407 557.084C387.296 563.752 394.851 575.969 395.738 577.971C396.624 579.973 383.738 592.418 374.404 595.307C365.07 598.195 359.956 599.528 359.07 597.972C358.184 596.416 350.628 578.857 349.072 576.192C347.517 573.527 336.046 549.006 336.046 549.006C336.046 549.006 333.609 555.639 330.469 564.428C325.578 578.118 318.997 596.945 317.512 603.303C315.07 613.746 311.289 633.078 310.843 634.634C310.397 636.189 296.179 633.078 287.29 630.636C278.402 628.188 268.176 619.523 268.845 617.744C269.509 615.965 278.402 591.743 281.291 582.409C284.179 573.081 294.4 531.077 297.511 513.078C300.628 495.079 308.624 489.748 308.624 489.748C308.624 489.748 304.403 471.074 311.512 461.299C314.266 457.507 325.479 454.114 338.171 451.39C358.213 447.075 381.959 439.032 381.959 439.032L393.29 417.076L448.402 415.521L466.848 461.528Z" fill="#2A2C45"/>
<path d="M338.166 451.495C338.172 451.501 338.172 451.507 338.183 451.513C338.189 451.519 338.201 451.519 338.213 451.519C339.228 451.36 365.81 447.251 380.845 444.633C390.52 449.781 399.971 457.436 400.594 457.935C400.605 457.947 400.611 457.947 400.623 457.947C400.635 457.947 400.646 457.947 400.652 457.935L408.343 450.245C408.349 450.245 408.354 450.239 408.366 450.233C408.372 450.233 408.378 450.227 408.39 450.233C408.401 450.239 408.401 450.245 408.407 450.245C408.419 450.251 408.419 450.262 408.419 450.268L411.73 465.273C411.73 465.279 411.736 465.291 411.742 465.297C411.748 465.297 411.753 465.303 411.759 465.309C412.317 465.52 422.82 469.512 440.408 478.858C446.865 482.222 453.147 485.938 459.199 489.983C464.037 493.288 467.084 495.9 469.009 497.873C468.851 501.213 468.44 504.536 467.77 507.812C469.89 507.395 472.173 506.127 472.291 502.745C472.291 502.745 471.193 468.332 469.538 455.957C469.538 455.945 469.538 455.933 469.543 455.922C469.549 455.916 469.555 455.91 469.561 455.91C469.561 455.91 469.573 455.91 469.579 455.91C477.874 455.123 480.856 424.831 480.856 410.859C480.856 396.858 480.709 380.315 477.856 368.526C475.297 357.971 471.504 354.343 469.949 352.341C468.393 350.339 441.001 333.526 441.001 333.526L438.271 323.041C438.271 323.03 438.265 323.03 438.259 323.024C438.253 323.018 438.247 323.012 438.242 323.012C437.59 322.771 422.949 317.323 417.518 318.192C411.965 319.079 396.108 326.194 396.108 326.194C396.108 326.194 394.259 336.409 393.813 337.078C393.367 337.747 377.51 347.668 373.959 351.003C370.401 354.337 366.18 372.63 362.629 385.076C359.071 397.521 354.621 423.522 354.621 423.522C354.621 423.522 336.845 428.629 334.18 434.635C331.591 440.459 337.808 450.902 338.166 451.495Z" fill="#97607A"/>
<path d="M409.37 416.448C408.143 416.448 407.145 415.456 407.145 414.229C407.145 413.002 408.143 412.01 409.37 412.01C410.597 412.01 411.589 413.002 411.589 414.229C411.589 415.456 410.597 416.448 409.37 416.448Z" fill="#EFAD71"/>
<path d="M334.18 434.641C335.096 432.574 337.802 430.619 340.955 428.935C340.966 428.929 340.972 428.929 340.984 428.929C340.996 428.929 341.001 428.935 341.007 428.94C344.201 431.876 347.958 436.067 347.958 439.525C347.958 445.513 341.988 449.358 341.958 449.376L338.225 451.501C338.219 451.501 338.213 451.507 338.207 451.507C338.201 451.507 338.195 451.507 338.189 451.507C338.184 451.507 338.178 451.501 338.172 451.501C338.172 451.495 338.166 451.495 338.166 451.489C337.749 450.814 331.603 440.435 334.18 434.641Z" fill="#97607A"/>
<path d="M334.18 434.641C335.095 432.574 337.802 430.619 340.954 428.935C340.966 428.929 340.972 428.929 340.984 428.929C340.995 428.929 341.001 428.935 341.007 428.94C344.201 431.876 347.958 436.067 347.958 439.525C347.958 445.478 342.052 449.311 341.958 449.37L338.183 451.519C338.183 451.519 331.514 440.635 334.18 434.641Z" fill="#7A3957"/>
<path d="M414.142 358.476C413.983 358.188 413.79 357.936 413.555 357.707L414.142 358.476Z" fill="#7A3957"/>
<path d="M392.449 368.773C392.455 368.785 392.473 368.785 392.485 368.796C393.982 368.28 395.361 367.787 396.659 367.311C402.089 361.951 406.292 359.691 412.386 358.734C412.773 358.405 413.161 358.059 413.554 357.707C410.049 353.075 390.776 364.276 392.449 368.773Z" fill="#97607A"/>
<path d="M392.449 368.773C392.455 368.785 392.473 368.785 392.485 368.796C393.982 368.28 395.361 367.787 396.659 367.311C402.089 361.951 406.292 359.691 412.386 358.734C412.773 358.405 413.161 358.059 413.554 357.707C410.049 353.075 390.776 364.276 392.449 368.773Z" fill="#7A3957"/>
<path d="M413.554 357.707C410.049 353.075 390.776 364.276 392.449 368.773" stroke="#7A3957" stroke-width="1.76117" stroke-linecap="round" stroke-linejoin="round"/>
<path d="M350.246 436.466C350.246 436.472 350.246 436.478 350.246 436.484C350.246 436.49 350.246 436.496 350.246 436.508C350.146 436.866 348.591 442.361 347.587 445.231C346.606 448.02 342.468 449.235 341.998 449.364C341.992 449.37 341.975 449.364 341.969 449.358C341.957 449.352 341.945 449.346 341.945 449.329L336.626 432.645C336.621 432.639 336.621 432.633 336.621 432.627C337.466 420.563 344.716 426.792 350.246 436.466Z" fill="#B66B35"/>
<path d="M350.205 436.473C350.223 436.478 350.229 436.484 350.234 436.496C350.246 436.508 350.246 436.52 350.24 436.531C350.088 437.071 348.573 442.414 347.587 445.232C346.606 448.02 342.468 449.235 341.998 449.364C341.992 449.37 341.975 449.37 341.969 449.364C341.957 449.353 341.945 449.347 341.945 449.335L336.65 432.721C336.644 432.71 336.644 432.704 336.644 432.692C336.65 432.686 336.656 432.68 336.662 432.674C336.662 432.663 336.673 432.663 336.679 432.663C336.685 432.663 336.697 432.663 336.703 432.663L350.205 436.473Z" fill="#694022"/>
<path d="M341.958 449.376L338.183 451.525C338.183 451.525 331.514 440.635 334.18 434.641C334.585 433.807 335.148 433.056 335.835 432.434" stroke="#7A3957" stroke-width="1.76117" stroke-linecap="round" stroke-linejoin="round"/>
<path d="M334.186 429.087C334.186 431.083 336.634 436.866 337.521 439.085C339.1 443.03 342.974 444.11 341.965 439.525V439.519L338.225 427.901C338.225 427.89 338.225 427.878 338.231 427.866C338.231 427.86 338.243 427.848 338.254 427.843C338.26 427.843 338.278 427.843 338.284 427.843C338.295 427.848 338.307 427.854 338.313 427.866L344.413 439.308C346.186 442.965 349.743 444.497 350.377 440.036C350.377 440.024 350.383 440.012 350.395 440.012C350.401 440.001 350.406 439.995 350.418 439.995C350.43 439.995 350.442 439.995 350.448 440.001C350.459 440.012 350.459 440.012 350.465 440.024C351.34 442.126 354.786 443.922 355.684 439.519C355.684 439.502 355.684 439.496 355.696 439.49C355.708 439.478 355.713 439.478 355.725 439.478C355.737 439.478 355.749 439.484 355.755 439.49C355.766 439.502 355.772 439.507 355.772 439.519C356.195 442.748 359.752 442.813 360.187 441.304C360.627 439.748 360.404 432.856 359.071 429.081C357.739 425.306 354.668 421.197 353.735 420.862C351.293 419.97 351.293 420.193 349.743 420.862C348.187 421.526 347.741 420.639 346.409 420.639C345.07 420.639 344.63 421.972 342.628 421.972C340.632 421.972 339.076 422.641 337.521 424.42C335.965 426.199 334.186 427.091 334.186 429.087Z" fill="#B66B35"/>
<path d="M339.079 441.527C340.776 443.212 342.713 442.924 341.962 439.525L338.222 427.901C338.222 427.89 338.222 427.878 338.228 427.866C338.228 427.86 338.24 427.849 338.252 427.843C338.257 427.843 338.275 427.843 338.281 427.843C338.293 427.849 338.298 427.855 338.31 427.866L344.41 439.308C345.49 441.539 347.234 442.983 348.578 442.748" stroke="#694022" stroke-width="1.76117" stroke-linecap="round" stroke-linejoin="round"/>
<path d="M391.099 263.15C391.087 263.15 391.075 263.156 391.064 263.161C391.052 263.167 391.052 263.179 391.046 263.185C390.923 263.86 389.373 272.19 387.7 276.576C385.956 281.131 379.675 293.565 382.041 307.22C382.041 307.232 382.046 307.238 382.052 307.244C382.058 307.255 382.07 307.255 382.07 307.255C382.082 307.261 382.093 307.255 382.099 307.255C382.111 307.255 382.111 307.249 382.123 307.244L384.089 304.784C384.095 304.772 384.107 304.772 384.113 304.766C384.125 304.766 384.131 304.766 384.142 304.772C384.154 304.772 384.16 304.778 384.166 304.79C384.172 304.796 384.172 304.807 384.172 304.819C383.855 306.651 383.725 308.512 383.796 310.373C383.796 310.384 383.802 310.396 383.814 310.402C383.819 310.414 383.831 310.42 383.843 310.42C389.737 310.854 395.255 318.192 410.795 316.049C425.999 313.954 431.218 303.152 431.459 302.641C431.465 302.635 431.465 302.629 431.465 302.623C431.465 302.618 431.465 302.606 431.459 302.606C431.072 301.672 416.113 266.631 391.099 263.15Z" fill="#0D1111"/>
<path d="M433.485 324.245L432.81 309.469L440.735 290.536C440.735 290.536 447.123 289.785 448.332 281.994C449.541 274.204 442.115 272.478 442.115 272.478C442.115 272.478 445.303 248.509 430.802 243.671C416.302 238.84 404.89 239.914 396.025 246.36C387.166 252.806 390.389 272.678 390.389 277.38C390.389 282.077 387.971 284.63 390.389 292.42C392.808 300.205 398.714 312.292 401.262 313.097C403.815 313.901 411.066 313.766 411.066 313.766L409.457 325.983L411.876 327.867L412.298 340.612L419.531 326.922C419.525 326.928 428.519 326.388 433.485 324.245Z" fill="#B66B35"/>
<path d="M411.888 327.861C411.882 327.867 411.876 327.867 411.87 327.861C411.865 327.861 411.859 327.855 411.859 327.849L409.475 326C409.464 325.994 409.458 325.988 409.458 325.983C409.458 325.977 409.452 325.965 409.458 325.959L411.054 313.795C411.054 313.789 411.06 313.778 411.072 313.772C411.072 313.766 411.084 313.76 411.096 313.754C411.724 313.619 421.727 311.388 426.435 308.87C426.441 308.864 426.447 308.864 426.459 308.864C426.465 308.864 426.471 308.864 426.482 308.87C426.488 308.87 426.494 308.882 426.494 308.888C426.5 308.893 426.506 308.899 426.506 308.911C426.236 314.829 425.39 320.699 423.97 326.452C423.964 326.458 423.958 326.47 423.958 326.47C423.946 326.482 423.94 326.487 423.929 326.487C421.445 326.81 419.584 326.922 419.526 326.928L411.888 327.861Z" fill="#694022"/>
<path d="M411.061 313.766C411.061 313.766 421.669 311.447 426.507 308.829" stroke="#694022" stroke-width="1.76117" stroke-linecap="round" stroke-linejoin="round"/>
<path d="M425.566 272.948C424.961 273.147 422.812 270.529 418.515 270.464C414.218 270.4 411.6 271.468 410.86 271.398C410.126 271.333 409.316 269.12 410.261 268.785C411.2 268.451 415.897 267.441 419.325 268.11C422.748 268.785 425.366 271.063 425.636 271.738C425.713 271.932 425.748 272.143 425.736 272.349C425.718 272.56 425.666 272.76 425.566 272.948Z" fill="#1B2020"/>
<path d="M402.939 269.725C403.004 269.924 403.204 271.668 402.939 271.738C402.669 271.803 398.501 271.198 395.754 271.333C393.006 271.463 391.257 273.277 390.987 272.942C390.711 272.607 392.795 269.719 395.484 269.044C398.167 268.375 402.939 269.725 402.939 269.725Z" fill="#1B2020"/>
<path d="M415.257 281.29C415.004 280.034 415.539 278.871 416.443 278.683C417.359 278.501 418.298 279.37 418.544 280.626C418.803 281.883 418.269 283.045 417.359 283.227C416.449 283.415 415.509 282.546 415.257 281.29Z" fill="#1B2020"/>
<path d="M397.262 280.744C397.015 279.493 397.544 278.325 398.453 278.143C399.363 277.961 400.303 278.83 400.555 280.086C400.808 281.337 400.273 282.505 399.369 282.693C398.459 282.869 397.514 282 397.262 280.744Z" fill="#1B2020"/>
<path d="M404.015 272.677C404.015 272.677 405.359 276.37 405.829 277.45C406.299 278.525 405.154 280.802 404.62 282.282C404.079 283.755 403.07 286.239 402.735 287.448C402.4 288.663 402.6 290.401 403.61 290.876C404.62 291.352 406.028 291.886 406.028 291.886" stroke="#694022" stroke-width="1.76117" stroke-linecap="round" stroke-linejoin="round"/>
<path d="M415.29 296.242C415.29 296.242 411.392 300.07 405.082 298.461" stroke="#694022" stroke-width="1.76117" stroke-linecap="round" stroke-linejoin="round"/>
<path d="M390.025 277.873C389.872 281.049 390.753 285.622 394.428 286.679C398.103 287.736 400.621 286.327 400.621 286.327C400.621 286.327 403.862 283.72 403.862 277.885" stroke="#EFAD71" stroke-width="1.76117" stroke-linecap="round" stroke-linejoin="bevel"/>
<path d="M408.781 277.791C408.781 277.791 408.523 281.895 409.08 284.26C409.427 285.681 410.284 286.92 411.499 287.73C416.882 291.094 428.324 288.998 426.95 279.893" stroke="#EFAD71" stroke-width="1.76117" stroke-linecap="round" stroke-linejoin="bevel"/>
<path d="M442.017 257.367C445.234 257.602 448.469 257.121 451.48 255.958C451.598 255.911 451.656 255.882 451.774 255.829C456.171 253.698 458.308 246.507 453.394 239.345C448.357 231.995 443.626 229.576 437.08 231.789C430.528 234.008 429.524 240.654 429.524 240.654L442.017 257.367Z" fill="#1B2020"/>
<path d="M429.906 239.209C444.964 237.742 450.095 247.827 451.774 255.829C449.115 257.373 444.764 257.661 442.011 257.373L429.524 240.659C429.612 240.166 429.736 239.685 429.906 239.209Z" fill="#0D1111"/>
<path d="M388.372 248.913C394.988 240.706 406.946 239.673 407.293 239.644C407.299 239.644 407.31 239.644 407.316 239.638C407.657 239.485 420.519 233.814 434.297 239.515C448.263 245.285 450.946 271.603 452.426 281.137C453.899 290.671 455.649 298.995 451.486 307.725C447.483 316.126 433.147 317.306 432.078 317.382C432.072 317.382 432.066 317.382 432.061 317.382C432.049 317.382 432.049 317.376 432.043 317.364C432.037 317.364 432.031 317.358 432.031 317.347C432.031 317.341 432.031 317.335 432.031 317.329C432.29 316.208 432.46 315.069 432.542 313.924C432.548 313.912 432.542 313.901 432.536 313.895C432.536 313.883 432.524 313.883 432.519 313.877C432.507 313.871 432.495 313.871 432.489 313.877C432.477 313.877 432.472 313.883 432.466 313.889C429.325 317.998 423.871 317.494 423.114 317.405C423.102 317.4 423.09 317.4 423.09 317.394C423.084 317.382 423.079 317.382 423.073 317.37C423.067 317.364 423.067 317.358 423.067 317.347C423.073 317.341 423.079 317.329 423.084 317.323C423.848 316.496 431.626 307.813 431.755 299.124C431.879 290.242 431.121 272.196 431.08 271.239C431.08 271.228 431.074 271.216 431.074 271.21C431.063 271.198 431.051 271.192 431.039 271.192C409.612 268.932 408.567 254.285 408.525 252.23C408.525 252.224 408.52 252.213 408.514 252.207C408.508 252.195 408.496 252.189 408.484 252.189C408.479 252.189 408.461 252.189 408.455 252.195C408.443 252.201 408.437 252.207 408.437 252.219C407.933 253.44 405.191 259.363 398.722 262.204C389.951 266.05 389.247 271.509 389.194 272.613C389.188 272.625 389.188 272.631 389.182 272.642C389.176 272.648 389.164 272.654 389.153 272.654C389.147 272.654 389.135 272.654 389.123 272.654C389.117 272.648 389.106 272.636 389.1 272.631C388.296 270.869 382.079 256.71 388.372 248.913ZM447.653 280.597C448.04 274.439 441.36 274.903 440.778 274.955C440.767 274.955 440.755 274.967 440.749 274.967C440.743 274.979 440.737 274.991 440.737 275.002C440.714 275.765 440.303 287.09 440.303 287.383C440.303 287.677 447.248 287.049 447.653 280.597Z" fill="#1B2020"/>
<path d="M433.75 239.292C433.932 239.362 434.114 239.439 434.296 239.515C440.807 242.209 444.869 249.366 447.499 257.209" stroke="#0D1111" stroke-width="1.76117" stroke-linecap="round" stroke-linejoin="round"/>
<path d="M392.533 354.654C392.932 357.009 395.744 364.64 396.63 367.253C396.636 367.27 396.648 367.294 396.66 367.311C403.675 364.717 407.92 362.55 412.387 358.734C411.213 355.946 410.186 353.105 409.311 350.21C409.088 348.878 409.534 347.099 410.42 345.543C411.307 343.988 418.422 330.656 419.309 327.321C420.189 323.992 416.866 319.319 414.418 316.989C412.217 314.887 408.882 311.33 406.886 313.625C406.88 313.637 406.869 313.643 406.863 313.648C406.851 313.648 406.839 313.648 406.828 313.643C404.004 312.245 402.924 314.071 402.765 314.394C402.753 314.4 402.748 314.412 402.73 314.412C402.718 314.418 402.707 314.412 402.695 314.412C402.337 314.165 399.883 312.633 398.544 314.963C398.538 314.969 398.533 314.975 398.527 314.981C398.521 314.987 398.509 314.987 398.503 314.987C395.856 314.776 394.969 315.774 394.306 317.658C393.572 319.66 393.085 321.756 392.862 323.881C392.727 324.761 392.891 325.666 393.325 326.452C393.76 327.233 394.447 327.844 395.269 328.19C395.28 328.196 395.286 328.208 395.292 328.213C395.298 328.231 395.298 328.237 395.298 328.254C395.057 328.889 392.175 336.591 391.535 340.207C390.866 343.988 391.646 349.43 392.533 354.654Z" fill="#B66B35"/>
<path d="M426.996 280.204C427.049 280.198 427.102 280.186 427.149 280.157C427.196 280.133 427.231 280.098 427.266 280.057L428.288 278.49L428.317 278.472L440.728 275.003C440.734 274.997 440.745 274.991 440.751 274.991C440.751 274.979 440.757 274.967 440.757 274.961L440.88 273.171C440.898 273.071 440.857 273.089 440.798 273.089L429.163 274.28C429.157 274.28 429.151 274.28 429.145 274.28C428.652 274.075 424.349 272.402 418.114 272.402C412.197 272.402 409.267 275.372 408.651 276.13C408.651 276.136 408.639 276.141 408.627 276.141C408.627 276.147 408.616 276.147 408.61 276.141C407.042 275.76 405.974 275.513 404.125 276.112C404.113 276.112 404.107 276.112 404.095 276.112C404.084 276.112 404.083 276.106 404.078 276.094C403.491 275.46 400.861 273.012 397.28 272.613C396.575 272.537 395.871 272.502 395.172 272.502C393.288 272.525 391.415 272.742 389.583 273.159C389.307 273.218 389.096 273.259 389.014 273.271C388.861 273.271 388.714 273.312 388.585 273.394C388.456 273.476 388.35 273.588 388.286 273.729C387.875 274.586 388.72 276.494 389.742 278.02C389.777 278.055 389.818 278.09 389.859 278.114C389.906 278.143 389.959 278.155 390.012 278.155C390.094 278.161 390.17 278.132 390.229 278.079C390.288 278.026 390.329 277.95 390.329 277.873C390.517 276.171 392.777 274.415 396.252 274.415C396.628 274.415 396.998 274.433 397.373 274.468C398.589 274.597 399.775 274.973 400.837 275.578C401.906 276.183 402.833 277.004 403.567 277.985C403.596 278.032 403.637 278.079 403.69 278.108C403.743 278.143 403.796 278.161 403.855 278.167C403.896 278.167 403.943 278.155 403.978 278.137C404.735 277.832 405.539 277.685 406.35 277.691C407.142 277.691 407.929 277.815 408.692 278.055C408.715 278.067 408.739 278.067 408.762 278.067C408.903 278.067 409.009 277.938 409.079 277.85V277.844C409.531 277.151 413.406 274.093 418.819 274.093C418.96 274.093 419.1 274.093 419.247 274.098C420.967 274.087 422.64 274.656 423.997 275.725C425.347 276.787 426.292 278.278 426.685 279.957C426.697 280.022 426.732 280.075 426.779 280.116C426.826 280.163 426.885 280.192 426.944 280.198C426.961 280.204 426.979 280.204 426.996 280.204Z" fill="#2A2C45"/>
<path d="M403.923 321.486C403.923 321.486 401.417 317.1 398.528 314.987" stroke="#694022" stroke-width="1.76117" stroke-linecap="round" stroke-linejoin="round"/>
<path d="M402.742 314.435C404.855 315.961 406.722 317.805 408.284 319.889" stroke="#694022" stroke-width="1.76117" stroke-linecap="round" stroke-linejoin="round"/>
<path d="M406.862 313.654C408.94 315.222 410.86 316.983 412.586 318.932" stroke="#694022" stroke-width="1.76117" stroke-linecap="round" stroke-linejoin="round"/>
<path d="M398.367 323.928L395.309 328.213" stroke="#694022" stroke-width="1.76117" stroke-linecap="round" stroke-linejoin="round"/>
<path d="M395.482 322.155L397.595 324.82" stroke="#694022" stroke-width="1.76117" stroke-linecap="round" stroke-linejoin="round"/>
<path d="M446.403 378.266L446.632 400.633" stroke="#7A3957" stroke-width="1.76117" stroke-linecap="round" stroke-linejoin="round"/>
<path d="M469.531 455.91L468.034 456.638C468.034 456.638 455.888 462.121 446.108 454.712C436.333 447.303 429.664 439.901 421.516 427.602C413.368 415.303 392.462 368.802 392.462 368.802C392.474 368.802 392.474 368.802 392.486 368.796C393.983 368.28 395.362 367.787 396.66 367.311C403.675 364.716 407.92 362.55 412.387 358.734C412.775 358.405 413.162 358.059 413.555 357.707L414.142 358.476L414.148 358.482L457.367 415.004" stroke="#7A3957" stroke-width="1.76117" stroke-linecap="round" stroke-linejoin="round"/>
<path d="M344.406 422.97C344.406 422.97 346.625 428.97 348.069 432.081C349.514 435.193 350.4 439.86 350.4 439.86" stroke="#694022" stroke-width="1.76117" stroke-linecap="round" stroke-linejoin="round"/>
<path d="M349.512 422.195C349.512 422.195 353.404 427.972 354.402 430.08C355.4 432.193 355.735 439.191 355.735 439.191" stroke="#694022" stroke-width="1.76117" stroke-linecap="round" stroke-linejoin="round"/>
<path d="M376.03 367.006L379.441 410.713C379.441 410.713 376.03 417.229 375.143 418.415C374.257 419.601 373.664 421.966 374.104 423.152C374.544 424.344 377.803 429.821 377.803 429.821C377.803 429.821 371.433 434.265 369.361 437.083C367.288 439.901 366.842 446.124 366.842 446.124" stroke="#7A3957" stroke-width="1.76117" stroke-linecap="round" stroke-linejoin="round"/>
<path d="M440.998 333.526L425.224 345.819L418.015 332.123" stroke="#7A3957" stroke-width="1.76117" stroke-linecap="round" stroke-linejoin="round"/>
<path d="M411.962 472.195L397.52 472.641L359.96 478.635" stroke="black" stroke-width="1.76117" stroke-linecap="round" stroke-linejoin="round"/>
<path d="M398.186 461.968L396.401 472.412" stroke="black" stroke-width="1.76117" stroke-linecap="round" stroke-linejoin="round"/>
<path d="M351.517 474.414L361.074 479.75L377.071 535.75" stroke="black" stroke-width="1.76117" stroke-linecap="round" stroke-linejoin="round"/>
<path d="M336.046 549.005C336.046 549.005 332.712 540.382 328.861 530.425C326.383 524.032 323.689 517.093 321.517 511.534C315.963 497.309 308.625 489.748 308.625 489.748" stroke="black" stroke-width="1.76117" stroke-linecap="round" stroke-linejoin="round"/>
<path d="M409.413 442.983C408.156 442.983 407.141 442.191 407.141 441.216C407.141 440.242 408.156 439.449 409.413 439.449C410.669 439.449 411.684 440.242 411.684 441.216C411.684 442.191 410.669 442.983 409.413 442.983Z" fill="#EFAD71"/>
<path d="M384.772 429.375L377.81 429.821" stroke="#7A3957" stroke-width="1.76117" stroke-linecap="round" stroke-linejoin="round"/>
<path d="M437.772 323.276C436.733 323.775 435.412 323.986 433.487 324.245" stroke="#7A3957" stroke-width="1.76117" stroke-linecap="round" stroke-linejoin="round"/>
<path d="M467.776 507.782C470.958 507.342 472.672 504.735 472.279 502.64C472.208 502.229 471.768 500.708 469.038 497.902L469.009 497.873C468.856 501.201 468.439 504.518 467.776 507.782Z" fill="#97607A"/>
<path d="M467.776 507.782C470.958 507.342 472.672 504.735 472.279 502.64C472.208 502.229 471.768 500.708 469.038 497.902L469.009 497.873C468.856 501.201 468.439 504.518 467.776 507.782Z" fill="#7A3957"/>
<path d="M459.197 489.983C460.641 492.425 461.915 494.961 463.031 497.567C464.463 500.867 465.502 504.319 466.136 507.859C466.389 509.385 466.547 510.923 466.6 512.467C467.968 508.457 469.072 501.43 469.007 497.873C466.553 494.867 464.105 493.012 459.197 489.983Z" fill="black"/>
<path d="M472.278 502.64C472.208 502.229 471.767 500.708 469.038 497.902" stroke="#7A3957" stroke-width="1.76117" stroke-linecap="round" stroke-linejoin="round"/>
<path d="M406.829 313.642C404.005 312.245 402.925 314.071 402.766 314.394C402.754 314.4 402.749 314.411 402.731 314.411" stroke="#694022" stroke-width="1.76117" stroke-linecap="round" stroke-linejoin="round"/>
<path d="M419.31 327.321C420.197 323.986 416.868 319.319 414.42 316.989" stroke="#694022" stroke-width="1.76117" stroke-linecap="round" stroke-linejoin="round"/>
<path d="M414.42 316.989C412.218 314.887 408.884 311.33 406.888 313.625" stroke="#694022" stroke-width="1.76117" stroke-linecap="round" stroke-linejoin="round"/>
</g>
</g>
<rect x="1" y="1" width="481" height="525" rx="23" stroke="url(#paint0_linear_221_7143)" stroke-width="2"/>
</g>
<defs>
<filter id="filter0_b_221_7143" x="-92" y="-92" width="667" height="711" filterUnits="userSpaceOnUse" color-interpolation-filters="sRGB">
<feFlood flood-opacity="0" result="BackgroundImageFix"/>
<feGaussianBlur in="BackgroundImageFix" stdDeviation="46"/>
<feComposite in2="SourceAlpha" operator="in" result="effect1_backgroundBlur_221_7143"/>
<feBlend mode="normal" in="SourceGraphic" in2="effect1_backgroundBlur_221_7143" result="shape"/>
</filter>
<filter id="filter1_f_221_7143" x="-385" y="-352" width="917" height="917" filterUnits="userSpaceOnUse" color-interpolation-filters="sRGB">
<feFlood flood-opacity="0" result="BackgroundImageFix"/>
<feBlend mode="normal" in="SourceGraphic" in2="BackgroundImageFix" result="shape"/>
<feGaussianBlur stdDeviation="160" result="effect1_foregroundBlur_221_7143"/>
</filter>
<linearGradient id="paint0_linear_221_7143" x1="161" y1="0" x2="241.5" y2="527" gradientUnits="userSpaceOnUse">
<stop stop-color="#4CCD99"/>
<stop offset="1" stop-color="#B6F9DE"/>
</linearGradient>
<clipPath id="clip0_221_7143">
<rect width="483" height="527" rx="24" fill="white"/>
</clipPath>
</defs>
</svg>
