<svg width="318" height="320" viewBox="0 0 318 320" fill="none" xmlns="http://www.w3.org/2000/svg">
<g filter="url(#filter0_b_380_2421)">
<g clip-path="url(#clip0_380_2421)">
<rect width="318" height="320" rx="10.783" fill="#4CCD99" fill-opacity="0.2"/>
<g filter="url(#filter1_f_380_2421)">
<circle cx="32.773" cy="48.3494" r="62.2269" fill="#4CCD99"/>
</g>
<path d="M22.875 61.3438H17.9297V63.7891H22.1094L22.0938 66.125H17.9297V70.75H15.3438V58.9062H22.8906L22.875 61.3438ZM26.4062 63.6328C26.5208 63.3984 26.6953 63.2031 26.9297 63.0469C27.1641 62.8906 27.4245 62.7839 27.7109 62.7266C28.0026 62.6641 28.3021 62.6354 28.6094 62.6406C28.9219 62.6458 29.224 62.6823 29.5156 62.75V64.8906H28.7266C28.013 64.8906 27.4609 65.0938 27.0703 65.5C26.6849 65.9062 26.4922 66.5 26.4922 67.2812V70.75H24.0078V62.7656H26.2812L26.4062 63.6328ZM31.0781 69.8047C30.3542 69.0286 29.9922 68.0052 29.9922 66.7344C29.9922 65.4635 30.3542 64.4401 31.0781 63.6641C31.8073 62.8828 32.763 62.4922 33.9453 62.4922C35.1224 62.4922 36.0521 62.8776 36.7344 63.6484C37.4167 64.4141 37.7578 65.4375 37.7578 66.7188V67.3438H32.3828C32.3828 67.8385 32.5182 68.2214 32.7891 68.4922C33.0599 68.7578 33.4557 68.8906 33.9766 68.8906C34.362 68.8906 34.6979 68.8073 34.9844 68.6406C35.2708 68.4688 35.4531 68.25 35.5312 67.9844H37.7891C37.6432 68.8594 37.2135 69.5755 36.5 70.1328C35.7865 70.6849 34.9297 70.9609 33.9297 70.9609C32.7526 70.9609 31.8021 70.5755 31.0781 69.8047ZM32.4141 65.8203H35.3047C35.3047 65.4297 35.1719 65.1146 34.9062 64.875C34.6458 64.6302 34.2995 64.5078 33.8672 64.5078C33.4297 64.5078 33.0781 64.6302 32.8125 64.875C32.5469 65.1146 32.4141 65.4297 32.4141 65.8203ZM39.8594 69.8047C39.1354 69.0286 38.7734 68.0052 38.7734 66.7344C38.7734 65.4635 39.1354 64.4401 39.8594 63.6641C40.5885 62.8828 41.5443 62.4922 42.7266 62.4922C43.9036 62.4922 44.8333 62.8776 45.5156 63.6484C46.1979 64.4141 46.5391 65.4375 46.5391 66.7188V67.3438H41.1641C41.1641 67.8385 41.2995 68.2214 41.5703 68.4922C41.8411 68.7578 42.237 68.8906 42.7578 68.8906C43.1432 68.8906 43.4792 68.8073 43.7656 68.6406C44.0521 68.4688 44.2344 68.25 44.3125 67.9844H46.5703C46.4245 68.8594 45.9948 69.5755 45.2812 70.1328C44.5677 70.6849 43.7109 70.9609 42.7109 70.9609C41.5339 70.9609 40.5833 70.5755 39.8594 69.8047ZM41.1953 65.8203H44.0859C44.0859 65.4297 43.9531 65.1146 43.6875 64.875C43.4271 64.6302 43.0807 64.5078 42.6484 64.5078C42.2109 64.5078 41.8594 64.6302 41.5938 64.875C41.3281 65.1146 41.1953 65.4297 41.1953 65.8203ZM57.6484 70.9453C56.7943 70.9453 56.013 70.8099 55.3047 70.5391C54.5964 70.263 53.987 69.8698 53.4766 69.3594C52.9714 68.8438 52.5781 68.2031 52.2969 67.4375C52.0156 66.6667 51.875 65.8021 51.875 64.8438C51.875 63.6302 52.1172 62.5599 52.6016 61.6328C53.0859 60.7005 53.7734 59.9792 54.6641 59.4688C55.5547 58.9583 56.5859 58.7031 57.7578 58.7031C59.1536 58.7031 60.3307 59.099 61.2891 59.8906C62.2526 60.6823 62.8255 61.737 63.0078 63.0547H60.2734C60.1016 62.4714 59.7839 62.0182 59.3203 61.6953C58.8568 61.3724 58.3151 61.2109 57.6953 61.2109C56.7161 61.2109 55.9557 61.5365 55.4141 62.1875C54.8776 62.8385 54.6094 63.7188 54.6094 64.8281C54.6094 65.9583 54.888 66.8359 55.4453 67.4609C56.0026 68.0859 56.7526 68.3984 57.6953 68.3984C58.3568 68.3984 58.9479 68.2292 59.4688 67.8906C59.9948 67.5521 60.3542 67.1068 60.5469 66.5547H63.2344C63.026 67.8828 62.4115 68.9479 61.3906 69.75C60.3698 70.5469 59.1224 70.9453 57.6484 70.9453ZM65.3906 69.7891C64.6146 69.0182 64.2266 68 64.2266 66.7344C64.2266 65.4688 64.6146 64.4479 65.3906 63.6719C66.1719 62.8958 67.2031 62.5078 68.4844 62.5078C69.7552 62.5078 70.7786 62.8958 71.5547 63.6719C72.3359 64.4479 72.7266 65.4688 72.7266 66.7344C72.7266 68 72.3385 69.0182 71.5625 69.7891C70.7865 70.5599 69.7604 70.9453 68.4844 70.9453C67.2031 70.9453 66.1719 70.5599 65.3906 69.7891ZM66.7109 66.7188C66.7109 67.3281 66.8724 67.8177 67.1953 68.1875C67.5182 68.5521 67.9479 68.7344 68.4844 68.7344C69.0156 68.7344 69.4427 68.5521 69.7656 68.1875C70.0885 67.8177 70.25 67.3281 70.25 66.7188C70.25 66.1198 70.0859 65.638 69.7578 65.2734C69.4349 64.9036 69.0104 64.7188 68.4844 64.7188C67.9479 64.7188 67.5182 64.901 67.1953 65.2656C66.8724 65.6302 66.7109 66.1146 66.7109 66.7188ZM77.1562 70.9609C76.224 70.9609 75.5 70.6719 74.9844 70.0938C74.4688 69.5156 74.2109 68.7422 74.2109 67.7734V62.75H76.6719V66.875C76.6719 67.5781 76.7943 68.0703 77.0391 68.3516C77.2891 68.6276 77.6536 68.7656 78.1328 68.7656C78.6797 68.7656 79.0625 68.6146 79.2812 68.3125C79.5052 68.0052 79.6172 67.5365 79.6172 66.9062V62.75H82.0859V70.75H79.7656L79.6016 69.8516C79.3516 70.1797 79.0026 70.4479 78.5547 70.6562C78.1068 70.8594 77.6406 70.9609 77.1562 70.9609ZM84.1484 70.75V62.75H86.4688L86.6328 63.5781C86.888 63.2292 87.2292 62.9609 87.6562 62.7734C88.0885 62.5859 88.5625 62.4922 89.0781 62.4922C90.0625 62.4922 90.8099 62.7891 91.3203 63.3828C91.8307 63.9766 92.0859 64.7839 92.0859 65.8047V70.75H89.625V66.3984C89.625 66.1068 89.5859 65.8516 89.5078 65.6328C89.4349 65.4141 89.3464 65.25 89.2422 65.1406C89.138 65.0312 89.013 64.9427 88.8672 64.875C88.7266 64.8073 88.6068 64.7682 88.5078 64.7578C88.4141 64.7422 88.3151 64.7344 88.2109 64.7344C88.0911 64.7344 87.9766 64.7422 87.8672 64.7578C87.7578 64.7682 87.6224 64.8073 87.4609 64.875C87.2995 64.9375 87.1615 65.0234 87.0469 65.1328C86.9323 65.2422 86.8307 65.4036 86.7422 65.6172C86.6589 65.8307 86.6172 66.0807 86.6172 66.3672V70.75H84.1484ZM95.5312 68.2188C95.5312 68.5052 95.625 68.7266 95.8125 68.8828C96.0052 69.0391 96.2786 69.1172 96.6328 69.1172C96.9401 69.1172 97.1823 69.0599 97.3594 68.9453C97.5365 68.8255 97.625 68.6641 97.625 68.4609C97.625 68.1797 97.4271 67.987 97.0312 67.8828L95.625 67.5156C94.1771 67.1354 93.4531 66.3464 93.4531 65.1484C93.4531 64.3568 93.7448 63.7161 94.3281 63.2266C94.9167 62.737 95.6589 62.4922 96.5547 62.4922C97.4453 62.4922 98.1745 62.737 98.7422 63.2266C99.3099 63.7161 99.6094 64.3724 99.6406 65.1953H97.4219C97.4271 64.9245 97.3464 64.7057 97.1797 64.5391C97.013 64.3724 96.7891 64.2891 96.5078 64.2891C96.2578 64.2891 96.0547 64.3516 95.8984 64.4766C95.7474 64.6016 95.6719 64.7682 95.6719 64.9766C95.6719 65.1693 95.737 65.3125 95.8672 65.4062C96.0026 65.4948 96.2161 65.5755 96.5078 65.6484L97.9297 66C98.5859 66.1615 99.0859 66.4349 99.4297 66.8203C99.7734 67.2057 99.9453 67.6953 99.9453 68.2891C99.9453 69.1068 99.6432 69.7578 99.0391 70.2422C98.4349 70.7214 97.6432 70.9609 96.6641 70.9609C95.6693 70.9609 94.8672 70.7083 94.2578 70.2031C93.6536 69.6979 93.3359 69.0365 93.3047 68.2188H95.5312ZM102 69.8047C101.276 69.0286 100.914 68.0052 100.914 66.7344C100.914 65.4635 101.276 64.4401 102 63.6641C102.729 62.8828 103.685 62.4922 104.867 62.4922C106.044 62.4922 106.974 62.8776 107.656 63.6484C108.339 64.4141 108.68 65.4375 108.68 66.7188V67.3438H103.305C103.305 67.8385 103.44 68.2214 103.711 68.4922C103.982 68.7578 104.378 68.8906 104.898 68.8906C105.284 68.8906 105.62 68.8073 105.906 68.6406C106.193 68.4688 106.375 68.25 106.453 67.9844H108.711C108.565 68.8594 108.135 69.5755 107.422 70.1328C106.708 70.6849 105.852 70.9609 104.852 70.9609C103.674 70.9609 102.724 70.5755 102 69.8047ZM103.336 65.8203H106.227C106.227 65.4297 106.094 65.1146 105.828 64.875C105.568 64.6302 105.221 64.5078 104.789 64.5078C104.352 64.5078 104 64.6302 103.734 64.875C103.469 65.1146 103.336 65.4297 103.336 65.8203ZM110.273 70.75V58.6875H112.758V70.75H110.273ZM116.102 61.5C115.711 61.5 115.378 61.3646 115.102 61.0938C114.831 60.8177 114.695 60.4844 114.695 60.0938C114.695 59.7031 114.831 59.375 115.102 59.1094C115.378 58.8385 115.711 58.7031 116.102 58.7031C116.487 58.7031 116.815 58.8385 117.086 59.1094C117.357 59.375 117.492 59.7031 117.492 60.0938C117.492 60.4844 117.357 60.8177 117.086 61.0938C116.815 61.3646 116.487 61.5 116.102 61.5ZM114.852 62.75H117.336V70.75H114.852V62.75ZM119.414 70.75V62.75H121.734L121.898 63.5781C122.154 63.2292 122.495 62.9609 122.922 62.7734C123.354 62.5859 123.828 62.4922 124.344 62.4922C125.328 62.4922 126.076 62.7891 126.586 63.3828C127.096 63.9766 127.352 64.7839 127.352 65.8047V70.75H124.891V66.3984C124.891 66.1068 124.852 65.8516 124.773 65.6328C124.701 65.4141 124.612 65.25 124.508 65.1406C124.404 65.0312 124.279 64.9427 124.133 64.875C123.992 64.8073 123.872 64.7682 123.773 64.7578C123.68 64.7422 123.581 64.7344 123.477 64.7344C123.357 64.7344 123.242 64.7422 123.133 64.7578C123.023 64.7682 122.888 64.8073 122.727 64.875C122.565 64.9375 122.427 65.0234 122.312 65.1328C122.198 65.2422 122.096 65.4036 122.008 65.6172C121.924 65.8307 121.883 66.0807 121.883 66.3672V70.75H119.414ZM135.32 62.75H137.547V70.2344C137.547 71.6406 137.143 72.7578 136.336 73.5859C135.534 74.4141 134.448 74.8281 133.078 74.8281C131.917 74.8281 130.948 74.4922 130.172 73.8203C129.401 73.1484 128.958 72.263 128.844 71.1641H131.336C131.357 71.612 131.539 71.9609 131.883 72.2109C132.227 72.4661 132.674 72.5938 133.227 72.5938C133.826 72.5938 134.292 72.4271 134.625 72.0938C134.958 71.7604 135.125 71.3125 135.125 70.75V69.6484C134.896 69.9609 134.562 70.2083 134.125 70.3906C133.688 70.5677 133.201 70.6562 132.664 70.6562C131.544 70.6562 130.633 70.2839 129.93 69.5391C129.227 68.7891 128.875 67.8125 128.875 66.6094C128.875 65.3906 129.232 64.3984 129.945 63.6328C130.664 62.862 131.586 62.4766 132.711 62.4766C133.253 62.4766 133.745 62.5755 134.188 62.7734C134.635 62.9714 134.971 63.2344 135.195 63.5625L135.32 62.75ZM133.125 68.5078C133.693 68.5078 134.159 68.3255 134.523 67.9609C134.893 67.5964 135.078 67.1224 135.078 66.5391C135.078 65.9609 134.893 65.4974 134.523 65.1484C134.154 64.7995 133.682 64.625 133.109 64.625C132.615 64.625 132.201 64.8021 131.867 65.1562C131.534 65.5104 131.367 65.9714 131.367 66.5391C131.367 67.1172 131.536 67.5911 131.875 67.9609C132.214 68.3255 132.63 68.5078 133.125 68.5078ZM143.328 62.3516C143.328 61.2839 143.711 60.4062 144.477 59.7188C145.247 59.0312 146.25 58.6875 147.484 58.6875C148.688 58.6875 149.654 59.0234 150.383 59.6953C151.112 60.3672 151.49 61.2474 151.516 62.3359H148.977C148.977 61.888 148.841 61.5521 148.57 61.3281C148.299 61.1042 147.927 60.9922 147.453 60.9922C146.964 60.9922 146.586 61.1042 146.32 61.3281C146.055 61.5521 145.922 61.849 145.922 62.2188C145.922 62.526 146.013 62.7708 146.195 62.9531C146.383 63.1302 146.664 63.2708 147.039 63.375L148.875 63.8516C149.906 64.1276 150.685 64.5729 151.211 65.1875C151.737 65.7969 152 66.5156 152 67.3438C152 68.4219 151.589 69.2943 150.766 69.9609C149.948 70.6276 148.875 70.9609 147.547 70.9609C146.24 70.9609 145.188 70.6328 144.391 69.9766C143.594 69.3203 143.185 68.4323 143.164 67.3125H145.695C145.69 67.7396 145.852 68.0703 146.18 68.3047C146.508 68.5391 146.969 68.6562 147.562 68.6562C148.146 68.6562 148.599 68.5469 148.922 68.3281C149.245 68.1042 149.406 67.8021 149.406 67.4219C149.406 67.151 149.318 66.9297 149.141 66.7578C148.964 66.5807 148.69 66.4401 148.32 66.3359L146.445 65.8047C144.367 65.2214 143.328 64.0703 143.328 62.3516ZM154.078 69.8047C153.354 69.0286 152.992 68.0052 152.992 66.7344C152.992 65.4635 153.354 64.4401 154.078 63.6641C154.807 62.8828 155.763 62.4922 156.945 62.4922C158.122 62.4922 159.052 62.8776 159.734 63.6484C160.417 64.4141 160.758 65.4375 160.758 66.7188V67.3438H155.383C155.383 67.8385 155.518 68.2214 155.789 68.4922C156.06 68.7578 156.456 68.8906 156.977 68.8906C157.362 68.8906 157.698 68.8073 157.984 68.6406C158.271 68.4688 158.453 68.25 158.531 67.9844H160.789C160.643 68.8594 160.214 69.5755 159.5 70.1328C158.786 70.6849 157.93 70.9609 156.93 70.9609C155.753 70.9609 154.802 70.5755 154.078 69.8047ZM155.414 65.8203H158.305C158.305 65.4297 158.172 65.1146 157.906 64.875C157.646 64.6302 157.299 64.5078 156.867 64.5078C156.43 64.5078 156.078 64.6302 155.812 64.875C155.547 65.1146 155.414 65.4297 155.414 65.8203ZM163.906 68.2188C163.906 68.5052 164 68.7266 164.188 68.8828C164.38 69.0391 164.654 69.1172 165.008 69.1172C165.315 69.1172 165.557 69.0599 165.734 68.9453C165.911 68.8255 166 68.6641 166 68.4609C166 68.1797 165.802 67.987 165.406 67.8828L164 67.5156C162.552 67.1354 161.828 66.3464 161.828 65.1484C161.828 64.3568 162.12 63.7161 162.703 63.2266C163.292 62.737 164.034 62.4922 164.93 62.4922C165.82 62.4922 166.549 62.737 167.117 63.2266C167.685 63.7161 167.984 64.3724 168.016 65.1953H165.797C165.802 64.9245 165.721 64.7057 165.555 64.5391C165.388 64.3724 165.164 64.2891 164.883 64.2891C164.633 64.2891 164.43 64.3516 164.273 64.4766C164.122 64.6016 164.047 64.7682 164.047 64.9766C164.047 65.1693 164.112 65.3125 164.242 65.4062C164.378 65.4948 164.591 65.5755 164.883 65.6484L166.305 66C166.961 66.1615 167.461 66.4349 167.805 66.8203C168.148 67.2057 168.32 67.6953 168.32 68.2891C168.32 69.1068 168.018 69.7578 167.414 70.2422C166.81 70.7214 166.018 70.9609 165.039 70.9609C164.044 70.9609 163.242 70.7083 162.633 70.2031C162.029 69.6979 161.711 69.0365 161.68 68.2188H163.906ZM171.312 68.2188C171.312 68.5052 171.406 68.7266 171.594 68.8828C171.786 69.0391 172.06 69.1172 172.414 69.1172C172.721 69.1172 172.964 69.0599 173.141 68.9453C173.318 68.8255 173.406 68.6641 173.406 68.4609C173.406 68.1797 173.208 67.987 172.812 67.8828L171.406 67.5156C169.958 67.1354 169.234 66.3464 169.234 65.1484C169.234 64.3568 169.526 63.7161 170.109 63.2266C170.698 62.737 171.44 62.4922 172.336 62.4922C173.227 62.4922 173.956 62.737 174.523 63.2266C175.091 63.7161 175.391 64.3724 175.422 65.1953H173.203C173.208 64.9245 173.128 64.7057 172.961 64.5391C172.794 64.3724 172.57 64.2891 172.289 64.2891C172.039 64.2891 171.836 64.3516 171.68 64.4766C171.529 64.6016 171.453 64.7682 171.453 64.9766C171.453 65.1693 171.518 65.3125 171.648 65.4062C171.784 65.4948 171.997 65.5755 172.289 65.6484L173.711 66C174.367 66.1615 174.867 66.4349 175.211 66.8203C175.555 67.2057 175.727 67.6953 175.727 68.2891C175.727 69.1068 175.424 69.7578 174.82 70.2422C174.216 70.7214 173.424 70.9609 172.445 70.9609C171.451 70.9609 170.648 70.7083 170.039 70.2031C169.435 69.6979 169.117 69.0365 169.086 68.2188H171.312ZM178.398 61.5C178.008 61.5 177.674 61.3646 177.398 61.0938C177.128 60.8177 176.992 60.4844 176.992 60.0938C176.992 59.7031 177.128 59.375 177.398 59.1094C177.674 58.8385 178.008 58.7031 178.398 58.7031C178.784 58.7031 179.112 58.8385 179.383 59.1094C179.654 59.375 179.789 59.7031 179.789 60.0938C179.789 60.4844 179.654 60.8177 179.383 61.0938C179.112 61.3646 178.784 61.5 178.398 61.5ZM177.148 62.75H179.633V70.75H177.148V62.75ZM182.297 69.7891C181.521 69.0182 181.133 68 181.133 66.7344C181.133 65.4688 181.521 64.4479 182.297 63.6719C183.078 62.8958 184.109 62.5078 185.391 62.5078C186.661 62.5078 187.685 62.8958 188.461 63.6719C189.242 64.4479 189.633 65.4688 189.633 66.7344C189.633 68 189.245 69.0182 188.469 69.7891C187.693 70.5599 186.667 70.9453 185.391 70.9453C184.109 70.9453 183.078 70.5599 182.297 69.7891ZM183.617 66.7188C183.617 67.3281 183.779 67.8177 184.102 68.1875C184.424 68.5521 184.854 68.7344 185.391 68.7344C185.922 68.7344 186.349 68.5521 186.672 68.1875C186.995 67.8177 187.156 67.3281 187.156 66.7188C187.156 66.1198 186.992 65.638 186.664 65.2734C186.341 64.9036 185.917 64.7188 185.391 64.7188C184.854 64.7188 184.424 64.901 184.102 65.2656C183.779 65.6302 183.617 66.1146 183.617 66.7188ZM191.117 70.75V62.75H193.438L193.602 63.5781C193.857 63.2292 194.198 62.9609 194.625 62.7734C195.057 62.5859 195.531 62.4922 196.047 62.4922C197.031 62.4922 197.779 62.7891 198.289 63.3828C198.799 63.9766 199.055 64.7839 199.055 65.8047V70.75H196.594V66.3984C196.594 66.1068 196.555 65.8516 196.477 65.6328C196.404 65.4141 196.315 65.25 196.211 65.1406C196.107 65.0312 195.982 64.9427 195.836 64.875C195.695 64.8073 195.576 64.7682 195.477 64.7578C195.383 64.7422 195.284 64.7344 195.18 64.7344C195.06 64.7344 194.945 64.7422 194.836 64.7578C194.727 64.7682 194.591 64.8073 194.43 64.875C194.268 64.9375 194.13 65.0234 194.016 65.1328C193.901 65.2422 193.799 65.4036 193.711 65.6172C193.628 65.8307 193.586 66.0807 193.586 66.3672V70.75H191.117ZM202.5 68.2188C202.5 68.5052 202.594 68.7266 202.781 68.8828C202.974 69.0391 203.247 69.1172 203.602 69.1172C203.909 69.1172 204.151 69.0599 204.328 68.9453C204.505 68.8255 204.594 68.6641 204.594 68.4609C204.594 68.1797 204.396 67.987 204 67.8828L202.594 67.5156C201.146 67.1354 200.422 66.3464 200.422 65.1484C200.422 64.3568 200.714 63.7161 201.297 63.2266C201.885 62.737 202.628 62.4922 203.523 62.4922C204.414 62.4922 205.143 62.737 205.711 63.2266C206.279 63.7161 206.578 64.3724 206.609 65.1953H204.391C204.396 64.9245 204.315 64.7057 204.148 64.5391C203.982 64.3724 203.758 64.2891 203.477 64.2891C203.227 64.2891 203.023 64.3516 202.867 64.4766C202.716 64.6016 202.641 64.7682 202.641 64.9766C202.641 65.1693 202.706 65.3125 202.836 65.4062C202.971 65.4948 203.185 65.5755 203.477 65.6484L204.898 66C205.555 66.1615 206.055 66.4349 206.398 66.8203C206.742 67.2057 206.914 67.6953 206.914 68.2891C206.914 69.1068 206.612 69.7578 206.008 70.2422C205.404 70.7214 204.612 70.9609 203.633 70.9609C202.638 70.9609 201.836 70.7083 201.227 70.2031C200.622 69.6979 200.305 69.0365 200.273 68.2188H202.5Z" fill="#F5FBFF"/>
<path d="M18.625 94.894C17.841 94.894 17.153 94.714 16.561 94.354C15.969 93.986 15.509 93.478 15.181 92.83C14.853 92.174 14.689 91.418 14.689 90.562C14.689 89.706 14.853 88.95 15.181 88.294C15.517 87.638 15.989 87.126 16.597 86.758C17.213 86.39 17.937 86.206 18.769 86.206C19.713 86.206 20.497 86.434 21.121 86.89C21.753 87.346 22.161 87.974 22.345 88.774H21.181C21.069 88.27 20.801 87.87 20.377 87.574C19.961 87.278 19.425 87.13 18.769 87.13C18.153 87.13 17.617 87.27 17.161 87.55C16.705 87.822 16.349 88.214 16.093 88.726C15.845 89.238 15.721 89.85 15.721 90.562C15.721 91.274 15.845 91.886 16.093 92.398C16.341 92.91 16.685 93.306 17.125 93.586C17.565 93.858 18.077 93.994 18.661 93.994C19.557 93.994 20.233 93.734 20.689 93.214C21.145 92.686 21.405 91.966 21.469 91.054H19.045V90.262H22.501V94.75H21.577L21.493 93.37C21.189 93.858 20.817 94.234 20.377 94.498C19.937 94.762 19.353 94.894 18.625 94.894ZM26.711 94.894C26.143 94.894 25.639 94.766 25.199 94.51C24.759 94.246 24.411 93.882 24.155 93.418C23.907 92.954 23.783 92.406 23.783 91.774C23.783 91.15 23.907 90.606 24.155 90.142C24.403 89.67 24.747 89.306 25.187 89.05C25.635 88.786 26.151 88.654 26.735 88.654C27.311 88.654 27.807 88.786 28.223 89.05C28.647 89.306 28.971 89.646 29.195 90.07C29.419 90.494 29.531 90.95 29.531 91.438C29.531 91.526 29.527 91.614 29.519 91.702C29.519 91.79 29.519 91.89 29.519 92.002H24.779C24.803 92.458 24.907 92.838 25.091 93.142C25.283 93.438 25.519 93.662 25.799 93.814C26.087 93.966 26.391 94.042 26.711 94.042C27.127 94.042 27.475 93.946 27.755 93.754C28.035 93.562 28.239 93.302 28.367 92.974H29.363C29.203 93.526 28.895 93.986 28.439 94.354C27.991 94.714 27.415 94.894 26.711 94.894ZM26.711 89.506C26.231 89.506 25.803 89.654 25.427 89.95C25.059 90.238 24.847 90.662 24.791 91.222H28.535C28.511 90.686 28.327 90.266 27.983 89.962C27.639 89.658 27.215 89.506 26.711 89.506ZM33.0198 94.75C32.4758 94.75 32.0478 94.618 31.7358 94.354C31.4238 94.09 31.2678 93.614 31.2678 92.926V89.65H30.2358V88.798H31.2678L31.3998 87.37H32.2758V88.798H34.0278V89.65H32.2758V92.926C32.2758 93.302 32.3518 93.558 32.5038 93.694C32.6558 93.822 32.9238 93.886 33.3078 93.886H33.9318V94.75H33.0198ZM41.1603 94.894C40.5923 94.894 40.0883 94.766 39.6483 94.51C39.2083 94.246 38.8603 93.882 38.6043 93.418C38.3563 92.954 38.2323 92.406 38.2323 91.774C38.2323 91.15 38.3563 90.606 38.6043 90.142C38.8523 89.67 39.1963 89.306 39.6363 89.05C40.0843 88.786 40.6003 88.654 41.1842 88.654C41.7603 88.654 42.2563 88.786 42.6723 89.05C43.0963 89.306 43.4203 89.646 43.6443 90.07C43.8683 90.494 43.9803 90.95 43.9803 91.438C43.9803 91.526 43.9763 91.614 43.9683 91.702C43.9683 91.79 43.9683 91.89 43.9683 92.002H39.2283C39.2523 92.458 39.3563 92.838 39.5403 93.142C39.7323 93.438 39.9683 93.662 40.2483 93.814C40.5363 93.966 40.8403 94.042 41.1603 94.042C41.5763 94.042 41.9243 93.946 42.2043 93.754C42.4843 93.562 42.6883 93.302 42.8163 92.974H43.8123C43.6523 93.526 43.3443 93.986 42.8883 94.354C42.4403 94.714 41.8643 94.894 41.1603 94.894ZM41.1603 89.506C40.6803 89.506 40.2523 89.654 39.8763 89.95C39.5083 90.238 39.2963 90.662 39.2402 91.222H42.9843C42.9603 90.686 42.7763 90.266 42.4323 89.962C42.0883 89.658 41.6643 89.506 41.1603 89.506ZM44.435 94.75L46.499 91.774L44.435 88.798H45.527L47.195 91.258L48.875 88.798H49.955L47.891 91.774L49.955 94.75H48.875L47.195 92.29L45.527 94.75H44.435ZM51.0116 97.39V88.798H51.9236L52.0196 89.782C52.2116 89.494 52.4836 89.234 52.8356 89.002C53.1956 88.77 53.6516 88.654 54.2036 88.654C54.7956 88.654 55.3116 88.79 55.7516 89.062C56.1916 89.334 56.5316 89.706 56.7716 90.178C57.0196 90.65 57.1436 91.186 57.1436 91.786C57.1436 92.386 57.0196 92.922 56.7716 93.394C56.5316 93.858 56.1876 94.226 55.7396 94.498C55.2996 94.762 54.7836 94.894 54.1916 94.894C53.7036 94.894 53.2676 94.794 52.8836 94.594C52.5076 94.394 52.2196 94.114 52.0196 93.754V97.39H51.0116ZM54.0836 94.018C54.4836 94.018 54.8356 93.926 55.1396 93.742C55.4436 93.55 55.6836 93.286 55.8596 92.95C56.0356 92.614 56.1236 92.222 56.1236 91.774C56.1236 91.326 56.0356 90.934 55.8596 90.598C55.6836 90.262 55.4436 90.002 55.1396 89.818C54.8356 89.626 54.4836 89.53 54.0836 89.53C53.6836 89.53 53.3316 89.626 53.0276 89.818C52.7236 90.002 52.4836 90.262 52.3076 90.598C52.1316 90.934 52.0436 91.326 52.0436 91.774C52.0436 92.222 52.1316 92.614 52.3076 92.95C52.4836 93.286 52.7236 93.55 53.0276 93.742C53.3316 93.926 53.6836 94.018 54.0836 94.018ZM61.2228 94.894C60.6548 94.894 60.1508 94.766 59.7108 94.51C59.2708 94.246 58.9228 93.882 58.6668 93.418C58.4188 92.954 58.2948 92.406 58.2948 91.774C58.2948 91.15 58.4188 90.606 58.6668 90.142C58.9148 89.67 59.2588 89.306 59.6988 89.05C60.1468 88.786 60.6628 88.654 61.2467 88.654C61.8228 88.654 62.3188 88.786 62.7348 89.05C63.1588 89.306 63.4828 89.646 63.7068 90.07C63.9308 90.494 64.0428 90.95 64.0428 91.438C64.0428 91.526 64.0388 91.614 64.0308 91.702C64.0308 91.79 64.0308 91.89 64.0308 92.002H59.2908C59.3148 92.458 59.4188 92.838 59.6028 93.142C59.7948 93.438 60.0308 93.662 60.3108 93.814C60.5988 93.966 60.9028 94.042 61.2228 94.042C61.6388 94.042 61.9868 93.946 62.2668 93.754C62.5468 93.562 62.7508 93.302 62.8788 92.974H63.8748C63.7148 93.526 63.4068 93.986 62.9508 94.354C62.5028 94.714 61.9268 94.894 61.2228 94.894ZM61.2228 89.506C60.7428 89.506 60.3148 89.654 59.9388 89.95C59.5708 90.238 59.3588 90.662 59.3027 91.222H63.0468C63.0228 90.686 62.8388 90.266 62.4948 89.962C62.1508 89.658 61.7268 89.506 61.2228 89.506ZM65.3788 94.75V88.798H66.2908L66.3748 89.938C66.5588 89.546 66.8388 89.234 67.2148 89.002C67.5908 88.77 68.0548 88.654 68.6068 88.654V89.71H68.3308C67.9788 89.71 67.6548 89.774 67.3588 89.902C67.0628 90.022 66.8268 90.23 66.6508 90.526C66.4748 90.822 66.3868 91.23 66.3868 91.75V94.75H65.3788ZM72.0902 94.75C71.5462 94.75 71.1182 94.618 70.8062 94.354C70.4942 94.09 70.3382 93.614 70.3382 92.926V89.65H69.3062V88.798H70.3382L70.4702 87.37H71.3462V88.798H73.0982V89.65H71.3462V92.926C71.3462 93.302 71.4222 93.558 71.5742 93.694C71.7262 93.822 71.9942 93.886 72.3782 93.886H73.0022V94.75H72.0902ZM79.5346 94.894C79.0386 94.894 78.6266 94.81 78.2986 94.642C77.9706 94.474 77.7266 94.25 77.5666 93.97C77.4066 93.69 77.3266 93.386 77.3266 93.058C77.3266 92.45 77.5586 91.982 78.0226 91.654C78.4866 91.326 79.1186 91.162 79.9186 91.162H81.5266V91.09C81.5266 90.57 81.3906 90.178 81.1186 89.914C80.8466 89.642 80.4826 89.506 80.0266 89.506C79.6346 89.506 79.2946 89.606 79.0066 89.806C78.7266 89.998 78.5506 90.282 78.4786 90.658H77.4466C77.4866 90.226 77.6306 89.862 77.8786 89.566C78.1346 89.27 78.4506 89.046 78.8266 88.894C79.2026 88.734 79.6026 88.654 80.0266 88.654C80.8586 88.654 81.4826 88.878 81.8986 89.326C82.3226 89.766 82.5346 90.354 82.5346 91.09V94.75H81.6346L81.5746 93.682C81.4066 94.018 81.1586 94.306 80.8306 94.546C80.5106 94.778 80.0786 94.894 79.5346 94.894ZM79.6906 94.042C80.0746 94.042 80.4026 93.942 80.6746 93.742C80.9546 93.542 81.1666 93.282 81.3106 92.962C81.4546 92.642 81.5266 92.306 81.5266 91.954V91.942H80.0026C79.4106 91.942 78.9906 92.046 78.7426 92.254C78.5026 92.454 78.3826 92.706 78.3826 93.01C78.3826 93.322 78.4946 93.574 78.7186 93.766C78.9506 93.95 79.2746 94.042 79.6906 94.042ZM86.7467 94.894C86.1548 94.894 85.6348 94.758 85.1868 94.486C84.7468 94.214 84.4028 93.842 84.1548 93.37C83.9148 92.898 83.7948 92.362 83.7948 91.762C83.7948 91.162 83.9188 90.63 84.1668 90.166C84.4148 89.694 84.7588 89.326 85.1988 89.062C85.6388 88.79 86.1588 88.654 86.7588 88.654C87.2468 88.654 87.6788 88.754 88.0548 88.954C88.4308 89.154 88.7228 89.434 88.9308 89.794V86.11H89.9388V94.75H89.0268L88.9308 93.766C88.7388 94.054 88.4628 94.314 88.1028 94.546C87.7428 94.778 87.2908 94.894 86.7467 94.894ZM86.8548 94.018C87.2548 94.018 87.6068 93.926 87.9108 93.742C88.2228 93.55 88.4628 93.286 88.6308 92.95C88.8068 92.614 88.8948 92.222 88.8948 91.774C88.8948 91.326 88.8068 90.934 88.6308 90.598C88.4628 90.262 88.2228 90.002 87.9108 89.818C87.6068 89.626 87.2548 89.53 86.8548 89.53C86.4628 89.53 86.1108 89.626 85.7988 89.818C85.4948 90.002 85.2548 90.262 85.0788 90.598C84.9108 90.934 84.8268 91.326 84.8268 91.774C84.8268 92.222 84.9108 92.614 85.0788 92.95C85.2548 93.286 85.4948 93.55 85.7988 93.742C86.1108 93.926 86.4628 94.018 86.8548 94.018ZM93.2979 94.75L91.0419 88.798H92.0979L93.8859 93.778L95.6859 88.798H96.7179L94.4619 94.75H93.2979ZM98.4517 87.478C98.2517 87.478 98.0837 87.414 97.9477 87.286C97.8197 87.15 97.7557 86.982 97.7557 86.782C97.7557 86.59 97.8197 86.43 97.9477 86.302C98.0837 86.174 98.2517 86.11 98.4517 86.11C98.6437 86.11 98.8077 86.174 98.9437 86.302C99.0797 86.43 99.1477 86.59 99.1477 86.782C99.1477 86.982 99.0797 87.15 98.9437 87.286C98.8077 87.414 98.6437 87.478 98.4517 87.478ZM97.9477 94.75V88.798H98.9557V94.75H97.9477ZM103.447 94.894C102.879 94.894 102.367 94.766 101.911 94.51C101.463 94.246 101.107 93.882 100.843 93.418C100.587 92.946 100.459 92.398 100.459 91.774C100.459 91.15 100.587 90.606 100.843 90.142C101.107 89.67 101.463 89.306 101.911 89.05C102.367 88.786 102.879 88.654 103.447 88.654C104.151 88.654 104.743 88.838 105.223 89.206C105.711 89.574 106.019 90.066 106.147 90.682H105.115C105.035 90.314 104.839 90.03 104.527 89.83C104.215 89.622 103.851 89.518 103.435 89.518C103.099 89.518 102.783 89.602 102.487 89.77C102.191 89.938 101.951 90.19 101.767 90.526C101.583 90.862 101.491 91.278 101.491 91.774C101.491 92.27 101.583 92.686 101.767 93.022C101.951 93.358 102.191 93.614 102.487 93.79C102.783 93.958 103.099 94.042 103.435 94.042C103.851 94.042 104.215 93.942 104.527 93.742C104.839 93.534 105.035 93.242 105.115 92.866H106.147C106.027 93.466 105.723 93.954 105.235 94.33C104.747 94.706 104.151 94.894 103.447 94.894ZM110.231 94.894C109.663 94.894 109.159 94.766 108.719 94.51C108.279 94.246 107.931 93.882 107.675 93.418C107.427 92.954 107.303 92.406 107.303 91.774C107.303 91.15 107.427 90.606 107.675 90.142C107.923 89.67 108.267 89.306 108.707 89.05C109.155 88.786 109.671 88.654 110.255 88.654C110.831 88.654 111.327 88.786 111.743 89.05C112.167 89.306 112.491 89.646 112.715 90.07C112.939 90.494 113.051 90.95 113.051 91.438C113.051 91.526 113.047 91.614 113.039 91.702C113.039 91.79 113.039 91.89 113.039 92.002H108.299C108.323 92.458 108.427 92.838 108.611 93.142C108.803 93.438 109.039 93.662 109.319 93.814C109.607 93.966 109.911 94.042 110.231 94.042C110.647 94.042 110.995 93.946 111.275 93.754C111.555 93.562 111.759 93.302 111.887 92.974H112.883C112.723 93.526 112.415 93.986 111.959 94.354C111.511 94.714 110.935 94.894 110.231 94.894ZM110.231 89.506C109.751 89.506 109.323 89.654 108.947 89.95C108.579 90.238 108.367 90.662 108.311 91.222H112.055C112.031 90.686 111.847 90.266 111.503 89.962C111.159 89.658 110.735 89.506 110.231 89.506ZM118.762 94.75L117.022 88.798H118.03L119.29 93.466L120.682 88.798H121.822L123.226 93.466L124.474 88.798H125.494L123.754 94.75H122.722L121.258 89.842L119.794 94.75H118.762ZM127.221 87.478C127.021 87.478 126.853 87.414 126.717 87.286C126.589 87.15 126.525 86.982 126.525 86.782C126.525 86.59 126.589 86.43 126.717 86.302C126.853 86.174 127.021 86.11 127.221 86.11C127.413 86.11 127.577 86.174 127.713 86.302C127.849 86.43 127.917 86.59 127.917 86.782C127.917 86.982 127.849 87.15 127.713 87.286C127.577 87.414 127.413 87.478 127.221 87.478ZM126.717 94.75V88.798H127.725V94.75H126.717ZM131.832 94.75C131.288 94.75 130.86 94.618 130.548 94.354C130.236 94.09 130.08 93.614 130.08 92.926V89.65H129.048V88.798H130.08L130.212 87.37H131.088V88.798H132.84V89.65H131.088V92.926C131.088 93.302 131.164 93.558 131.316 93.694C131.468 93.822 131.736 93.886 132.12 93.886H132.744V94.75H131.832ZM134.121 94.75V86.11H135.129V89.818C135.329 89.45 135.613 89.166 135.981 88.966C136.349 88.758 136.749 88.654 137.181 88.654C137.869 88.654 138.421 88.87 138.837 89.302C139.253 89.726 139.461 90.382 139.461 91.27V94.75H138.465V91.378C138.465 90.138 137.965 89.518 136.965 89.518C136.445 89.518 136.009 89.706 135.657 90.082C135.305 90.45 135.129 90.978 135.129 91.666V94.75H134.121ZM143.7 94.894C143.14 94.894 142.636 94.766 142.188 94.51C141.74 94.254 141.384 93.894 141.12 93.43C140.864 92.958 140.736 92.406 140.736 91.774C140.736 91.142 140.868 90.594 141.132 90.13C141.396 89.658 141.752 89.294 142.2 89.038C142.656 88.782 143.164 88.654 143.724 88.654C144.284 88.654 144.788 88.782 145.236 89.038C145.684 89.294 146.036 89.658 146.292 90.13C146.556 90.594 146.688 91.142 146.688 91.774C146.688 92.406 146.556 92.958 146.292 93.43C146.028 93.894 145.668 94.254 145.212 94.51C144.764 94.766 144.26 94.894 143.7 94.894ZM143.7 94.03C144.044 94.03 144.364 93.946 144.66 93.778C144.956 93.61 145.196 93.358 145.38 93.022C145.564 92.686 145.656 92.27 145.656 91.774C145.656 91.278 145.564 90.862 145.38 90.526C145.204 90.19 144.968 89.938 144.672 89.77C144.376 89.602 144.06 89.518 143.724 89.518C143.38 89.518 143.06 89.602 142.764 89.77C142.468 89.938 142.228 90.19 142.044 90.526C141.86 90.862 141.768 91.278 141.768 91.774C141.768 92.27 141.86 92.686 142.044 93.022C142.228 93.358 142.464 93.61 142.752 93.778C143.048 93.946 143.364 94.03 143.7 94.03ZM150.262 94.894C149.558 94.894 148.998 94.682 148.582 94.258C148.166 93.826 147.958 93.166 147.958 92.278V88.798H148.966V92.17C148.966 93.41 149.474 94.03 150.49 94.03C151.01 94.03 151.438 93.846 151.774 93.478C152.118 93.102 152.29 92.57 152.29 91.882V88.798H153.298V94.75H152.386L152.314 93.682C152.13 94.058 151.854 94.354 151.486 94.57C151.126 94.786 150.718 94.894 150.262 94.894ZM157.309 94.75C156.765 94.75 156.337 94.618 156.025 94.354C155.713 94.09 155.557 93.614 155.557 92.926V89.65H154.525V88.798H155.557L155.689 87.37H156.565V88.798H158.317V89.65H156.565V92.926C156.565 93.302 156.641 93.558 156.793 93.694C156.945 93.822 157.213 93.886 157.597 93.886H158.221V94.75H157.309ZM164.753 94.894C164.257 94.894 163.845 94.81 163.517 94.642C163.189 94.474 162.945 94.25 162.785 93.97C162.625 93.69 162.545 93.386 162.545 93.058C162.545 92.45 162.777 91.982 163.241 91.654C163.705 91.326 164.337 91.162 165.137 91.162H166.745V91.09C166.745 90.57 166.609 90.178 166.337 89.914C166.065 89.642 165.701 89.506 165.245 89.506C164.853 89.506 164.513 89.606 164.225 89.806C163.945 89.998 163.769 90.282 163.697 90.658H162.665C162.705 90.226 162.849 89.862 163.097 89.566C163.353 89.27 163.669 89.046 164.045 88.894C164.421 88.734 164.821 88.654 165.245 88.654C166.077 88.654 166.701 88.878 167.117 89.326C167.541 89.766 167.753 90.354 167.753 91.09V94.75H166.853L166.793 93.682C166.625 94.018 166.377 94.306 166.049 94.546C165.729 94.778 165.297 94.894 164.753 94.894ZM164.909 94.042C165.293 94.042 165.621 93.942 165.893 93.742C166.173 93.542 166.385 93.282 166.529 92.962C166.673 92.642 166.745 92.306 166.745 91.954V91.942H165.221C164.629 91.942 164.209 92.046 163.961 92.254C163.721 92.454 163.601 92.706 163.601 93.01C163.601 93.322 163.713 93.574 163.937 93.766C164.169 93.95 164.493 94.042 164.909 94.042ZM169.266 94.75V88.798H170.178L170.238 89.866C170.43 89.49 170.706 89.194 171.066 88.978C171.426 88.762 171.834 88.654 172.29 88.654C172.994 88.654 173.554 88.87 173.97 89.302C174.394 89.726 174.605 90.382 174.605 91.27V94.75H173.598V91.378C173.598 90.138 173.086 89.518 172.062 89.518C171.55 89.518 171.122 89.706 170.778 90.082C170.442 90.45 170.274 90.978 170.274 91.666V94.75H169.266ZM176.605 97.39L178.081 94.174H177.733L175.369 88.798H176.461L178.429 93.43L180.517 88.798H181.561L177.661 97.39H176.605ZM188.537 94.894C187.969 94.894 187.457 94.766 187.001 94.51C186.553 94.246 186.197 93.882 185.933 93.418C185.677 92.946 185.549 92.398 185.549 91.774C185.549 91.15 185.677 90.606 185.933 90.142C186.197 89.67 186.553 89.306 187.001 89.05C187.457 88.786 187.969 88.654 188.537 88.654C189.241 88.654 189.833 88.838 190.313 89.206C190.801 89.574 191.109 90.066 191.237 90.682H190.205C190.125 90.314 189.929 90.03 189.617 89.83C189.305 89.622 188.941 89.518 188.525 89.518C188.189 89.518 187.873 89.602 187.577 89.77C187.281 89.938 187.041 90.19 186.857 90.526C186.673 90.862 186.581 91.278 186.581 91.774C186.581 92.27 186.673 92.686 186.857 93.022C187.041 93.358 187.281 93.614 187.577 93.79C187.873 93.958 188.189 94.042 188.525 94.042C188.941 94.042 189.305 93.942 189.617 93.742C189.929 93.534 190.125 93.242 190.205 92.866H191.237C191.117 93.466 190.813 93.954 190.325 94.33C189.837 94.706 189.241 94.894 188.537 94.894ZM195.356 94.894C194.796 94.894 194.292 94.766 193.844 94.51C193.396 94.254 193.04 93.894 192.776 93.43C192.52 92.958 192.392 92.406 192.392 91.774C192.392 91.142 192.524 90.594 192.788 90.13C193.052 89.658 193.408 89.294 193.856 89.038C194.312 88.782 194.82 88.654 195.38 88.654C195.94 88.654 196.444 88.782 196.892 89.038C197.34 89.294 197.692 89.658 197.948 90.13C198.212 90.594 198.344 91.142 198.344 91.774C198.344 92.406 198.212 92.958 197.948 93.43C197.684 93.894 197.324 94.254 196.868 94.51C196.42 94.766 195.916 94.894 195.356 94.894ZM195.356 94.03C195.7 94.03 196.02 93.946 196.316 93.778C196.612 93.61 196.852 93.358 197.036 93.022C197.22 92.686 197.312 92.27 197.312 91.774C197.312 91.278 197.22 90.862 197.036 90.526C196.86 90.19 196.624 89.938 196.328 89.77C196.032 89.602 195.716 89.518 195.38 89.518C195.036 89.518 194.716 89.602 194.42 89.77C194.124 89.938 193.884 90.19 193.7 90.526C193.516 90.862 193.424 91.278 193.424 91.774C193.424 92.27 193.516 92.686 193.7 93.022C193.884 93.358 194.12 93.61 194.408 93.778C194.704 93.946 195.02 94.03 195.356 94.03ZM202.026 94.894C201.314 94.894 200.722 94.714 200.25 94.354C199.778 93.994 199.502 93.506 199.422 92.89H200.454C200.518 93.202 200.682 93.474 200.946 93.706C201.218 93.93 201.582 94.042 202.038 94.042C202.462 94.042 202.774 93.954 202.974 93.778C203.174 93.594 203.274 93.378 203.274 93.13C203.274 92.77 203.142 92.53 202.878 92.41C202.622 92.29 202.258 92.182 201.786 92.086C201.466 92.022 201.146 91.93 200.826 91.81C200.506 91.69 200.238 91.522 200.022 91.306C199.806 91.082 199.698 90.79 199.698 90.43C199.698 89.91 199.89 89.486 200.274 89.158C200.666 88.822 201.194 88.654 201.858 88.654C202.49 88.654 203.006 88.814 203.406 89.134C203.814 89.446 204.05 89.894 204.114 90.478H203.118C203.078 90.174 202.946 89.938 202.722 89.77C202.506 89.594 202.214 89.506 201.846 89.506C201.486 89.506 201.206 89.582 201.006 89.734C200.814 89.886 200.718 90.086 200.718 90.334C200.718 90.574 200.842 90.762 201.09 90.898C201.346 91.034 201.69 91.15 202.122 91.246C202.49 91.326 202.838 91.426 203.166 91.546C203.502 91.658 203.774 91.83 203.982 92.062C204.198 92.286 204.306 92.614 204.306 93.046C204.314 93.582 204.11 94.026 203.694 94.378C203.286 94.722 202.73 94.894 202.026 94.894ZM207.828 94.75C207.284 94.75 206.856 94.618 206.544 94.354C206.232 94.09 206.076 93.614 206.076 92.926V89.65H205.044V88.798H206.076L206.208 87.37H207.084V88.798H208.836V89.65H207.084V92.926C207.084 93.302 207.16 93.558 207.312 93.694C207.464 93.822 207.732 93.886 208.116 93.886H208.74V94.75H207.828Z" fill="#F5FBFF" fill-opacity="0.6"/>
<rect x="14.1274" y="11.7322" width="32.7983" height="32.7983" rx="16.3991" fill="#4CCD99"/>
<g clip-path="url(#clip1_380_2421)">
<path d="M35.6933 22.5154C36.0508 22.5154 36.3936 22.6574 36.6464 22.9102C36.8991 23.1629 37.0412 23.5058 37.0412 23.8633V30.6026C37.0412 31.3507 36.4414 31.9505 35.6933 31.9505H38.389V33.2984H22.2145V31.9505H24.9103C24.5528 31.9505 24.21 31.8085 23.9572 31.5557C23.7044 31.3029 23.5624 30.9601 23.5624 30.6026V23.8633C23.5624 23.1152 24.1622 22.5154 24.9103 22.5154H35.6933ZM35.6933 23.8633H24.9103V30.6026H35.6933V23.8633ZM30.3018 27.9069C31.7912 27.9069 32.9975 28.5134 32.9975 29.2548V29.9287H27.606V29.2548C27.606 28.5134 28.8124 27.9069 30.3018 27.9069ZM30.3018 24.5372C30.6593 24.5372 31.0021 24.6792 31.2549 24.932C31.5077 25.1848 31.6497 25.5276 31.6497 25.8851C31.6497 26.2425 31.5077 26.5854 31.2549 26.8382C31.0021 27.0909 30.6593 27.2329 30.3018 27.2329C29.5537 27.2329 28.9539 26.6331 28.9539 25.8851C28.9539 25.137 29.5605 24.5372 30.3018 24.5372Z" fill="white"/>
</g>
<circle cx="30.7511" cy="28.3562" r="19.2072" stroke="#4CCD99" stroke-opacity="0.6" stroke-width="0.224646"/>
<circle cx="30.7511" cy="28.3562" r="22.3523" stroke="#4CCD99" stroke-opacity="0.2" stroke-width="0.224646"/>
<circle cx="30.7511" cy="28.3561" r="25.048" stroke="#4CCD99" stroke-opacity="0.05" stroke-width="0.224646"/>
<g style="mix-blend-mode:luminosity">
<path d="M124.917 203.386L117.303 232.005C117.266 232.15 117.263 232.294 117.289 232.436C117.318 232.577 117.381 232.714 117.467 232.825C117.556 232.944 117.671 233.037 117.801 233.096C117.931 233.163 118.075 233.196 118.217 233.196L134.49 233.193V236.203H87.7379C87.0883 236.203 86.4499 236.055 85.8671 235.769C85.2806 235.483 84.7721 235.071 84.3712 234.555C83.974 234.043 83.6956 233.445 83.5657 232.81C83.4321 232.176 83.4469 231.515 83.6028 230.884L91.0044 201.745L124.917 203.386Z" fill="white"/>
<path d="M117.333 232.012L122.738 211.571L90.7335 213.323L85.9191 230.813C85.8448 231.096 85.83 231.389 85.8857 231.675C85.9414 231.957 86.0601 232.224 86.2383 232.454C86.4128 232.688 86.6392 232.874 86.899 233.003C87.1589 233.133 87.4447 233.196 87.7342 233.196H118.217C118.079 233.189 117.938 233.156 117.812 233.093C117.686 233.022 117.578 232.929 117.493 232.818C117.407 232.703 117.352 232.573 117.322 232.432C117.296 232.294 117.3 232.15 117.333 232.012Z" fill="#DA914E"/>
<path d="M89.2932 218.557L85.9191 230.814C85.8448 231.096 85.83 231.389 85.8857 231.675C85.9414 231.957 86.0601 232.224 86.2383 232.454C86.4128 232.688 86.6392 232.874 86.899 233.004C87.1589 233.134 87.4447 233.197 87.7342 233.197H118.217" stroke="#DA914E" stroke-width="1.11358" stroke-linecap="round" stroke-linejoin="round"/>
<path d="M43.817 138.045C43.8095 138.038 43.8021 138.038 43.791 138.041C43.7836 138.041 43.7798 138.045 43.7724 138.052L42.592 139.931C42.1317 140.673 41.9573 141.556 42.1058 142.414L55.6283 219.607C55.7582 220.349 56.1517 221.018 56.7233 221.504C57.3024 221.986 58.0336 222.254 58.7834 222.254H164.388C164.614 222.254 164.841 222.202 165.048 222.101C165.253 222.001 165.431 221.853 165.572 221.671L167.142 219.811C167.142 219.807 167.146 219.804 167.146 219.804C167.146 219.8 167.146 219.796 167.146 219.789C167.146 219.785 167.146 219.782 167.142 219.778C167.142 219.778 167.138 219.774 167.134 219.77L43.817 138.045Z" fill="white"/>
<path d="M58.7819 222.283C58.0247 222.287 57.286 222.02 56.7033 221.53C56.1205 221.044 55.727 220.361 55.5971 219.611L42.0709 142.421C41.9224 141.553 42.0968 140.662 42.5683 139.912L43.7449 138.038C43.7561 138.019 43.7783 138.012 43.7969 138.008C43.808 138.008 43.8229 138.012 43.8303 138.019L167.152 219.711C167.159 219.718 167.163 219.726 167.166 219.729C167.174 219.737 167.178 219.748 167.178 219.755C167.178 219.763 167.178 219.774 167.174 219.778C167.174 219.789 167.166 219.796 167.163 219.804L165.596 221.693C165.451 221.882 165.27 222.031 165.058 222.135C164.85 222.235 164.62 222.287 164.386 222.287L58.7819 222.283Z" fill="#BA6518"/>
<path d="M167.462 218.445C167.522 218.69 167.522 218.943 167.462 219.184C167.41 219.429 167.295 219.656 167.139 219.845C166.98 220.038 166.779 220.19 166.549 220.294C166.323 220.394 166.074 220.442 165.825 220.431H59.8609C59.3041 220.413 58.7733 220.205 58.3502 219.849C57.927 219.485 57.6375 218.991 57.5261 218.445L43.5322 139.099C43.4802 138.858 43.4802 138.606 43.5359 138.364C43.5916 138.119 43.7066 137.897 43.8625 137.704C44.0221 137.511 44.2226 137.359 44.449 137.255C44.6755 137.154 44.9204 137.106 45.1691 137.114H151.137C151.694 137.132 152.228 137.34 152.652 137.7C153.075 138.064 153.364 138.554 153.472 139.099L167.462 218.445Z" fill="white"/>
<path d="M166.594 220.268C166.357 220.376 166.097 220.435 165.826 220.431H59.8615C59.3047 220.413 58.7739 220.205 58.3507 219.849C57.9275 219.485 57.638 218.991 57.5267 218.446L43.5327 139.1C43.5067 138.936 43.4993 138.765 43.5104 138.598" stroke="#BA6518" stroke-width="1.11358" stroke-linecap="round" stroke-linejoin="round"/>
<path d="M160.652 206.987L62.8388 206.486L56.4654 202.08L45.5152 139.983C45.4893 139.868 45.4893 139.746 45.5152 139.631C45.5412 139.512 45.5969 139.404 45.6749 139.311C45.7491 139.219 45.8456 139.144 45.957 139.096C46.0646 139.044 46.1871 139.022 46.3059 139.026H150.678C150.949 139.037 151.209 139.137 151.413 139.311C151.621 139.482 151.758 139.723 151.81 139.983L162.753 202.05L160.652 206.987Z" fill="#EFAD71"/>
<path d="M99.5838 138.427C99.7694 138.223 99.7249 137.874 99.4799 137.652C99.2386 137.429 98.8897 137.418 98.7004 137.622C98.5148 137.822 98.563 138.171 98.8043 138.394C99.0456 138.617 99.3945 138.632 99.5838 138.427Z" fill="#EFAD71"/>
<path d="M164.093 209.644C164.093 209.648 164.093 209.652 164.093 209.656C164.093 209.663 164.089 209.667 164.089 209.667C164.085 209.67 164.082 209.67 164.078 209.674C164.074 209.674 164.07 209.678 164.063 209.678H57.8352C57.8278 209.674 57.8166 209.67 57.8129 209.667C57.8055 209.663 57.7981 209.652 57.7981 209.644L56.4655 202.079L162.753 202.05L164.093 209.644Z" fill="black"/>
<path d="M116.995 217.659C118.165 216.382 117.879 214.221 116.357 212.829C114.839 211.437 112.66 211.345 111.491 212.618C110.321 213.895 110.607 216.059 112.129 217.451C113.647 218.839 115.826 218.936 116.995 217.659Z" fill="#EDBD92"/>
<path d="M141.072 202.058H99.9511C94.0899 201.453 90.4968 201.486 85.5488 202.058H78.2252C78.2252 200.654 79.027 199.166 80.0069 197.885C80.8495 196.798 81.8183 195.818 82.8985 194.968C84.2533 193.932 84.4909 193.45 86.0833 192.733C86.2466 192.659 86.4879 192.551 86.7812 192.414C88.2511 191.731 91.1315 190.365 93.3216 189.329C94.8694 188.587 96.0758 188.015 96.1946 187.96C96.1983 187.96 96.202 187.956 96.2057 187.952C96.2095 187.949 96.2095 187.945 96.2095 187.941L97.5495 184.63C97.5495 184.623 97.5569 184.619 97.5643 184.615C97.5717 184.608 97.5791 184.608 97.5866 184.608L112.353 183.888C112.371 183.891 112.386 183.899 112.397 183.91L113.655 185.799C113.659 185.803 113.659 185.803 113.659 185.807C113.707 185.948 113.793 186.078 113.904 186.178C114.19 186.441 114.55 186.62 114.932 186.679C115.489 186.798 116.844 186.957 118.321 187.15C119.795 187.34 121.387 187.555 122.423 187.796C124.494 188.275 127.126 189.233 128.399 190.424C129.613 191.564 137.185 198.334 137.905 198.984C137.909 198.984 137.913 198.992 137.913 198.995C137.913 199.003 137.913 199.006 137.913 199.01C137.913 199.017 137.909 199.021 137.902 199.025C137.902 199.029 137.894 199.029 137.891 199.029L141.072 202.058Z" fill="#97607A"/>
<path d="M95.5226 188.702L96.6844 197.596L105.37 192.978" stroke="#3D3D3D" stroke-width="1.11358" stroke-linecap="round" stroke-linejoin="round"/>
<path d="M90.4962 158.045L89.03 159.433C88.2654 160.161 87.768 161.119 87.6195 162.162C87.4673 163.205 87.6714 164.266 88.1985 165.179L91.5021 170.903" stroke="#333333" stroke-width="1.11358" stroke-linecap="round" stroke-linejoin="round"/>
<path d="M98.2553 184.935C98.2516 184.931 98.2442 184.927 98.2442 184.923C98.2442 184.916 98.2404 184.912 98.2442 184.905L98.7156 181.308C98.7156 181.301 98.7156 181.297 98.7119 181.29C98.5485 181.052 95.2152 176.256 94.9034 175.892C94.5842 175.521 94.0014 174.3 93.6822 174.196C93.363 174.088 92.5686 174.515 91.7186 172.919C90.8686 171.323 90.0705 168.881 90.2858 167.819C90.4825 166.835 91.5924 166.353 91.752 166.286C91.7594 166.286 91.7631 166.278 91.7669 166.275C91.7706 166.271 91.7706 166.264 91.7706 166.26C91.7446 165.904 91.3994 161.06 91.4513 159.374C91.507 157.619 95.2227 150.766 102.027 150.714C108.827 150.659 111.11 152.147 112.65 154.007C114.139 155.803 115.029 161.457 115.093 161.846C115.093 161.854 115.096 161.858 115.096 161.865C115.104 161.869 115.107 161.869 115.115 161.869C115.646 161.936 116.154 162.136 116.581 162.455C117.112 162.93 117.91 167.819 117.379 168.457C116.889 169.04 116.444 169.493 116.377 169.56C116.373 169.564 116.369 169.571 116.369 169.571C116.366 169.575 116.366 169.582 116.366 169.582C116.392 169.894 116.767 175.826 115.839 177.381C114.881 178.977 112.331 181.048 112.012 181.523C111.692 182.002 111.585 182.162 111.537 183.012C111.485 183.828 111.83 185.532 111.856 185.658C111.856 185.666 111.856 185.666 111.856 185.673L108.597 195.347C108.571 195.417 108.53 195.48 108.474 195.528C108.419 195.58 108.348 195.61 108.274 195.621C108.2 195.636 108.125 195.629 108.055 195.599C107.984 195.569 107.925 195.525 107.88 195.465C106.381 193.502 101.782 187.477 101.603 187.206C101.396 186.902 98.4928 185.083 98.2553 184.935Z" fill="#E77240"/>
<path d="M94.2238 169.463C94.2312 169.463 94.2312 169.463 94.2349 169.463C94.2424 169.463 94.2423 169.459 94.2461 169.459C94.2498 169.456 94.2535 169.452 94.2535 169.448C94.2535 169.445 94.2572 169.441 94.2572 169.437C94.7546 164.014 95.4265 161.635 95.4859 161.434C95.4896 161.43 95.4895 161.423 95.4933 161.423C95.497 161.419 95.5007 161.416 95.5044 161.412C95.6306 161.375 96.6403 161.044 99.2349 160.302C102.026 159.508 104.933 158.112 106.447 156.52C107.88 155.009 109.209 152.069 109.346 151.765C109.35 151.757 109.354 151.753 109.361 151.75C109.368 151.746 109.376 151.746 109.383 151.75C110.467 152.247 111.443 152.945 112.267 153.81C113.422 155.124 114.22 157.874 114.617 159.827C114.966 161.549 115.597 164.474 115.742 165.142C115.742 165.154 115.742 165.161 115.749 165.165C115.753 165.168 115.764 165.172 115.768 165.172C115.779 165.172 115.786 165.168 115.79 165.165C115.794 165.161 115.797 165.154 115.797 165.142C115.931 164.396 116.536 160.822 116.607 158.194C116.685 155.243 116.009 154.129 115.293 153.569C114.621 153.049 112.371 152.314 112.093 152.225C112.089 152.225 112.086 152.225 112.082 152.221C112.082 152.217 112.078 152.214 112.078 152.214C112.074 152.206 112.071 152.203 112.071 152.203C112.071 152.195 112.074 152.191 112.074 152.191C112.145 151.998 112.527 150.837 111.904 150.143C111.228 149.389 109.754 148.509 105.051 147.871C100.352 147.232 94.3723 149.586 91.6254 152.095C88.8823 154.597 87.6463 160.67 90.4525 167.228C90.4525 167.236 90.4562 167.24 90.4599 167.24C90.4636 167.243 90.4673 167.247 90.4748 167.247C90.4785 167.251 90.4859 167.247 90.4859 167.247C90.4933 167.243 90.497 167.24 90.497 167.236C90.7197 166.906 91.0353 166.649 91.4065 166.508C91.7739 166.367 92.1822 166.341 92.5646 166.438C92.5683 166.438 92.5757 166.438 92.5794 166.442C92.5831 166.449 92.5831 166.449 92.5831 166.456C92.6425 166.683 93.3255 169.292 94.2238 169.463Z" fill="#693820"/>
<path d="M102.717 167.804C103.226 167.804 103.634 167.214 103.634 166.493C103.634 165.77 103.226 165.183 102.717 165.183C102.213 165.183 101.801 165.77 101.801 166.493C101.801 167.214 102.213 167.804 102.717 167.804Z" fill="#333333"/>
<path d="M111.11 167.852C111.619 167.852 112.027 167.266 112.027 166.542C112.027 165.822 111.619 165.235 111.11 165.235C110.605 165.235 110.193 165.822 110.193 166.542C110.193 167.266 110.605 167.852 111.11 167.852Z" fill="#333333"/>
<path d="M107.231 163.624C107.231 163.624 106.967 165.272 107.075 165.695C107.182 166.118 108.879 169.463 109.09 170.584C109.302 171.701 108.081 172.707 108.081 172.707" stroke="#52200A" stroke-width="1.11358" stroke-linecap="round" stroke-linejoin="round"/>
<path d="M108.761 160.918C109.507 160.384 111.756 159.107 113.582 161.501C113.601 161.52 113.608 161.545 113.612 161.571C113.612 161.597 113.605 161.623 113.594 161.646C113.579 161.668 113.564 161.687 113.542 161.698C113.516 161.709 113.49 161.716 113.464 161.713L108.824 161.152C108.798 161.152 108.772 161.137 108.753 161.122C108.735 161.104 108.72 161.081 108.712 161.056C108.705 161.033 108.709 161.007 108.716 160.981C108.727 160.955 108.742 160.937 108.761 160.918Z" fill="#693820"/>
<path d="M99.1826 162.229C99.758 161.393 101.614 159.214 104.416 161.015C104.439 161.03 104.461 161.052 104.472 161.078C104.483 161.104 104.487 161.134 104.483 161.163C104.476 161.189 104.465 161.219 104.446 161.237C104.428 161.26 104.402 161.275 104.372 161.282L99.3348 162.451C99.3051 162.459 99.2792 162.455 99.2495 162.448C99.2235 162.433 99.1975 162.414 99.1826 162.392C99.1678 162.366 99.1567 162.34 99.1567 162.31C99.1567 162.281 99.1641 162.255 99.1826 162.229Z" fill="#693820"/>
<path d="M103.938 173.876C104.547 174.634 105.363 175.198 106.288 175.499C107.216 175.799 108.207 175.825 109.146 175.577" stroke="#52200A" stroke-width="1.11358" stroke-linecap="round" stroke-linejoin="round"/>
<path d="M91.3989 168.194L92.7278 169.734L92.6201 171.111" stroke="#52200A" stroke-width="1.11358" stroke-linecap="round" stroke-linejoin="round"/>
<path d="M129.688 200.625C129.684 200.625 129.684 200.625 129.677 200.621C129.673 200.621 129.673 200.621 129.669 200.618C129.469 200.365 125.363 195.265 125.055 194.489C124.736 193.695 118.359 185.087 117.565 183.335C116.767 181.579 118.919 181.419 119.476 182.218C119.981 182.934 121.759 184.289 122.123 184.56C122.127 184.563 122.134 184.567 122.138 184.567C122.145 184.567 122.149 184.563 122.156 184.56C122.16 184.56 122.164 184.552 122.164 184.549C122.167 184.545 122.167 184.537 122.167 184.53C122.082 184.211 121.755 183.001 121.547 182.377C121.336 181.735 121.696 180.777 121.774 180.581C121.778 180.577 121.778 180.573 121.778 180.569C121.778 180.566 121.774 180.558 121.77 180.555C121.77 180.555 121.766 180.547 121.763 180.547C121.759 180.543 121.755 180.543 121.752 180.543C121.34 180.51 117.765 180.224 117.086 180.146C116.369 180.068 115.891 178.554 116.291 178.472C116.692 178.394 124.818 178.153 126.971 178.316C129.12 178.472 129.68 178.791 130.077 179.512C130.475 180.228 136.161 193.171 136.213 193.298L137.06 194.912C137.067 194.927 137.078 194.949 137.086 194.964L137.557 196.063C137.561 196.07 137.561 196.078 137.561 196.085C137.561 196.096 137.561 196.104 137.553 196.111L134.873 201.004C134.87 201.011 134.862 201.018 134.855 201.022C134.847 201.026 134.84 201.026 134.829 201.026L129.688 200.625Z" fill="#E77240"/>
<path d="M128.114 199.433C128.11 199.43 128.114 199.426 128.114 199.422C128.114 199.419 128.118 199.415 128.118 199.411C128.118 199.407 128.125 199.407 128.129 199.404C128.129 199.404 128.132 199.4 128.14 199.4C128.533 199.363 132.743 198.958 134.057 198.554C135.437 198.127 137.074 194.938 137.074 194.938L141.072 202.058H128.533L128.114 199.433Z" fill="#97607A"/>
<path d="M128.47 201.672L128.114 199.433C128.11 199.43 128.114 199.426 128.114 199.422C128.114 199.418 128.118 199.415 128.118 199.411C128.118 199.407 128.125 199.407 128.129 199.404C128.129 199.404 128.132 199.4 128.14 199.4C128.207 199.396 128.388 199.378 128.648 199.348" stroke="#3D3D3D" stroke-width="1.11358" stroke-linecap="round" stroke-linejoin="round"/>
<path d="M100.723 198.887C100.723 200.35 100.063 201.642 99.9624 202.057H85.549C85.7272 200.751 86.3545 195.836 86.7814 192.414C87.0078 190.617 87.1786 189.233 87.2009 188.988C87.2825 188.19 87.045 182.135 87.045 181.419C87.045 180.703 88.2402 179.908 88.797 180.703C89.1496 181.237 89.4503 181.805 89.6953 182.395C90.0108 183.138 90.2706 183.906 90.4711 184.689C90.846 186.196 90.8682 188.62 90.8682 188.887C90.8682 188.891 90.872 188.899 90.8757 188.902C90.8794 188.91 90.8868 188.913 90.8905 188.913C91.0613 188.939 92.1154 189.121 93.3218 189.329C94.6841 189.559 96.2357 189.823 96.9261 189.945C98.2141 190.175 98.422 192.711 98.4369 192.956C98.4369 192.959 98.4405 192.967 98.4443 192.967C98.4443 192.974 98.448 192.978 98.4554 192.978C98.6113 193.034 99.7471 193.434 100.189 194.251C100.634 195.064 99.8399 196.501 99.7286 196.697C99.7249 196.701 99.7212 196.712 99.7249 196.716C99.7249 196.723 99.7286 196.727 99.7323 196.734C99.8214 196.797 100.178 197.109 100.59 198.074C100.69 198.334 100.735 198.613 100.723 198.887Z" fill="#E77240"/>
<path d="M121.789 180.543L126.328 179.27" stroke="#52200A" stroke-width="1.11358" stroke-linecap="round" stroke-linejoin="round"/>
<path d="M122.298 183.609L127.127 180.862" stroke="#52200A" stroke-width="1.11358" stroke-linecap="round" stroke-linejoin="round"/>
<path d="M123.382 186.278L127.925 183.015" stroke="#52200A" stroke-width="1.11358" stroke-linecap="round" stroke-linejoin="round"/>
<path d="M125.694 193.453L126.57 189.069" stroke="#52200A" stroke-width="1.11358" stroke-linecap="round" stroke-linejoin="round"/>
<path d="M127.205 186.839C127.205 186.839 130.39 187.314 129.354 189.229C128.426 189.266 127.491 189.211 126.566 189.07C124.814 188.832 124.495 188.435 123.938 187.796C123.378 187.158 122.186 184.608 122.186 184.608" stroke="#52200A" stroke-width="1.11358" stroke-linecap="round" stroke-linejoin="round"/>
<path d="M95.6495 199.029L100.312 199.927" stroke="#52200A" stroke-width="1.11358" stroke-linecap="round" stroke-linejoin="round"/>
<path d="M93.8206 194.968L99.7151 196.72" stroke="#52200A" stroke-width="1.11358" stroke-linecap="round" stroke-linejoin="round"/>
<path d="M92.4651 191.542L98.2149 192.863" stroke="#52200A" stroke-width="1.11358" stroke-linecap="round" stroke-linejoin="round"/>
<path d="M111.8 181.861C110.965 182.269 110.066 182.532 109.146 182.64C107.446 182.748 106.117 182.696 105.905 182.959C105.694 183.227 105.426 183.598 106.332 183.757C106.874 183.854 109.621 184.518 111.74 185.038C111.633 184.04 111.403 182.725 111.8 181.861Z" fill="#52200A"/>
<path d="M105.637 183.226C105.793 183.226 107.389 183.49 108.666 183.382C109.438 183.319 110.192 183.122 110.897 182.8L111.302 182.599" stroke="#52200A" stroke-width="1.11358" stroke-linecap="round" stroke-linejoin="round"/>
<path d="M109.867 192.945L119.714 196.4L117.94 187.525" stroke="#3D3D3D" stroke-width="1.11358" stroke-linecap="round" stroke-linejoin="round"/>
<path d="M112.48 179.029H115.802C116.155 179.029 116.5 178.954 116.815 178.802C117.134 178.654 117.417 178.435 117.639 178.167C117.862 177.896 118.022 177.581 118.111 177.243C118.196 176.905 118.207 176.549 118.144 176.204L116.756 169.637" stroke="#333333" stroke-width="1.11358" stroke-linecap="round" stroke-linejoin="round"/>
<path d="M92.7637 172.848C92.3146 173.067 91.7949 173.097 91.3198 172.933C90.8483 172.774 90.4623 172.425 90.2433 171.976L89.4304 170.305C89.319 170.083 89.2559 169.841 89.2374 169.593C89.2225 169.344 89.2559 169.095 89.3376 168.858C89.4156 168.624 89.5418 168.405 89.7088 168.219C89.8721 168.034 90.0725 167.881 90.2953 167.77C90.5217 167.662 90.763 167.599 91.0117 167.585C91.2604 167.57 91.5091 167.607 91.7429 167.688C91.9805 167.77 92.1921 167.896 92.3814 168.063C92.567 168.23 92.7155 168.431 92.8231 168.657L93.636 170.328C93.8513 170.777 93.8847 171.296 93.7214 171.772C93.5581 172.243 93.2128 172.629 92.7637 172.848Z" fill="#333333"/>
<path d="M111.883 179.567H110.164C109.878 179.567 109.607 179.452 109.407 179.251C109.207 179.051 109.091 178.78 109.091 178.494C109.091 178.212 109.207 177.941 109.407 177.741C109.607 177.54 109.878 177.425 110.164 177.425H111.883C112.165 177.425 112.44 177.54 112.64 177.741C112.841 177.941 112.952 178.212 112.952 178.494C112.952 178.78 112.841 179.051 112.64 179.251C112.44 179.452 112.165 179.567 111.883 179.567Z" fill="#333333"/>
<path d="M39.2337 238.082L38.3985 255.739L32.0251 390.527C31.9954 391.21 32.1773 391.882 32.5336 392.401C32.8937 392.917 33.3985 393.233 33.9405 393.285C34.4824 393.34 35.0206 393.118 35.4364 392.676C35.8521 392.234 36.1119 391.603 36.1639 390.92L45.6182 260.992L47.3108 237.766L39.2337 238.082Z" fill="white"/>
<path d="M178.397 238.082L179.878 269.396L185.606 390.527C185.639 391.21 185.454 391.882 185.094 392.401C184.737 392.917 184.233 393.233 183.691 393.285C183.149 393.34 182.61 393.118 182.195 392.676C181.783 392.234 181.519 391.603 181.467 390.92L172.213 263.761L170.32 237.766L178.397 238.082Z" fill="white"/>
<path d="M47.5621 237.766L39.0506 238.082L38.3973 255.739L45.617 260.992L47.5621 237.766Z" fill="#DDDDDD"/>
<path d="M178.527 238.082L170.216 237.766L172.213 263.761L179.878 269.396L178.527 238.082Z" fill="#DDDDDD"/>
<path d="M12.2549 236.218C12.2475 236.218 12.2438 236.222 12.24 236.226C12.2326 236.233 12.2289 236.24 12.2289 236.252C12.2363 236.73 12.3737 242.265 15.5103 242.265H193.935C198.76 242.265 199.432 236.456 199.484 235.932C199.484 235.929 199.484 235.925 199.484 235.921C199.484 235.917 199.481 235.91 199.477 235.906C199.477 235.903 199.473 235.899 199.469 235.899C199.466 235.899 199.462 235.899 199.458 235.899L12.2549 236.218Z" fill="#A97247"/>
<path d="M37.0905 206.627C37.0794 206.612 37.0645 206.597 37.0459 206.586L35.3941 205.446C35.3941 205.443 35.3904 205.443 35.3867 205.443C35.383 205.443 35.3756 205.443 35.3719 205.443C35.3682 205.443 35.3644 205.443 35.3607 205.446L35.357 205.45L27.6956 219.811C27.6362 219.927 27.6139 220.049 27.6399 220.172C27.6585 220.294 27.7253 220.409 27.8255 220.509C27.9295 220.61 28.0631 220.691 28.2227 220.751C28.3823 220.806 28.5531 220.836 28.7312 220.836H47.5655C47.5692 220.836 47.573 220.836 47.5767 220.836C47.5804 220.832 47.5804 220.832 47.5841 220.829C47.5878 220.829 47.5878 220.825 47.5878 220.821C47.5878 220.817 47.5841 220.817 47.5841 220.814L37.0905 206.627Z" fill="#E66A48"/>
<path d="M37.3126 224.637C37.3089 224.63 37.3052 224.622 37.2977 224.619C37.2903 224.615 37.2829 224.611 37.2718 224.611H29.5658C29.4359 224.611 29.3023 224.634 29.1872 224.678C29.0684 224.723 28.9682 224.782 28.8977 224.86C28.8234 224.938 28.7826 225.023 28.7715 225.116C28.7566 225.205 28.7789 225.298 28.8308 225.383L35.1522 235.472C35.156 235.476 35.1634 235.48 35.1708 235.484C35.1782 235.487 35.1894 235.487 35.2005 235.487L40.0743 234.656C40.0854 234.656 40.0928 234.652 40.1002 234.648C40.104 234.641 40.1077 234.634 40.104 234.626L37.3126 224.637Z" fill="#E66A48"/>
<path d="M28.7307 220.858C28.5488 220.858 28.3669 220.828 28.2073 220.769C28.0439 220.71 27.8992 220.628 27.799 220.524C27.6913 220.42 27.6245 220.301 27.6022 220.175C27.5762 220.049 27.5985 219.919 27.6616 219.804L35.323 205.442C35.3342 205.428 35.3527 205.42 35.375 205.417C35.3861 205.417 35.3936 205.416 35.401 205.42C35.4084 205.42 35.4121 205.424 35.4158 205.428L37.0713 206.571C37.0936 206.582 37.1085 206.597 37.1233 206.612L47.6169 220.802C47.6206 220.817 47.6206 220.828 47.6169 220.843C47.6095 220.847 47.6021 220.854 47.5909 220.854C47.5835 220.858 47.5761 220.858 47.5649 220.858H28.7307Z" fill="#B0472A"/>
<path d="M35.1889 235.513C35.174 235.513 35.1629 235.509 35.1481 235.502C35.1369 235.498 35.1258 235.491 35.1184 235.48L28.797 225.391C28.745 225.302 28.7227 225.209 28.7338 225.112C28.745 225.016 28.7932 224.927 28.8712 224.845C28.9454 224.767 29.0457 224.7 29.1719 224.656C29.2906 224.611 29.4317 224.585 29.569 224.585H37.275C37.2898 224.585 37.3084 224.593 37.3232 224.6C37.3344 224.607 37.3455 224.619 37.3492 224.63L40.1443 234.622C40.1443 234.637 40.1406 234.648 40.1332 234.659C40.122 234.671 40.1035 234.678 40.0849 234.682L35.2112 235.509L35.1889 235.513Z" fill="#B0472A"/>
<path d="M100.798 205.806V235.494C100.798 235.661 100.702 235.821 100.527 235.94C100.356 236.058 100.126 236.125 99.8812 236.125H36.0807C35.8394 236.125 35.6056 236.058 35.4348 235.94C35.2641 235.821 35.1676 235.661 35.1676 235.494V205.806C35.1676 205.639 35.2641 205.48 35.4348 205.361C35.6056 205.242 35.8394 205.175 36.0807 205.175H99.8812C100.126 205.175 100.356 205.242 100.527 205.361C100.702 205.48 100.798 205.639 100.798 205.806Z" fill="#E66A48"/>
<path d="M35.1676 220.65V205.806" stroke="#B0472A" stroke-width="1.11358" stroke-linecap="round" stroke-linejoin="round"/>
<path d="M35.1676 235.494V224.752" stroke="#B0472A" stroke-width="1.11358" stroke-linecap="round" stroke-linejoin="round"/>
<path d="M100.798 234.752C100.794 234.774 100.764 234.77 100.738 234.759C100.493 234.659 100.226 234.566 99.9589 234.481L97.6612 222.243C97.2937 221.099 95.215 220.286 93.515 220.279C94.365 220.253 95.1742 220.019 95.8015 219.626C96.4251 219.229 96.8334 218.694 96.9485 218.111L99.0977 207.172C99.1088 207.165 99.1163 207.161 99.1274 207.154C99.3947 206.085 100.115 205.743 100.735 205.658C100.738 205.658 100.742 205.658 100.746 205.658C100.75 205.658 100.757 205.661 100.761 205.661C100.764 205.665 100.768 205.665 100.772 205.669C100.772 205.673 100.776 205.676 100.776 205.68H100.779C100.79 205.725 100.798 205.765 100.798 205.806C101.169 215.071 100.839 223.419 100.798 234.752Z" fill="#D0502D"/>
<path d="M61.3445 220.283C60.5167 220.283 59.7149 220.476 59.069 220.833C58.4269 221.189 57.974 221.69 57.7959 222.247L53.6199 235.287L53.6162 235.294L53.8798 206.189L53.8835 206.2L57.7922 218.32C57.974 218.88 58.4232 219.374 59.069 219.734C59.7149 220.09 60.5167 220.283 61.3445 220.283Z" fill="#D0502D"/>
<path d="M53.8778 206.189L53.8815 206.2L57.7902 218.32C57.9721 218.88 58.4212 219.374 59.0671 219.734C59.713 220.09 60.5148 220.283 61.3425 220.283H93.343C94.2227 220.283 95.0728 220.064 95.7372 219.663C96.4016 219.266 96.8285 218.713 96.9473 218.112L99.0965 207.173L99.3266 206.003" stroke="#B0472A" stroke-width="1.11358" stroke-linecap="round" stroke-linejoin="round"/>
<path d="M61.3445 220.283C60.5167 220.283 59.7149 220.476 59.069 220.832C58.4269 221.189 57.974 221.69 57.7959 222.247L53.6199 235.287L53.6162 235.294" stroke="#B0472A" stroke-width="1.11358" stroke-linecap="round" stroke-linejoin="round"/>
<path d="M100.03 234.856L99.9594 234.481L97.6617 222.243C97.2942 221.1 95.2155 220.287 93.5155 220.279H93.5006" stroke="#B0472A" stroke-width="1.11358" stroke-linecap="round" stroke-linejoin="round"/>
<path d="M89.2169 216.137H67.0641C66.9527 216.137 66.8488 216.107 66.7709 216.052C66.6892 215.996 66.6447 215.922 66.6447 215.847V209.519C66.6447 209.441 66.6892 209.37 66.7709 209.314C66.8488 209.262 66.9527 209.229 67.0641 209.229H89.2169C89.3245 209.229 89.4321 209.262 89.5138 209.314C89.5918 209.37 89.6363 209.441 89.6363 209.519V215.847C89.6363 215.922 89.5918 215.996 89.5138 216.052C89.4321 216.107 89.3245 216.137 89.2169 216.137Z" fill="white"/>
<path d="M264.149 312.658L268.986 337.461L279.602 391.874C279.602 391.874 279.602 391.882 279.602 391.885C279.599 391.889 279.599 391.893 279.595 391.896C279.591 391.9 279.591 391.9 279.584 391.904C279.58 391.904 279.576 391.907 279.573 391.907H222.88C222.877 391.907 222.869 391.904 222.865 391.904C222.862 391.9 222.858 391.9 222.854 391.896C222.851 391.889 222.851 391.889 222.851 391.881C222.851 391.878 222.851 391.874 222.851 391.87L234.929 351.986L247.008 312.097L264.149 312.658Z" fill="#E66A48"/>
<path d="M234.928 351.986L245.837 314.982L247.007 312.097L264.148 312.658L264.757 315.011L268.985 337.461L234.928 351.986Z" fill="#EB3402"/>
<path d="M304.616 243.802C304.616 243.806 304.616 243.806 304.616 243.809C304.609 244.158 303.488 283.479 302.649 294.11C301.806 304.785 300.117 315.186 286.068 315.186H200.942C200.935 315.186 200.927 315.182 200.92 315.179C200.916 315.171 200.913 315.167 200.913 315.16C200.79 314.466 198.229 298.88 215.812 298.605C233.796 298.323 231.547 288.204 232.675 281.463C233.8 274.719 236.61 249.143 237.171 243.242C237.731 237.34 242.79 236.215 245.6 236.215H298.432C304.33 236.215 304.056 239.589 304.616 243.802Z" fill="#E66A48"/>
<path d="M264.642 315.186H246.071" stroke="#EB3402" stroke-width="1.11358" stroke-linecap="round" stroke-linejoin="round"/>
<path d="M291.97 261.511C293.068 268.764 293.54 276.095 293.376 283.43C293.31 286.915 292.786 290.375 291.817 293.719C291.806 293.749 291.825 293.69 291.817 293.719C289.367 301.834 283.933 308.441 274.546 308.441H235.203C235.203 308.441 238.013 317.713 239.843 321.93C241.669 326.147 246.446 333.871 247.007 335.137C247.567 336.403 239.42 344.272 233.518 346.098C227.616 347.925 224.383 348.767 223.822 347.784C223.262 346.8 218.485 335.697 217.501 334.012C216.517 332.327 209.264 316.822 209.264 316.822C209.264 316.822 207.724 321.017 205.738 326.574C202.646 335.23 198.485 347.134 197.546 351.154C196.001 357.757 193.611 369.981 193.329 370.964C193.047 371.948 184.056 369.981 178.437 368.437C172.817 366.889 166.351 361.41 166.774 360.285C167.193 359.161 172.817 343.845 174.643 337.943C176.469 332.045 182.932 305.486 184.899 294.105C186.87 282.725 191.926 279.354 191.926 279.354C191.926 279.354 189.257 267.547 193.752 261.366C195.493 258.968 202.583 256.823 210.608 255.101C223.28 252.372 238.295 247.287 238.295 247.287L245.459 233.404L280.307 232.421L291.97 261.511Z" fill="#2A2C45"/>
<path d="M210.605 255.168C210.608 255.171 210.608 255.175 210.616 255.179C210.62 255.183 210.627 255.183 210.634 255.183C211.277 255.082 228.084 252.484 237.59 250.828C243.708 254.084 249.684 258.924 250.077 259.24C250.085 259.247 250.088 259.247 250.096 259.247C250.103 259.247 250.111 259.247 250.114 259.24L254.977 254.377C254.981 254.377 254.984 254.373 254.992 254.37C254.996 254.37 254.999 254.366 255.007 254.37C255.014 254.373 255.014 254.377 255.018 254.377C255.025 254.381 255.025 254.388 255.025 254.392L257.119 263.88C257.119 263.883 257.122 263.891 257.126 263.894C257.13 263.894 257.134 263.898 257.137 263.902C257.49 264.035 264.131 266.56 275.252 272.469C279.335 274.596 283.306 276.946 287.133 279.503C290.192 281.593 292.118 283.245 293.336 284.492C293.236 286.604 292.976 288.705 292.553 290.776C293.893 290.513 295.337 289.711 295.411 287.573C295.411 287.573 294.717 265.813 293.67 257.989C293.67 257.981 293.67 257.974 293.674 257.966C293.677 257.963 293.681 257.959 293.685 257.959C293.685 257.959 293.692 257.959 293.696 257.959C298.941 257.462 300.827 238.308 300.827 229.474C300.827 220.621 300.734 210.161 298.93 202.707C297.311 196.033 294.914 193.739 293.93 192.473C292.946 191.208 275.626 180.577 275.626 180.577L273.9 173.947C273.9 173.94 273.897 173.94 273.893 173.936C273.889 173.932 273.886 173.929 273.882 173.929C273.47 173.776 264.212 170.332 260.779 170.881C257.267 171.442 247.241 175.94 247.241 175.94C247.241 175.94 246.072 182.399 245.79 182.822C245.508 183.245 235.482 189.519 233.236 191.627C230.987 193.735 228.318 205.302 226.072 213.171C223.823 221.04 221.009 237.48 221.009 237.48C221.009 237.48 209.769 240.71 208.084 244.507C206.447 248.189 210.378 254.793 210.605 255.168Z" fill="#97607A"/>
<path d="M255.627 233.007C254.851 233.007 254.22 232.38 254.22 231.604C254.22 230.828 254.851 230.201 255.627 230.201C256.402 230.201 257.03 230.828 257.03 231.604C257.03 232.38 256.402 233.007 255.627 233.007Z" fill="#EFAD71"/>
<path d="M208.084 244.511C208.663 243.204 210.375 241.968 212.368 240.903C212.375 240.899 212.379 240.899 212.386 240.899C212.394 240.899 212.398 240.903 212.401 240.906C214.421 242.762 216.796 245.413 216.796 247.599C216.796 251.385 213.021 253.816 213.003 253.828L210.642 255.171C210.638 255.171 210.634 255.175 210.631 255.175C210.627 255.175 210.623 255.175 210.62 255.175C210.616 255.175 210.612 255.171 210.608 255.171C210.608 255.168 210.605 255.168 210.605 255.164C210.341 254.737 206.455 248.174 208.084 244.511Z" fill="#97607A"/>
<path d="M208.084 244.511C208.663 243.204 210.374 241.968 212.368 240.903C212.375 240.899 212.379 240.899 212.386 240.899C212.394 240.899 212.397 240.903 212.401 240.906C214.42 242.762 216.796 245.413 216.796 247.599C216.796 251.363 213.062 253.787 213.003 253.824L210.616 255.182C210.616 255.182 206.399 248.3 208.084 244.511Z" fill="#7A3957"/>
<path d="M258.644 196.352C258.543 196.17 258.421 196.01 258.272 195.866L258.644 196.352Z" fill="#7A3957"/>
<path d="M244.928 202.863C244.931 202.87 244.943 202.87 244.95 202.878C245.896 202.551 246.769 202.239 247.589 201.938C251.023 198.549 253.68 197.12 257.533 196.515C257.778 196.307 258.023 196.088 258.272 195.866C256.056 192.937 243.87 200.019 244.928 202.863Z" fill="#97607A"/>
<path d="M244.928 202.863C244.931 202.87 244.943 202.87 244.95 202.878C245.896 202.551 246.769 202.239 247.589 201.938C251.023 198.549 253.68 197.12 257.533 196.515C257.778 196.307 258.023 196.088 258.272 195.866C256.056 192.937 243.87 200.019 244.928 202.863Z" fill="#7A3957"/>
<path d="M258.272 195.866C256.056 192.937 243.87 200.019 244.928 202.863" stroke="#7A3957" stroke-width="1.11358" stroke-linecap="round" stroke-linejoin="round"/>
<path d="M218.243 245.665C218.243 245.669 218.243 245.672 218.243 245.676C218.243 245.68 218.243 245.683 218.243 245.691C218.18 245.917 217.196 249.392 216.561 251.207C215.942 252.97 213.325 253.738 213.028 253.82C213.024 253.824 213.013 253.82 213.009 253.816C213.002 253.812 212.994 253.809 212.994 253.798L209.631 243.248C209.628 243.245 209.628 243.241 209.628 243.237C210.162 235.609 214.746 239.548 218.243 245.665Z" fill="#B66B35"/>
<path d="M218.217 245.669C218.228 245.673 218.232 245.676 218.236 245.684C218.243 245.691 218.243 245.699 218.239 245.706C218.143 246.047 217.185 249.425 216.562 251.207C215.942 252.97 213.325 253.739 213.028 253.82C213.024 253.824 213.013 253.824 213.009 253.82C213.002 253.813 212.994 253.809 212.994 253.802L209.646 243.297C209.642 243.289 209.642 243.286 209.642 243.278C209.646 243.275 209.65 243.271 209.654 243.267C209.654 243.26 209.661 243.26 209.665 243.26C209.668 243.26 209.676 243.26 209.68 243.26L218.217 245.669Z" fill="#694022"/>
<path d="M213.003 253.828L210.616 255.186C210.616 255.186 206.399 248.301 208.084 244.511C208.34 243.984 208.697 243.508 209.131 243.115" stroke="#7A3957" stroke-width="1.11358" stroke-linecap="round" stroke-linejoin="round"/>
<path d="M208.088 240.999C208.088 242.261 209.636 245.918 210.197 247.321C211.195 249.815 213.645 250.498 213.007 247.599V247.595L210.642 240.249C210.642 240.242 210.642 240.235 210.646 240.227C210.646 240.224 210.653 240.216 210.661 240.212C210.664 240.212 210.676 240.212 210.679 240.212C210.687 240.216 210.694 240.22 210.698 240.227L214.555 247.462C215.676 249.774 217.925 250.743 218.326 247.922C218.326 247.915 218.33 247.907 218.337 247.907C218.341 247.9 218.344 247.896 218.352 247.896C218.359 247.896 218.367 247.896 218.37 247.9C218.378 247.907 218.378 247.907 218.382 247.915C218.935 249.243 221.113 250.379 221.681 247.595C221.681 247.584 221.681 247.581 221.689 247.577C221.696 247.569 221.7 247.569 221.707 247.569C221.715 247.569 221.722 247.573 221.726 247.577C221.733 247.584 221.737 247.588 221.737 247.595C222.004 249.637 224.254 249.678 224.528 248.724C224.807 247.74 224.666 243.382 223.823 240.996C222.981 238.609 221.039 236.01 220.449 235.799C218.905 235.235 218.905 235.376 217.925 235.799C216.941 236.218 216.659 235.658 215.817 235.658C214.97 235.658 214.692 236.5 213.426 236.5C212.164 236.5 211.18 236.924 210.197 238.048C209.213 239.173 208.088 239.737 208.088 240.999Z" fill="#B66B35"/>
<path d="M211.182 248.865C212.255 249.93 213.48 249.748 213.005 247.599L210.64 240.249C210.64 240.242 210.64 240.234 210.644 240.227C210.644 240.223 210.651 240.216 210.659 240.212C210.662 240.212 210.674 240.212 210.677 240.212C210.685 240.216 210.688 240.22 210.696 240.227L214.552 247.462C215.235 248.872 216.338 249.785 217.188 249.637" stroke="#694022" stroke-width="1.11358" stroke-linecap="round" stroke-linejoin="round"/>
<path d="M244.074 136.078C244.066 136.078 244.059 136.082 244.051 136.086C244.044 136.089 244.044 136.097 244.04 136.1C243.962 136.527 242.982 141.794 241.924 144.567C240.822 147.448 236.85 155.31 238.346 163.944C238.346 163.951 238.35 163.955 238.354 163.958C238.357 163.966 238.365 163.966 238.365 163.966C238.372 163.97 238.38 163.966 238.383 163.966C238.391 163.966 238.391 163.962 238.398 163.958L239.642 162.403C239.645 162.396 239.653 162.396 239.656 162.392C239.664 162.392 239.668 162.392 239.675 162.396C239.682 162.396 239.686 162.399 239.69 162.407C239.694 162.411 239.694 162.418 239.694 162.425C239.493 163.583 239.411 164.76 239.456 165.937C239.456 165.944 239.46 165.952 239.467 165.955C239.471 165.963 239.478 165.967 239.486 165.967C243.212 166.241 246.702 170.881 256.527 169.526C266.141 168.201 269.441 161.371 269.593 161.048C269.597 161.045 269.597 161.041 269.597 161.037C269.597 161.033 269.597 161.026 269.593 161.026C269.348 160.436 259.89 138.279 244.074 136.078Z" fill="#0D1111"/>
<path d="M270.875 174.708L270.448 165.365L275.459 153.394C275.459 153.394 279.498 152.919 280.262 147.993C281.027 143.068 276.331 141.976 276.331 141.976C276.331 141.976 278.347 126.821 269.178 123.762C260.01 120.707 252.794 121.386 247.189 125.462C241.588 129.538 243.626 142.103 243.626 145.076C243.626 148.045 242.096 149.66 243.626 154.586C245.155 159.508 248.889 167.151 250.5 167.659C252.115 168.168 256.699 168.082 256.699 168.082L255.682 175.807L257.211 176.998L257.478 185.057L262.052 176.401C262.048 176.404 267.734 176.063 270.875 174.708Z" fill="#B66B35"/>
<path d="M257.219 176.994C257.215 176.998 257.211 176.998 257.207 176.994C257.204 176.994 257.2 176.991 257.2 176.987L255.693 175.818C255.686 175.814 255.682 175.81 255.682 175.807C255.682 175.803 255.678 175.796 255.682 175.792L256.692 168.101C256.692 168.097 256.695 168.09 256.703 168.086C256.703 168.082 256.71 168.078 256.718 168.075C257.115 167.989 263.44 166.579 266.417 164.986C266.421 164.983 266.424 164.983 266.432 164.983C266.435 164.983 266.439 164.983 266.446 164.986C266.45 164.986 266.454 164.994 266.454 164.998C266.458 165.001 266.461 165.005 266.461 165.012C266.291 168.754 265.756 172.466 264.858 176.104C264.854 176.107 264.85 176.115 264.85 176.115C264.843 176.122 264.839 176.126 264.832 176.126C263.262 176.33 262.085 176.401 262.048 176.404L257.219 176.994Z" fill="#694022"/>
<path d="M256.696 168.082C256.696 168.082 263.403 166.616 266.462 164.961" stroke="#694022" stroke-width="1.11358" stroke-linecap="round" stroke-linejoin="round"/>
<path d="M265.867 142.273C265.485 142.399 264.126 140.744 261.409 140.703C258.692 140.662 257.036 141.338 256.569 141.293C256.105 141.252 255.592 139.853 256.19 139.641C256.784 139.43 259.753 138.791 261.921 139.215C264.085 139.641 265.741 141.082 265.911 141.509C265.96 141.631 265.982 141.765 265.975 141.895C265.963 142.028 265.93 142.154 265.867 142.273Z" fill="#1B2020"/>
<path d="M251.56 140.235C251.601 140.362 251.727 141.464 251.56 141.509C251.39 141.549 248.754 141.167 247.017 141.252C245.28 141.334 244.174 142.481 244.003 142.269C243.829 142.058 245.146 140.232 246.846 139.805C248.543 139.382 251.56 140.235 251.56 140.235Z" fill="#1B2020"/>
<path d="M259.348 147.548C259.189 146.753 259.527 146.019 260.098 145.9C260.677 145.785 261.271 146.334 261.427 147.128C261.59 147.923 261.253 148.658 260.677 148.773C260.102 148.892 259.508 148.342 259.348 147.548Z" fill="#1B2020"/>
<path d="M247.971 147.203C247.815 146.412 248.149 145.674 248.724 145.558C249.299 145.443 249.893 145.993 250.053 146.787C250.213 147.578 249.875 148.316 249.303 148.435C248.728 148.547 248.13 147.997 247.971 147.203Z" fill="#1B2020"/>
<path d="M252.24 142.102C252.24 142.102 253.09 144.437 253.387 145.12C253.684 145.799 252.96 147.24 252.623 148.175C252.281 149.107 251.643 150.677 251.431 151.441C251.22 152.21 251.346 153.309 251.984 153.609C252.623 153.91 253.514 154.248 253.514 154.248" stroke="#694022" stroke-width="1.11358" stroke-linecap="round" stroke-linejoin="round"/>
<path d="M259.37 157.002C259.37 157.002 256.905 159.422 252.915 158.405" stroke="#694022" stroke-width="1.11358" stroke-linecap="round" stroke-linejoin="round"/>
<path d="M243.395 145.387C243.298 147.396 243.855 150.287 246.179 150.955C248.502 151.623 250.095 150.733 250.095 150.733C250.095 150.733 252.144 149.085 252.144 145.395" stroke="#EFAD71" stroke-width="1.11358" stroke-linecap="round" stroke-linejoin="bevel"/>
<path d="M255.254 145.335C255.254 145.335 255.091 147.93 255.443 149.426C255.662 150.324 256.204 151.107 256.973 151.62C260.376 153.747 267.611 152.422 266.742 146.664" stroke="#EFAD71" stroke-width="1.11358" stroke-linecap="round" stroke-linejoin="bevel"/>
<path d="M276.269 132.422C278.303 132.57 280.348 132.266 282.253 131.531C282.327 131.501 282.364 131.483 282.438 131.449C285.219 130.102 286.57 125.555 283.463 121.026C280.278 116.379 277.286 114.85 273.147 116.249C269.005 117.652 268.37 121.854 268.37 121.854L276.269 132.422Z" fill="#1B2020"/>
<path d="M268.611 120.941C278.132 120.013 281.377 126.39 282.438 131.449C280.757 132.426 278.006 132.607 276.265 132.426L268.37 121.858C268.426 121.546 268.504 121.242 268.611 120.941Z" fill="#0D1111"/>
<path d="M242.35 127.077C246.533 121.887 254.094 121.234 254.313 121.216C254.317 121.216 254.324 121.216 254.328 121.212C254.543 121.115 262.676 117.53 271.388 121.134C280.219 124.783 281.915 141.423 282.85 147.451C283.782 153.48 284.888 158.743 282.256 164.263C279.725 169.574 270.66 170.321 269.985 170.369C269.981 170.369 269.977 170.369 269.974 170.369C269.966 170.369 269.966 170.365 269.963 170.358C269.959 170.358 269.955 170.354 269.955 170.347C269.955 170.343 269.955 170.339 269.955 170.335C270.118 169.626 270.226 168.906 270.278 168.183C270.282 168.175 270.278 168.168 270.274 168.164C270.274 168.157 270.267 168.157 270.263 168.153C270.256 168.149 270.248 168.149 270.245 168.153C270.237 168.153 270.233 168.157 270.23 168.16C268.244 170.759 264.796 170.439 264.317 170.384C264.309 170.38 264.302 170.38 264.302 170.376C264.298 170.369 264.294 170.369 264.291 170.361C264.287 170.358 264.287 170.354 264.287 170.347C264.291 170.343 264.294 170.335 264.298 170.332C264.781 169.808 269.699 164.318 269.781 158.825C269.859 153.209 269.38 141.798 269.354 141.193C269.354 141.186 269.35 141.178 269.35 141.175C269.343 141.167 269.335 141.163 269.328 141.163C255.779 139.734 255.119 130.473 255.093 129.174C255.093 129.17 255.089 129.163 255.085 129.159C255.081 129.152 255.074 129.148 255.067 129.148C255.063 129.148 255.052 129.148 255.048 129.152C255.041 129.155 255.037 129.159 255.037 129.167C254.718 129.939 252.984 133.684 248.894 135.48C243.348 137.912 242.903 141.364 242.869 142.062C242.865 142.069 242.865 142.073 242.862 142.08C242.858 142.084 242.851 142.088 242.843 142.088C242.84 142.088 242.832 142.088 242.825 142.088C242.821 142.084 242.814 142.077 242.81 142.073C242.301 140.959 238.37 132.006 242.35 127.077ZM279.833 147.11C280.078 143.216 275.853 143.509 275.486 143.543C275.478 143.543 275.471 143.55 275.467 143.55C275.464 143.558 275.46 143.565 275.46 143.572C275.445 144.055 275.185 151.215 275.185 151.401C275.185 151.587 279.576 151.189 279.833 147.11Z" fill="#1B2020"/>
<path d="M271.042 120.993C271.157 121.037 271.272 121.085 271.387 121.134C275.504 122.837 278.072 127.362 279.735 132.321" stroke="#0D1111" stroke-width="1.11358" stroke-linecap="round" stroke-linejoin="round"/>
<path d="M244.98 193.936C245.233 195.424 247.011 200.25 247.571 201.902C247.575 201.913 247.582 201.928 247.59 201.939C252.026 200.298 254.709 198.928 257.534 196.516C256.792 194.753 256.142 192.956 255.589 191.126C255.448 190.283 255.73 189.159 256.291 188.175C256.851 187.191 261.35 178.762 261.91 176.653C262.467 174.549 260.366 171.594 258.818 170.12C257.426 168.791 255.318 166.542 254.056 167.993C254.052 168.001 254.045 168.004 254.041 168.008C254.034 168.008 254.026 168.008 254.019 168.004C252.233 167.121 251.55 168.275 251.45 168.48C251.443 168.483 251.439 168.491 251.428 168.491C251.42 168.494 251.413 168.491 251.406 168.491C251.179 168.335 249.628 167.366 248.781 168.84C248.778 168.843 248.774 168.847 248.77 168.851C248.766 168.854 248.759 168.854 248.755 168.854C247.081 168.721 246.521 169.352 246.101 170.543C245.637 171.809 245.329 173.134 245.188 174.478C245.103 175.035 245.207 175.606 245.481 176.104C245.756 176.598 246.19 176.984 246.71 177.203C246.717 177.206 246.721 177.214 246.725 177.217C246.729 177.229 246.729 177.232 246.729 177.243C246.576 177.644 244.754 182.514 244.349 184.801C243.926 187.191 244.42 190.632 244.98 193.936Z" fill="#B66B35"/>
<path d="M266.772 146.861C266.805 146.858 266.838 146.85 266.868 146.832C266.898 146.817 266.92 146.795 266.942 146.769L267.588 145.777L267.607 145.766L275.454 143.573C275.457 143.569 275.465 143.565 275.469 143.565C275.469 143.558 275.472 143.55 275.472 143.547L275.55 142.414C275.561 142.351 275.535 142.363 275.498 142.363L268.141 143.116C268.137 143.116 268.134 143.116 268.13 143.116C267.818 142.986 265.097 141.928 261.155 141.928C257.414 141.928 255.562 143.806 255.172 144.285C255.172 144.289 255.164 144.293 255.157 144.293C255.157 144.296 255.149 144.296 255.146 144.293C254.155 144.051 253.479 143.896 252.31 144.274C252.302 144.274 252.299 144.274 252.291 144.274C252.284 144.274 252.284 144.27 252.28 144.263C251.909 143.862 250.246 142.314 247.982 142.062C247.536 142.014 247.091 141.991 246.649 141.991C245.458 142.006 244.274 142.144 243.115 142.407C242.941 142.444 242.807 142.47 242.755 142.478C242.659 142.478 242.566 142.504 242.484 142.556C242.403 142.608 242.336 142.678 242.295 142.767C242.035 143.309 242.57 144.515 243.216 145.481C243.238 145.503 243.264 145.525 243.29 145.54C243.32 145.558 243.353 145.566 243.386 145.566C243.438 145.57 243.487 145.551 243.524 145.518C243.561 145.484 243.587 145.436 243.587 145.388C243.706 144.311 245.135 143.201 247.332 143.201C247.57 143.201 247.804 143.213 248.041 143.235C248.81 143.316 249.559 143.554 250.231 143.936C250.907 144.319 251.493 144.838 251.957 145.458C251.976 145.488 252.002 145.518 252.035 145.536C252.069 145.558 252.102 145.57 252.139 145.573C252.165 145.573 252.195 145.566 252.217 145.555C252.696 145.362 253.204 145.269 253.717 145.273C254.218 145.273 254.715 145.351 255.198 145.503C255.213 145.51 255.227 145.51 255.242 145.51C255.331 145.51 255.398 145.429 255.443 145.373V145.369C255.729 144.931 258.178 142.997 261.601 142.997C261.69 142.997 261.779 142.997 261.872 143.001C262.959 142.994 264.017 143.354 264.875 144.029C265.728 144.701 266.326 145.644 266.575 146.705C266.582 146.746 266.604 146.78 266.634 146.806C266.664 146.835 266.701 146.854 266.738 146.858C266.749 146.861 266.76 146.861 266.772 146.861Z" fill="#2A2C45"/>
<path d="M252.182 172.963C252.182 172.963 250.597 170.19 248.771 168.854" stroke="#694022" stroke-width="1.11358" stroke-linecap="round" stroke-linejoin="round"/>
<path d="M251.435 168.505C252.772 169.47 253.952 170.636 254.939 171.954" stroke="#694022" stroke-width="1.11358" stroke-linecap="round" stroke-linejoin="round"/>
<path d="M254.041 168.011C255.355 169.003 256.569 170.116 257.66 171.349" stroke="#694022" stroke-width="1.11358" stroke-linecap="round" stroke-linejoin="round"/>
<path d="M248.669 174.507L246.735 177.217" stroke="#694022" stroke-width="1.11358" stroke-linecap="round" stroke-linejoin="round"/>
<path d="M246.845 173.387L248.181 175.072" stroke="#694022" stroke-width="1.11358" stroke-linecap="round" stroke-linejoin="round"/>
<path d="M279.042 208.865L279.187 223.007" stroke="#7A3957" stroke-width="1.11358" stroke-linecap="round" stroke-linejoin="round"/>
<path d="M293.666 257.959L292.719 258.419C292.719 258.419 285.039 261.886 278.855 257.202C272.675 252.517 268.458 247.836 263.306 240.06C258.154 232.283 244.936 202.881 244.936 202.881C244.943 202.881 244.943 202.881 244.951 202.878C245.897 202.551 246.769 202.239 247.59 201.938C252.025 200.298 254.709 198.928 257.534 196.515C257.779 196.307 258.024 196.088 258.273 195.866L258.644 196.352L258.648 196.356L285.975 232.094" stroke="#7A3957" stroke-width="1.11358" stroke-linecap="round" stroke-linejoin="round"/>
<path d="M214.55 237.131C214.55 237.131 215.954 240.925 216.867 242.892C217.78 244.86 218.34 247.811 218.34 247.811" stroke="#694022" stroke-width="1.11358" stroke-linecap="round" stroke-linejoin="round"/>
<path d="M217.779 236.641C217.779 236.641 220.24 240.294 220.871 241.626C221.502 242.963 221.713 247.387 221.713 247.387" stroke="#694022" stroke-width="1.11358" stroke-linecap="round" stroke-linejoin="round"/>
<path d="M234.546 201.746L236.702 229.381C236.702 229.381 234.546 233.501 233.985 234.251C233.425 235.001 233.05 236.497 233.328 237.246C233.607 238 235.667 241.463 235.667 241.463C235.667 241.463 231.639 244.273 230.329 246.055C229.019 247.837 228.737 251.771 228.737 251.771" stroke="#7A3957" stroke-width="1.11358" stroke-linecap="round" stroke-linejoin="round"/>
<path d="M275.625 180.576L265.651 188.349L261.093 179.689" stroke="#7A3957" stroke-width="1.11358" stroke-linecap="round" stroke-linejoin="round"/>
<path d="M257.265 268.256L248.134 268.538L224.385 272.328" stroke="black" stroke-width="1.11358" stroke-linecap="round" stroke-linejoin="round"/>
<path d="M248.555 261.789L247.427 268.393" stroke="black" stroke-width="1.11358" stroke-linecap="round" stroke-linejoin="round"/>
<path d="M219.046 269.659L225.089 273.033L235.204 308.441" stroke="black" stroke-width="1.11358" stroke-linecap="round" stroke-linejoin="round"/>
<path d="M209.265 316.823C209.265 316.823 207.156 311.37 204.721 305.074C203.155 301.032 201.451 296.645 200.078 293.129C196.566 284.135 191.926 279.354 191.926 279.354" stroke="black" stroke-width="1.11358" stroke-linecap="round" stroke-linejoin="round"/>
<path d="M204.713 305.212L205.737 326.574C207.363 322.487 208.74 318.397 209.264 316.823C209.264 316.823 207.155 311.37 204.72 305.074C204.717 305.115 204.713 305.164 204.713 305.212Z" fill="black"/>
<path d="M236.983 314.532L238.579 326.5" stroke="black" stroke-width="1.11358" stroke-linecap="round" stroke-linejoin="round"/>
<path d="M255.653 249.785C254.859 249.785 254.217 249.284 254.217 248.668C254.217 248.052 254.859 247.551 255.653 247.551C256.448 247.551 257.09 248.052 257.09 248.668C257.09 249.284 256.448 249.785 255.653 249.785Z" fill="#EFAD71"/>
<path d="M240.074 241.181L235.671 241.463" stroke="#7A3957" stroke-width="1.11358" stroke-linecap="round" stroke-linejoin="round"/>
<path d="M273.585 174.096C272.928 174.411 272.093 174.545 270.875 174.708" stroke="#7A3957" stroke-width="1.11358" stroke-linecap="round" stroke-linejoin="round"/>
<path d="M292.556 290.757C294.568 290.479 295.652 288.831 295.403 287.506C295.359 287.246 295.08 286.284 293.354 284.51L293.336 284.491C293.239 286.596 292.976 288.693 292.556 290.757Z" fill="#97607A"/>
<path d="M292.556 290.757C294.568 290.479 295.652 288.831 295.403 287.506C295.359 287.246 295.08 286.284 293.354 284.51L293.336 284.491C293.239 286.596 292.976 288.693 292.556 290.757Z" fill="#7A3957"/>
<path d="M287.132 279.503C288.045 281.047 288.851 282.651 289.556 284.299C290.462 286.385 291.119 288.567 291.52 290.806C291.679 291.771 291.779 292.743 291.813 293.72C292.678 291.184 293.375 286.741 293.335 284.492C291.783 282.591 290.235 281.418 287.132 279.503Z" fill="black"/>
<path d="M295.403 287.506C295.359 287.246 295.08 286.285 293.354 284.51" stroke="#7A3957" stroke-width="1.11358" stroke-linecap="round" stroke-linejoin="round"/>
<path d="M254.02 168.004C252.234 167.121 251.551 168.275 251.451 168.479C251.444 168.483 251.44 168.491 251.429 168.491" stroke="#694022" stroke-width="1.11358" stroke-linecap="round" stroke-linejoin="round"/>
<path d="M261.912 176.653C262.472 174.545 260.367 171.594 258.82 170.12" stroke="#694022" stroke-width="1.11358" stroke-linecap="round" stroke-linejoin="round"/>
<path d="M258.819 170.12C257.427 168.791 255.319 166.542 254.057 167.993" stroke="#694022" stroke-width="1.11358" stroke-linecap="round" stroke-linejoin="round"/>
</g>
</g>
<rect x="0.449291" y="0.449291" width="317.101" height="319.101" rx="10.3337" stroke="url(#paint0_linear_380_2421)" stroke-width="0.898583"/>
</g>
<defs>
<filter id="filter0_b_380_2421" x="-41.3348" y="-41.3348" width="400.67" height="402.67" filterUnits="userSpaceOnUse" color-interpolation-filters="sRGB">
<feFlood flood-opacity="0" result="BackgroundImageFix"/>
<feGaussianBlur in="BackgroundImageFix" stdDeviation="20.6674"/>
<feComposite in2="SourceAlpha" operator="in" result="effect1_backgroundBlur_380_2421"/>
<feBlend mode="normal" in="SourceGraphic" in2="effect1_backgroundBlur_380_2421" result="shape"/>
</filter>
<filter id="filter1_f_380_2421" x="-173.227" y="-157.651" width="412" height="412" filterUnits="userSpaceOnUse" color-interpolation-filters="sRGB">
<feFlood flood-opacity="0" result="BackgroundImageFix"/>
<feBlend mode="normal" in="SourceGraphic" in2="BackgroundImageFix" result="shape"/>
<feGaussianBlur stdDeviation="71.8866" result="effect1_foregroundBlur_380_2421"/>
</filter>
<linearGradient id="paint0_linear_380_2421" x1="106" y1="0" x2="151.235" y2="321.094" gradientUnits="userSpaceOnUse">
<stop stop-color="#4CCD99"/>
<stop offset="1" stop-color="#B6F9DE"/>
</linearGradient>
<clipPath id="clip0_380_2421">
<rect width="318" height="320" rx="10.783" fill="white"/>
</clipPath>
<clipPath id="clip1_380_2421">
<rect width="16.1745" height="16.1745" fill="white" transform="translate(22.2146 19.8196)"/>
</clipPath>
</defs>
</svg>
