<svg width="672" height="376" viewBox="0 0 672 376" fill="none" xmlns="http://www.w3.org/2000/svg">
<g clip-path="url(#clip0_34_11)">
<path d="M0 25.6C0 16.6392 0 12.1587 1.7439 8.73615C3.27787 5.72556 5.72556 3.27787 8.73615 1.7439C12.1587 0 16.6392 0 25.6 0H646.4C655.361 0 659.841 0 663.264 1.7439C666.274 3.27787 668.722 5.72556 670.256 8.73615C672 12.1587 672 16.6392 672 25.6V376H0V25.6Z" fill="#4CCD99"/>
<g style="mix-blend-mode:luminosity">
<path d="M113.577 365.646C113.679 365.647 113.778 365.618 113.865 365.564C113.951 365.511 114.021 365.434 114.065 365.342L128.362 336.012C128.393 335.948 128.411 335.879 128.415 335.808C128.42 335.737 128.41 335.665 128.387 335.598C128.363 335.531 128.327 335.469 128.28 335.415C128.233 335.362 128.176 335.319 128.112 335.287C128.048 335.256 127.978 335.238 127.907 335.234C127.836 335.229 127.765 335.239 127.697 335.262C127.63 335.286 127.568 335.322 127.515 335.369C127.461 335.416 127.418 335.473 127.387 335.537L113.09 364.867C113.05 364.95 113.031 365.041 113.036 365.133C113.041 365.225 113.069 365.314 113.117 365.392C113.166 365.47 113.234 365.534 113.314 365.579C113.395 365.623 113.485 365.647 113.577 365.646Z" fill="#292A2E"/>
<path d="M89.404 363.944C89.5238 363.944 89.6403 363.905 89.7351 363.832C89.83 363.758 89.8979 363.656 89.9282 363.54L106.475 300.365C106.496 300.296 106.502 300.223 106.494 300.15C106.485 300.078 106.463 300.009 106.427 299.945C106.391 299.882 106.343 299.827 106.286 299.782C106.228 299.738 106.162 299.706 106.092 299.687C106.022 299.669 105.949 299.665 105.877 299.675C105.805 299.685 105.736 299.71 105.674 299.748C105.612 299.785 105.558 299.835 105.515 299.894C105.472 299.953 105.442 300.02 105.426 300.09L88.879 363.266C88.861 363.334 88.8567 363.406 88.8664 363.477C88.8761 363.547 88.8996 363.615 88.9355 363.676C88.9715 363.738 89.0192 363.792 89.0759 363.835C89.1326 363.878 89.1972 363.909 89.2661 363.927C89.3111 363.939 89.3575 363.945 89.404 363.944Z" fill="#292A2E"/>
<path d="M57.8371 366.741C57.9267 366.741 58.0149 366.719 58.0938 366.677C58.1728 366.635 58.2402 366.574 58.2898 366.499C58.3395 366.425 58.37 366.339 58.3785 366.25C58.387 366.161 58.3734 366.071 58.3387 365.988L41.2334 325.703C41.1739 325.576 41.0673 325.476 40.9361 325.426C40.8048 325.376 40.6591 325.378 40.5297 325.433C40.4004 325.488 40.2973 325.591 40.2424 325.721C40.1874 325.85 40.1849 325.996 40.2352 326.127L57.3405 366.412C57.3822 366.51 57.4515 366.592 57.5397 366.651C57.628 366.709 57.7313 366.74 57.8371 366.741Z" fill="#292A2E"/>
<path d="M88.7911 376.075C88.8356 376.076 88.88 376.07 88.9232 376.06C89.0627 376.024 89.1825 375.935 89.2565 375.812C89.3304 375.689 89.3525 375.541 89.3178 375.402L69.441 295.886C69.4237 295.817 69.393 295.752 69.3506 295.695C69.3082 295.638 69.255 295.589 69.1939 295.553C69.1328 295.516 69.0652 295.492 68.9947 295.481C68.9243 295.471 68.8525 295.475 68.7835 295.492C68.7144 295.509 68.6494 295.54 68.5923 295.582C68.5351 295.625 68.4868 295.678 68.4502 295.739C68.4136 295.8 68.3894 295.868 68.3789 295.938C68.3685 296.009 68.372 296.08 68.3893 296.149L88.2653 375.665C88.2947 375.782 88.3624 375.886 88.4577 375.961C88.5529 376.035 88.6703 376.075 88.7911 376.075Z" fill="#292A2E"/>
<path d="M81.7407 312.179C87.1335 300.843 83.6143 287.899 73.8804 283.269C64.1464 278.638 51.8838 284.075 46.491 295.412C41.0983 306.748 44.6175 319.692 54.3514 324.322C64.0853 328.953 76.3479 323.516 81.7407 312.179Z" fill="#0CBC8B"/>
<path opacity="0.4" d="M81.7407 312.179C87.1335 300.843 83.6143 287.899 73.8804 283.269C64.1464 278.638 51.8838 284.075 46.491 295.412C41.0983 306.748 44.6175 319.692 54.3514 324.322C64.0853 328.953 76.3479 323.516 81.7407 312.179Z" fill="white"/>
<path d="M48.2877 338.353C51.1006 331.369 48.6364 323.796 42.7837 321.439C36.931 319.082 29.9061 322.833 27.0932 329.817C24.2803 336.801 26.7445 344.374 32.5973 346.731C38.45 349.088 45.4748 345.337 48.2877 338.353Z" fill="#0CBC8B"/>
<path d="M117.254 329.391C125.948 326.754 130.372 315.966 127.136 305.296C123.9 294.627 114.229 288.115 105.535 290.752C96.8408 293.388 92.4165 304.176 95.6527 314.846C98.889 325.516 108.56 332.028 117.254 329.391Z" fill="#0CBC8B"/>
<path d="M132.208 352.098C137.061 351.285 140.067 345.089 138.923 338.258C137.779 331.427 132.918 326.548 128.065 327.361C123.212 328.174 120.205 334.37 121.349 341.201C122.493 348.032 127.355 352.911 132.208 352.098Z" fill="#0CBC8B"/>
<path d="M41.8841 376.82H126.316V355.78H41.8841V376.82Z" fill="#292A2E"/>
<path opacity="0.3" d="M41.8841 376.82H126.316V355.78H41.8841V376.82Z" fill="white"/>
<path d="M81.9029 350.494C85.3343 341.973 82.3014 332.725 75.1287 329.836C67.956 326.947 59.3596 331.512 55.9281 340.032C52.4966 348.552 55.5295 357.801 62.7022 360.69C69.875 363.579 78.4714 359.014 81.9029 350.494Z" fill="#0CBC8B"/>
<path d="M100.642 358.578C107.786 358.578 113.577 352.787 113.577 345.643C113.577 338.499 107.786 332.708 100.642 332.708C93.4983 332.708 87.707 338.499 87.707 345.643C87.707 352.787 93.4983 358.578 100.642 358.578Z" fill="#0CBC8B"/>
<path opacity="0.68" d="M48.2877 338.353C51.1006 331.369 48.6364 323.796 42.7837 321.439C36.931 319.082 29.9061 322.833 27.0932 329.817C24.2803 336.801 26.7445 344.374 32.5973 346.731C38.45 349.088 45.4748 345.337 48.2877 338.353Z" fill="white"/>
<path opacity="0.68" d="M117.254 329.391C125.948 326.754 130.372 315.966 127.136 305.296C123.9 294.627 114.229 288.115 105.535 290.752C96.8408 293.388 92.4165 304.176 95.6527 314.846C98.889 325.516 108.56 332.028 117.254 329.391Z" fill="white"/>
<path opacity="0.68" d="M132.208 352.098C137.061 351.285 140.067 345.089 138.923 338.258C137.779 331.427 132.918 326.548 128.065 327.361C123.212 328.174 120.205 334.37 121.349 341.201C122.493 348.032 127.355 352.911 132.208 352.098Z" fill="white"/>
<path opacity="0.68" d="M81.9029 350.494C85.3343 341.973 82.3014 332.725 75.1287 329.836C67.956 326.947 59.3596 331.512 55.9281 340.032C52.4966 348.552 55.5295 357.801 62.7022 360.69C69.875 363.579 78.4714 359.014 81.9029 350.494Z" fill="white"/>
<path opacity="0.4" d="M100.642 358.578C107.786 358.578 113.577 352.787 113.577 345.643C113.577 338.499 107.786 332.708 100.642 332.708C93.4983 332.708 87.707 338.499 87.707 345.643C87.707 352.787 93.4983 358.578 100.642 358.578Z" fill="white"/>
<path d="M59.0938 334.753C68.9122 337.496 74.0789 329.473 74.0789 329.473L74.0731 329.462C68.8361 327.9 63.0298 330.096 59.0938 334.753Z" fill="#292A2E"/>
<path d="M121.109 338.038C125.943 336.188 129.948 332.658 132.391 328.095C131.066 327.388 129.548 327.132 128.064 327.364C123.977 328.047 121.201 332.552 121.109 338.038Z" fill="#292A2E"/>
<path d="M98.334 332.915C102.099 336.307 106.804 338.479 111.828 339.144C110.489 336.847 108.476 335.017 106.063 333.903C103.649 332.789 100.951 332.444 98.334 332.915Z" fill="#292A2E"/>
<path d="M473.938 131.809C484.461 131.809 492.991 123.278 492.991 112.756C492.991 102.233 484.461 93.7023 473.938 93.7023C463.415 93.7023 454.885 102.233 454.885 112.756C454.885 123.278 463.415 131.809 473.938 131.809Z" fill="#367CFF"/>
<path d="M465.008 110.951C464.518 110.951 464.039 110.807 463.629 110.538C463.22 110.269 462.898 109.886 462.704 109.436C462.36 108.639 454.384 89.604 463.047 61.6803C472.432 31.4333 505.116 31.0813 505.445 31.0813C506.111 31.0813 506.749 31.3455 507.219 31.8159C507.689 32.2863 507.954 32.9242 507.954 33.5894C507.954 34.2546 507.689 34.8926 507.219 35.3629C506.749 35.8333 506.111 36.0975 505.445 36.0975C504.252 36.0975 476.111 36.4913 467.835 63.1651C459.716 89.3331 467.229 107.269 467.306 107.447C467.471 107.828 467.538 108.245 467.502 108.659C467.466 109.073 467.328 109.471 467.099 109.818C466.871 110.165 466.56 110.451 466.195 110.648C465.829 110.845 465.42 110.949 465.005 110.949L465.008 110.951Z" fill="#367CFF"/>
<path d="M467.04 131.809C477.562 131.809 486.093 123.279 486.093 112.756C486.093 102.233 477.562 93.7024 467.04 93.7024C456.517 93.7024 447.986 102.233 447.986 112.756C447.986 123.279 456.517 131.809 467.04 131.809Z" fill="#367CFF"/>
<path opacity="0.3" d="M467.04 131.809C477.562 131.809 486.093 123.279 486.093 112.756C486.093 102.233 477.562 93.7024 467.04 93.7024C456.517 93.7024 447.986 102.233 447.986 112.756C447.986 123.279 456.517 131.809 467.04 131.809Z" fill="white"/>
<path d="M471.612 131.809C482.135 131.809 490.665 123.279 490.665 112.756C490.665 102.233 482.135 93.7024 471.612 93.7024C461.089 93.7024 452.559 102.233 452.559 112.756C452.559 123.279 461.089 131.809 471.612 131.809Z" fill="#367CFF"/>
<path d="M561.486 78.4729C561.486 78.4729 567.606 107.805 574.917 116.68C595.965 142.228 605.203 172.915 590.1 191.634C574.997 210.353 469.784 225.472 456.334 188.913C445.012 158.134 457.157 152.684 457.305 126.014C457.372 113.947 459.043 88.4953 459.043 88.4953" fill="#0A0A0A"/>
<path d="M473.553 173.394C473.745 173.369 475.879 208.784 517.021 205.696C545.503 203.563 555.658 173.342 556.315 173.342C553.244 172.69 548.073 171.74 546.709 171.013C542.224 168.602 536.676 166.095 535.229 157.385C534.393 152.369 535.809 126.684 535.374 121.603L491.651 131.366C492.262 142.092 496.537 166.96 481.552 171.361C479.058 172.089 476.373 172.759 473.553 173.394Z" fill="#E98862"/>
<path opacity="0.5" d="M491.041 161.198C491.726 158.991 492.167 156.716 492.356 154.413C492.837 149.158 492.742 143.865 492.071 138.631C500.956 137.431 509.327 133.763 516.232 128.044C517.044 131.042 521.509 144.143 520.273 146.992C517.935 152.379 506.954 161.198 491.041 161.198Z" fill="#0C0C0C"/>
<path d="M498.82 153.419C516.126 152.768 537.306 142.955 538.817 119.589L540.181 98.5054C541.692 75.1398 530.644 55.4042 508.644 53.9813C486.643 52.56 468.974 70.437 467.464 93.8035L466.86 103.137C466.28 112.103 467.944 154.58 498.82 153.419Z" fill="#E98862"/>
<path opacity="0.1" d="M505.655 122.148C508.511 122.105 510.801 120.371 510.769 118.276C510.737 116.181 508.396 114.518 505.539 114.561C502.683 114.605 500.393 116.339 500.425 118.434C500.457 120.529 502.799 122.192 505.655 122.148Z" fill="#0C0C0C"/>
<path opacity="0.1" d="M474.844 117.907C474.87 119.997 472.581 121.731 469.724 121.779C469.231 121.786 468.738 121.742 468.253 121.648C467.792 119.211 467.465 116.85 467.242 114.653C467.997 114.353 468.8 114.196 469.612 114.191C472.469 114.144 474.809 115.808 474.844 117.907Z" fill="#0C0C0C"/>
<path d="M474.064 102.168C475.558 102.168 476.77 100.956 476.77 99.4619C476.77 97.9672 475.558 96.7556 474.064 96.7556C472.569 96.7556 471.357 97.9672 471.357 99.4619C471.357 100.956 472.569 102.168 474.064 102.168Z" fill="#0C0C0C"/>
<path d="M500.841 104.169C502.336 104.169 503.547 102.957 503.547 101.463C503.547 99.968 502.336 98.7563 500.841 98.7563C499.346 98.7563 498.135 99.968 498.135 101.463C498.135 102.957 499.346 104.169 500.841 104.169Z" fill="#0C0C0C"/>
<path opacity="0.5" d="M488.124 122.596H488.08C487.189 122.531 486.301 122.418 485.422 122.257C484.107 122.006 482.369 121.536 482.444 120.368C482.527 119.037 487.106 104.908 487.627 103.301C487.648 103.229 487.682 103.162 487.729 103.103C487.776 103.045 487.835 102.997 487.901 102.962C487.967 102.926 488.039 102.905 488.114 102.898C488.188 102.892 488.264 102.9 488.335 102.923C488.406 102.946 488.472 102.984 488.528 103.033C488.585 103.082 488.631 103.142 488.664 103.209C488.696 103.277 488.715 103.35 488.719 103.425C488.723 103.5 488.711 103.574 488.686 103.645C486.733 109.664 483.612 119.544 483.555 120.44C483.746 120.828 485.94 121.342 488.153 121.485C488.296 121.495 488.429 121.56 488.525 121.667C488.621 121.773 488.672 121.911 488.668 122.054C488.665 122.197 488.606 122.333 488.505 122.434C488.404 122.535 488.268 122.594 488.125 122.597L488.124 122.596Z" fill="#0C0C0C"/>
<path opacity="0.5" d="M492.52 132.062C488.958 132.04 485.45 131.181 482.28 129.554C482.148 129.489 482.047 129.374 481.999 129.235C481.951 129.095 481.961 128.943 482.025 128.81C482.09 128.678 482.205 128.576 482.345 128.528C482.484 128.481 482.637 128.49 482.769 128.555C489.606 131.899 495.979 131.792 501.193 128.246C501.298 128.17 501.407 128.101 501.52 128.038C501.651 127.978 501.8 127.971 501.935 128.019C502.071 128.067 502.183 128.165 502.248 128.293C502.313 128.422 502.325 128.57 502.283 128.707C502.241 128.845 502.147 128.961 502.022 129.031C501.98 129.054 501.912 129.101 501.818 129.166C499.076 131.035 495.838 132.044 492.52 132.062Z" fill="#0C0C0C"/>
<path d="M557.994 103.548L538.286 102.387C522.963 98.2772 515.439 73.553 515.439 73.553C515.439 73.553 503.18 93.0151 459.006 88.4754C459.006 88.4754 456.854 26.6354 522.521 37.1067C543.638 40.4735 560.908 59.0226 562.47 86.8126C563.564 106.288 557.994 103.548 557.994 103.548Z" fill="#0A0A0A"/>
<path d="M536.99 126.62C543.678 127.052 549.559 120.249 549.991 113.563C550.423 106.877 545.242 102.84 538.556 102.408L534.821 106.665L531.242 126.248L536.99 126.62Z" fill="#E98862"/>
<path d="M481.585 93.3412C479.801 92.4092 477.802 91.9661 475.791 92.0571C474.78 92.0962 473.781 92.2876 472.827 92.6247C471.865 92.9601 470.948 93.4148 470.098 93.9783L470.072 93.995C469.977 94.053 469.863 94.0717 469.755 94.047C469.646 94.0223 469.552 93.9562 469.492 93.8629C469.432 93.7695 469.41 93.6564 469.432 93.5475C469.454 93.4386 469.518 93.3427 469.61 93.2802C470.504 92.6422 471.475 92.1192 472.5 91.7235C473.532 91.3205 474.618 91.0747 475.723 90.9945C477.96 90.8184 480.203 91.2457 482.218 92.2318C482.37 92.3075 482.485 92.4403 482.539 92.601C482.592 92.7618 482.58 92.9372 482.504 93.0887C482.429 93.2403 482.296 93.3556 482.135 93.4092C481.974 93.4628 481.799 93.4504 481.647 93.3747L481.631 93.3663L481.585 93.3412Z" fill="#0C0C0C"/>
<path d="M499.452 93.4024C501.574 92.675 503.853 92.5306 506.049 92.9844C507.136 93.2012 508.183 93.5799 509.157 94.108C510.125 94.6278 511.024 95.2677 511.832 96.0125C511.917 96.0855 511.97 96.189 511.979 96.3004C511.988 96.4119 511.952 96.5224 511.88 96.6081C511.809 96.6938 511.706 96.7477 511.595 96.7583C511.483 96.7689 511.372 96.7352 511.286 96.6646L511.261 96.6445C510.488 95.9795 509.635 95.4141 508.722 94.9616C507.817 94.5089 506.85 94.1949 505.851 94.0302C503.868 93.6894 501.829 93.8801 499.943 94.5829L499.896 94.6013C499.738 94.6628 499.563 94.6591 499.407 94.591C499.252 94.5228 499.131 94.3959 499.069 94.238C499.007 94.0801 499.011 93.9043 499.079 93.7491C499.147 93.594 499.274 93.4723 499.432 93.4107L499.452 93.4024Z" fill="#0C0C0C"/>
<path opacity="0.52" d="M492.413 137.339C491.769 137.344 491.126 137.295 490.49 137.192C490.345 137.169 490.214 137.089 490.127 136.97C490.041 136.85 490.005 136.701 490.028 136.556C490.052 136.41 490.132 136.279 490.251 136.193C490.37 136.106 490.519 136.071 490.665 136.094C494.492 136.702 496.419 135.034 496.5 134.963C496.609 134.864 496.753 134.813 496.901 134.821C497.048 134.828 497.186 134.894 497.285 135.003C497.384 135.112 497.435 135.257 497.428 135.404C497.421 135.551 497.355 135.69 497.245 135.789C495.862 136.848 494.155 137.396 492.413 137.339Z" fill="#0C0C0C"/>
<path d="M538.502 102.097C524.946 99.0345 519.46 90.6967 517.246 84.2408C515.796 79.932 515.262 75.368 515.678 70.8408L516.096 70.8968C515.687 75.3648 516.216 79.869 517.65 84.1205C519.832 90.4693 525.237 98.6675 538.597 101.69L538.502 102.097Z" fill="#0C0C0C"/>
<path d="M342.766 160.357L336.014 132.529C335.865 131.917 335.591 131.343 335.209 130.844C334.826 130.344 334.344 129.929 333.793 129.626C333.241 129.323 332.633 129.139 332.006 129.084C331.379 129.029 330.748 129.105 330.152 129.307C329.064 129.715 328.166 130.512 327.632 131.544C327.098 132.576 326.967 133.77 327.263 134.894L328.711 140.86L315.545 124.186C314.114 122.307 311.155 120.916 309.153 122.661C308.338 123.282 307.758 124.16 307.507 125.153C307.257 126.146 307.35 127.195 307.772 128.128C307.751 128.137 307.731 128.149 307.712 128.162C307.699 128.174 307.688 128.188 307.678 128.202L305.47 125.303C305.061 124.767 304.537 124.328 303.937 124.02C303.337 123.711 302.676 123.541 302.001 123.52C301.327 123.5 300.656 123.63 300.039 123.901C299.421 124.173 298.871 124.579 298.43 125.089C297.752 125.908 297.375 126.934 297.363 127.997C297.351 129.059 297.704 130.094 298.364 130.928L299.303 132.162C299.28 132.205 299.265 132.252 299.258 132.301C298.43 131.615 297.385 131.246 296.31 131.26C295.235 131.274 294.2 131.669 293.39 132.376C292.526 133.176 291.996 134.272 291.905 135.445C291.814 136.618 292.168 137.783 292.898 138.706L295.231 141.77C295.167 141.75 295.1 141.745 295.034 141.756C294.969 141.767 294.906 141.794 294.853 141.834C294.792 141.885 294.748 141.952 294.724 142.028C293.818 141.622 292.804 141.525 291.837 141.752C290.871 141.978 290.005 142.516 289.374 143.282C288.727 144.101 288.376 145.115 288.377 146.159C288.378 147.203 288.732 148.216 289.38 149.034L309.067 174.88C311.821 178.495 315.592 181.206 319.897 182.664C324.201 184.123 328.843 184.262 333.228 183.065C337.009 182.033 340.238 179.567 342.229 176.192C344.221 172.817 344.818 168.799 343.894 164.99L342.766 160.357Z" fill="#E98862"/>
<g opacity="0.2">
<path d="M320.722 144.699C320.635 144.764 320.525 144.793 320.417 144.779C320.309 144.764 320.21 144.708 320.143 144.623L307.642 128.749C307.574 128.662 307.543 128.551 307.556 128.441C307.569 128.331 307.625 128.231 307.712 128.162C307.799 128.094 307.91 128.062 308.02 128.075C308.13 128.089 308.231 128.145 308.3 128.232L320.8 144.106C320.868 144.193 320.899 144.303 320.886 144.413C320.872 144.523 320.816 144.623 320.73 144.691L320.722 144.699Z" fill="#0C0C0C"/>
</g>
<g opacity="0.2">
<path d="M313.874 150.405C313.787 150.47 313.678 150.499 313.569 150.485C313.461 150.471 313.362 150.415 313.295 150.329L299.345 132.612C299.277 132.525 299.246 132.415 299.259 132.305C299.272 132.196 299.328 132.095 299.414 132.027C299.503 131.963 299.612 131.934 299.721 131.947C299.829 131.96 299.929 132.014 299.999 132.097L313.95 149.812C314.018 149.899 314.048 150.009 314.035 150.119C314.022 150.228 313.967 150.329 313.88 150.397L313.874 150.405Z" fill="#0C0C0C"/>
</g>
<g opacity="0.2">
<path d="M306.491 156.628C306.404 156.694 306.294 156.722 306.186 156.708C306.078 156.694 305.979 156.638 305.912 156.552L294.783 142.423C294.748 142.38 294.722 142.33 294.706 142.277C294.691 142.224 294.686 142.168 294.692 142.113C294.698 142.058 294.715 142.005 294.742 141.956C294.769 141.908 294.805 141.865 294.849 141.831C294.893 141.796 294.943 141.771 294.996 141.756C295.05 141.742 295.106 141.738 295.161 141.745C295.216 141.752 295.269 141.77 295.317 141.797C295.365 141.825 295.407 141.862 295.44 141.906L306.569 156.035C306.637 156.122 306.668 156.233 306.654 156.343C306.641 156.452 306.585 156.552 306.499 156.621L306.491 156.628Z" fill="#0C0C0C"/>
</g>
<path d="M428.74 184.247L374.201 248.287L351.232 158.888L292.584 174.469L330.749 313.541C331.993 318.014 334.267 322.133 337.39 325.568C339.987 328.407 343.119 330.706 346.605 332.334C350.091 333.962 353.863 334.888 357.707 335.058C361.551 335.228 365.391 334.639 369.007 333.326C372.623 332.012 375.945 329.999 378.784 327.401L379.277 326.949L476.769 233.24L428.74 184.247Z" fill="#367CFF"/>
<path d="M342.765 160.357L336.013 132.529C335.865 131.917 335.59 131.343 335.208 130.844C334.826 130.344 334.343 129.93 333.792 129.627C333.241 129.324 332.632 129.139 332.005 129.084C331.379 129.029 330.747 129.105 330.152 129.307C329.063 129.715 328.165 130.512 327.632 131.544C327.098 132.577 326.966 133.77 327.262 134.894L328.71 140.861L330.626 151.457" fill="#E98862"/>
<path d="M517.789 196.843C546.291 195.5 547.49 171.308 547.49 171.308C547.49 171.308 561.613 172.22 571.001 173.491C586.371 175.57 596.51 180.782 604.579 188.851C612.086 196.358 616.655 204.478 611.819 256.328C608.318 293.867 610.782 376.45 610.782 376.45H438.767C438.767 376.45 428.452 268.212 427.014 251.312C424.27 219.05 413.033 200.866 428.74 184.247C440.13 172.195 469.539 171.308 481.375 171.31C481.568 171.31 478.973 198.674 517.789 196.843Z" fill="#367CFF"/>
<path d="M428.015 245.917C428.011 245.862 427.997 245.809 427.973 245.759C427.948 245.71 427.915 245.666 427.874 245.629C427.832 245.593 427.784 245.565 427.732 245.547C427.68 245.529 427.625 245.522 427.57 245.525C427.515 245.529 427.462 245.543 427.412 245.567C427.363 245.592 427.319 245.625 427.282 245.667C427.246 245.708 427.218 245.756 427.2 245.808C427.182 245.86 427.175 245.915 427.179 245.97L428.927 278.628C428.933 278.729 428.975 278.823 429.046 278.895C429.117 278.967 429.211 279.011 429.311 279.018C429.331 279.02 429.35 279.02 429.37 279.018C429.48 279.012 429.584 278.961 429.657 278.878C429.731 278.795 429.768 278.686 429.761 278.575" fill="#0C0C0C"/>
<path d="M465.914 327.475L438.088 320.714C437.477 320.566 436.841 320.546 436.222 320.657C435.603 320.768 435.013 321.006 434.491 321.357C433.969 321.708 433.526 322.164 433.189 322.696C432.853 323.228 432.631 323.823 432.538 324.446C432.401 325.6 432.698 326.763 433.37 327.711C434.042 328.659 435.043 329.323 436.177 329.575L442.144 331.024L421.288 335.078C418.961 335.489 416.369 337.48 417.001 340.06C417.179 341.069 417.695 341.988 418.463 342.667C419.232 343.346 420.207 343.743 421.231 343.796C421.229 343.819 421.229 343.842 421.231 343.864C421.237 343.881 421.244 343.897 421.251 343.913L417.664 344.545C416.999 344.662 416.369 344.927 415.82 345.318C415.271 345.71 414.815 346.22 414.488 346.81C414.16 347.4 413.969 348.055 413.927 348.729C413.885 349.403 413.994 350.077 414.245 350.703C414.661 351.681 415.401 352.487 416.339 352.985C417.278 353.483 418.36 353.643 419.403 353.439L420.929 353.171C420.958 353.211 420.993 353.246 421.033 353.275C420.044 353.696 419.237 354.455 418.756 355.417C418.275 356.378 418.152 357.479 418.409 358.523C418.723 359.658 419.453 360.633 420.454 361.253C421.455 361.873 422.653 362.092 423.809 361.868L427.601 361.199C427.554 361.246 427.519 361.304 427.499 361.367C427.478 361.431 427.473 361.498 427.484 361.564C427.502 361.641 427.541 361.712 427.598 361.767C426.821 362.387 426.27 363.245 426.028 364.209C425.786 365.173 425.868 366.189 426.26 367.102C426.692 368.053 427.432 368.83 428.36 369.308C429.289 369.785 430.351 369.936 431.376 369.735L463.371 364.092C467.847 363.303 471.985 361.195 475.255 358.038C478.526 354.882 480.778 350.82 481.725 346.375C482.542 342.542 481.832 338.541 479.746 335.224C477.66 331.906 474.362 329.532 470.554 328.607L465.914 327.475Z" fill="#E98862"/>
<g opacity="0.2">
<path d="M441.891 339.884C441.909 339.992 441.885 340.103 441.822 340.192C441.76 340.282 441.664 340.344 441.557 340.365L421.718 344.194C421.609 344.215 421.497 344.192 421.405 344.129C421.313 344.067 421.249 343.971 421.228 343.863C421.207 343.754 421.23 343.641 421.292 343.549C421.354 343.457 421.451 343.394 421.559 343.373L441.398 339.543C441.452 339.532 441.508 339.533 441.562 339.544C441.616 339.555 441.667 339.577 441.712 339.608C441.758 339.639 441.797 339.679 441.827 339.725C441.857 339.771 441.878 339.823 441.888 339.877L441.891 339.884Z" fill="#0C0C0C"/>
</g>
<g opacity="0.2">
<path d="M443.819 348.587C443.837 348.695 443.812 348.805 443.75 348.895C443.687 348.985 443.592 349.046 443.485 349.067L421.345 353.341C421.291 353.351 421.235 353.351 421.181 353.339C421.127 353.328 421.076 353.306 421.03 353.275C420.985 353.244 420.946 353.205 420.916 353.158C420.886 353.112 420.865 353.06 420.855 353.006C420.838 352.897 420.863 352.786 420.925 352.695C420.987 352.604 421.082 352.541 421.189 352.517L443.328 348.243C443.383 348.233 443.438 348.233 443.492 348.245C443.546 348.256 443.597 348.277 443.643 348.309C443.688 348.34 443.727 348.379 443.757 348.426C443.788 348.472 443.808 348.524 443.818 348.578L443.819 348.587Z" fill="#0C0C0C"/>
</g>
<g opacity="0.2">
<path d="M445.967 358.001C445.985 358.109 445.96 358.219 445.897 358.309C445.835 358.399 445.74 358.46 445.632 358.481L427.972 361.89C427.863 361.911 427.75 361.888 427.658 361.826C427.566 361.764 427.503 361.668 427.482 361.559C427.461 361.45 427.484 361.337 427.547 361.245C427.609 361.154 427.705 361.09 427.814 361.069L445.474 357.66C445.528 357.649 445.584 357.65 445.638 357.661C445.692 357.672 445.743 357.694 445.789 357.725C445.834 357.756 445.873 357.796 445.903 357.842C445.933 357.888 445.954 357.94 445.964 357.994L445.967 358.001Z" fill="#0C0C0C"/>
</g>
<path d="M463.143 375.033L612.658 375.848C617.474 376.373 622.345 375.774 626.89 374.099C631.436 372.424 635.531 369.719 638.855 366.195C642.179 362.672 644.641 358.426 646.049 353.791C647.456 349.156 647.771 344.258 646.967 339.481L613.659 206.049C612.976 201.989 611.5 198.103 609.316 194.613C607.131 191.123 604.28 188.097 600.926 185.709C597.572 183.321 593.781 181.616 589.769 180.693C585.756 179.77 581.601 179.647 577.541 180.33C573.48 181.012 569.594 182.488 566.104 184.673C562.614 186.857 559.589 189.708 557.201 193.062C554.812 196.416 553.108 200.207 552.185 204.22C551.262 208.232 551.138 212.387 551.821 216.448L577.366 316.97L463.87 320.693L463.143 375.033Z" fill="#367CFF"/>
<path d="M596.913 316.541C597.018 316.54 597.119 316.5 597.195 316.428C597.272 316.356 597.319 316.259 597.327 316.154C597.335 316.049 597.303 315.945 597.238 315.863C597.172 315.781 597.078 315.726 596.975 315.71L577.611 316.413C577.557 316.404 577.501 316.406 577.448 316.419C577.394 316.432 577.344 316.455 577.299 316.488C577.255 316.521 577.218 316.562 577.189 316.609C577.161 316.657 577.143 316.709 577.135 316.764C577.119 316.874 577.147 316.985 577.213 317.074C577.279 317.163 577.378 317.223 577.487 317.239L596.851 316.536C596.871 316.539 596.892 316.541 596.913 316.541Z" fill="#0C0C0C"/>
<path d="M608.31 376.45C608.421 376.457 608.53 376.42 608.614 376.346C608.697 376.273 608.748 376.169 608.755 376.058C608.762 375.948 608.725 375.838 608.651 375.755C608.578 375.672 608.475 375.621 608.364 375.614L464.018 374.713L464.651 321.207L577.476 317.241C577.541 317.25 577.607 317.243 577.668 317.221C577.73 317.2 577.786 317.164 577.832 317.118C577.877 317.071 577.911 317.014 577.931 316.951C577.95 316.888 577.955 316.822 577.944 316.757L565.64 256.337C565.632 256.282 565.613 256.23 565.584 256.183C565.555 256.137 565.517 256.096 565.472 256.064C565.427 256.032 565.376 256.01 565.322 255.998C565.269 255.985 565.213 255.984 565.159 255.994C565.105 256.003 565.053 256.023 565.006 256.052C564.96 256.081 564.919 256.119 564.887 256.164C564.855 256.208 564.833 256.259 564.82 256.313C564.808 256.366 564.806 256.422 564.815 256.476L577.026 316.336L464.337 320.319C464.282 320.312 464.225 320.315 464.171 320.33C464.118 320.345 464.067 320.37 464.023 320.405C463.98 320.439 463.943 320.482 463.916 320.531C463.889 320.58 463.872 320.634 463.866 320.689L463.143 375.032C463.131 375.14 463.163 375.249 463.23 375.335C463.298 375.421 463.396 375.477 463.504 375.491L608.254 376.446C608.273 376.449 608.291 376.45 608.31 376.45Z" fill="#0C0C0C"/>
<path d="M548.359 109.896C547.694 109.896 547.056 109.632 546.585 109.162C546.115 108.691 545.851 108.053 545.851 107.388V78.8174C545.851 64.2787 541.827 52.759 534.214 45.5038C526.997 38.6266 516.642 35.4638 503.443 36.0967C502.781 36.125 502.135 35.89 501.645 35.443C501.155 34.996 500.863 34.3734 500.831 33.7113C500.799 33.0491 501.031 32.4013 501.475 31.9095C501.92 31.4176 502.541 31.1216 503.203 31.0863C517.827 30.3799 529.426 34.0125 537.674 41.8712C546.305 50.097 550.867 62.8725 550.867 78.8166V107.387C550.867 107.717 550.802 108.043 550.676 108.347C550.55 108.652 550.365 108.928 550.133 109.161C549.9 109.394 549.623 109.579 549.319 109.705C549.014 109.831 548.688 109.896 548.359 109.896Z" fill="#367CFF"/>
<path d="M544.608 131.809C555.131 131.809 563.661 123.279 563.661 112.756C563.661 102.233 555.131 93.7024 544.608 93.7024C534.085 93.7024 525.555 102.233 525.555 112.756C525.555 123.279 534.085 131.809 544.608 131.809Z" fill="#367CFF"/>
<path d="M545.345 127.029C545.211 126.931 545.06 126.861 544.899 126.823C544.739 126.784 544.572 126.778 544.409 126.804C544.246 126.83 544.089 126.888 543.949 126.975C543.808 127.062 543.686 127.175 543.589 127.309L542.131 129.323C540.344 131.785 538.001 133.79 535.292 135.174C532.582 136.557 529.584 137.281 526.542 137.285H503.35V136.793C503.35 136.127 503.086 135.489 502.615 135.019C502.145 134.549 501.507 134.285 500.842 134.285H492.991C492.325 134.285 491.687 134.549 491.217 135.019C490.747 135.489 490.482 136.127 490.482 136.793V140.464C490.482 141.129 490.747 141.767 491.217 142.237C491.687 142.708 492.325 142.972 492.991 142.972H500.842C501.507 142.972 502.145 142.708 502.615 142.237C503.086 141.767 503.35 141.129 503.35 140.464V139.791H526.547C529.985 139.786 533.374 138.968 536.436 137.404C539.499 135.84 542.148 133.574 544.168 130.792L545.626 128.778C545.82 128.508 545.9 128.173 545.847 127.845C545.794 127.517 545.614 127.223 545.345 127.029Z" fill="#367CFF"/>
<path d="M549.18 131.809C559.703 131.809 568.234 123.279 568.234 112.756C568.234 102.233 559.703 93.7024 549.18 93.7024C538.657 93.7024 530.127 102.233 530.127 112.756C530.127 123.279 538.657 131.809 549.18 131.809Z" fill="white"/>
<path opacity="0.3" d="M549.18 131.809C559.703 131.809 568.234 123.279 568.234 112.756C568.234 102.233 559.703 93.7024 549.18 93.7024C538.657 93.7024 530.127 102.233 530.127 112.756C530.127 123.279 538.657 131.809 549.18 131.809Z" fill="white"/>
<path d="M329.177 334.137H137.617C134.146 334.137 130.817 332.758 128.363 330.304C125.909 327.85 124.53 324.521 124.53 321.05L106.705 180.247C106.705 178.529 107.043 176.827 107.701 175.24C108.359 173.652 109.322 172.209 110.538 170.994C111.753 169.779 113.195 168.815 114.783 168.158C116.371 167.5 118.072 167.162 119.791 167.162H311.351C313.07 167.162 314.772 167.5 316.359 168.157C317.947 168.815 319.39 169.779 320.605 170.994C321.82 172.209 322.784 173.652 323.442 175.239C324.099 176.827 324.438 178.529 324.438 180.247L342.263 321.05C342.263 322.769 341.925 324.471 341.267 326.058C340.61 327.646 339.646 329.089 338.431 330.304C337.216 331.519 335.773 332.483 334.185 333.141C332.598 333.798 330.896 334.137 329.177 334.137Z" fill="white"/>
<path d="M226.602 376.45H181.883C180.839 376.45 179.811 376.203 178.881 375.729C177.951 375.256 177.146 374.569 176.532 373.725C175.918 372.882 175.512 371.905 175.348 370.874C175.184 369.843 175.266 368.789 175.587 367.796L202.405 284.892C202.836 283.561 203.677 282.401 204.808 281.578C205.939 280.755 207.302 280.311 208.701 280.311H249.008C249.737 280.311 250.457 280.476 251.112 280.794C251.768 281.112 252.344 281.575 252.794 282.148C253.245 282.721 253.56 283.389 253.715 284.102C253.87 284.814 253.861 285.553 253.69 286.261L233.039 371.392C232.689 372.835 231.864 374.119 230.696 375.036C229.529 375.953 228.087 376.451 226.602 376.45Z" fill="#292A2E"/>
<path d="M265.486 368.945H185.76C183.688 368.945 182.008 370.625 182.008 372.697C182.008 374.77 183.688 376.45 185.76 376.45H265.486C267.558 376.45 269.238 374.77 269.238 372.697C269.238 370.625 267.558 368.945 265.486 368.945Z" fill="#292A2E"/>
<path opacity="0.2" d="M265.486 368.945H233.633L253.698 286.261C253.87 285.553 253.878 284.814 253.723 284.102C253.568 283.39 253.253 282.722 252.802 282.149C252.352 281.576 251.776 281.113 251.121 280.794C250.465 280.476 249.745 280.311 249.016 280.311H208.701C207.302 280.311 205.939 280.755 204.808 281.578C203.677 282.401 202.836 283.561 202.405 284.892L175.587 367.796C175.266 368.789 175.184 369.843 175.348 370.874C175.512 371.904 175.918 372.881 176.532 373.725C177.146 374.569 177.95 375.256 178.88 375.729C179.81 376.203 180.839 376.449 181.882 376.45H265.486C266.481 376.45 267.436 376.054 268.139 375.351C268.843 374.647 269.238 373.693 269.238 372.697C269.238 371.702 268.843 370.748 268.139 370.044C267.436 369.341 266.481 368.945 265.486 368.945Z" fill="white"/>
<path d="M223.711 313.439C230.096 313.439 235.272 308.263 235.272 301.878C235.272 295.494 230.096 290.318 223.711 290.318C217.326 290.318 212.15 295.494 212.15 301.878C212.15 308.263 217.326 313.439 223.711 313.439Z" fill="#292A2E"/>
<path d="M314.856 368.945H319.318C319.436 368.346 319.758 367.805 320.23 367.417C320.701 367.029 321.293 366.816 321.904 366.816H325.453C326.064 366.816 326.656 367.028 327.128 367.417C327.6 367.805 327.922 368.346 328.039 368.945H330.816C330.934 368.346 331.256 367.805 331.728 367.417C332.199 367.029 332.791 366.816 333.402 366.816H336.951C337.562 366.816 338.154 367.029 338.626 367.417C339.098 367.805 339.42 368.346 339.537 368.945H342.315C342.432 368.346 342.754 367.806 343.225 367.417C343.697 367.029 344.289 366.816 344.9 366.816H348.449C349.06 366.816 349.652 367.029 350.124 367.417C350.596 367.806 350.918 368.346 351.035 368.945H353.812C353.929 368.346 354.251 367.805 354.723 367.417C355.195 367.029 355.787 366.816 356.398 366.816H359.95C360.561 366.816 361.153 367.029 361.625 367.417C362.096 367.805 362.418 368.346 362.536 368.945H365.313C365.431 368.346 365.753 367.805 366.224 367.417C366.696 367.029 367.288 366.816 367.899 366.816H371.448C372.059 366.816 372.651 367.029 373.123 367.417C373.594 367.805 373.916 368.346 374.034 368.945H376.04C376.158 368.346 376.48 367.805 376.951 367.417C377.423 367.029 378.015 366.816 378.626 366.816H410.138C410.749 366.816 411.341 367.028 411.813 367.417C412.285 367.805 412.607 368.346 412.724 368.945H415.296C415.413 368.346 415.735 367.805 416.207 367.417C416.679 367.029 417.27 366.816 417.881 366.816H421.43C422.041 366.816 422.633 367.029 423.105 367.417C423.577 367.805 423.899 368.346 424.016 368.945H426.794C426.911 368.346 427.233 367.805 427.705 367.417C428.177 367.029 428.769 366.816 429.38 366.816H432.928C433.54 366.816 434.132 367.029 434.603 367.417C435.075 367.805 435.397 368.346 435.514 368.945H438.287C438.404 368.346 438.726 367.806 439.197 367.417C439.669 367.029 440.261 366.816 440.872 366.816H444.422C445.033 366.816 445.624 367.029 446.096 367.417C446.568 367.806 446.89 368.346 447.007 368.945H449.784C449.901 368.346 450.223 367.805 450.695 367.417C451.167 367.029 451.759 366.816 452.37 366.816H455.919C456.53 366.816 457.122 367.029 457.593 367.417C458.065 367.805 458.387 368.346 458.505 368.945H470.185C471.18 368.945 472.134 369.341 472.838 370.044C473.542 370.748 473.937 371.702 473.937 372.697C473.937 373.693 473.542 374.647 472.838 375.351C472.134 376.054 471.18 376.45 470.185 376.45H314.856C313.861 376.45 312.906 376.054 312.202 375.351C311.499 374.647 311.104 373.693 311.104 372.697C311.104 371.702 311.499 370.748 312.202 370.044C312.906 369.341 313.861 368.945 314.856 368.945Z" fill="#292A2E"/>
<path opacity="0.2" d="M314.856 368.945H319.318C319.436 368.346 319.758 367.805 320.23 367.417C320.701 367.029 321.293 366.816 321.904 366.816H325.453C326.064 366.816 326.656 367.028 327.128 367.417C327.6 367.805 327.922 368.346 328.039 368.945H330.816C330.934 368.346 331.256 367.805 331.728 367.417C332.199 367.029 332.791 366.816 333.402 366.816H336.951C337.562 366.816 338.154 367.029 338.626 367.417C339.098 367.805 339.42 368.346 339.537 368.945H342.315C342.432 368.346 342.754 367.806 343.225 367.417C343.697 367.029 344.289 366.816 344.9 366.816H348.449C349.06 366.816 349.652 367.029 350.124 367.417C350.596 367.806 350.918 368.346 351.035 368.945H353.812C353.929 368.346 354.251 367.805 354.723 367.417C355.195 367.029 355.787 366.816 356.398 366.816H359.95C360.561 366.816 361.153 367.029 361.625 367.417C362.096 367.805 362.418 368.346 362.536 368.945H365.313C365.431 368.346 365.753 367.805 366.224 367.417C366.696 367.029 367.288 366.816 367.899 366.816H371.448C372.059 366.816 372.651 367.029 373.123 367.417C373.594 367.805 373.916 368.346 374.034 368.945H376.04C376.158 368.346 376.48 367.805 376.951 367.417C377.423 367.029 378.015 366.816 378.626 366.816H410.138C410.749 366.816 411.341 367.028 411.813 367.417C412.285 367.805 412.607 368.346 412.724 368.945H415.296C415.413 368.346 415.735 367.805 416.207 367.417C416.679 367.029 417.27 366.816 417.881 366.816H421.43C422.041 366.816 422.633 367.029 423.105 367.417C423.577 367.805 423.899 368.346 424.016 368.945H426.794C426.911 368.346 427.233 367.805 427.705 367.417C428.177 367.029 428.769 366.816 429.38 366.816H432.928C433.54 366.816 434.132 367.029 434.603 367.417C435.075 367.805 435.397 368.346 435.514 368.945H438.287C438.404 368.346 438.726 367.806 439.197 367.417C439.669 367.029 440.261 366.816 440.872 366.816H444.422C445.033 366.816 445.624 367.029 446.096 367.417C446.568 367.806 446.89 368.346 447.007 368.945H449.784C449.901 368.346 450.223 367.805 450.695 367.417C451.167 367.029 451.759 366.816 452.37 366.816H455.919C456.53 366.816 457.122 367.029 457.593 367.417C458.065 367.805 458.387 368.346 458.505 368.945H470.185C471.18 368.945 472.134 369.341 472.838 370.044C473.542 370.748 473.937 371.702 473.937 372.697C473.937 373.693 473.542 374.647 472.838 375.351C472.134 376.054 471.18 376.45 470.185 376.45H314.856C313.861 376.45 312.906 376.054 312.202 375.351C311.499 374.647 311.104 373.693 311.104 372.697C311.104 371.702 311.499 370.748 312.202 370.044C312.906 369.341 313.861 368.945 314.856 368.945Z" fill="white"/>
</g>
</g>
<defs>
<clipPath id="clip0_34_11">
<path d="M0 25.6C0 16.6392 0 12.1587 1.7439 8.73615C3.27787 5.72556 5.72556 3.27787 8.73615 1.7439C12.1587 0 16.6392 0 25.6 0H646.4C655.361 0 659.841 0 663.264 1.7439C666.274 3.27787 668.722 5.72556 670.256 8.73615C672 12.1587 672 16.6392 672 25.6V376H0V25.6Z" fill="white"/>
</clipPath>
</defs>
</svg>
