<?xml version="1.0" encoding="UTF-8"?>
<svg version="1.1" xmlns="http://www.w3.org/2000/svg" width="57" height="57">
	<path d="M0 0 C3.99432781 1.62061033 6.79558321 4.39339173 9.8125 7.375 C10.5849707 8.09816406 10.5849707 8.09816406 11.37304688 8.8359375 C12.83203125 10.2734375 12.83203125 10.2734375 15 13 C14.68666694 16.19552483 13.54354664 17.82098642 11.27734375 20.015625 C10.73916016 20.54414062 10.20097656 21.07265625 9.64648438 21.6171875 C9.08251953 22.15601562 8.51855469 22.69484375 7.9375 23.25 C7.36966797 23.80429687 6.80183594 24.35859375 6.21679688 24.9296875 C4.81787531 26.29334214 3.40980886 27.64760417 2 29 C0.68 28.34 -0.64 27.68 -2 27 C-2 24 -2 24 -0.03125 21.73828125 C0.8040625 20.93777344 1.639375 20.13726562 2.5 19.3125 C3.3353125 18.50425781 4.170625 17.69601563 5.03125 16.86328125 C5.6809375 16.24839844 6.330625 15.63351563 7 15 C6.61328125 14.55269531 6.2265625 14.10539062 5.828125 13.64453125 C2.81609925 10.1478974 -0.14321031 6.62592537 -3 3 C-2.01 2.01 -1.02 1.02 0 0 Z " fill="#EBF8FD" transform="translate(22,14)" />
</svg>
