<svg width="2064" height="1301" viewBox="0 0 2064 1301" fill="none" xmlns="http://www.w3.org/2000/svg">
<g clip-path="url(#clip0_215_5988)">
<g filter="url(#filter0_bii_215_5988)">
<rect y="1301" width="1301" height="2064" rx="75" transform="rotate(-90 0 1301)" fill="#0D0D0D" fill-opacity="0.7"/>
<rect y="1301" width="1301" height="2064" rx="75" transform="rotate(-90 0 1301)" fill="url(#paint0_radial_215_5988)" fill-opacity="0.7"/>
</g>
<path d="M180.544 299.494H165.008H158.242L158.242 158.25L232.581 203.297V232.589L180.544 202.854L180.544 299.494Z" fill="#FFEDC2"/>
<path d="M247.448 158.243H262.984H269.75V299.488L195.411 254.441V225.149L247.448 254.884L247.448 158.243Z" fill="#FFC436"/>
<path d="M340.022 223.758H367.529V257.369H356.558L355.823 252.076C354.227 253.956 351.947 255.463 348.985 256.596C346.023 257.704 342.817 258.257 339.366 258.257C333.957 258.257 329.179 257.008 325.032 254.51C320.912 252.012 317.718 248.496 315.451 243.963C313.211 239.404 312.09 234.163 312.09 228.239C312.09 222.367 313.262 217.138 315.606 212.554C317.95 207.944 321.349 204.325 325.805 201.698C330.287 199.045 335.489 197.719 341.413 197.719C348.419 197.719 354.265 199.65 358.953 203.514C363.64 207.351 366.319 212.438 366.989 218.774H354.085C353.081 215.76 351.445 213.507 349.179 212.013C346.938 210.493 344.246 209.734 341.104 209.734C336.185 209.734 332.283 211.472 329.398 214.949C326.513 218.4 325.071 222.972 325.071 228.664C325.071 234.382 326.513 238.747 329.398 241.761C332.308 244.774 336.185 246.281 341.027 246.281C343.165 246.281 345.096 245.985 346.822 245.392C348.573 244.774 349.977 244.027 351.033 243.152C352.089 242.276 352.977 241.31 353.699 240.254C354.42 239.172 354.909 238.207 355.167 237.357C355.45 236.507 355.592 235.773 355.592 235.155V234.961H340.022V223.758ZM380.163 252.617C376.325 248.805 374.406 243.77 374.406 237.511C374.406 231.253 376.325 226.204 380.163 222.367C384.026 218.529 389.126 216.61 395.462 216.61C401.746 216.61 406.807 218.529 410.645 222.367C414.508 226.204 416.44 231.253 416.44 237.511C416.44 243.77 414.521 248.805 410.683 252.617C406.846 256.429 401.772 258.335 395.462 258.335C389.126 258.335 384.026 256.429 380.163 252.617ZM386.692 237.434C386.692 240.447 387.49 242.868 389.087 244.697C390.684 246.5 392.809 247.401 395.462 247.401C398.089 247.401 400.201 246.5 401.798 244.697C403.394 242.868 404.193 240.447 404.193 237.434C404.193 234.472 403.381 232.09 401.759 230.287C400.162 228.458 398.063 227.544 395.462 227.544C392.809 227.544 390.684 228.445 389.087 230.248C387.49 232.051 386.692 234.446 386.692 237.434ZM424.166 257.369V197.719H436.452V257.369H424.166ZM462.955 258.412C457.263 258.412 452.704 256.545 449.278 252.81C445.878 249.076 444.179 244.079 444.179 237.82C444.179 231.459 445.943 226.32 449.471 222.405C453.026 218.491 457.778 216.533 463.727 216.533C466.174 216.533 468.505 216.984 470.72 217.885C472.961 218.787 474.648 219.972 475.781 221.44V197.719H487.796V257.369H476.631L476.013 252.308C474.957 254.137 473.218 255.618 470.797 256.751C468.402 257.858 465.788 258.412 462.955 258.412ZM465.891 247.247C468.75 247.247 471.068 246.345 472.845 244.543C474.622 242.714 475.51 240.319 475.51 237.357C475.51 234.395 474.622 232.012 472.845 230.209C471.068 228.381 468.75 227.466 465.891 227.466C463.006 227.466 460.714 228.381 459.014 230.209C457.314 232.012 456.464 234.395 456.464 237.357C456.464 240.319 457.314 242.714 459.014 244.543C460.714 246.345 463.006 247.247 465.891 247.247ZM520.403 257.369V198.8H532.572L550.073 242.495L567.69 198.8H580.285V257.369H567.69V245.122C567.69 234.639 567.909 227.904 568.347 224.917L556.062 257.369H543.969L531.8 224.917C532.392 228.677 532.65 234.034 532.572 240.988V257.369H520.403ZM594.193 252.694C590.613 248.857 588.823 243.796 588.823 237.511C588.823 231.227 590.613 226.166 594.193 222.328C597.799 218.465 602.525 216.533 608.372 216.533C614.192 216.533 618.79 218.439 622.164 222.251C625.538 226.037 627.225 231.098 627.225 237.434V240.525H600.645C600.645 242.971 601.314 244.864 602.654 246.204C603.993 247.517 605.951 248.174 608.526 248.174C610.432 248.174 612.093 247.762 613.51 246.938C614.926 246.088 615.828 245.006 616.214 243.693H627.379C626.658 248.02 624.533 251.561 621.005 254.317C617.476 257.047 613.239 258.412 608.294 258.412C602.473 258.412 597.773 256.506 594.193 252.694ZM600.799 232.991H615.094C615.094 231.059 614.437 229.501 613.123 228.316C611.836 227.106 610.123 226.501 607.985 226.501C605.822 226.501 604.083 227.106 602.77 228.316C601.456 229.501 600.799 231.059 600.799 232.991ZM683.205 216.456C688.15 216.456 691.872 217.795 694.37 220.474C696.894 223.152 698.156 226.823 698.156 231.484V257.369H686.296V234.498C686.296 232.077 685.716 230.248 684.557 229.012C683.398 227.776 681.814 227.157 679.805 227.157C677.796 227.157 676.135 227.827 674.821 229.166C673.508 230.48 672.851 232.682 672.851 235.773V257.369H660.836V234.498C660.836 232.103 660.257 230.3 659.098 229.089C657.964 227.853 656.406 227.235 654.423 227.235C652.414 227.235 650.74 227.891 649.4 229.205C648.061 230.519 647.392 232.708 647.392 235.773V257.369H635.106V217.808H646.503L646.967 221.594C648.151 219.997 649.697 218.748 651.603 217.847C653.534 216.919 655.582 216.456 657.745 216.456C663.875 216.456 668.228 218.8 670.804 223.487C671.834 221.324 673.456 219.611 675.671 218.349C677.886 217.087 680.398 216.456 683.205 216.456ZM708.278 257.369V197.719H720.332V222.405C721.517 220.628 723.345 219.199 725.818 218.117C728.29 217.01 730.943 216.456 733.776 216.456C739.314 216.456 743.744 218.439 747.066 222.405C750.389 226.346 751.999 231.536 751.896 237.975C751.767 244.105 749.951 249.05 746.448 252.81C742.971 256.545 738.425 258.412 732.81 258.412C730.055 258.412 727.505 257.858 725.161 256.751C722.817 255.618 721.117 254.137 720.061 252.308L719.443 257.369H708.278ZM723.229 230.209C721.452 232.012 720.564 234.395 720.564 237.357C720.564 240.319 721.452 242.714 723.229 244.543C725.032 246.345 727.363 247.247 730.222 247.247C733.081 247.247 735.36 246.345 737.06 244.543C738.76 242.714 739.61 240.319 739.61 237.357C739.61 234.395 738.76 232.012 737.06 230.209C735.36 228.381 733.081 227.466 730.222 227.466C727.363 227.466 725.032 228.381 723.229 230.209ZM762.713 252.694C759.133 248.857 757.343 243.796 757.343 237.511C757.343 231.227 759.133 226.166 762.713 222.328C766.319 218.465 771.045 216.533 776.891 216.533C782.712 216.533 787.31 218.439 790.684 222.251C794.058 226.037 795.745 231.098 795.745 237.434V240.525H769.165C769.165 242.971 769.834 244.864 771.174 246.204C772.513 247.517 774.47 248.174 777.046 248.174C778.952 248.174 780.613 247.762 782.03 246.938C783.446 246.088 784.348 245.006 784.734 243.693H795.899C795.178 248.02 793.053 251.561 789.525 254.317C785.996 257.047 781.759 258.412 776.814 258.412C770.993 258.412 766.293 256.506 762.713 252.694ZM769.319 232.991H783.614C783.614 231.059 782.957 229.501 781.643 228.316C780.356 227.106 778.643 226.501 776.505 226.501C774.342 226.501 772.603 227.106 771.29 228.316C769.976 229.501 769.319 231.059 769.319 232.991ZM815.486 222.174C816.053 221.015 816.916 220.049 818.075 219.276C819.234 218.503 820.522 217.975 821.938 217.692C823.381 217.383 824.862 217.241 826.381 217.267C827.926 217.293 829.42 217.473 830.863 217.808V228.394H826.961C823.432 228.394 820.702 229.398 818.77 231.407C816.864 233.416 815.911 236.352 815.911 240.216V257.369H803.626V217.885H814.868L815.486 222.174ZM845.775 244.852C845.775 246.268 846.239 247.363 847.166 248.135C848.119 248.908 849.471 249.294 851.223 249.294C852.742 249.294 853.94 249.011 854.815 248.445C855.691 247.852 856.129 247.054 856.129 246.049C856.129 244.658 855.15 243.705 853.193 243.19L846.239 241.375C839.079 239.494 835.499 235.592 835.499 229.669C835.499 225.754 836.941 222.586 839.826 220.165C842.736 217.744 846.406 216.533 850.836 216.533C855.24 216.533 858.846 217.744 861.654 220.165C864.461 222.586 865.942 225.831 866.097 229.9H855.125C855.15 228.561 854.751 227.479 853.927 226.655C853.103 225.831 851.995 225.419 850.604 225.419C849.368 225.419 848.364 225.728 847.591 226.346C846.844 226.964 846.471 227.788 846.471 228.819C846.471 229.772 846.793 230.48 847.436 230.943C848.106 231.381 849.162 231.781 850.604 232.141L857.636 233.88C860.881 234.678 863.354 236.03 865.053 237.936C866.753 239.842 867.603 242.263 867.603 245.199C867.603 249.243 866.109 252.462 863.122 254.858C860.134 257.227 856.219 258.412 851.377 258.412C846.458 258.412 842.491 257.163 839.478 254.665C836.49 252.166 834.919 248.895 834.765 244.852H845.775ZM875.253 257.369V197.719H887.538V221.903C888.8 220.178 890.487 218.851 892.599 217.924C894.737 216.997 897.081 216.533 899.631 216.533C904.498 216.533 908.194 218.001 910.718 220.937C913.242 223.874 914.504 227.866 914.504 232.914V257.369H902.335V235.85C902.335 234.408 902.142 233.146 901.755 232.064C901.395 230.982 900.957 230.171 900.442 229.63C899.927 229.089 899.309 228.651 898.587 228.316C897.892 227.982 897.3 227.788 896.81 227.737C896.347 227.66 895.857 227.621 895.342 227.621C894.75 227.621 894.183 227.66 893.642 227.737C893.101 227.788 892.432 227.982 891.633 228.316C890.835 228.625 890.152 229.05 889.586 229.591C889.019 230.132 888.517 230.931 888.079 231.987C887.667 233.043 887.461 234.279 887.461 235.695V257.369H875.253ZM930.576 211.627C928.644 211.627 926.996 210.957 925.631 209.618C924.292 208.253 923.622 206.604 923.622 204.673C923.622 202.741 924.292 201.118 925.631 199.805C926.996 198.465 928.644 197.796 930.576 197.796C932.482 197.796 934.105 198.465 935.444 199.805C936.783 201.118 937.453 202.741 937.453 204.673C937.453 206.604 936.783 208.253 935.444 209.618C934.105 210.957 932.482 211.627 930.576 211.627ZM924.395 217.808H936.68V257.369H924.395V217.808ZM946.957 217.808H958.122L958.74 222.637C959.848 220.834 961.612 219.366 964.033 218.233C966.454 217.1 969.068 216.533 971.875 216.533C977.413 216.533 981.869 218.362 985.243 222.019C988.642 225.651 990.42 230.634 990.574 236.97C990.729 243.306 989.119 248.483 985.745 252.501C982.371 256.493 977.774 258.489 971.953 258.489C969.223 258.489 966.66 258.026 964.265 257.098C961.895 256.171 960.144 254.948 959.01 253.428V276.377H946.957V217.808ZM961.908 230.441C960.131 232.244 959.242 234.627 959.242 237.588C959.242 240.55 960.131 242.946 961.908 244.774C963.711 246.577 966.042 247.479 968.901 247.479C971.76 247.479 974.039 246.577 975.739 244.774C977.439 242.946 978.289 240.55 978.289 237.588C978.289 234.627 977.439 232.244 975.739 230.441C974.039 228.613 971.76 227.698 968.901 227.698C966.042 227.698 963.711 228.613 961.908 230.441ZM1045.4 258.335C1041.17 258.335 1037.31 257.665 1033.81 256.326C1030.3 254.961 1027.29 253.016 1024.76 250.492C1022.27 247.942 1020.32 244.774 1018.93 240.988C1017.54 237.176 1016.84 232.901 1016.84 228.162C1016.84 222.161 1018.04 216.868 1020.44 212.283C1022.83 207.673 1026.23 204.106 1030.64 201.582C1035.04 199.058 1040.14 197.796 1045.94 197.796C1052.84 197.796 1058.66 199.753 1063.4 203.668C1068.16 207.583 1071 212.799 1071.9 219.315H1058.38C1057.53 216.43 1055.96 214.189 1053.66 212.593C1051.37 210.996 1048.69 210.197 1045.63 210.197C1040.78 210.197 1037.02 211.807 1034.35 215.026C1031.69 218.246 1030.37 222.599 1030.37 228.085C1030.37 233.674 1031.74 238.013 1034.5 241.104C1037.26 244.195 1040.97 245.74 1045.63 245.74C1048.9 245.74 1051.82 244.903 1054.4 243.229C1057 241.555 1058.78 239.353 1059.73 236.623H1073.02C1071.99 243.19 1068.95 248.457 1063.9 252.424C1058.85 256.364 1052.68 258.335 1045.4 258.335ZM1090.4 258.412C1086.21 258.412 1082.88 257.266 1080.44 254.974C1078.01 252.681 1076.8 249.604 1076.8 245.74C1076.8 241.954 1078.11 239.018 1080.71 236.932C1083.31 234.82 1086.89 233.583 1091.45 233.223L1101.72 232.373V231.716C1101.72 229.733 1101.14 228.252 1099.98 227.273C1098.83 226.295 1097.16 225.805 1095 225.805C1092.71 225.805 1090.93 226.307 1089.67 227.312C1088.41 228.291 1087.8 229.63 1087.85 231.33H1077.73C1077.65 226.926 1079.28 223.358 1082.6 220.628C1085.92 217.898 1090.26 216.533 1095.62 216.533C1101.54 216.533 1106.01 218.13 1109.02 221.324C1112.06 224.492 1113.58 228.806 1113.58 234.266V257.369H1102.84L1102.03 252.153C1101.36 253.982 1099.98 255.489 1097.9 256.673C1095.84 257.833 1093.34 258.412 1090.4 258.412ZM1094.69 249.372C1095.23 249.372 1095.75 249.346 1096.24 249.294C1096.73 249.217 1097.33 249.05 1098.05 248.792C1098.77 248.535 1099.39 248.174 1099.91 247.71C1100.42 247.247 1100.86 246.577 1101.22 245.702C1101.61 244.826 1101.8 243.783 1101.8 242.572V240.447L1095.62 241.066C1093.25 241.297 1091.59 241.735 1090.64 242.379C1089.68 243.023 1089.21 243.963 1089.21 245.199C1089.21 247.981 1091.03 249.372 1094.69 249.372ZM1135.06 222.174C1135.63 221.015 1136.49 220.049 1137.65 219.276C1138.81 218.503 1140.1 217.975 1141.52 217.692C1142.96 217.383 1144.44 217.241 1145.96 217.267C1147.5 217.293 1149 217.473 1150.44 217.808V228.394H1146.54C1143.01 228.394 1140.28 229.398 1138.35 231.407C1136.44 233.416 1135.49 236.352 1135.49 240.216V257.369H1123.2V217.885H1134.45L1135.06 222.174ZM1171.5 258.412C1165.8 258.412 1161.24 256.545 1157.82 252.81C1154.42 249.076 1152.72 244.079 1152.72 237.82C1152.72 231.459 1154.48 226.32 1158.01 222.405C1161.57 218.491 1166.32 216.533 1172.27 216.533C1174.71 216.533 1177.05 216.984 1179.26 217.885C1181.5 218.787 1183.19 219.972 1184.32 221.44V197.719H1196.34V257.369H1185.17L1184.55 252.308C1183.5 254.137 1181.76 255.618 1179.34 256.751C1176.94 257.858 1174.33 258.412 1171.5 258.412ZM1174.43 247.247C1177.29 247.247 1179.61 246.345 1181.39 244.543C1183.16 242.714 1184.05 240.319 1184.05 237.357C1184.05 234.395 1183.16 232.012 1181.39 230.209C1179.61 228.381 1177.29 227.466 1174.43 227.466C1171.55 227.466 1169.25 228.381 1167.55 230.209C1165.85 232.012 1165 234.395 1165 237.357C1165 240.319 1165.85 242.714 1167.55 244.543C1169.25 246.345 1171.55 247.247 1174.43 247.247Z" fill="url(#paint1_linear_215_5988)"/>
<g style="mix-blend-mode:luminosity">
<path d="M1591.81 218.174C1591.28 216.52 1590.57 215.039 1589.68 213.73C1588.81 212.403 1587.77 211.277 1586.55 210.35C1585.33 209.405 1583.94 208.687 1582.38 208.196C1580.83 207.705 1579.13 207.46 1577.28 207.46C1574.14 207.46 1571.3 208.269 1568.77 209.886C1566.25 211.504 1564.25 213.876 1562.78 217.002C1561.32 220.11 1560.59 223.917 1560.59 228.425C1560.59 232.95 1561.33 236.776 1562.8 239.902C1564.28 243.028 1566.29 245.4 1568.86 247.018C1571.42 248.635 1574.34 249.444 1577.61 249.444C1580.64 249.444 1583.29 248.826 1585.54 247.59C1587.81 246.354 1589.57 244.61 1590.8 242.356C1592.06 240.084 1592.68 237.412 1592.68 234.341L1594.86 234.75H1578.89V227.798H1600.83V234.15C1600.83 238.839 1599.83 242.91 1597.84 246.364C1595.85 249.799 1593.11 252.452 1589.6 254.324C1586.11 256.196 1582.11 257.132 1577.61 257.132C1572.55 257.132 1568.12 255.969 1564.3 253.643C1560.5 251.316 1557.54 248.017 1555.42 243.746C1553.29 239.457 1552.23 234.368 1552.23 228.479C1552.23 224.026 1552.84 220.028 1554.08 216.484C1555.32 212.94 1557.05 209.932 1559.29 207.46C1561.54 204.97 1564.18 203.071 1567.22 201.762C1570.27 200.435 1573.61 199.772 1577.23 199.772C1580.24 199.772 1583.05 200.217 1585.65 201.108C1588.27 201.998 1590.59 203.261 1592.63 204.897C1594.68 206.533 1596.38 208.478 1597.73 210.731C1599.07 212.967 1599.98 215.448 1600.45 218.174H1591.81ZM1616.03 272.072C1614.81 272.072 1613.7 271.972 1612.7 271.772C1611.7 271.591 1610.96 271.391 1610.47 271.172L1612.43 264.493C1613.92 264.893 1615.25 265.066 1616.41 265.011C1617.57 264.957 1618.6 264.52 1619.49 263.703C1620.4 262.885 1621.2 261.549 1621.89 259.695L1622.9 256.914L1607.58 214.494H1616.3L1626.9 246.991H1627.34L1637.95 214.494H1646.7L1629.44 261.958C1628.64 264.139 1627.62 265.984 1626.39 267.492C1625.15 269.019 1623.68 270.164 1621.97 270.927C1620.26 271.69 1618.28 272.072 1616.03 272.072ZM1665.34 257.296C1662.69 257.296 1660.29 256.805 1658.15 255.824C1656 254.824 1654.3 253.379 1653.05 251.489C1651.81 249.599 1651.2 247.281 1651.2 244.537C1651.2 242.174 1651.65 240.229 1652.56 238.703C1653.47 237.176 1654.69 235.967 1656.24 235.077C1657.78 234.186 1659.51 233.514 1661.42 233.059C1663.33 232.605 1665.27 232.26 1667.25 232.023C1669.76 231.733 1671.8 231.496 1673.36 231.315C1674.92 231.115 1676.06 230.797 1676.77 230.36C1677.48 229.924 1677.83 229.215 1677.83 228.234V228.043C1677.83 225.662 1677.16 223.817 1675.81 222.509C1674.49 221.2 1672.51 220.546 1669.87 220.546C1667.13 220.546 1664.96 221.155 1663.38 222.372C1661.82 223.572 1660.74 224.908 1660.14 226.38L1652.48 224.635C1653.39 222.091 1654.71 220.037 1656.46 218.474C1658.22 216.893 1660.25 215.748 1662.54 215.039C1664.83 214.312 1667.23 213.948 1669.76 213.948C1671.43 213.948 1673.21 214.148 1675.08 214.548C1676.97 214.93 1678.73 215.639 1680.37 216.675C1682.02 217.711 1683.37 219.192 1684.43 221.118C1685.48 223.027 1686.01 225.508 1686.01 228.561V256.369H1678.05V250.644H1677.72C1677.19 251.698 1676.4 252.734 1675.35 253.752C1674.3 254.769 1672.94 255.615 1671.29 256.287C1669.63 256.96 1667.65 257.296 1665.34 257.296ZM1667.12 250.753C1669.37 250.753 1671.3 250.308 1672.9 249.417C1674.51 248.526 1675.74 247.363 1676.58 245.927C1677.43 244.473 1677.86 242.919 1677.86 241.265V235.867C1677.57 236.158 1677 236.431 1676.17 236.685C1675.35 236.922 1674.41 237.131 1673.36 237.312C1672.31 237.476 1671.28 237.63 1670.28 237.776C1669.28 237.903 1668.44 238.012 1667.77 238.103C1666.19 238.303 1664.74 238.639 1663.44 239.112C1662.15 239.584 1661.11 240.266 1660.33 241.156C1659.57 242.029 1659.18 243.192 1659.18 244.646C1659.18 246.663 1659.93 248.19 1661.42 249.226C1662.91 250.244 1664.81 250.753 1667.12 250.753Z" fill="#F5FBFF"/>
<path d="M1751.23 272.072V214.494H1759.19V221.282H1759.88C1760.35 220.41 1761.03 219.401 1761.92 218.256C1762.81 217.111 1764.05 216.111 1765.63 215.257C1767.21 214.384 1769.3 213.948 1771.9 213.948C1775.28 213.948 1778.3 214.803 1780.95 216.511C1783.6 218.219 1785.68 220.682 1787.19 223.899C1788.72 227.116 1789.48 230.987 1789.48 235.513C1789.48 240.039 1788.73 243.919 1787.22 247.154C1785.71 250.371 1783.64 252.852 1781 254.597C1778.37 256.323 1775.36 257.187 1771.98 257.187C1769.44 257.187 1767.35 256.76 1765.74 255.905C1764.14 255.051 1762.88 254.052 1761.98 252.907C1761.07 251.762 1760.37 250.744 1759.88 249.853H1759.39V272.072H1751.23ZM1759.22 235.431C1759.22 238.376 1759.65 240.956 1760.5 243.174C1761.36 245.391 1762.59 247.127 1764.21 248.381C1765.83 249.617 1767.81 250.235 1770.15 250.235C1772.59 250.235 1774.62 249.59 1776.26 248.299C1777.9 246.991 1779.13 245.218 1779.97 242.983C1780.82 240.747 1781.25 238.23 1781.25 235.431C1781.25 232.669 1780.83 230.188 1780 227.989C1779.18 225.789 1777.94 224.054 1776.29 222.781C1774.65 221.509 1772.61 220.873 1770.15 220.873C1767.79 220.873 1765.79 221.482 1764.16 222.7C1762.54 223.917 1761.31 225.617 1760.48 227.798C1759.64 229.979 1759.22 232.523 1759.22 235.431ZM1806.77 200.535V256.369H1798.62V200.535H1806.77ZM1844.26 239.003V214.494H1852.44V256.369H1844.42V249.117H1843.99C1843.02 251.353 1841.48 253.216 1839.35 254.706C1837.24 256.178 1834.62 256.914 1831.47 256.914C1828.78 256.914 1826.4 256.323 1824.33 255.142C1822.28 253.943 1820.66 252.17 1819.48 249.826C1818.32 247.481 1817.73 244.582 1817.73 241.129V214.494H1825.89V240.148C1825.89 243.001 1826.68 245.273 1828.26 246.963C1829.84 248.654 1831.89 249.499 1834.42 249.499C1835.95 249.499 1837.46 249.117 1838.97 248.354C1840.5 247.59 1841.76 246.436 1842.76 244.891C1843.78 243.346 1844.28 241.384 1844.26 239.003ZM1880.95 272.945C1877.62 272.945 1874.76 272.508 1872.36 271.636C1869.98 270.764 1868.04 269.609 1866.53 268.174C1865.02 266.738 1863.89 265.166 1863.15 263.457L1870.15 260.567C1870.64 261.367 1871.3 262.212 1872.12 263.103C1872.95 264.012 1874.08 264.784 1875.5 265.42C1876.93 266.056 1878.78 266.374 1881.03 266.374C1884.12 266.374 1886.67 265.62 1888.69 264.111C1890.71 262.621 1891.72 260.24 1891.72 256.969V248.735H1891.2C1890.71 249.626 1890 250.616 1889.07 251.707C1888.16 252.797 1886.91 253.743 1885.31 254.542C1883.71 255.342 1881.63 255.742 1879.07 255.742C1875.76 255.742 1872.78 254.969 1870.13 253.425C1867.49 251.861 1865.4 249.562 1863.86 246.527C1862.33 243.474 1861.57 239.721 1861.57 235.268C1861.57 230.815 1862.32 226.998 1863.83 223.817C1865.35 220.637 1867.45 218.201 1870.1 216.511C1872.75 214.803 1875.76 213.948 1879.12 213.948C1881.72 213.948 1883.82 214.384 1885.42 215.257C1887.02 216.111 1888.26 217.111 1889.16 218.256C1890.06 219.401 1890.76 220.41 1891.25 221.282H1891.85V214.494H1899.84V257.296C1899.84 260.894 1899.01 263.848 1897.33 266.156C1895.66 268.464 1893.4 270.173 1890.55 271.282C1887.71 272.39 1884.51 272.945 1880.95 272.945ZM1880.87 248.981C1883.21 248.981 1885.19 248.435 1886.81 247.345C1888.45 246.236 1889.68 244.655 1890.52 242.601C1891.37 240.529 1891.8 238.048 1891.8 235.159C1891.8 232.341 1891.38 229.861 1890.55 227.716C1889.71 225.571 1888.48 223.899 1886.87 222.7C1885.25 221.482 1883.25 220.873 1880.87 220.873C1878.41 220.873 1876.37 221.509 1874.73 222.781C1873.1 224.035 1871.86 225.744 1871.03 227.907C1870.21 230.07 1869.8 232.487 1869.8 235.159C1869.8 237.903 1870.22 240.311 1871.05 242.383C1871.89 244.455 1873.12 246.073 1874.76 247.236C1876.41 248.399 1878.45 248.981 1880.87 248.981Z" fill="#F5FBFF"/>
<path d="M1709.69 257.841H1704.97H1702.92V215.004L1725.47 228.666V237.55L1709.69 228.532V257.841Z" fill="#98DAF6"/>
<path d="M1729.98 215.003H1734.69H1736.74V257.839L1714.2 244.177V235.294L1729.98 244.312V215.003Z" fill="#58BDFE"/>
</g>
<g filter="url(#filter1_i_215_5988)">
<rect x="158.488" y="457.422" width="217.761" height="155.771" rx="27.8162" fill="url(#paint2_linear_215_5988)"/>
</g>
<path d="M158.242 511.336H232.292C236.98 496.937 250.163 467.268 265.387 463.781C271.04 465.762 284.251 472.895 291.862 485.577M158.242 561.27H232.292C232.292 585.999 254.355 604.07 265.387 610.014C283.92 603.991 298.205 575.008 303.032 561.27H376.254M376.254 523.225H303.032C299.722 517.016 295.089 502.697 303.032 495.088" stroke="url(#paint3_linear_215_5988)" stroke-width="2.38425"/>
<path d="M446.188 529.347C448.837 534.116 452.545 545.878 446.188 554.779M463.672 520.207C467.646 527.758 473.209 547.07 463.672 563.919M479.17 510.67C484.335 520.87 491.568 547.467 479.17 572.264M495.859 503.12C502.482 515.174 511.754 547.388 495.859 579.814" stroke="white" stroke-width="8.74224" stroke-linecap="round" stroke-linejoin="round"/>
<path d="M221.93 958.444C221.93 963.814 220.79 968.527 218.511 972.584C216.231 976.64 212.889 979.789 208.485 982.03C204.12 984.232 198.943 985.333 192.955 985.333C185.344 985.333 179.201 983.671 174.526 980.349C169.852 977.026 166.896 972.217 165.66 965.919L176.207 964.702C178.409 972.777 184.069 976.814 193.186 976.814C198.634 976.814 202.98 975.191 206.225 971.946C209.47 968.701 211.093 964.277 211.093 958.676C211.093 953.885 209.49 949.964 206.283 946.912C203.077 943.86 198.788 942.333 193.418 942.333C190.598 942.333 187.971 942.778 185.537 943.666C183.103 944.555 180.669 946.062 178.235 948.186H168.036L170.759 905.999H217.178V914.401H180.379L178.699 939.03C183.219 935.553 188.84 933.815 195.562 933.815C203.444 933.815 209.799 936.094 214.628 940.653C219.496 945.173 221.93 951.103 221.93 958.444ZM293.441 945.057C293.441 958.115 291.026 968.102 286.197 975.018C281.406 981.894 274.317 985.333 264.929 985.333C255.541 985.333 248.49 981.914 243.777 975.075C239.064 968.199 236.707 958.193 236.707 945.057C236.707 931.574 239.006 921.491 243.603 914.807C248.201 908.123 255.425 904.782 265.277 904.782C274.896 904.782 281.986 908.162 286.544 914.923C291.142 921.645 293.441 931.69 293.441 945.057ZM282.836 945.057C282.836 933.853 281.464 925.76 278.721 920.776C276.017 915.754 271.535 913.242 265.277 913.242C258.863 913.242 254.247 915.715 251.427 920.66C248.645 925.605 247.254 933.737 247.254 945.057C247.254 956.068 248.664 964.123 251.484 969.222C254.343 974.283 258.863 976.814 265.045 976.814C271.188 976.814 275.688 974.206 278.547 968.991C281.406 963.775 282.836 955.797 282.836 945.057ZM258.265 952.011V937.582H271.883V952.011H258.265ZM309.145 984.174V977.394C311.038 973.182 313.974 968.952 317.954 964.702C321.972 960.414 327.419 955.527 334.296 950.041C340.438 945.134 344.862 940.865 347.566 937.234C350.271 933.602 351.623 930.106 351.623 926.745C351.623 922.456 350.29 919.153 347.624 916.835C344.959 914.517 341.153 913.358 336.208 913.358C331.804 913.358 328.23 914.575 325.487 917.009C322.783 919.404 321.18 922.785 320.677 927.15L310.014 926.165C310.787 919.598 313.472 914.401 318.07 910.577C322.667 906.713 328.713 904.782 336.208 904.782C344.437 904.782 350.85 906.636 355.448 910.345C360.045 914.054 362.344 919.308 362.344 926.107C362.344 930.55 360.876 934.993 357.939 939.436C355.003 943.84 350.618 948.36 344.785 952.996C336.826 959.332 331.302 964.007 328.211 967.02C325.159 969.995 322.995 972.893 321.72 975.713H363.619V984.174H309.145ZM380.424 984.174V977.394C382.317 973.182 385.253 968.952 389.233 964.702C393.251 960.414 398.698 955.527 405.575 950.041C411.717 945.134 416.141 940.865 418.845 937.234C421.55 933.602 422.902 930.106 422.902 926.745C422.902 922.456 421.569 919.153 418.903 916.835C416.238 914.517 412.432 913.358 407.487 913.358C403.083 913.358 399.509 914.575 396.766 917.009C394.062 919.404 392.459 922.785 391.956 927.15L381.293 926.165C382.066 919.598 384.751 914.401 389.349 910.577C393.946 906.713 399.992 904.782 407.487 904.782C415.716 904.782 422.129 906.636 426.727 910.345C431.324 914.054 433.623 919.308 433.623 926.107C433.623 930.55 432.155 934.993 429.218 939.436C426.282 943.84 421.897 948.36 416.064 952.996C408.105 959.332 402.581 964.007 399.49 967.02C396.438 969.995 394.274 972.893 392.999 975.713H434.898V984.174H380.424Z" fill="white" fill-opacity="0.7"/>
<path d="M587.051 962.732C587.051 969.918 584.617 975.481 579.749 979.422C574.881 983.362 568.082 985.333 559.351 985.333C551.083 985.333 544.477 983.459 539.531 979.712C534.586 975.964 531.67 970.459 530.781 963.196L541.56 962.21C542.951 971.869 548.881 976.698 559.351 976.698C564.605 976.698 568.719 975.481 571.694 973.047C574.707 970.613 576.214 967.059 576.214 962.384C576.214 959.487 575.326 957.053 573.548 955.083C571.81 953.074 569.434 951.548 566.42 950.504C563.407 949.423 560.027 948.882 556.279 948.882H550.368V939.842H556.047C559.37 939.842 562.403 939.301 565.146 938.219C567.927 937.099 570.11 935.534 571.694 933.525C573.278 931.516 574.07 929.14 574.07 926.397C574.07 922.302 572.776 919.115 570.187 916.835C567.637 914.517 563.832 913.358 558.771 913.358C554.174 913.358 550.445 914.537 547.587 916.893C544.766 919.25 543.124 922.572 542.661 926.861L532.172 926.049C532.944 919.366 535.707 914.15 540.459 910.403C545.249 906.655 551.392 904.782 558.887 904.782C567.077 904.782 573.432 906.597 577.953 910.229C582.511 913.822 584.791 918.844 584.791 925.296C584.791 929.893 583.265 933.892 580.213 937.292C577.161 940.692 572.988 942.932 567.695 944.014V944.246C573.529 944.903 578.204 946.95 581.719 950.389C585.274 953.827 587.051 957.941 587.051 962.732ZM658.562 945.057C658.562 958.115 656.147 968.102 651.318 975.018C646.527 981.894 639.438 985.333 630.05 985.333C620.662 985.333 613.611 981.914 608.898 975.075C604.185 968.199 601.828 958.193 601.828 945.057C601.828 931.574 604.127 921.491 608.724 914.807C613.322 908.123 620.546 904.782 630.398 904.782C640.018 904.782 647.107 908.162 651.666 914.923C656.263 921.645 658.562 931.69 658.562 945.057ZM647.957 945.057C647.957 933.853 646.585 925.76 643.842 920.776C641.138 915.754 636.656 913.242 630.398 913.242C623.985 913.242 619.368 915.715 616.548 920.66C613.766 925.605 612.375 933.737 612.375 945.057C612.375 956.068 613.785 964.123 616.606 969.222C619.464 974.283 623.985 976.814 630.166 976.814C636.309 976.814 640.81 974.206 643.668 968.991C646.527 963.775 647.957 955.797 647.957 945.057ZM623.386 952.011V937.582H637.004V952.011H623.386ZM729.609 962.732C729.609 969.918 727.175 975.481 722.307 979.422C717.439 983.362 710.64 985.333 701.909 985.333C693.641 985.333 687.035 983.459 682.09 979.712C677.144 975.964 674.228 970.459 673.339 963.196L684.118 962.21C685.509 971.869 691.439 976.698 701.909 976.698C707.163 976.698 711.277 975.481 714.252 973.047C717.265 970.613 718.772 967.059 718.772 962.384C718.772 959.487 717.884 957.053 716.106 955.083C714.368 953.074 711.992 951.548 708.979 950.504C705.965 949.423 702.585 948.882 698.837 948.882H692.926V939.842H698.605C701.928 939.842 704.961 939.301 707.704 938.219C710.485 937.099 712.668 935.534 714.252 933.525C715.836 931.516 716.628 929.14 716.628 926.397C716.628 922.302 715.334 919.115 712.745 916.835C710.196 914.517 706.39 913.358 701.329 913.358C696.732 913.358 693.004 914.537 690.145 916.893C687.324 919.25 685.682 922.572 685.219 926.861L674.73 926.049C675.503 919.366 678.265 914.15 683.017 910.403C687.807 906.655 693.95 904.782 701.445 904.782C709.635 904.782 715.991 906.597 720.511 910.229C725.069 913.822 727.349 918.844 727.349 925.296C727.349 929.893 725.823 933.892 722.771 937.292C719.719 940.692 715.546 942.932 710.253 944.014V944.246C716.087 944.903 720.762 946.95 724.277 950.389C727.832 953.827 729.609 957.941 729.609 962.732ZM800.714 958.328C800.714 966.518 798.357 973.067 793.644 977.973C788.97 982.879 782.537 985.333 774.347 985.333C765.229 985.333 758.217 982.01 753.311 975.365C748.404 968.682 745.951 959.216 745.951 946.97C745.951 933.525 748.501 923.133 753.6 915.792C758.7 908.452 765.886 904.782 775.158 904.782C787.482 904.782 795.247 910.326 798.454 921.413L788.487 923.21C786.439 916.565 781.958 913.242 775.042 913.242C769.131 913.242 764.534 915.927 761.25 921.297C757.966 926.668 756.324 934.201 756.324 943.898C758.217 940.382 760.883 937.717 764.321 935.901C767.76 934.047 771.7 933.119 776.143 933.119C783.561 933.119 789.51 935.418 793.992 940.015C798.473 944.574 800.714 950.678 800.714 958.328ZM790.109 958.791C790.109 953.228 788.622 948.901 785.647 945.811C782.711 942.72 778.712 941.174 773.651 941.174C770.792 941.174 768.088 941.831 765.538 943.145C762.988 944.42 760.979 946.216 759.511 948.534C758.082 950.814 757.367 953.402 757.367 956.3C757.367 962.172 758.913 967.078 762.003 971.019C765.133 974.96 769.131 976.93 773.999 976.93C778.905 976.93 782.807 975.307 785.705 972.062C788.641 968.817 790.109 964.393 790.109 958.791Z" fill="white" fill-opacity="0.7"/>
<path d="M952.172 962.732C952.172 969.918 949.738 975.481 944.87 979.422C940.002 983.362 933.203 985.333 924.472 985.333C916.204 985.333 909.598 983.459 904.653 979.712C899.707 975.964 896.791 970.459 895.902 963.196L906.681 962.21C908.072 971.869 914.002 976.698 924.472 976.698C929.726 976.698 933.84 975.481 936.815 973.047C939.828 970.613 941.335 967.059 941.335 962.384C941.335 959.487 940.447 957.053 938.669 955.083C936.931 953.074 934.555 951.548 931.542 950.504C928.528 949.423 925.148 948.882 921.4 948.882H915.489V939.842H921.168C924.491 939.842 927.524 939.301 930.267 938.219C933.048 937.099 935.231 935.534 936.815 933.525C938.399 931.516 939.191 929.14 939.191 926.397C939.191 922.302 937.897 919.115 935.308 916.835C932.759 914.517 928.953 913.358 923.892 913.358C919.295 913.358 915.567 914.537 912.708 916.893C909.887 919.25 908.245 922.572 907.782 926.861L897.293 926.049C898.066 919.366 900.828 914.15 905.58 910.403C910.37 906.655 916.513 904.782 924.008 904.782C932.198 904.782 938.554 906.597 943.074 910.229C947.632 913.822 949.912 918.844 949.912 925.296C949.912 929.893 948.386 933.892 945.334 937.292C942.282 940.692 938.109 942.932 932.816 944.014V944.246C938.65 944.903 943.325 946.95 946.84 950.389C950.395 953.827 952.172 957.941 952.172 962.732ZM1023.68 945.057C1023.68 958.115 1021.27 968.102 1016.44 975.018C1011.65 981.894 1004.56 985.333 995.171 985.333C985.783 985.333 978.733 981.914 974.019 975.075C969.306 968.199 966.949 958.193 966.949 945.057C966.949 931.574 969.248 921.491 973.845 914.807C978.443 908.123 985.667 904.782 995.519 904.782C1005.14 904.782 1012.23 908.162 1016.79 914.923C1021.38 921.645 1023.68 931.69 1023.68 945.057ZM1013.08 945.057C1013.08 933.853 1011.71 925.76 1008.96 920.776C1006.26 915.754 1001.78 913.242 995.519 913.242C989.106 913.242 984.489 915.715 981.669 920.66C978.887 925.605 977.496 933.737 977.496 945.057C977.496 956.068 978.906 964.123 981.727 969.222C984.586 974.283 989.106 976.814 995.287 976.814C1001.43 976.814 1005.93 974.206 1008.79 968.991C1011.65 963.775 1013.08 955.797 1013.08 945.057ZM988.507 952.011V937.582H1002.13V952.011H988.507ZM1039.39 984.174V977.394C1041.28 973.182 1044.22 968.952 1048.2 964.702C1052.21 960.414 1057.66 955.527 1064.54 950.041C1070.68 945.134 1075.1 940.865 1077.81 937.234C1080.51 933.602 1081.87 930.106 1081.87 926.745C1081.87 922.456 1080.53 919.153 1077.87 916.835C1075.2 914.517 1071.4 913.358 1066.45 913.358C1062.05 913.358 1058.47 914.575 1055.73 917.009C1053.03 919.404 1051.42 922.785 1050.92 927.15L1040.26 926.165C1041.03 919.598 1043.71 914.401 1048.31 910.577C1052.91 906.713 1058.96 904.782 1066.45 904.782C1074.68 904.782 1081.09 906.636 1085.69 910.345C1090.29 914.054 1092.59 919.308 1092.59 926.107C1092.59 930.55 1091.12 934.993 1088.18 939.436C1085.25 943.84 1080.86 948.36 1075.03 952.996C1067.07 959.332 1061.54 964.007 1058.45 967.02C1055.4 969.995 1053.24 972.893 1051.96 975.713H1093.86V984.174H1039.39ZM1165.72 962.268C1165.72 969.377 1163.3 974.998 1158.48 979.132C1153.68 983.266 1146.83 985.333 1137.9 985.333C1129.17 985.333 1122.33 983.304 1117.39 979.248C1112.48 975.191 1110.03 969.57 1110.03 962.384C1110.03 957.401 1111.55 953.17 1114.61 949.693C1117.66 946.178 1121.56 944.014 1126.31 943.203V942.971C1121.99 941.928 1118.51 939.726 1115.88 936.365C1113.25 933.003 1111.94 929.159 1111.94 924.832C1111.94 921.046 1113 917.608 1115.13 914.517C1117.29 911.427 1120.32 909.031 1124.23 907.331C1128.13 905.632 1132.61 904.782 1137.67 904.782C1142.96 904.782 1147.58 905.651 1151.52 907.389C1155.46 909.089 1158.48 911.465 1160.56 914.517C1162.65 917.569 1163.69 921.046 1163.69 924.948C1163.69 929.314 1162.36 933.177 1159.69 936.538C1157.03 939.9 1153.53 942.005 1149.2 942.855V943.087C1154.23 943.898 1158.22 946.023 1161.2 949.461C1164.21 952.861 1165.72 957.13 1165.72 962.268ZM1152.85 925.528C1152.85 921.24 1151.54 918.014 1148.91 915.85C1146.33 913.648 1142.58 912.547 1137.67 912.547C1132.92 912.547 1129.21 913.648 1126.54 915.85C1123.92 918.052 1122.6 921.278 1122.6 925.528C1122.6 929.816 1123.94 933.139 1126.6 935.495C1129.27 937.852 1133 939.03 1137.79 939.03C1147.83 939.03 1152.85 934.529 1152.85 925.528ZM1154.88 961.283C1154.88 956.647 1153.38 953.093 1150.36 950.62C1147.35 948.109 1143.12 946.854 1137.67 946.854C1132.42 946.854 1128.28 948.206 1125.27 950.91C1122.3 953.576 1120.81 957.111 1120.81 961.515C1120.81 966.731 1122.26 970.71 1125.15 973.453C1128.09 976.157 1132.38 977.509 1138.02 977.509C1143.7 977.509 1147.93 976.177 1150.71 973.511C1153.49 970.845 1154.88 966.769 1154.88 961.283Z" fill="white" fill-opacity="0.7"/>
<path d="M1315.55 914.054C1297.28 940.325 1288.14 963.698 1288.14 984.174H1277.25C1277.25 974.013 1279.61 963.06 1284.32 951.316C1289.07 939.533 1296.12 927.228 1305.47 914.401H1262.76V905.999H1315.55V914.054ZM1386.83 914.054C1368.56 940.325 1359.42 963.698 1359.42 984.174H1348.53C1348.53 974.013 1350.88 963.06 1355.6 951.316C1360.35 939.533 1367.4 927.228 1376.75 914.401H1334.04V905.999H1386.83V914.054ZM1404.51 984.174V977.394C1406.4 973.182 1409.34 968.952 1413.32 964.702C1417.33 960.414 1422.78 955.527 1429.66 950.041C1435.8 945.134 1440.23 940.865 1442.93 937.234C1445.63 933.602 1446.99 930.106 1446.99 926.745C1446.99 922.456 1445.65 919.153 1442.99 916.835C1440.32 914.517 1436.52 913.358 1431.57 913.358C1427.17 913.358 1423.59 914.575 1420.85 917.009C1418.15 919.404 1416.54 922.785 1416.04 927.15L1405.38 926.165C1406.15 919.598 1408.84 914.401 1413.43 910.577C1418.03 906.713 1424.08 904.782 1431.57 904.782C1439.8 904.782 1446.21 906.636 1450.81 910.345C1455.41 914.054 1457.71 919.308 1457.71 926.107C1457.71 930.55 1456.24 934.993 1453.3 939.436C1450.37 943.84 1445.98 948.36 1440.15 952.996C1432.19 959.332 1426.66 964.007 1423.57 967.02C1420.52 969.995 1418.36 972.893 1417.08 975.713H1458.98V984.174H1404.51ZM1530.84 962.268C1530.84 969.377 1528.43 974.998 1523.6 979.132C1518.81 983.266 1511.95 985.333 1503.02 985.333C1494.29 985.333 1487.45 983.304 1482.51 979.248C1477.6 975.191 1475.15 969.57 1475.15 962.384C1475.15 957.401 1476.68 953.17 1479.73 949.693C1482.78 946.178 1486.68 944.014 1491.43 943.203V942.971C1487.11 941.928 1483.63 939.726 1481 936.365C1478.38 933.003 1477.06 929.159 1477.06 924.832C1477.06 921.046 1478.12 917.608 1480.25 914.517C1482.41 911.427 1485.45 909.031 1489.35 907.331C1493.25 905.632 1497.73 904.782 1502.79 904.782C1508.09 904.782 1512.7 905.651 1516.64 907.389C1520.58 909.089 1523.6 911.465 1525.68 914.517C1527.77 917.569 1528.81 921.046 1528.81 924.948C1528.81 929.314 1527.48 933.177 1524.81 936.538C1522.15 939.9 1518.65 942.005 1514.32 942.855V943.087C1519.35 943.898 1523.35 946.023 1526.32 949.461C1529.33 952.861 1530.84 957.13 1530.84 962.268ZM1517.98 925.528C1517.98 921.24 1516.66 918.014 1514.03 915.85C1511.45 913.648 1507.7 912.547 1502.79 912.547C1498.04 912.547 1494.33 913.648 1491.67 915.85C1489.04 918.052 1487.73 921.278 1487.73 925.528C1487.73 929.816 1489.06 933.139 1491.72 935.495C1494.39 937.852 1498.12 939.03 1502.91 939.03C1512.95 939.03 1517.98 934.529 1517.98 925.528ZM1520 961.283C1520 956.647 1518.5 953.093 1515.48 950.62C1512.47 948.109 1508.24 946.854 1502.79 946.854C1497.54 946.854 1493.4 948.206 1490.39 950.91C1487.42 953.576 1485.93 957.111 1485.93 961.515C1485.93 966.731 1487.38 970.71 1490.28 973.453C1493.21 976.157 1497.5 977.509 1503.14 977.509C1508.82 977.509 1513.05 976.177 1515.83 973.511C1518.61 970.845 1520 966.769 1520 961.283Z" fill="white" fill-opacity="0.7"/>
<g filter="url(#filter2_b_215_5988)">
<path d="M163.4 1117.73V1075.26H167.63L183.161 1112.69L198.605 1075.26H202.864V1117.73H198.605V1097.57C198.605 1091.37 198.701 1086.82 198.894 1083.92L185.247 1117.73H181.017L167.311 1084.09C167.524 1085.56 167.63 1089.83 167.63 1096.9V1117.73H163.4ZM212.422 1117.73L228.011 1075.26H233.256L248.96 1117.73H244.527L240.412 1106.46H220.825L216.682 1117.73H212.422ZM222.158 1102.84H239.167L231.285 1081.23C231.247 1081.05 231.15 1080.75 230.995 1080.33C230.86 1079.88 230.783 1079.61 230.764 1079.52C230.744 1079.67 230.657 1079.97 230.503 1080.41C230.368 1080.86 230.29 1081.13 230.271 1081.23L222.158 1102.84ZM286.219 1075.26H290.42V1117.73H286.219L262.836 1082.36V1117.73H258.49V1075.26H262.836L286.219 1110.72V1075.26ZM301.398 1086.3C301.398 1082.76 302.673 1079.91 305.223 1077.75C307.792 1075.57 311.202 1074.47 315.451 1074.47C319.276 1074.47 322.357 1075.51 324.694 1077.57C327.051 1079.62 328.403 1082.38 328.751 1085.86H324.434C324.24 1083.45 323.294 1081.58 321.594 1080.27C319.894 1078.94 317.711 1078.27 315.046 1078.27C312.187 1078.27 309.888 1079 308.15 1080.47C306.411 1081.94 305.542 1083.86 305.542 1086.24C305.542 1089.89 307.783 1092.28 312.264 1093.4L319.624 1095.31C322.927 1096.16 325.428 1097.54 327.128 1099.45C328.848 1101.34 329.707 1103.7 329.707 1106.52C329.707 1110.09 328.355 1112.98 325.651 1115.18C322.946 1117.37 319.392 1118.46 314.988 1118.46C311.047 1118.46 307.783 1117.44 305.194 1115.39C302.606 1113.32 301.167 1110.58 300.877 1107.16H305.252C305.329 1109.38 306.285 1111.17 308.121 1112.52C309.956 1113.85 312.341 1114.52 315.277 1114.52C318.368 1114.52 320.841 1113.8 322.695 1112.37C324.569 1110.93 325.506 1109.01 325.506 1106.64C325.506 1102.87 323.246 1100.4 318.726 1099.22L311.482 1097.39C308.101 1096.52 305.571 1095.14 303.89 1093.25C302.229 1091.36 301.398 1089.04 301.398 1086.3ZM345.234 1117.73H340.946V1075.26H345.234V1117.73ZM395.528 1094.76H414.971V1117.79H411.523L411.117 1111.16C409.9 1113.36 407.93 1115.13 405.206 1116.46C402.482 1117.79 399.488 1118.46 396.224 1118.46C392.38 1118.46 388.951 1117.56 385.938 1115.76C382.944 1113.97 380.606 1111.42 378.926 1108.11C377.245 1104.79 376.405 1100.98 376.405 1096.67C376.405 1092.36 377.245 1088.53 378.926 1085.17C380.625 1081.81 383.021 1079.19 386.111 1077.31C389.221 1075.42 392.776 1074.47 396.774 1074.47C401.237 1074.47 405.061 1075.65 408.249 1078.01C411.436 1080.37 413.445 1083.48 414.275 1087.34H409.871C408.983 1084.5 407.36 1082.33 405.003 1080.82C402.666 1079.31 399.894 1078.56 396.687 1078.56C391.858 1078.56 387.995 1080.22 385.097 1083.54C382.2 1086.85 380.751 1091.22 380.751 1096.67C380.751 1102.12 382.2 1106.43 385.097 1109.62C387.995 1112.81 391.762 1114.4 396.398 1114.4C397.634 1114.4 398.88 1114.28 400.135 1114.03C401.391 1113.77 402.676 1113.34 403.989 1112.72C405.322 1112.08 406.491 1111.29 407.495 1110.35C408.5 1109.4 409.321 1108.15 409.958 1106.61C410.615 1105.06 410.943 1103.33 410.943 1101.42V1098.55H395.528V1094.76ZM426.441 1103.3V1075.26H430.759V1103.19C430.778 1104.87 431.02 1106.38 431.483 1107.71C431.966 1109.02 432.584 1110.09 433.338 1110.93C434.091 1111.74 434.98 1112.41 436.003 1112.95C437.046 1113.49 438.09 1113.87 439.133 1114.08C440.195 1114.3 441.306 1114.4 442.465 1114.4C444.01 1114.4 445.459 1114.19 446.811 1113.77C448.163 1113.34 449.4 1112.7 450.52 1111.85C451.64 1110.98 452.519 1109.81 453.157 1108.35C453.813 1106.86 454.142 1105.14 454.142 1103.19V1075.26H458.43V1103.3C458.43 1105.85 457.986 1108.13 457.097 1110.14C456.209 1112.13 455.011 1113.73 453.504 1114.92C451.998 1116.12 450.307 1117.03 448.434 1117.65C446.56 1118.27 444.57 1118.57 442.465 1118.57C440.861 1118.57 439.316 1118.4 437.829 1118.05C436.341 1117.72 434.893 1117.17 433.482 1116.4C432.092 1115.61 430.875 1114.64 429.832 1113.5C428.808 1112.35 427.987 1110.9 427.369 1109.16C426.751 1107.4 426.441 1105.45 426.441 1103.3ZM487.981 1075.26C492.096 1075.26 495.351 1076.46 497.746 1078.88C500.141 1081.29 501.339 1084.53 501.339 1088.59C501.339 1092.53 500.122 1095.78 497.688 1098.35C495.254 1100.9 491.999 1102.17 487.923 1102.17H476.073V1117.73H471.784V1075.26H487.981ZM487.228 1098.26C490.28 1098.26 492.646 1097.37 494.327 1095.57C496.027 1093.77 496.877 1091.41 496.877 1088.47C496.877 1085.65 496.037 1083.41 494.356 1081.75C492.695 1080.07 490.396 1079.23 487.46 1079.23H476.073V1098.26H487.228ZM538.337 1075.26V1079.23H525.037V1117.73H520.749V1079.23H507.362V1075.26H538.337ZM539.55 1117.73L555.139 1075.26H560.384L576.088 1117.73H571.655L567.54 1106.46H547.953L543.81 1117.73H539.55ZM549.286 1102.84H566.294L558.413 1081.23C558.375 1081.05 558.278 1080.75 558.123 1080.33C557.988 1079.88 557.911 1079.61 557.892 1079.52C557.872 1079.67 557.785 1079.97 557.631 1080.41C557.496 1080.86 557.418 1081.13 557.399 1081.23L549.286 1102.84Z" fill="white" fill-opacity="0.5"/>
</g>
</g>
<defs>
<filter id="filter0_bii_215_5988" x="-250" y="-250" width="2564" height="1801" filterUnits="userSpaceOnUse" color-interpolation-filters="sRGB">
<feFlood flood-opacity="0" result="BackgroundImageFix"/>
<feGaussianBlur in="BackgroundImageFix" stdDeviation="125"/>
<feComposite in2="SourceAlpha" operator="in" result="effect1_backgroundBlur_215_5988"/>
<feBlend mode="normal" in="SourceGraphic" in2="effect1_backgroundBlur_215_5988" result="shape"/>
<feColorMatrix in="SourceAlpha" type="matrix" values="0 0 0 0 0 0 0 0 0 0 0 0 0 0 0 0 0 0 127 0" result="hardAlpha"/>
<feOffset dx="-2" dy="-2"/>
<feGaussianBlur stdDeviation="1.5"/>
<feComposite in2="hardAlpha" operator="arithmetic" k2="-1" k3="1"/>
<feColorMatrix type="matrix" values="0 0 0 0 0 0 0 0 0 0 0 0 0 0 0 0 0 0 0.36 0"/>
<feBlend mode="normal" in2="shape" result="effect2_innerShadow_215_5988"/>
<feColorMatrix in="SourceAlpha" type="matrix" values="0 0 0 0 0 0 0 0 0 0 0 0 0 0 0 0 0 0 127 0" result="hardAlpha"/>
<feOffset dx="5" dy="4"/>
<feGaussianBlur stdDeviation="2"/>
<feComposite in2="hardAlpha" operator="arithmetic" k2="-1" k3="1"/>
<feColorMatrix type="matrix" values="0 0 0 0 1 0 0 0 0 1 0 0 0 0 1 0 0 0 0.25 0"/>
<feBlend mode="normal" in2="effect2_innerShadow_215_5988" result="effect3_innerShadow_215_5988"/>
</filter>
<filter id="filter1_i_215_5988" x="158.488" y="457.422" width="217.762" height="155.771" filterUnits="userSpaceOnUse" color-interpolation-filters="sRGB">
<feFlood flood-opacity="0" result="BackgroundImageFix"/>
<feBlend mode="normal" in="SourceGraphic" in2="BackgroundImageFix" result="shape"/>
<feColorMatrix in="SourceAlpha" type="matrix" values="0 0 0 0 0 0 0 0 0 0 0 0 0 0 0 0 0 0 127 0" result="hardAlpha"/>
<feOffset dx="-2.38425" dy="-2.38425"/>
<feComposite in2="hardAlpha" operator="arithmetic" k2="-1" k3="1"/>
<feColorMatrix type="matrix" values="0 0 0 0 0 0 0 0 0 0 0 0 0 0 0 0 0 0 0.25 0"/>
<feBlend mode="normal" in2="shape" result="effect1_innerShadow_215_5988"/>
</filter>
<filter id="filter2_b_215_5988" x="142.77" y="1053.85" width="453.948" height="85.3571" filterUnits="userSpaceOnUse" color-interpolation-filters="sRGB">
<feFlood flood-opacity="0" result="BackgroundImageFix"/>
<feGaussianBlur in="BackgroundImageFix" stdDeviation="10.3142"/>
<feComposite in2="SourceAlpha" operator="in" result="effect1_backgroundBlur_215_5988"/>
<feBlend mode="normal" in="SourceGraphic" in2="effect1_backgroundBlur_215_5988" result="shape"/>
</filter>
<radialGradient id="paint0_radial_215_5988" cx="0" cy="0" r="1" gradientUnits="userSpaceOnUse" gradientTransform="translate(-40.4999 1272) rotate(60.0023) scale(2263.16 1426.54)">
<stop stop-color="#FFC436"/>
<stop offset="1" stop-color="#18150F"/>
</radialGradient>
<linearGradient id="paint1_linear_215_5988" x1="309.309" y1="228.869" x2="1202.31" y2="228.869" gradientUnits="userSpaceOnUse">
<stop stop-color="#FFC436"/>
<stop offset="1" stop-color="#EAD29A"/>
</linearGradient>
<linearGradient id="paint2_linear_215_5988" x1="158.488" y1="457.422" x2="353.599" y2="613.193" gradientUnits="userSpaceOnUse">
<stop stop-color="#ABABAB"/>
<stop offset="0.3125" stop-color="white"/>
<stop offset="0.630208" stop-color="#BDBDBD"/>
<stop offset="1" stop-color="#5E5E5E"/>
</linearGradient>
<linearGradient id="paint3_linear_215_5988" x1="166.44" y1="466.165" x2="361.551" y2="606.041" gradientUnits="userSpaceOnUse">
<stop stop-color="#7D7D7D"/>
<stop offset="0.494792" stop-color="white"/>
<stop offset="1" stop-color="#1C1C1C"/>
</linearGradient>
<clipPath id="clip0_215_5988">
<rect width="2064" height="1301" fill="white"/>
</clipPath>
</defs>
</svg>
