<svg width="64" height="64" viewBox="0 0 64 64" fill="none" xmlns="http://www.w3.org/2000/svg">
	<rect x="5.20046" y="5.02908" width="54" height="54" rx="27" stroke="#FDFDFD" stroke-width="1.54839" />
	<path d="M40.7363 24.9637C40.7363 25.9038 39.9742 26.6658 39.0342 26.6658C38.0942 26.6658 37.3321 25.9038 37.3321 24.9637C37.3321 24.0237 38.0942 23.2616 39.0342 23.2616C39.9742 23.2616 40.7363 24.0237 40.7363 24.9637Z" fill="#FDFDFD" />
	<path fill-rule="evenodd" clip-rule="evenodd" d="M32.7932 36.8785C35.9266 36.8785 38.4668 34.3383 38.4668 31.2048C38.4668 28.0713 35.9266 25.5311 32.7932 25.5311C29.6597 25.5311 27.1195 28.0713 27.1195 31.2048C27.1195 34.3383 29.6597 36.8785 32.7932 36.8785ZM32.7932 34.609C34.6732 34.609 36.1974 33.0849 36.1974 31.2048C36.1974 29.3247 34.6732 27.8006 32.7932 27.8006C30.9131 27.8006 29.3889 29.3247 29.3889 31.2048C29.3889 33.0849 30.9131 34.609 32.7932 34.609Z" fill="#FDFDFD" />
	<path fill-rule="evenodd" clip-rule="evenodd" d="M21.4458 30.7509C21.4458 26.9378 21.4458 25.0313 22.1879 23.5749C22.8406 22.2938 23.8822 21.2522 25.1633 20.5995C26.6197 19.8574 28.5262 19.8574 32.3393 19.8574H33.2471C37.0601 19.8574 38.9667 19.8574 40.4231 20.5995C41.7041 21.2522 42.7457 22.2938 43.3984 23.5749C44.1405 25.0313 44.1405 26.9378 44.1405 30.7509V31.6587C44.1405 35.4717 44.1405 37.3783 43.3984 38.8347C42.7457 40.1158 41.7041 41.1573 40.4231 41.8101C38.9667 42.5521 37.0601 42.5521 33.2471 42.5521H32.3393C28.5262 42.5521 26.6197 42.5521 25.1633 41.8101C23.8822 41.1573 22.8406 40.1158 22.1879 38.8347C21.4458 37.3783 21.4458 35.4717 21.4458 31.6587V30.7509ZM32.3393 22.1269H33.2471C35.191 22.1269 36.5125 22.1287 37.534 22.2121C38.529 22.2934 39.0378 22.4408 39.3927 22.6216C40.2468 23.0568 40.9412 23.7511 41.3763 24.6052C41.5572 24.9601 41.7045 25.469 41.7858 26.4639C41.8693 27.4854 41.871 28.8069 41.871 30.7509V31.6587C41.871 33.6027 41.8693 34.9242 41.7858 35.9456C41.7045 36.9406 41.5572 37.4494 41.3763 37.8044C40.9412 38.6584 40.2468 39.3528 39.3927 39.788C39.0378 39.9688 38.529 40.1162 37.534 40.1974C36.5125 40.2809 35.191 40.2827 33.2471 40.2827H32.3393C30.3953 40.2827 29.0738 40.2809 28.0523 40.1974C27.0573 40.1162 26.5485 39.9688 26.1936 39.788C25.3395 39.3528 24.6452 38.6584 24.21 37.8044C24.0291 37.4494 23.8818 36.9406 23.8005 35.9456C23.717 34.9242 23.7153 33.6027 23.7153 31.6587V30.7509C23.7153 28.8069 23.717 27.4854 23.8005 26.4639C23.8818 25.469 24.0291 24.9601 24.21 24.6052C24.6452 23.7511 25.3395 23.0568 26.1936 22.6216C26.5485 22.4408 27.0573 22.2934 28.0523 22.2121C29.0738 22.1287 30.3953 22.1269 32.3393 22.1269Z" fill="#FDFDFD" />
</svg>
