<svg width="159" height="47" viewBox="0 0 159 47" fill="none" xmlns="http://www.w3.org/2000/svg">
<path d="M13.0463 36.4448C10.6742 36.4448 8.64812 35.9012 6.96791 34.814C5.31241 33.7021 4.03991 32.1825 3.15039 30.2552C2.28557 28.3279 1.85317 26.1041 1.85317 23.5838C1.85317 21.014 2.32264 18.7779 3.26158 16.8753C4.22522 14.948 5.57186 13.4531 7.30148 12.3906C9.03111 11.3282 11.0572 10.7969 13.3799 10.7969C15.4554 10.7969 17.3209 11.2787 18.9764 12.2424C20.6566 13.206 21.9292 14.5897 22.794 16.3935L19.7177 17.5054C19.1741 16.3935 18.3464 15.4916 17.2345 14.7998C16.1473 14.0832 14.8006 13.7249 13.1946 13.7249C11.7367 13.7249 10.4148 14.0956 9.22878 14.8368C8.06746 15.5781 7.14087 16.69 6.44902 18.1725C5.75718 19.6303 5.41125 21.4341 5.41125 23.5838C5.41125 25.6593 5.73247 27.4384 6.3749 28.9209C7.04204 30.4034 7.95627 31.54 9.11759 32.3307C10.3036 33.1214 11.6626 33.5168 13.1946 33.5168C14.01 33.5168 14.8501 33.4179 15.7149 33.2202C16.5797 33.0226 17.3704 32.689 18.0869 32.2195C18.8035 31.7254 19.3841 31.0582 19.8289 30.2181C20.2737 29.378 20.496 28.3155 20.496 27.0307V26.2153H13.2687V23.2131H23.7947V36H21.7933L20.8667 32.8867C20.076 34.1468 18.9888 35.0611 17.6051 35.6294C16.2461 36.173 14.7265 36.4448 13.0463 36.4448ZM27.6849 41.9672V39.2245H28.945C29.8346 39.2245 30.514 39.1504 30.9835 39.0021C31.453 38.8786 31.8236 38.5821 32.0954 38.1126C32.3919 37.6679 32.6761 36.976 32.9479 36.0371L26.3135 17.6536H29.7604L34.2822 31.8118L38.8039 17.6536H42.2137L35.6906 36.8154C35.2458 38.125 34.7887 39.1504 34.3192 39.8917C33.8745 40.6576 33.2691 41.1889 32.5031 41.4854C31.7371 41.8066 30.6623 41.9672 29.2786 41.9672H27.6849ZM49.2615 36.4448C48.1002 36.4448 47.0377 36.2347 46.0741 35.8147C45.1105 35.3946 44.3445 34.7893 43.7762 33.9986C43.2079 33.2079 42.9237 32.2566 42.9237 31.1447C42.9237 29.6869 43.4302 28.5379 44.4433 27.6978C45.4811 26.8577 46.9266 26.2153 48.7797 25.7705C50.6576 25.301 52.8443 24.9304 55.3399 24.6586C55.3894 23.102 55.0805 21.9036 54.4134 21.0635C53.7462 20.2234 52.6714 19.8033 51.1888 19.8033C50.0769 19.8033 49.1627 20.0628 48.4462 20.5816C47.7543 21.0758 47.3095 21.7677 47.1119 22.6572L44.1097 21.7677C44.6039 20.3593 45.4811 19.2721 46.7412 18.5061C48.0261 17.7154 49.4963 17.3201 51.1518 17.3201C53.6968 17.3201 55.55 17.9254 56.7113 19.1362C57.8973 20.3222 58.4903 22.2001 58.4903 24.7698V29.0692C58.4903 30.6011 58.5521 31.923 58.6756 33.0349C58.7992 34.1468 58.9474 35.1352 59.1204 36H56.2665L55.5253 33.4797C54.9817 34.3939 54.2033 35.1228 53.1903 35.6664C52.1772 36.1853 50.8676 36.4448 49.2615 36.4448ZM49.9287 33.9615C50.8923 33.9615 51.8066 33.7886 52.6714 33.4426C53.5362 33.0967 54.2404 32.516 54.784 31.7007C55.3276 30.8605 55.5994 29.7239 55.5994 28.2908V27.1419C53.7215 27.3395 52.0907 27.5866 50.707 27.8831C49.3233 28.1549 48.2485 28.5503 47.4825 29.0692C46.7412 29.5633 46.3706 30.2305 46.3706 31.0706C46.3706 31.9354 46.6795 32.6396 47.2972 33.1832C47.9396 33.7021 48.8168 33.9615 49.9287 33.9615Z" fill="#FDFDFD"/>
<path d="M89.9343 41.8708V17.5201H92.1951L93.0476 20.4111C93.6159 19.4474 94.3942 18.6815 95.3826 18.1132C96.3709 17.5201 97.5817 17.2236 99.0148 17.2236C100.423 17.2236 101.72 17.6066 102.906 18.3726C104.117 19.1139 105.081 20.2011 105.797 21.6342C106.539 23.0426 106.909 24.7598 106.909 26.786C106.909 28.7874 106.539 30.5047 105.797 31.9378C105.081 33.3709 104.117 34.4704 102.906 35.2364C101.72 35.9777 100.423 36.3483 99.0148 36.3483C97.5817 36.3483 96.3709 36.0642 95.3826 35.4959C94.3942 34.9029 93.6159 34.1122 93.0476 33.1238V41.8708H89.9343ZM98.1994 33.6798C99.7808 33.6798 101.041 33.0744 101.98 31.8637C102.944 30.6529 103.425 28.9604 103.425 26.786C103.425 24.5869 102.944 22.8943 101.98 21.7083C101.041 20.4976 99.7808 19.8922 98.1994 19.8922C96.618 19.8922 95.3455 20.4976 94.3819 21.7083C93.4429 22.8943 92.9735 24.5869 92.9735 26.786C92.9735 28.9604 93.4429 30.6529 94.3819 31.8637C95.3455 33.0744 96.618 33.6798 98.1994 33.6798ZM115.264 35.9036C114.102 35.9036 113.2 35.7924 112.558 35.57C111.94 35.3229 111.508 34.8658 111.261 34.1986C111.038 33.5315 110.927 32.5679 110.927 31.3077V11.1823H114.041V30.7888C114.041 31.7278 114.139 32.3578 114.337 32.6791C114.535 33.0003 115.066 33.1609 115.931 33.1609H116.635V35.9036H115.264ZM125.614 36.3483C124.181 36.3483 123.032 36.0518 122.167 35.4588C121.302 34.8411 120.672 34.001 120.277 32.9385C119.906 31.8513 119.721 30.6159 119.721 29.2322V17.4831H122.834V28.4909C122.834 29.8499 122.995 30.9 123.316 31.6413C123.637 32.3825 124.082 32.9014 124.65 33.1979C125.243 33.4697 125.923 33.6056 126.689 33.6056C128.147 33.6056 129.283 33.0991 130.099 32.086C130.939 31.0483 131.359 29.5534 131.359 27.6014V17.4831H134.472V35.9036H132.137L131.359 33.235C130.84 34.1245 130.136 34.8658 129.246 35.4588C128.357 36.0518 127.146 36.3483 125.614 36.3483ZM147.227 43.0197C146.238 43.0197 145.25 42.8715 144.262 42.575C143.298 42.3032 142.433 41.8461 141.667 41.2036C140.926 40.5612 140.395 39.7334 140.073 38.7204L143.187 37.8679C143.533 38.8316 144.101 39.474 144.892 39.7952C145.682 40.1164 146.461 40.277 147.227 40.277C149.129 40.277 150.414 39.8199 151.081 38.9057C151.773 37.9915 152.119 36.6448 152.119 34.8658V32.4196C151.551 33.3833 150.797 34.1492 149.858 34.7175C148.919 35.2858 147.721 35.57 146.263 35.57C144.904 35.57 143.632 35.2241 142.446 34.5322C141.26 33.8157 140.296 32.7779 139.555 31.4189C138.838 30.0352 138.48 28.3673 138.48 26.4153C138.48 24.4386 138.838 22.7708 139.555 21.4118C140.296 20.0528 141.26 19.015 142.446 18.2985C143.632 17.5819 144.904 17.2236 146.263 17.2236C147.721 17.2236 148.919 17.5201 149.858 18.1132C150.797 18.6815 151.551 19.4474 152.119 20.4111L152.972 17.5201H155.232V34.1616C155.232 37.0772 154.639 39.2763 153.453 40.7589C152.292 42.2661 150.216 43.0197 147.227 43.0197ZM147.041 32.9756C147.98 32.9756 148.833 32.7532 149.599 32.3084C150.389 31.8637 151.02 31.1595 151.489 30.1958C151.983 29.2322 152.23 27.972 152.23 26.4153C152.23 24.8587 151.983 23.5985 151.489 22.6349C151.02 21.6712 150.389 20.9794 149.599 20.5593C148.833 20.1146 147.98 19.8922 147.041 19.8922C145.534 19.8922 144.286 20.4605 143.298 21.5971C142.334 22.709 141.853 24.3151 141.853 26.4153C141.853 28.5156 142.334 30.134 143.298 31.2706C144.286 32.4073 145.534 32.9756 147.041 32.9756Z" fill="#FDFDFD"/>
<path d="M69.9255 37.3402H67.6508H66.6602V16.6599L77.5445 23.2555V27.5443L69.9255 23.1905V37.3402Z" fill="#14A4E1"/>
<path d="M79.721 16.66H81.9957H82.9863V37.3403L72.102 30.7447V26.456L79.721 30.8097V16.66Z" fill="#0174BE"/>
</svg>
