<svg width="197" height="51" viewBox="0 0 197 51" fill="none" xmlns="http://www.w3.org/2000/svg">
	<g style="mix-blend-mode:luminosity">
		<path d="M24.1112 20.0317C23.8219 19.1238 23.4328 18.3106 22.9439 17.5922C22.4649 16.8638 21.8912 16.2452 21.2227 15.7363C20.5542 15.2175 19.7909 14.8234 18.9328 14.554C18.0847 14.2846 17.1518 14.1499 16.134 14.1499C14.4079 14.1499 12.8514 14.5939 11.4644 15.4819C10.0775 16.3699 8.97998 17.672 8.17178 19.3882C7.37356 21.0944 6.97445 23.1847 6.97445 25.6592C6.97445 28.1437 7.37855 30.244 8.18675 31.9602C8.99495 33.6763 10.1025 34.9784 11.5093 35.8664C12.9162 36.7545 14.5176 37.1985 16.3136 37.1985C17.9799 37.1985 19.4317 36.8592 20.6689 36.1807C21.9161 35.5023 22.879 34.5444 23.5575 33.3071C24.2459 32.0599 24.5902 30.5932 24.5902 28.907L25.7875 29.1315H17.0171V25.315H29.0652V28.8022C29.0652 31.3765 28.5164 33.6115 27.4189 35.5072C26.3313 37.393 24.8247 38.8498 22.899 39.8775C20.9832 40.9052 18.7881 41.4191 16.3136 41.4191C13.5398 41.4191 11.1052 40.7805 9.00991 39.5033C6.92456 38.2262 5.29819 36.4152 4.13079 34.0704C2.96339 31.7157 2.37969 28.9219 2.37969 25.6891C2.37969 23.2446 2.71894 21.0495 3.39743 19.1038C4.07591 17.1582 5.02879 15.5068 6.25605 14.1499C7.49329 12.7829 8.94506 11.7402 10.6113 11.0218C12.2876 10.2935 14.1185 9.92927 16.1041 9.92927C17.7604 9.92927 19.302 10.1737 20.7288 10.6626C22.1656 11.1515 23.4427 11.845 24.5602 12.743C25.6877 13.641 26.6207 14.7086 27.359 15.9459C28.0974 17.1731 28.5963 18.5351 28.8557 20.0317H24.1112ZM37.4054 49.6208C36.7369 49.6208 36.1282 49.5659 35.5794 49.4561C35.0307 49.3564 34.6216 49.2466 34.3522 49.1269L35.4298 45.4601C36.2479 45.6796 36.9763 45.7744 37.6149 45.7444C38.2535 45.7145 38.8172 45.475 39.3061 45.026C39.805 44.577 40.244 43.8437 40.6232 42.8259L41.177 41.2993L32.7657 18.0112L37.555 18.0112L43.377 35.8515H43.6165L49.4385 18.0112H54.2428L44.7689 44.0682C44.3299 45.2655 43.7712 46.2782 43.0927 47.1064C42.4142 47.9445 41.606 48.5731 40.6681 48.9922C39.7302 49.4112 38.6426 49.6208 37.4054 49.6208ZM64.48 41.5089C63.0233 41.5089 61.7062 41.2395 60.5288 40.7007C59.3514 40.1519 58.4185 39.3587 57.7301 38.321C57.0516 37.2833 56.7123 36.0111 56.7123 34.5045C56.7123 33.2074 56.9618 32.1398 57.4607 31.3016C57.9595 30.4635 58.633 29.8 59.4811 29.3111C60.3293 28.8221 61.2771 28.453 62.3248 28.2035C63.3725 27.9541 64.4401 27.7645 65.5277 27.6348C66.9046 27.4752 68.0221 27.3454 68.8802 27.2457C69.7383 27.1359 70.3619 26.9613 70.751 26.7218C71.1402 26.4824 71.3347 26.0932 71.3347 25.5544V25.4497C71.3347 24.1426 70.9655 23.1298 70.2272 22.4114C69.4988 21.693 68.4112 21.3338 66.9645 21.3338C65.4578 21.3338 64.2705 21.6681 63.4024 22.3366C62.5443 22.9951 61.9506 23.7285 61.6214 24.5367L57.4158 23.5788C57.9146 22.182 58.643 21.0545 59.6009 20.1964C60.5687 19.3283 61.6812 18.6997 62.9384 18.3106C64.1956 17.9115 65.5177 17.7119 66.9046 17.7119C67.8226 17.7119 68.7954 17.8217 69.8231 18.0412C70.8608 18.2507 71.8286 18.6398 72.7266 19.2086C73.6346 19.7773 74.3779 20.5905 74.9566 21.6481C75.5354 22.6958 75.8247 24.0578 75.8247 25.734V41H71.4545V37.857H71.2749C70.9855 38.4357 70.5515 39.0044 69.9728 39.5632C69.394 40.122 68.6507 40.5859 67.7427 40.9551C66.8348 41.3243 65.7472 41.5089 64.48 41.5089ZM65.4528 37.9169C66.6901 37.9169 67.7477 37.6724 68.6258 37.1835C69.5138 36.6946 70.1873 36.056 70.6463 35.2678C71.1152 34.4696 71.3497 33.6165 71.3497 32.7085V29.7451C71.19 29.9047 70.8807 30.0544 70.4218 30.1941C69.9728 30.3238 69.4589 30.4385 68.8802 30.5383C68.3015 30.6281 67.7377 30.7129 67.189 30.7928C66.6402 30.8626 66.1812 30.9225 65.812 30.9724C64.944 31.0821 64.1507 31.2667 63.4323 31.5261C62.7239 31.7855 62.1552 32.1597 61.7261 32.6486C61.3071 33.1276 61.0975 33.7661 61.0975 34.5643C61.0975 35.6719 61.5066 36.51 62.3248 37.0787C63.143 37.6375 64.1857 37.9169 65.4528 37.9169Z" fill="#FDFDFD" />
		<path d="M111.631 49.6208L111.631 18.0112H116.001V21.7379H116.375C116.635 21.259 117.009 20.7052 117.498 20.0766C117.987 19.448 118.665 18.8993 119.533 18.4303C120.401 17.9514 121.549 17.7119 122.976 17.7119C124.831 17.7119 126.488 18.1809 127.944 19.1188C129.401 20.0567 130.544 21.4087 131.372 23.1747C132.21 24.9408 132.629 27.0661 132.629 29.5505C132.629 32.035 132.215 34.1652 131.387 35.9413C130.559 37.7073 129.421 39.0693 127.974 40.0272C126.528 40.9751 124.876 41.449 123.02 41.449C121.624 41.449 120.481 41.2145 119.593 40.7456C118.715 40.2766 118.027 39.7278 117.528 39.0992C117.029 38.4706 116.645 37.9119 116.375 37.423H116.106L116.106 49.6208H111.631ZM116.016 29.5056C116.016 31.122 116.251 32.5389 116.72 33.7561C117.188 34.9734 117.867 35.9263 118.755 36.6148C119.643 37.2933 120.731 37.6325 122.018 37.6325C123.355 37.6325 124.472 37.2783 125.37 36.5699C126.268 35.8515 126.947 34.8786 127.406 33.6514C127.875 32.4241 128.109 31.0422 128.109 29.5056C128.109 27.989 127.88 26.627 127.421 25.4197C126.972 24.2124 126.293 23.2595 125.385 22.5611C124.487 21.8627 123.365 21.5134 122.018 21.5134C120.721 21.5134 119.623 21.8477 118.725 22.5162C117.837 23.1847 117.164 24.1176 116.705 25.315C116.246 26.5123 116.016 27.9092 116.016 29.5056ZM142.118 10.3483V41H137.643V10.3483H142.118ZM162.701 31.4663V18.0112L167.191 18.0112V41H162.791V37.0189H162.551C162.022 38.2461 161.174 39.2689 160.007 40.087C158.849 40.8952 157.408 41.2993 155.681 41.2993C154.205 41.2993 152.898 40.9751 151.76 40.3265C150.633 39.668 149.745 38.6951 149.096 37.408C148.458 36.1209 148.138 34.5294 148.138 32.6337V18.0112H152.613V32.0949C152.613 33.6614 153.047 34.9086 153.915 35.8365C154.783 36.7644 155.911 37.2284 157.298 37.2284C158.136 37.2284 158.969 37.0189 159.797 36.5998C160.635 36.1807 161.329 35.5472 161.878 34.699C162.436 33.8509 162.711 32.7733 162.701 31.4663ZM182.842 50.0997C181.016 50.0997 179.445 49.8602 178.128 49.3813C176.821 48.9024 175.753 48.2688 174.925 47.4806C174.097 46.6923 173.478 45.8292 173.069 44.8913L176.915 43.3049C177.185 43.7439 177.544 44.2078 177.993 44.6968C178.452 45.1956 179.071 45.6197 179.849 45.9689C180.637 46.3181 181.65 46.4928 182.887 46.4928C184.583 46.4928 185.985 46.0787 187.093 45.2505C188.2 44.4323 188.754 43.1253 188.754 41.3293V36.8093H188.47C188.2 37.2983 187.811 37.842 187.302 38.4407C186.803 39.0394 186.115 39.5582 185.237 39.9972C184.359 40.4363 183.216 40.6558 181.809 40.6558C179.993 40.6558 178.357 40.2317 176.9 39.3836C175.454 38.5255 174.306 37.2633 173.458 35.597C172.62 33.9208 172.201 31.8604 172.201 29.4158C172.201 26.9713 172.615 24.8759 173.443 23.1298C174.281 21.3837 175.429 20.0467 176.885 19.1188C178.342 18.1809 179.993 17.7119 181.839 17.7119C183.266 17.7119 184.419 17.9514 185.297 18.4303C186.175 18.8993 186.858 19.448 187.347 20.0766C187.846 20.7052 188.23 21.259 188.499 21.7379H188.829V18.0112H193.214V41.5089C193.214 43.4845 192.755 45.1058 191.837 46.373C190.919 47.6402 189.677 48.5781 188.11 49.1867C186.554 49.7954 184.798 50.0997 182.842 50.0997ZM182.797 36.944C184.084 36.944 185.172 36.6447 186.06 36.046C186.958 35.4374 187.636 34.5693 188.095 33.4418C188.564 32.3044 188.799 30.9424 188.799 29.356C188.799 27.8094 188.569 26.4474 188.11 25.2701C187.651 24.0927 186.978 23.1747 186.09 22.5162C185.202 21.8477 184.104 21.5134 182.797 21.5134C181.45 21.5134 180.328 21.8627 179.43 22.5611C178.532 23.2496 177.853 24.1875 177.394 25.3748C176.945 26.5622 176.721 27.8892 176.721 29.356C176.721 30.8626 176.95 32.1847 177.409 33.3221C177.868 34.4596 178.547 35.3476 179.445 35.9862C180.353 36.6248 181.47 36.944 182.797 36.944Z" fill="#FDFDFD" />
		<path d="M88.8225 41.4328H86.2358H85.1094V17.9165L97.4864 25.4166V30.2935L88.8225 25.3427V41.4328Z" fill="#98DAF6" />
		<path d="M99.9622 17.9158H102.549H103.675V41.4321L91.2983 33.932V29.0551L99.9622 34.0059V17.9158Z" fill="#58BDFE" />
	</g>
</svg>
