<svg width="197" height="66" viewBox="0 0 197 66" fill="none" xmlns="http://www.w3.org/2000/svg">
	<path d="M33.0197 24.464C32.7652 23.6655 32.423 22.9504 31.9931 22.3187C31.5719 21.6781 31.0673 21.1341 30.4795 20.6866C29.8916 20.2303 29.2203 19.8837 28.4657 19.6468C27.7199 19.4099 26.8995 19.2915 26.0045 19.2915C24.4865 19.2915 23.1177 19.6819 21.898 20.4629C20.6784 21.2438 19.7132 22.3889 19.0025 23.8981C18.3005 25.3985 17.9495 27.2367 17.9495 29.4128C17.9495 31.5977 18.3049 33.4447 19.0156 34.9539C19.7263 36.4631 20.7003 37.6082 21.9375 38.3891C23.1747 39.17 24.583 39.5605 26.1624 39.5605C27.6278 39.5605 28.9044 39.2622 29.9925 38.6655C31.0893 38.0688 31.936 37.2265 32.5327 36.1384C33.1381 35.0416 33.4408 33.7518 33.4408 32.2689L34.4938 32.4663H26.781V29.1101H37.3762V32.1768C37.3762 34.4406 36.8936 36.4061 35.9284 38.0732C34.972 39.7316 33.647 41.0127 31.9536 41.9164C30.2689 42.8202 28.3385 43.2721 26.1624 43.2721C23.7231 43.2721 21.5821 42.7105 19.7395 41.5874C17.9056 40.4643 16.4754 38.8717 15.4488 36.8097C14.4222 34.7389 13.9089 32.2821 13.9089 29.4391C13.9089 27.2894 14.2072 25.359 14.8039 23.648C15.4005 21.937 16.2385 20.4848 17.3178 19.2915C18.4058 18.0894 19.6825 17.1724 21.1478 16.5407C22.6219 15.9001 24.232 15.5799 25.9782 15.5799C27.4347 15.5799 28.7904 15.7948 30.0451 16.2248C31.3086 16.6547 32.4318 17.2646 33.4145 18.0543C34.406 18.844 35.2264 19.7828 35.8758 20.8709C36.5251 21.9501 36.9638 23.1478 37.1919 24.464H33.0197ZM44.7106 50.4847C44.1227 50.4847 43.5874 50.4364 43.1048 50.3399C42.6222 50.2522 42.2625 50.1557 42.0256 50.0504L42.9732 46.8258C43.6927 47.0188 44.3332 47.1021 44.8948 47.0758C45.4564 47.0495 45.9521 46.8389 46.3821 46.4441C46.8208 46.0492 47.2069 45.4043 47.5403 44.5093L48.0273 43.1668L40.6304 22.6872H44.8422L49.9621 38.3759H50.1727L55.2926 22.6872H59.5175L51.1861 45.6017C50.8 46.6547 50.3087 47.5453 49.712 48.2735C49.1153 49.0106 48.4046 49.5634 47.5798 49.9319C46.755 50.3004 45.7986 50.4847 44.7106 50.4847ZM68.5201 43.3511C67.239 43.3511 66.0808 43.1142 65.0454 42.6403C64.01 42.1577 63.1896 41.4602 62.5841 40.5476C61.9875 39.6351 61.6891 38.5163 61.6891 37.1914C61.6891 36.0507 61.9085 35.1118 62.3472 34.3748C62.786 33.6377 63.3782 33.0542 64.1241 32.6243C64.8699 32.1943 65.7035 31.8697 66.6248 31.6503C67.5461 31.4309 68.485 31.2642 69.4414 31.1502C70.6523 31.0098 71.635 30.8957 72.3896 30.808C73.1442 30.7114 73.6926 30.5579 74.0348 30.3473C74.377 30.1367 74.5481 29.7945 74.5481 29.3207V29.2286C74.5481 28.0791 74.2235 27.1885 73.5742 26.5567C72.9336 25.925 71.9772 25.6091 70.7049 25.6091C69.38 25.6091 68.3358 25.903 67.5724 26.4909C66.8178 27.07 66.2957 27.715 66.0062 28.4257L62.3077 27.5833C62.7465 26.3549 63.387 25.3634 64.2294 24.6088C65.0805 23.8454 66.0588 23.2926 67.1644 22.9504C68.27 22.5994 69.4326 22.424 70.6523 22.424C71.4595 22.424 72.315 22.5205 73.2188 22.7135C74.1313 22.8978 74.9825 23.24 75.7722 23.7401C76.5706 24.2403 77.2243 24.9554 77.7333 25.8855C78.2422 26.8068 78.4966 28.0045 78.4966 29.4786V42.9036H74.6534V40.1396H74.4955C74.241 40.6485 73.8593 41.1487 73.3504 41.64C72.8415 42.1314 72.1878 42.5394 71.3893 42.8641C70.5908 43.1887 69.6344 43.3511 68.5201 43.3511ZM69.3756 40.1923C70.4636 40.1923 71.3937 39.9773 72.1659 39.5473C72.9468 39.1174 73.5391 38.5558 73.9427 37.8626C74.3551 37.1607 74.5613 36.4105 74.5613 35.612V33.006C74.4209 33.1464 74.1489 33.278 73.7453 33.4008C73.3504 33.5149 72.8985 33.6158 72.3896 33.7035C71.8807 33.7825 71.3849 33.8571 70.9023 33.9273C70.4197 33.9887 70.0161 34.0414 69.6915 34.0852C68.9281 34.1817 68.2305 34.3441 67.5988 34.5722C66.9758 34.8003 66.4756 35.1294 66.0983 35.5593C65.7298 35.9805 65.5455 36.5421 65.5455 37.244C65.5455 38.218 65.9053 38.9551 66.6248 39.4552C67.3443 39.9466 68.2612 40.1923 69.3756 40.1923Z" fill="#2C2C2C" />
	<path d="M109.985 50.4847V22.6872H113.828V25.9645H114.157C114.386 25.5433 114.715 25.0563 115.145 24.5035C115.575 23.9507 116.171 23.4681 116.935 23.0557C117.698 22.6345 118.707 22.424 119.962 22.424C121.594 22.424 123.05 22.8364 124.331 23.6612C125.613 24.486 126.617 25.6749 127.346 27.228C128.083 28.7811 128.451 30.65 128.451 32.8349C128.451 35.0197 128.087 36.8931 127.359 38.4549C126.63 40.008 125.63 41.2057 124.358 42.0481C123.086 42.8816 121.633 43.2984 120.001 43.2984C118.773 43.2984 117.768 43.0922 116.987 42.6798C116.215 42.2674 115.61 41.7848 115.171 41.232C114.732 40.6792 114.394 40.1879 114.157 39.7579H113.921V50.4847H109.985ZM113.842 32.7954C113.842 34.2168 114.048 35.4628 114.46 36.5333C114.873 37.6038 115.469 38.4417 116.25 39.0472C117.031 39.6438 117.988 39.9422 119.119 39.9422C120.295 39.9422 121.278 39.6307 122.068 39.0077C122.857 38.3759 123.454 37.5204 123.858 36.4412C124.27 35.3619 124.476 34.1466 124.476 32.7954C124.476 31.4617 124.274 30.2639 123.871 29.2022C123.476 28.1405 122.879 27.3026 122.081 26.6883C121.291 26.0741 120.304 25.767 119.119 25.767C117.979 25.767 117.014 26.061 116.224 26.6489C115.443 27.2367 114.851 28.0572 114.447 29.1101C114.043 30.163 113.842 31.3915 113.842 32.7954ZM136.796 15.9484V42.9036H132.86V15.9484H136.796ZM154.896 34.5196V22.6872H158.845V42.9036H154.975V39.4026H154.765C154.3 40.4818 153.554 41.3812 152.527 42.1007C151.509 42.8114 150.241 43.1668 148.723 43.1668C147.425 43.1668 146.275 42.8816 145.275 42.3113C144.284 41.7322 143.503 40.8767 142.932 39.7448C142.371 38.6128 142.09 37.2133 142.09 35.5462V22.6872H146.025V35.0724C146.025 36.4499 146.407 37.5468 147.17 38.3628C147.934 39.1788 148.925 39.5868 150.145 39.5868C150.882 39.5868 151.615 39.4026 152.343 39.034C153.08 38.6655 153.69 38.1083 154.172 37.3625C154.664 36.6167 154.905 35.669 154.896 34.5196ZM172.609 50.9059C171.003 50.9059 169.621 50.6953 168.463 50.2741C167.313 49.8529 166.374 49.2958 165.646 48.6026C164.918 47.9094 164.374 47.1504 164.014 46.3256L167.397 44.9305C167.633 45.3165 167.949 45.7246 168.344 46.1545C168.748 46.5932 169.292 46.9661 169.976 47.2733C170.669 47.5804 171.56 47.7339 172.648 47.7339C174.14 47.7339 175.373 47.3698 176.347 46.6415C177.321 45.922 177.807 44.7725 177.807 43.1931V39.2183H177.557C177.321 39.6482 176.978 40.1264 176.531 40.6529C176.092 41.1794 175.487 41.6357 174.714 42.0217C173.942 42.4078 172.938 42.6008 171.7 42.6008C170.104 42.6008 168.664 42.2279 167.383 41.4821C166.111 40.7275 165.102 39.6175 164.356 38.1522C163.619 36.6781 163.251 34.8662 163.251 32.7164C163.251 30.5667 163.615 28.724 164.343 27.1885C165.08 25.653 166.089 24.4772 167.37 23.6612C168.651 22.8364 170.104 22.424 171.727 22.424C172.982 22.424 173.995 22.6345 174.767 23.0557C175.539 23.4681 176.14 23.9507 176.57 24.5035C177.009 25.0563 177.347 25.5433 177.584 25.9645H177.873V22.6872H181.73V43.3511C181.73 45.0884 181.326 46.5143 180.519 47.6286C179.712 48.743 178.619 49.5678 177.242 50.103C175.873 50.6383 174.328 50.9059 172.609 50.9059ZM172.569 39.3367C173.701 39.3367 174.657 39.0735 175.438 38.547C176.228 38.0118 176.825 37.2484 177.228 36.2569C177.641 35.2566 177.847 34.0589 177.847 32.6638C177.847 31.3037 177.645 30.106 177.242 29.0706C176.838 28.0352 176.246 27.228 175.465 26.6489C174.684 26.061 173.719 25.767 172.569 25.767C171.385 25.767 170.397 26.0741 169.608 26.6883C168.818 27.2938 168.221 28.1186 167.818 29.1627C167.423 30.2069 167.225 31.3739 167.225 32.6638C167.225 33.9887 167.427 35.1513 167.831 36.1516C168.235 37.1519 168.831 37.9328 169.621 38.4944C170.419 39.056 171.402 39.3367 172.569 39.3367Z" fill="#2C2C2C" />
	<path d="M89.9252 43.3402H87.6505H86.6599V22.6599L97.5443 29.2555V33.5443L89.9252 29.1905V43.3402Z" fill="#14A4E1" />
	<path d="M99.7209 22.66H101.996H102.986V43.3403L92.1018 36.7447V32.456L99.7209 36.8097V22.66Z" fill="#0174BE" />
</svg>
