<svg width="64" height="64" viewBox="0 0 64 64" fill="none" xmlns="http://www.w3.org/2000/svg">
	<rect x="4.14919" y="5.02908" width="54" height="54" rx="27" stroke="#FDFDFD" stroke-width="1.54839" />
	<path d="M27.9652 41.0831C25.1793 41.0831 22.5823 40.2728 20.3965 38.8747C22.2523 38.9948 25.5275 38.7072 27.5646 36.7641C24.5001 36.6235 23.118 34.2731 22.9378 33.2687C23.1982 33.3691 24.44 33.4897 25.141 33.2084C21.6158 32.3245 21.075 29.2309 21.1952 28.2868C21.8562 28.7488 22.9778 28.9095 23.4185 28.8693C20.1336 26.519 21.3154 22.9834 21.8962 22.22C24.2536 25.4859 27.7865 27.3202 32.1571 27.4222C32.0747 27.0608 32.0312 26.6845 32.0312 26.298C32.0312 23.5244 34.2731 21.2759 37.0386 21.2759C38.4835 21.2759 39.7855 21.8897 40.6995 22.8715C41.665 22.6453 43.1182 22.1156 43.8286 21.6576C43.4705 22.9432 42.3557 24.0157 41.6814 24.4132C41.6759 24.3997 41.687 24.4268 41.6814 24.4132C42.2737 24.3236 43.8765 24.0156 44.5096 23.5861C44.1965 24.3083 43.0146 25.5092 42.0447 26.1815C42.2251 34.1403 36.1359 41.0831 27.9652 41.0831Z" fill="#FDFDFD" />
</svg>
