<svg width="23" height="23" viewBox="0 0 23 23" fill="none" xmlns="http://www.w3.org/2000/svg">
<path d="M11.2 2.00031C9.15858 2.00271 7.20145 2.81473 5.75794 4.25824C4.31443 5.70175 3.50241 7.65888 3.5 9.7003C3.49813 11.3685 4.043 12.9913 5.05121 14.3203C5.05121 14.3203 5.2612 14.5968 5.29551 14.6367L11.2 21.6003L17.1073 14.6332C17.1381 14.5961 17.3488 14.3203 17.3488 14.3203L17.3495 14.3182C18.357 12.9897 18.9016 11.3677 18.9 9.7003C18.8976 7.65888 18.0856 5.70175 16.6421 4.25824C15.1986 2.81473 13.2414 2.00271 11.2 2.00031ZM11.2 12.5003C10.6462 12.5003 10.1049 12.3361 9.64441 12.0284C9.18395 11.7208 8.82507 11.2835 8.61314 10.7718C8.40122 10.2602 8.34577 9.6972 8.45381 9.15405C8.56184 8.61091 8.82852 8.11199 9.22011 7.72041C9.61169 7.32882 10.1106 7.06214 10.6538 6.95411C11.1969 6.84607 11.7599 6.90152 12.2715 7.11344C12.7832 7.32537 13.2205 7.68425 13.5281 8.14471C13.8358 8.60517 14 9.14652 14 9.7003C13.9991 10.4426 13.7038 11.1543 13.1789 11.6792C12.654 12.2041 11.9423 12.4994 11.2 12.5003Z" fill="#0C356A"/>
</svg>
