<svg width="197" height="66" viewBox="0 0 197 66" fill="none" xmlns="http://www.w3.org/2000/svg">
<path d="M38.0463 42.4348C35.6742 42.4348 33.6481 41.8912 31.9679 40.804C30.3124 39.6921 29.0399 38.1725 28.1504 36.2452C27.2856 34.3179 26.8532 32.0941 26.8532 29.5738C26.8532 27.004 27.3226 24.7679 28.2616 22.8653C29.2252 20.938 30.5719 19.4431 32.3015 18.3806C34.0311 17.3181 36.0572 16.7869 38.3799 16.7869C40.4554 16.7869 42.3209 17.2687 43.9764 18.2324C45.6566 19.196 46.9292 20.5797 47.794 22.3835L44.7177 23.4954C44.1741 22.3835 43.3464 21.4816 42.2345 20.7897C41.1473 20.0732 39.8006 19.7149 38.1946 19.7149C36.7367 19.7149 35.4148 20.0855 34.2288 20.8268C33.0675 21.5681 32.1409 22.68 31.449 24.1625C30.7572 25.6203 30.4113 27.4241 30.4113 29.5738C30.4113 31.6493 30.7325 33.4284 31.3749 34.9109C32.042 36.3934 32.9563 37.53 34.1176 38.3207C35.3036 39.1114 36.6626 39.5067 38.1946 39.5067C39.01 39.5067 39.8501 39.4079 40.7149 39.2102C41.5797 39.0126 42.3704 38.679 43.0869 38.2095C43.8035 37.7153 44.3841 37.0482 44.8289 36.2081C45.2737 35.368 45.496 34.3055 45.496 33.0207V32.2053H38.2687V29.2031H48.7947V41.99H46.7933L45.8667 38.8767C45.076 40.1368 43.9888 41.0511 42.6051 41.6194C41.2461 42.163 39.7265 42.4348 38.0463 42.4348ZM52.6849 47.9572V45.2145H53.945C54.8346 45.2145 55.514 45.1404 55.9835 44.9921C56.453 44.8686 56.8236 44.5721 57.0954 44.1026C57.3919 43.6578 57.6761 42.966 57.9479 42.0271L51.3135 23.6436H54.7604L59.2822 37.8018L63.8039 23.6436H67.2137L60.6906 42.8054C60.2458 44.115 59.7887 45.1404 59.3192 45.8816C58.8745 46.6476 58.2691 47.1789 57.5031 47.4754C56.7371 47.7966 55.6623 47.9572 54.2786 47.9572H52.6849ZM74.2615 42.4348C73.1002 42.4348 72.0377 42.2247 71.0741 41.8047C70.1105 41.3846 69.3445 40.7793 68.7762 39.9886C68.2079 39.1979 67.9237 38.2466 67.9237 37.1347C67.9237 35.6769 68.4302 34.5279 69.4433 33.6878C70.4811 32.8477 71.9266 32.2053 73.7797 31.7605C75.6576 31.291 77.8443 30.9204 80.3399 30.6486C80.3894 29.0919 80.0805 27.8936 79.4134 27.0535C78.7462 26.2134 77.6714 25.7933 76.1888 25.7933C75.0769 25.7933 74.1627 26.0527 73.4462 26.5716C72.7543 27.0658 72.3095 27.7577 72.1119 28.6472L69.1097 27.7577C69.6039 26.3493 70.4811 25.2621 71.7412 24.4961C73.0261 23.7054 74.4963 23.3101 76.1518 23.3101C78.6968 23.3101 80.55 23.9154 81.7113 25.1262C82.8973 26.3122 83.4903 28.1901 83.4903 30.7598V35.0591C83.4903 36.5911 83.5521 37.913 83.6756 39.0249C83.7992 40.1368 83.9474 41.1252 84.1204 41.99H81.2665L80.5253 39.4697C79.9817 40.3839 79.2033 41.1128 78.1903 41.6564C77.1772 42.1753 75.8676 42.4348 74.2615 42.4348ZM74.9287 39.9515C75.8923 39.9515 76.8066 39.7785 77.6714 39.4326C78.5362 39.0867 79.2404 38.506 79.784 37.6906C80.3276 36.8505 80.5994 35.7139 80.5994 34.2808V33.1318C78.7215 33.3295 77.0907 33.5766 75.707 33.8731C74.3233 34.1449 73.2485 34.5403 72.4825 35.0591C71.7412 35.5533 71.3706 36.2205 71.3706 37.0606C71.3706 37.9254 71.6795 38.6296 72.2972 39.1732C72.9396 39.6921 73.8168 39.9515 74.9287 39.9515Z" fill="#FDFDFD"/>
<path d="M105.934 47.8608V23.5101H108.195L109.048 26.4011C109.616 25.4374 110.394 24.6714 111.383 24.1031C112.371 23.5101 113.582 23.2136 115.015 23.2136C116.423 23.2136 117.72 23.5966 118.906 24.3626C120.117 25.1039 121.081 26.191 121.797 27.6242C122.539 29.0326 122.909 30.7498 122.909 32.776C122.909 34.7774 122.539 36.4947 121.797 37.9278C121.081 39.3609 120.117 40.4604 118.906 41.2264C117.72 41.9677 116.423 42.3383 115.015 42.3383C113.582 42.3383 112.371 42.0542 111.383 41.4859C110.394 40.8928 109.616 40.1022 109.048 39.1138V47.8608H105.934ZM114.199 39.6698C115.781 39.6698 117.041 39.0644 117.98 37.8536C118.944 36.6429 119.425 34.9504 119.425 32.776C119.425 30.5769 118.944 28.8843 117.98 27.6983C117.041 26.4876 115.781 25.8822 114.199 25.8822C112.618 25.8822 111.346 26.4876 110.382 27.6983C109.443 28.8843 108.973 30.5769 108.973 32.776C108.973 34.9504 109.443 36.6429 110.382 37.8536C111.346 39.0644 112.618 39.6698 114.199 39.6698ZM131.264 41.8936C130.102 41.8936 129.2 41.7824 128.558 41.56C127.94 41.3129 127.508 40.8558 127.261 40.1886C127.038 39.5215 126.927 38.5579 126.927 37.2977V17.1723H130.041V36.7788C130.041 37.7177 130.139 38.3478 130.337 38.669C130.535 38.9903 131.066 39.1509 131.931 39.1509H132.635V41.8936H131.264ZM141.614 42.3383C140.181 42.3383 139.032 42.0418 138.167 41.4488C137.302 40.8311 136.672 39.991 136.277 38.9285C135.906 37.8413 135.721 36.6058 135.721 35.2221V23.4731H138.834V34.4809C138.834 35.8399 138.995 36.89 139.316 37.6313C139.637 38.3725 140.082 38.8914 140.65 39.1879C141.243 39.4597 141.923 39.5956 142.689 39.5956C144.147 39.5956 145.283 39.0891 146.099 38.076C146.939 37.0383 147.359 35.5434 147.359 33.5914V23.4731H150.472V41.8936H148.137L147.359 39.225C146.84 40.1145 146.136 40.8558 145.246 41.4488C144.357 42.0418 143.146 42.3383 141.614 42.3383ZM163.227 49.0097C162.238 49.0097 161.25 48.8615 160.262 48.565C159.298 48.2932 158.433 47.836 157.667 47.1936C156.926 46.5512 156.395 45.7234 156.073 44.7104L159.187 43.8579C159.533 44.8216 160.101 45.464 160.892 45.7852C161.682 46.1064 162.461 46.267 163.227 46.267C165.129 46.267 166.414 45.8099 167.081 44.8957C167.773 43.9815 168.119 42.6348 168.119 40.8558V38.4096C167.551 39.3732 166.797 40.1392 165.858 40.7075C164.919 41.2758 163.721 41.56 162.263 41.56C160.904 41.56 159.632 41.2141 158.446 40.5222C157.26 39.8057 156.296 38.7679 155.555 37.4089C154.838 36.0252 154.48 34.3573 154.48 32.4053C154.48 30.4286 154.838 28.7608 155.555 27.4018C156.296 26.0428 157.26 25.005 158.446 24.2885C159.632 23.5719 160.904 23.2136 162.263 23.2136C163.721 23.2136 164.919 23.5101 165.858 24.1031C166.797 24.6714 167.551 25.4374 168.119 26.4011L168.972 23.5101H171.232V40.1516C171.232 43.0672 170.639 45.2663 169.453 46.7489C168.292 48.2561 166.216 49.0097 163.227 49.0097ZM163.041 38.9655C163.98 38.9655 164.833 38.7432 165.599 38.2984C166.389 37.8536 167.02 37.1494 167.489 36.1858C167.983 35.2221 168.23 33.962 168.23 32.4053C168.23 30.8487 167.983 29.5885 167.489 28.6249C167.02 27.6612 166.389 26.9694 165.599 26.5493C164.833 26.1046 163.98 25.8822 163.041 25.8822C161.534 25.8822 160.286 26.4505 159.298 27.5871C158.334 28.699 157.853 30.3051 157.853 32.4053C157.853 34.5056 158.334 36.124 159.298 37.2606C160.286 38.3972 161.534 38.9655 163.041 38.9655Z" fill="#FDFDFD"/>
<path d="M89.9255 43.3302H87.6508H86.6602V22.6499L97.5445 29.2455V33.5343L89.9255 29.1805V43.3302Z" fill="#14A4E1"/>
<path d="M99.721 22.65H101.996H102.986V43.3303L92.102 36.7347V32.446L99.721 36.7997V22.65Z" fill="#0174BE"/>
<path d="M172.758 23V19.478H171.426V18.992H174.654V19.478H173.322V23H172.758ZM175.168 23V18.992H176.104L177.172 22.268L178.24 18.992H179.176V23H178.612V19.58L177.454 23H176.896L175.732 19.58V23H175.168Z" fill="#FDFDFD"/>
</svg>
