<svg width="197" height="66" viewBox="0 0 197 66" fill="none" xmlns="http://www.w3.org/2000/svg">
<path d="M38.0463 42.4448C35.6742 42.4448 33.6481 41.9012 31.9679 40.814C30.3124 39.7021 29.0399 38.1825 28.1504 36.2552C27.2856 34.3279 26.8532 32.1041 26.8532 29.5838C26.8532 27.014 27.3226 24.7779 28.2616 22.8753C29.2252 20.948 30.5719 19.4531 32.3015 18.3906C34.0311 17.3282 36.0572 16.7969 38.3799 16.7969C40.4554 16.7969 42.3209 17.2787 43.9764 18.2424C45.6566 19.206 46.9292 20.5897 47.794 22.3935L44.7177 23.5054C44.1741 22.3935 43.3464 21.4916 42.2345 20.7998C41.1473 20.0832 39.8006 19.7249 38.1946 19.7249C36.7367 19.7249 35.4148 20.0956 34.2288 20.8368C33.0675 21.5781 32.1409 22.69 31.449 24.1725C30.7572 25.6303 30.4113 27.4341 30.4113 29.5838C30.4113 31.6593 30.7325 33.4384 31.3749 34.9209C32.042 36.4034 32.9563 37.54 34.1176 38.3307C35.3036 39.1214 36.6626 39.5168 38.1946 39.5168C39.01 39.5168 39.8501 39.4179 40.7149 39.2202C41.5797 39.0226 42.3704 38.689 43.0869 38.2195C43.8035 37.7254 44.3841 37.0582 44.8289 36.2181C45.2737 35.378 45.496 34.3155 45.496 33.0307V32.2153H38.2687V29.2131H48.7947V42H46.7933L45.8667 38.8867C45.076 40.1468 43.9888 41.0611 42.6051 41.6294C41.2461 42.173 39.7265 42.4448 38.0463 42.4448ZM52.6849 47.9672V45.2245H53.945C54.8346 45.2245 55.514 45.1504 55.9835 45.0021C56.453 44.8786 56.8236 44.5821 57.0954 44.1126C57.3919 43.6679 57.6761 42.976 57.9479 42.0371L51.3135 23.6536H54.7604L59.2822 37.8118L63.8039 23.6536H67.2137L60.6906 42.8154C60.2458 44.125 59.7887 45.1504 59.3192 45.8917C58.8745 46.6576 58.2691 47.1889 57.5031 47.4854C56.7371 47.8066 55.6623 47.9672 54.2786 47.9672H52.6849ZM74.2615 42.4448C73.1002 42.4448 72.0377 42.2347 71.0741 41.8147C70.1105 41.3946 69.3445 40.7893 68.7762 39.9986C68.2079 39.2079 67.9237 38.2566 67.9237 37.1447C67.9237 35.6869 68.4302 34.5379 69.4433 33.6978C70.4811 32.8577 71.9266 32.2153 73.7797 31.7705C75.6576 31.301 77.8443 30.9304 80.3399 30.6586C80.3894 29.102 80.0805 27.9036 79.4134 27.0635C78.7462 26.2234 77.6714 25.8033 76.1888 25.8033C75.0769 25.8033 74.1627 26.0628 73.4462 26.5816C72.7543 27.0758 72.3095 27.7677 72.1119 28.6572L69.1097 27.7677C69.6039 26.3593 70.4811 25.2721 71.7412 24.5061C73.0261 23.7154 74.4963 23.3201 76.1518 23.3201C78.6968 23.3201 80.55 23.9254 81.7113 25.1362C82.8973 26.3222 83.4903 28.2001 83.4903 30.7698V35.0692C83.4903 36.6011 83.5521 37.923 83.6756 39.0349C83.7992 40.1468 83.9474 41.1352 84.1204 42H81.2665L80.5253 39.4797C79.9817 40.3939 79.2033 41.1228 78.1903 41.6664C77.1772 42.1853 75.8676 42.4448 74.2615 42.4448ZM74.9287 39.9615C75.8923 39.9615 76.8066 39.7886 77.6714 39.4426C78.5362 39.0967 79.2404 38.516 79.784 37.7007C80.3276 36.8605 80.5994 35.7239 80.5994 34.2908V33.1419C78.7215 33.3395 77.0907 33.5866 75.707 33.8831C74.3233 34.1549 73.2485 34.5503 72.4825 35.0692C71.7412 35.5633 71.3706 36.2305 71.3706 37.0706C71.3706 37.9354 71.6795 38.6396 72.2972 39.1832C72.9396 39.7021 73.8168 39.9615 74.9287 39.9615Z" fill="#2C2C2C"/>
<path d="M105.934 47.8708V23.5201H108.195L109.048 26.4111C109.616 25.4474 110.394 24.6815 111.383 24.1132C112.371 23.5201 113.582 23.2236 115.015 23.2236C116.423 23.2236 117.72 23.6066 118.906 24.3726C120.117 25.1139 121.081 26.2011 121.797 27.6342C122.539 29.0426 122.909 30.7598 122.909 32.786C122.909 34.7874 122.539 36.5047 121.797 37.9378C121.081 39.3709 120.117 40.4704 118.906 41.2364C117.72 41.9777 116.423 42.3483 115.015 42.3483C113.582 42.3483 112.371 42.0642 111.383 41.4959C110.394 40.9029 109.616 40.1122 109.048 39.1238V47.8708H105.934ZM114.199 39.6798C115.781 39.6798 117.041 39.0744 117.98 37.8637C118.944 36.6529 119.425 34.9604 119.425 32.786C119.425 30.5869 118.944 28.8943 117.98 27.7083C117.041 26.4976 115.781 25.8922 114.199 25.8922C112.618 25.8922 111.346 26.4976 110.382 27.7083C109.443 28.8943 108.973 30.5869 108.973 32.786C108.973 34.9604 109.443 36.6529 110.382 37.8637C111.346 39.0744 112.618 39.6798 114.199 39.6798ZM131.264 41.9036C130.102 41.9036 129.2 41.7924 128.558 41.57C127.94 41.3229 127.508 40.8658 127.261 40.1986C127.038 39.5315 126.927 38.5679 126.927 37.3077V17.1823H130.041V36.7888C130.041 37.7278 130.139 38.3578 130.337 38.6791C130.535 39.0003 131.066 39.1609 131.931 39.1609H132.635V41.9036H131.264ZM141.614 42.3483C140.181 42.3483 139.032 42.0518 138.167 41.4588C137.302 40.8411 136.672 40.001 136.277 38.9385C135.906 37.8513 135.721 36.6159 135.721 35.2322V23.4831H138.834V34.4909C138.834 35.8499 138.995 36.9 139.316 37.6413C139.637 38.3825 140.082 38.9014 140.65 39.1979C141.243 39.4697 141.923 39.6056 142.689 39.6056C144.147 39.6056 145.283 39.0991 146.099 38.086C146.939 37.0483 147.359 35.5534 147.359 33.6014V23.4831H150.472V41.9036H148.137L147.359 39.235C146.84 40.1245 146.136 40.8658 145.246 41.4588C144.357 42.0518 143.146 42.3483 141.614 42.3483ZM163.227 49.0197C162.238 49.0197 161.25 48.8715 160.262 48.575C159.298 48.3032 158.433 47.8461 157.667 47.2036C156.926 46.5612 156.395 45.7334 156.073 44.7204L159.187 43.8679C159.533 44.8316 160.101 45.474 160.892 45.7952C161.682 46.1164 162.461 46.277 163.227 46.277C165.129 46.277 166.414 45.8199 167.081 44.9057C167.773 43.9915 168.119 42.6448 168.119 40.8658V38.4196C167.551 39.3833 166.797 40.1492 165.858 40.7175C164.919 41.2858 163.721 41.57 162.263 41.57C160.904 41.57 159.632 41.2241 158.446 40.5322C157.26 39.8157 156.296 38.7779 155.555 37.4189C154.838 36.0352 154.48 34.3673 154.48 32.4153C154.48 30.4386 154.838 28.7708 155.555 27.4118C156.296 26.0528 157.26 25.015 158.446 24.2985C159.632 23.5819 160.904 23.2236 162.263 23.2236C163.721 23.2236 164.919 23.5201 165.858 24.1132C166.797 24.6815 167.551 25.4474 168.119 26.4111L168.972 23.5201H171.232V40.1616C171.232 43.0772 170.639 45.2763 169.453 46.7589C168.292 48.2661 166.216 49.0197 163.227 49.0197ZM163.041 38.9756C163.98 38.9756 164.833 38.7532 165.599 38.3084C166.389 37.8637 167.02 37.1595 167.489 36.1958C167.983 35.2322 168.23 33.972 168.23 32.4153C168.23 30.8587 167.983 29.5985 167.489 28.6349C167.02 27.6712 166.389 26.9794 165.599 26.5593C164.833 26.1146 163.98 25.8922 163.041 25.8922C161.534 25.8922 160.286 26.4605 159.298 27.5971C158.334 28.709 157.853 30.3151 157.853 32.4153C157.853 34.5156 158.334 36.134 159.298 37.2706C160.286 38.4073 161.534 38.9756 163.041 38.9756Z" fill="#2C2C2C"/>
<path d="M89.9255 43.3402H87.6508H86.6602V22.6599L97.5445 29.2555V33.5443L89.9255 29.1905V43.3402Z" fill="#14A4E1"/>
<path d="M99.721 22.66H101.996H102.986V43.3403L92.102 36.7447V32.456L99.721 36.8097V22.66Z" fill="#0174BE"/>
<path d="M172.758 23V19.478H171.426V18.992H174.654V19.478H173.322V23H172.758ZM175.168 23V18.992H176.104L177.172 22.268L178.24 18.992H179.176V23H178.612V19.58L177.454 23H176.896L175.732 19.58V23H175.168Z" fill="#2C2C2C"/>
</svg>
