<svg width="672" height="376" viewBox="0 0 672 376" fill="none" xmlns="http://www.w3.org/2000/svg">
<g clip-path="url(#clip0_49_161)">
<path d="M0 25.6C0 16.6392 0 12.1587 1.7439 8.73615C3.27787 5.72556 5.72556 3.27787 8.73615 1.7439C12.1587 0 16.6392 0 25.6 0H646.4C655.361 0 659.841 0 663.264 1.7439C666.274 3.27787 668.722 5.72556 670.256 8.73615C672 12.1587 672 16.6392 672 25.6V376H0V25.6Z" fill="#14A4E1"/>
<g style="mix-blend-mode:luminosity" clip-path="url(#clip1_49_161)">
<path d="M548.997 202.298L412.535 202.298C409.942 202.298 407.454 201.267 405.62 199.432C403.786 197.597 402.756 195.109 402.756 192.514V93.1355C402.756 90.542 403.786 88.0547 405.619 86.2208C407.452 84.387 409.938 83.3567 412.531 83.3567L549.001 83.3567C551.594 83.3567 554.08 84.387 555.913 86.2208C557.746 88.0547 558.776 90.542 558.776 93.1355V192.514C558.776 195.109 557.746 197.597 555.912 199.432C554.078 201.267 551.59 202.298 548.997 202.298Z" fill="white"/>
<path d="M402.347 192.514V93.1348C402.347 90.4329 403.42 87.8417 405.33 85.9311C407.24 84.0206 409.83 82.9473 412.531 82.9473H549.001C551.702 82.9473 554.292 84.0206 556.202 85.9311C558.112 87.8417 559.185 90.4329 559.185 93.1348V192.514C559.185 193.852 558.921 195.177 558.409 196.414C557.897 197.651 557.147 198.774 556.201 199.721C555.255 200.667 554.132 201.418 552.896 201.93C551.659 202.442 550.335 202.706 548.997 202.706H412.536C411.198 202.706 409.873 202.442 408.637 201.93C407.4 201.418 406.277 200.667 405.331 199.721C404.385 198.774 403.635 197.651 403.123 196.414C402.611 195.177 402.347 193.852 402.347 192.514ZM412.531 83.7648C410.047 83.7655 407.665 84.753 405.909 86.5101C404.153 88.2673 403.167 90.6502 403.167 93.1348V192.514C403.167 195 404.154 197.384 405.912 199.143C407.669 200.901 410.053 201.888 412.538 201.888H548.997C551.482 201.888 553.866 200.901 555.623 199.143C557.38 197.384 558.368 195 558.368 192.514V93.1348C558.368 90.6498 557.381 88.2664 555.624 86.5092C553.868 84.752 551.485 83.7648 549.001 83.7648H412.531Z" fill="#292A2E"/>
<path d="M402.756 93.1336V101.414H558.775V93.1336C558.775 90.5401 557.745 88.0528 555.912 86.2189C554.079 84.385 551.592 83.3547 549 83.3547H412.531C411.247 83.3547 409.976 83.6077 408.79 84.0991C407.604 84.5906 406.527 85.3109 405.619 86.2189C404.711 87.127 403.991 88.205 403.5 89.3914C403.009 90.5778 402.756 91.8494 402.756 93.1336Z" fill="#292A2E"/>
<path d="M456.039 114.799H448.677C448.59 114.799 448.507 114.765 448.446 114.703C448.385 114.642 448.35 114.559 448.35 114.472C448.35 114.385 448.385 114.302 448.446 114.241C448.507 114.179 448.59 114.145 448.677 114.145H456.039C456.126 114.145 456.209 114.179 456.27 114.241C456.331 114.302 456.366 114.385 456.366 114.472C456.366 114.559 456.331 114.642 456.27 114.703C456.209 114.765 456.126 114.799 456.039 114.799Z" fill="#292A2E"/>
<path d="M443.368 114.799H440.582C440.496 114.799 440.412 114.765 440.351 114.703C440.29 114.642 440.255 114.559 440.255 114.472C440.255 114.385 440.29 114.302 440.351 114.241C440.412 114.179 440.496 114.145 440.582 114.145H443.368C443.455 114.145 443.538 114.179 443.599 114.241C443.66 114.302 443.695 114.385 443.695 114.472C443.695 114.559 443.66 114.642 443.599 114.703C443.538 114.765 443.455 114.799 443.368 114.799Z" fill="#367CFF"/>
<path d="M443.368 120.698H440.582C440.496 120.698 440.412 120.664 440.351 120.602C440.29 120.541 440.255 120.458 440.255 120.371C440.255 120.284 440.29 120.201 440.351 120.14C440.412 120.079 440.496 120.044 440.582 120.044H443.368C443.455 120.044 443.538 120.079 443.599 120.14C443.66 120.201 443.695 120.284 443.695 120.371C443.695 120.458 443.66 120.541 443.599 120.602C443.538 120.664 443.455 120.698 443.368 120.698Z" fill="#367CFF"/>
<path d="M443.368 126.597H440.582C440.496 126.597 440.412 126.563 440.351 126.502C440.29 126.44 440.255 126.357 440.255 126.27C440.255 126.184 440.29 126.101 440.351 126.039C440.412 125.978 440.496 125.943 440.582 125.943H443.368C443.455 125.943 443.538 125.978 443.599 126.039C443.66 126.101 443.695 126.184 443.695 126.27C443.695 126.357 443.66 126.44 443.599 126.502C443.538 126.563 443.455 126.597 443.368 126.597Z" fill="#367CFF"/>
<path d="M443.368 132.497H440.582C440.496 132.497 440.412 132.462 440.351 132.401C440.29 132.34 440.255 132.256 440.255 132.17C440.255 132.083 440.29 132 440.351 131.938C440.412 131.877 440.496 131.843 440.582 131.843H443.368C443.455 131.843 443.538 131.877 443.599 131.938C443.66 132 443.695 132.083 443.695 132.17C443.695 132.256 443.66 132.34 443.599 132.401C443.538 132.462 443.455 132.497 443.368 132.497Z" fill="#367CFF"/>
<path d="M443.368 138.396H440.582C440.496 138.396 440.412 138.361 440.351 138.3C440.29 138.239 440.255 138.156 440.255 138.069C440.255 137.982 440.29 137.899 440.351 137.838C440.412 137.776 440.496 137.742 440.582 137.742H443.368C443.455 137.742 443.538 137.776 443.599 137.838C443.66 137.899 443.695 137.982 443.695 138.069C443.695 138.156 443.66 138.239 443.599 138.3C443.538 138.361 443.455 138.396 443.368 138.396Z" fill="#367CFF"/>
<path d="M443.368 144.295H440.582C440.496 144.295 440.412 144.261 440.351 144.199C440.29 144.138 440.255 144.055 440.255 143.968C440.255 143.881 440.29 143.798 440.351 143.737C440.412 143.676 440.496 143.641 440.582 143.641H443.368C443.455 143.641 443.538 143.676 443.599 143.737C443.66 143.798 443.695 143.881 443.695 143.968C443.695 144.055 443.66 144.138 443.599 144.199C443.538 144.261 443.455 144.295 443.368 144.295Z" fill="#367CFF"/>
<path d="M443.368 150.194H440.582C440.496 150.194 440.412 150.16 440.351 150.099C440.29 150.037 440.255 149.954 440.255 149.867C440.255 149.781 440.29 149.697 440.351 149.636C440.412 149.575 440.496 149.54 440.582 149.54H443.368C443.455 149.54 443.538 149.575 443.599 149.636C443.66 149.697 443.695 149.781 443.695 149.867C443.695 149.954 443.66 150.037 443.599 150.099C443.538 150.16 443.455 150.194 443.368 150.194Z" fill="#367CFF"/>
<path d="M443.368 156.093H440.582C440.496 156.093 440.412 156.059 440.351 155.998C440.29 155.936 440.255 155.853 440.255 155.766C440.255 155.68 440.29 155.597 440.351 155.535C440.412 155.474 440.496 155.439 440.582 155.439H443.368C443.455 155.439 443.538 155.474 443.599 155.535C443.66 155.597 443.695 155.68 443.695 155.766C443.695 155.853 443.66 155.936 443.599 155.998C443.538 156.059 443.455 156.093 443.368 156.093Z" fill="#367CFF"/>
<path d="M443.368 161.993H440.582C440.496 161.993 440.412 161.958 440.351 161.897C440.29 161.836 440.255 161.752 440.255 161.666C440.255 161.579 440.29 161.496 440.351 161.435C440.412 161.373 440.496 161.339 440.582 161.339H443.368C443.455 161.339 443.538 161.373 443.599 161.435C443.66 161.496 443.695 161.579 443.695 161.666C443.695 161.752 443.66 161.836 443.599 161.897C443.538 161.958 443.455 161.993 443.368 161.993Z" fill="#367CFF"/>
<path d="M443.368 167.892H440.582C440.496 167.892 440.412 167.857 440.351 167.796C440.29 167.735 440.255 167.652 440.255 167.565C440.255 167.478 440.29 167.395 440.351 167.334C440.412 167.272 440.496 167.238 440.582 167.238H443.368C443.455 167.238 443.538 167.272 443.599 167.334C443.66 167.395 443.695 167.478 443.695 167.565C443.695 167.652 443.66 167.735 443.599 167.796C443.538 167.857 443.455 167.892 443.368 167.892Z" fill="#367CFF"/>
<path d="M443.368 173.791H440.582C440.496 173.791 440.412 173.757 440.351 173.695C440.29 173.634 440.255 173.551 440.255 173.464C440.255 173.377 440.29 173.294 440.351 173.233C440.412 173.172 440.496 173.137 440.582 173.137H443.368C443.455 173.137 443.538 173.172 443.599 173.233C443.66 173.294 443.695 173.377 443.695 173.464C443.695 173.551 443.66 173.634 443.599 173.695C443.538 173.757 443.455 173.791 443.368 173.791Z" fill="#367CFF"/>
<path d="M443.368 179.69H440.582C440.496 179.69 440.412 179.656 440.351 179.595C440.29 179.533 440.255 179.45 440.255 179.363C440.255 179.277 440.29 179.193 440.351 179.132C440.412 179.071 440.496 179.036 440.582 179.036H443.368C443.455 179.036 443.538 179.071 443.599 179.132C443.66 179.193 443.695 179.277 443.695 179.363C443.695 179.45 443.66 179.533 443.599 179.595C443.538 179.656 443.455 179.69 443.368 179.69Z" fill="#367CFF"/>
<path d="M443.368 185.59H440.582C440.496 185.59 440.412 185.555 440.351 185.494C440.29 185.432 440.255 185.349 440.255 185.263C440.255 185.176 440.29 185.093 440.351 185.031C440.412 184.97 440.496 184.936 440.582 184.936H443.368C443.455 184.936 443.538 184.97 443.599 185.031C443.66 185.093 443.695 185.176 443.695 185.263C443.695 185.349 443.66 185.432 443.599 185.494C443.538 185.555 443.455 185.59 443.368 185.59Z" fill="#367CFF"/>
<path d="M443.368 191.489H440.582C440.496 191.489 440.412 191.455 440.351 191.394C440.29 191.332 440.255 191.249 440.255 191.162C440.255 191.076 440.29 190.993 440.351 190.931C440.412 190.87 440.496 190.835 440.582 190.835H443.368C443.455 190.835 443.538 190.87 443.599 190.931C443.66 190.993 443.695 191.076 443.695 191.162C443.695 191.249 443.66 191.332 443.599 191.394C443.538 191.455 443.455 191.489 443.368 191.489Z" fill="#367CFF"/>
<path d="M461.923 120.698H455.215C455.128 120.698 455.045 120.664 454.984 120.603C454.923 120.541 454.888 120.458 454.888 120.371C454.888 120.285 454.923 120.201 454.984 120.14C455.045 120.079 455.128 120.044 455.215 120.044H461.923C462.01 120.044 462.093 120.079 462.154 120.14C462.216 120.201 462.25 120.285 462.25 120.371C462.25 120.458 462.216 120.541 462.154 120.603C462.093 120.664 462.01 120.698 461.923 120.698Z" fill="#292A2E"/>
<path d="M456.039 156.094H448.677C448.59 156.094 448.507 156.059 448.446 155.998C448.385 155.936 448.35 155.853 448.35 155.767C448.35 155.68 448.385 155.597 448.446 155.535C448.507 155.474 448.59 155.44 448.677 155.44H456.039C456.126 155.44 456.209 155.474 456.27 155.535C456.331 155.597 456.366 155.68 456.366 155.767C456.366 155.853 456.331 155.936 456.27 155.998C456.209 156.059 456.126 156.094 456.039 156.094Z" fill="#292A2E"/>
<path d="M461.923 161.993H455.215C455.128 161.993 455.045 161.958 454.984 161.897C454.923 161.836 454.888 161.752 454.888 161.666C454.888 161.579 454.923 161.496 454.984 161.435C455.045 161.373 455.128 161.339 455.215 161.339H461.923C462.01 161.339 462.093 161.373 462.154 161.435C462.216 161.496 462.25 161.579 462.25 161.666C462.25 161.752 462.216 161.836 462.154 161.897C462.093 161.958 462.01 161.993 461.923 161.993Z" fill="#292A2E"/>
<path d="M499.842 126.597H459.791C459.705 126.597 459.621 126.563 459.56 126.502C459.499 126.44 459.464 126.357 459.464 126.27C459.464 126.184 459.499 126.101 459.56 126.039C459.621 125.978 459.705 125.943 459.791 125.943H499.842C499.928 125.943 500.012 125.978 500.073 126.039C500.134 126.101 500.169 126.184 500.169 126.27C500.169 126.357 500.134 126.44 500.073 126.502C500.012 126.563 499.928 126.597 499.842 126.597Z" fill="#292A2E"/>
<path d="M535.202 126.597H506.92C506.833 126.597 506.75 126.563 506.689 126.502C506.628 126.44 506.593 126.357 506.593 126.27C506.593 126.184 506.628 126.101 506.689 126.039C506.75 125.978 506.833 125.943 506.92 125.943H535.202C535.289 125.943 535.372 125.978 535.433 126.039C535.495 126.101 535.529 126.184 535.529 126.27C535.529 126.357 535.495 126.44 535.433 126.502C535.372 126.563 535.289 126.597 535.202 126.597Z" fill="#0CBC8B"/>
<path d="M550.38 126.597H541.711C541.624 126.597 541.541 126.563 541.48 126.502C541.419 126.44 541.384 126.357 541.384 126.27C541.384 126.184 541.419 126.101 541.48 126.039C541.541 125.978 541.624 125.943 541.711 125.943H550.38C550.467 125.943 550.55 125.978 550.611 126.039C550.673 126.101 550.707 126.184 550.707 126.27C550.707 126.357 550.673 126.44 550.611 126.502C550.55 126.563 550.467 126.597 550.38 126.597Z" fill="#292A2E"/>
<path d="M519.455 138.396H459.791C459.705 138.396 459.621 138.362 459.56 138.3C459.499 138.239 459.464 138.156 459.464 138.069C459.464 137.982 459.499 137.899 459.56 137.838C459.621 137.776 459.705 137.742 459.791 137.742H519.455C519.542 137.742 519.625 137.776 519.686 137.838C519.747 137.899 519.782 137.982 519.782 138.069C519.782 138.156 519.747 138.239 519.686 138.3C519.625 138.362 519.542 138.396 519.455 138.396Z" fill="#292A2E"/>
<path d="M535.202 138.396H526.533C526.446 138.396 526.363 138.362 526.302 138.3C526.241 138.239 526.206 138.156 526.206 138.069C526.206 137.982 526.241 137.899 526.302 137.838C526.363 137.776 526.446 137.742 526.533 137.742H535.202C535.289 137.742 535.372 137.776 535.433 137.838C535.494 137.899 535.529 137.982 535.529 138.069C535.529 138.156 535.494 138.239 535.433 138.3C535.372 138.362 535.289 138.396 535.202 138.396Z" fill="#367CFF"/>
<path d="M467.153 132.497H459.791C459.705 132.497 459.621 132.462 459.56 132.401C459.499 132.34 459.464 132.256 459.464 132.17C459.464 132.083 459.499 132 459.56 131.938C459.621 131.877 459.705 131.843 459.791 131.843H467.153C467.24 131.843 467.323 131.877 467.384 131.938C467.446 132 467.48 132.083 467.48 132.17C467.48 132.256 467.446 132.34 467.384 132.401C467.323 132.462 467.24 132.497 467.153 132.497Z" fill="#0CBC8B"/>
<path d="M515.589 132.497H474.232C474.145 132.497 474.062 132.462 474.001 132.401C473.939 132.34 473.905 132.256 473.905 132.17C473.905 132.083 473.939 132 474.001 131.938C474.062 131.877 474.145 131.843 474.232 131.843H515.589C515.676 131.843 515.759 131.877 515.82 131.938C515.882 132 515.916 132.083 515.916 132.17C515.916 132.256 515.882 132.34 515.82 132.401C515.759 132.462 515.676 132.497 515.589 132.497Z" fill="#367CFF"/>
<path d="M550.437 132.497H523.461C523.374 132.497 523.291 132.462 523.23 132.401C523.168 132.34 523.134 132.256 523.134 132.17C523.134 132.083 523.168 132 523.23 131.938C523.291 131.877 523.374 131.843 523.461 131.843H550.436C550.523 131.843 550.606 131.877 550.667 131.938C550.728 132 550.763 132.083 550.763 132.17C550.763 132.256 550.728 132.34 550.667 132.401C550.606 132.462 550.523 132.497 550.436 132.497H550.437Z" fill="#292A2E"/>
<path d="M499.842 144.295H459.791C459.705 144.295 459.621 144.261 459.56 144.199C459.499 144.138 459.464 144.055 459.464 143.968C459.464 143.881 459.499 143.798 459.56 143.737C459.621 143.676 459.705 143.641 459.791 143.641H499.842C499.928 143.641 500.012 143.676 500.073 143.737C500.134 143.798 500.169 143.881 500.169 143.968C500.169 144.055 500.134 144.138 500.073 144.199C500.012 144.261 499.928 144.295 499.842 144.295Z" fill="#292A2E"/>
<path d="M522.127 144.295H506.92C506.833 144.295 506.75 144.261 506.689 144.199C506.628 144.138 506.593 144.055 506.593 143.968C506.593 143.881 506.628 143.798 506.689 143.737C506.75 143.676 506.833 143.641 506.92 143.641H522.127C522.214 143.641 522.297 143.676 522.358 143.737C522.419 143.798 522.454 143.881 522.454 143.968C522.454 144.055 522.419 144.138 522.358 144.199C522.297 144.261 522.214 144.295 522.127 144.295Z" fill="#0CBC8B"/>
<path d="M550.38 144.295H528.635C528.549 144.295 528.466 144.261 528.404 144.199C528.343 144.138 528.309 144.055 528.309 143.968C528.309 143.881 528.343 143.798 528.404 143.737C528.466 143.676 528.549 143.641 528.635 143.641H550.38C550.467 143.641 550.55 143.676 550.611 143.737C550.672 143.798 550.707 143.881 550.707 143.968C550.707 144.055 550.672 144.138 550.611 144.199C550.55 144.261 550.467 144.295 550.38 144.295Z" fill="#292A2E"/>
<path d="M467.153 150.194H459.791C459.705 150.194 459.621 150.16 459.56 150.099C459.499 150.037 459.464 149.954 459.464 149.867C459.464 149.781 459.499 149.697 459.56 149.636C459.621 149.575 459.705 149.54 459.791 149.54H467.153C467.24 149.54 467.323 149.575 467.384 149.636C467.446 149.697 467.48 149.781 467.48 149.867C467.48 149.954 467.446 150.037 467.384 150.099C467.323 150.16 467.24 150.194 467.153 150.194Z" fill="#367CFF"/>
<path d="M515.589 150.194H474.232C474.145 150.194 474.062 150.16 474.001 150.099C473.939 150.037 473.905 149.954 473.905 149.867C473.905 149.781 473.939 149.697 474.001 149.636C474.062 149.575 474.145 149.54 474.232 149.54H515.589C515.676 149.54 515.759 149.575 515.82 149.636C515.882 149.697 515.916 149.781 515.916 149.867C515.916 149.954 515.882 150.037 515.82 150.099C515.759 150.16 515.676 150.194 515.589 150.194Z" fill="#0CBC8B"/>
<path d="M498.534 173.791H458.484C458.397 173.791 458.314 173.757 458.252 173.695C458.191 173.634 458.157 173.551 458.157 173.464C458.157 173.377 458.191 173.294 458.252 173.233C458.314 173.172 458.397 173.137 458.484 173.137H498.534C498.621 173.137 498.704 173.172 498.765 173.233C498.827 173.294 498.861 173.377 498.861 173.464C498.861 173.551 498.827 173.634 498.765 173.695C498.704 173.757 498.621 173.791 498.534 173.791Z" fill="#292A2E"/>
<path d="M533.895 173.791H505.613C505.526 173.791 505.443 173.757 505.381 173.695C505.32 173.634 505.286 173.551 505.286 173.464C505.286 173.377 505.32 173.294 505.381 173.233C505.443 173.172 505.526 173.137 505.613 173.137H533.895C533.981 173.137 534.064 173.172 534.126 173.233C534.187 173.294 534.221 173.377 534.221 173.464C534.221 173.551 534.187 173.634 534.126 173.695C534.064 173.757 533.981 173.791 533.895 173.791Z" fill="#367CFF"/>
<path d="M478.921 167.892H458.484C458.397 167.892 458.314 167.857 458.252 167.796C458.191 167.735 458.157 167.652 458.157 167.565C458.157 167.478 458.191 167.395 458.252 167.334C458.314 167.272 458.397 167.238 458.484 167.238H478.921C479.008 167.238 479.091 167.272 479.152 167.334C479.213 167.395 479.248 167.478 479.248 167.565C479.248 167.652 479.213 167.735 479.152 167.796C479.091 167.857 479.008 167.892 478.921 167.892Z" fill="#0CBC8B"/>
<path d="M514.281 167.892H485.999C485.913 167.892 485.829 167.857 485.768 167.796C485.707 167.735 485.672 167.652 485.672 167.565C485.672 167.478 485.707 167.395 485.768 167.334C485.829 167.272 485.913 167.238 485.999 167.238H514.281C514.368 167.238 514.451 167.272 514.512 167.334C514.574 167.395 514.608 167.478 514.608 167.565C514.608 167.652 514.574 167.735 514.512 167.796C514.451 167.857 514.368 167.892 514.281 167.892Z" fill="#367CFF"/>
<path d="M549.13 167.892H522.153C522.066 167.892 521.983 167.857 521.922 167.796C521.861 167.735 521.826 167.652 521.826 167.565C521.826 167.478 521.861 167.395 521.922 167.334C521.983 167.272 522.066 167.238 522.153 167.238H549.128C549.215 167.238 549.298 167.272 549.359 167.334C549.421 167.395 549.455 167.478 549.455 167.565C549.455 167.652 549.421 167.735 549.359 167.796C549.298 167.857 549.215 167.892 549.128 167.892H549.13Z" fill="#292A2E"/>
<path d="M518.147 185.59H458.484C458.397 185.59 458.314 185.556 458.252 185.495C458.191 185.433 458.157 185.35 458.157 185.263C458.157 185.177 458.191 185.093 458.252 185.032C458.314 184.971 458.397 184.936 458.484 184.936H518.147C518.234 184.936 518.317 184.971 518.378 185.032C518.44 185.093 518.474 185.177 518.474 185.263C518.474 185.35 518.44 185.433 518.378 185.495C518.317 185.556 518.234 185.59 518.147 185.59Z" fill="#367CFF"/>
<path d="M533.894 185.59H525.225C525.139 185.59 525.056 185.556 524.994 185.495C524.933 185.433 524.898 185.35 524.898 185.263C524.898 185.177 524.933 185.093 524.994 185.032C525.056 184.971 525.139 184.936 525.225 184.936H533.894C533.981 184.936 534.064 184.971 534.125 185.032C534.187 185.093 534.221 185.177 534.221 185.263C534.221 185.35 534.187 185.433 534.125 185.495C534.064 185.556 533.981 185.59 533.894 185.59Z" fill="#292A2E"/>
<path d="M465.846 179.691H458.484C458.397 179.691 458.314 179.657 458.252 179.595C458.191 179.534 458.157 179.451 458.157 179.364C458.157 179.277 458.191 179.194 458.252 179.133C458.314 179.071 458.397 179.037 458.484 179.037H465.846C465.932 179.037 466.016 179.071 466.077 179.133C466.138 179.194 466.173 179.277 466.173 179.364C466.173 179.451 466.138 179.534 466.077 179.595C466.016 179.657 465.932 179.691 465.846 179.691Z" fill="#367CFF"/>
<path d="M514.281 179.691H472.924C472.837 179.691 472.754 179.657 472.693 179.595C472.632 179.534 472.597 179.451 472.597 179.364C472.597 179.277 472.632 179.194 472.693 179.133C472.754 179.071 472.837 179.037 472.924 179.037H514.281C514.368 179.037 514.451 179.071 514.513 179.133C514.574 179.194 514.608 179.277 514.608 179.364C514.608 179.451 514.574 179.534 514.513 179.595C514.451 179.657 514.368 179.691 514.281 179.691Z" fill="#292A2E"/>
<path d="M549.13 179.691H522.153C522.066 179.691 521.983 179.657 521.922 179.595C521.861 179.534 521.826 179.451 521.826 179.364C521.826 179.277 521.861 179.194 521.922 179.133C521.983 179.071 522.066 179.037 522.153 179.037H549.128C549.215 179.037 549.298 179.071 549.359 179.133C549.421 179.194 549.455 179.277 549.455 179.364C549.455 179.451 549.421 179.534 549.359 179.595C549.298 179.657 549.215 179.691 549.128 179.691H549.13Z" fill="#0CBC8B"/>
<path d="M498.534 191.489H458.484C458.397 191.489 458.314 191.455 458.252 191.394C458.191 191.332 458.157 191.249 458.157 191.162C458.157 191.076 458.191 190.993 458.252 190.931C458.314 190.87 458.397 190.835 458.484 190.835H498.534C498.621 190.835 498.704 190.87 498.765 190.931C498.827 190.993 498.861 191.076 498.861 191.162C498.861 191.249 498.827 191.332 498.765 191.394C498.704 191.455 498.621 191.489 498.534 191.489Z" fill="#0CBC8B"/>
<path d="M520.819 191.489H505.613C505.526 191.489 505.443 191.455 505.381 191.394C505.32 191.332 505.286 191.249 505.286 191.162C505.286 191.076 505.32 190.993 505.381 190.931C505.443 190.87 505.526 190.835 505.613 190.835H520.819C520.906 190.835 520.989 190.87 521.05 190.931C521.112 190.993 521.146 191.076 521.146 191.162C521.146 191.249 521.112 191.332 521.05 191.394C520.989 191.455 520.906 191.489 520.819 191.489Z" fill="#292A2E"/>
<path d="M549.072 191.489H527.328C527.241 191.489 527.158 191.455 527.097 191.394C527.035 191.332 527.001 191.249 527.001 191.162C527.001 191.076 527.035 190.993 527.097 190.931C527.158 190.87 527.241 190.835 527.328 190.835H549.072C549.159 190.835 549.242 190.87 549.303 190.931C549.365 190.993 549.399 191.076 549.399 191.162C549.399 191.249 549.365 191.332 549.303 191.394C549.242 191.455 549.159 191.489 549.072 191.489Z" fill="#367CFF"/>
<path d="M437.477 197.802C437.391 197.802 437.307 197.768 437.246 197.706C437.185 197.645 437.15 197.562 437.15 197.475V104.501C437.15 104.414 437.185 104.331 437.246 104.27C437.307 104.208 437.391 104.174 437.477 104.174C437.564 104.174 437.647 104.208 437.708 104.27C437.77 104.331 437.804 104.414 437.804 104.501V197.475C437.804 197.562 437.77 197.645 437.708 197.706C437.647 197.768 437.564 197.802 437.477 197.802Z" fill="#292A2E"/>
<path d="M546.955 98.2859C549.852 98.2859 552.2 95.9369 552.2 93.0393C552.2 90.1418 549.852 87.7928 546.955 87.7928C544.059 87.7928 541.711 90.1418 541.711 93.0393C541.711 95.9369 544.059 98.2859 546.955 98.2859Z" fill="white"/>
<path d="M422.526 108.586H408.371C408.284 108.586 408.201 108.551 408.14 108.49C408.078 108.429 408.044 108.346 408.044 108.259C408.044 108.172 408.078 108.089 408.14 108.028C408.201 107.966 408.284 107.932 408.371 107.932H422.526C422.613 107.932 422.696 107.966 422.757 108.028C422.819 108.089 422.853 108.172 422.853 108.259C422.853 108.346 422.819 108.429 422.757 108.49C422.696 108.551 422.613 108.586 422.526 108.586Z" fill="#292A2E"/>
<path d="M418.262 115.036H408.371C408.284 115.036 408.201 115.001 408.14 114.94C408.078 114.879 408.044 114.796 408.044 114.709C408.044 114.622 408.078 114.539 408.14 114.478C408.201 114.416 408.284 114.382 408.371 114.382H418.262C418.348 114.382 418.432 114.416 418.493 114.478C418.554 114.539 418.589 114.622 418.589 114.709C418.589 114.796 418.554 114.879 418.493 114.94C418.432 115.001 418.348 115.036 418.262 115.036Z" fill="#292A2E"/>
<path d="M426.96 121.486H408.371C408.284 121.486 408.201 121.451 408.14 121.39C408.078 121.329 408.044 121.245 408.044 121.159C408.044 121.072 408.078 120.989 408.14 120.927C408.201 120.866 408.284 120.832 408.371 120.832H426.96C427.047 120.832 427.13 120.866 427.191 120.927C427.253 120.989 427.287 121.072 427.287 121.159C427.287 121.245 427.253 121.329 427.191 121.39C427.13 121.451 427.047 121.486 426.96 121.486Z" fill="#292A2E"/>
<path d="M430.429 127.936H414.908C414.822 127.936 414.739 127.901 414.677 127.84C414.616 127.778 414.582 127.695 414.582 127.609C414.582 127.522 414.616 127.439 414.677 127.377C414.739 127.316 414.822 127.281 414.908 127.281H430.429C430.516 127.281 430.599 127.316 430.66 127.377C430.721 127.439 430.756 127.522 430.756 127.609C430.756 127.695 430.721 127.778 430.66 127.84C430.599 127.901 430.516 127.936 430.429 127.936Z" fill="#292A2E"/>
<path d="M422.924 134.386H414.908C414.822 134.386 414.739 134.352 414.677 134.29C414.616 134.229 414.582 134.146 414.582 134.059C414.582 133.972 414.616 133.889 414.677 133.828C414.739 133.767 414.822 133.732 414.908 133.732H422.924C423.01 133.732 423.093 133.767 423.155 133.828C423.216 133.889 423.251 133.972 423.251 134.059C423.251 134.146 423.216 134.229 423.155 134.29C423.093 134.352 423.01 134.386 422.924 134.386Z" fill="#292A2E"/>
<path d="M429.064 140.836H414.908C414.822 140.836 414.739 140.802 414.677 140.74C414.616 140.679 414.582 140.596 414.582 140.509C414.582 140.422 414.616 140.339 414.677 140.278C414.739 140.216 414.822 140.182 414.908 140.182H429.064C429.151 140.182 429.234 140.216 429.295 140.278C429.356 140.339 429.391 140.422 429.391 140.509C429.391 140.596 429.356 140.679 429.295 140.74C429.234 140.802 429.151 140.836 429.064 140.836Z" fill="#292A2E"/>
<path d="M419.286 147.286H408.371C408.284 147.286 408.201 147.251 408.14 147.19C408.078 147.129 408.044 147.046 408.044 146.959C408.044 146.872 408.078 146.789 408.14 146.728C408.201 146.666 408.284 146.632 408.371 146.632H419.286C419.372 146.632 419.455 146.666 419.517 146.728C419.578 146.789 419.612 146.872 419.612 146.959C419.612 147.046 419.578 147.129 419.517 147.19C419.455 147.251 419.372 147.286 419.286 147.286Z" fill="#292A2E"/>
<path d="M415.534 153.735H408.371C408.284 153.735 408.201 153.701 408.14 153.639C408.078 153.578 408.044 153.495 408.044 153.408C408.044 153.321 408.078 153.238 408.14 153.177C408.201 153.116 408.284 153.081 408.371 153.081H415.534C415.62 153.081 415.703 153.116 415.765 153.177C415.826 153.238 415.86 153.321 415.86 153.408C415.86 153.495 415.826 153.578 415.765 153.639C415.703 153.701 415.62 153.735 415.534 153.735Z" fill="#292A2E"/>
<path d="M442.924 107.202V107.32L447.01 108.837C447.068 108.861 447.118 108.902 447.153 108.954C447.188 109.007 447.206 109.068 447.206 109.131V109.243C447.207 109.292 447.195 109.34 447.173 109.384C447.15 109.427 447.116 109.464 447.075 109.491C447.034 109.52 446.985 109.539 446.935 109.544C446.885 109.55 446.834 109.543 446.787 109.524L442.172 107.719C442.114 107.696 442.065 107.656 442.03 107.605C441.995 107.554 441.976 107.493 441.976 107.431V107.097C441.975 107.035 441.994 106.974 442.029 106.923C442.064 106.871 442.114 106.832 442.172 106.81L446.787 104.998C446.825 104.985 446.864 104.979 446.904 104.978C446.965 104.98 447.024 104.998 447.075 105.031C447.116 105.059 447.15 105.097 447.173 105.142C447.195 105.186 447.207 105.236 447.206 105.286V105.397C447.207 105.459 447.189 105.521 447.154 105.572C447.119 105.624 447.068 105.663 447.01 105.685L442.924 107.202Z" fill="#367CFF"/>
<path d="M451.023 103.664L448.578 111.152C448.558 111.215 448.519 111.269 448.466 111.308C448.413 111.347 448.349 111.368 448.284 111.368C448.237 111.369 448.19 111.358 448.147 111.336C448.105 111.315 448.069 111.283 448.042 111.244C448.013 111.205 447.993 111.16 447.984 111.113C447.975 111.065 447.977 111.016 447.99 110.969L450.435 103.487C450.456 103.424 450.496 103.368 450.55 103.328C450.604 103.288 450.669 103.266 450.736 103.265C450.783 103.265 450.83 103.276 450.872 103.298C450.914 103.319 450.95 103.351 450.978 103.389C451.007 103.428 451.026 103.473 451.034 103.521C451.042 103.569 451.038 103.618 451.023 103.664Z" fill="#367CFF"/>
<path d="M457.027 107.097V107.431C457.028 107.492 457.01 107.553 456.977 107.604C456.943 107.655 456.894 107.695 456.838 107.719L452.215 109.524C452.17 109.543 452.12 109.55 452.071 109.544C452.021 109.538 451.974 109.52 451.934 109.491C451.892 109.465 451.858 109.428 451.834 109.384C451.81 109.341 451.797 109.292 451.797 109.243V109.131C451.796 109.067 451.816 109.005 451.852 108.952C451.888 108.9 451.94 108.859 452 108.837L456.086 107.32V107.202L452 105.685C451.94 105.665 451.887 105.626 451.851 105.574C451.814 105.522 451.796 105.46 451.797 105.397V105.286C451.797 105.235 451.81 105.186 451.834 105.141C451.858 105.097 451.892 105.059 451.934 105.031C451.985 104.998 452.044 104.98 452.104 104.978C452.142 104.978 452.18 104.985 452.215 104.998L456.838 106.81C456.895 106.832 456.944 106.872 456.978 106.924C457.012 106.975 457.029 107.036 457.027 107.097Z" fill="#367CFF"/>
<path d="M364.594 47H134.321V277.36H364.594V47Z" fill="#F4F4F4"/>
<path d="M134.321 47H131.682V277.36H134.321V47Z" fill="#F4F4F4"/>
<path opacity="0.05" d="M134.321 47H131.682V277.36H134.321V47Z" fill="#292A2E"/>
<path opacity="0.05" d="M190.106 205.737V145.467H239.457V180.483H315.903V242.482H348.393V277.36H315.903H309.643H145.398V205.737H190.106Z" fill="#292A2E"/>
<path opacity="0.34" d="M233.122 152.011H197.184V158.555H233.122V152.011Z" fill="#FFFFFA"/>
<path opacity="0.34" d="M233.122 165.572H197.184V172.116H233.122V165.572Z" fill="#FFFFFA"/>
<path opacity="0.34" d="M233.122 179.132H197.184V185.676H233.122V179.132Z" fill="#FFFFFA"/>
<path opacity="0.34" d="M158.394 212.089H151.771V218.633H158.394V212.089Z" fill="#FFFFFA"/>
<path opacity="0.34" d="M158.394 225.649H151.771V232.193H158.394V225.649Z" fill="#FFFFFA"/>
<path opacity="0.34" d="M158.394 239.21H151.771V245.754H158.394V239.21Z" fill="#FFFFFA"/>
<path opacity="0.34" d="M170.649 212.089H164.025V218.633H170.649V212.089Z" fill="#FFFFFA"/>
<path opacity="0.34" d="M170.649 225.649H164.025V232.193H170.649V225.649Z" fill="#FFFFFA"/>
<path opacity="0.34" d="M170.649 239.21H164.025V245.754H170.649V239.21Z" fill="#FFFFFA"/>
<path opacity="0.34" d="M182.572 212.089H175.948V218.633H182.572V212.089Z" fill="#FFFFFA"/>
<path opacity="0.34" d="M182.572 225.649H175.948V232.193H182.572V225.649Z" fill="#FFFFFA"/>
<path opacity="0.34" d="M182.572 239.21H175.948V245.754H182.572V239.21Z" fill="#FFFFFA"/>
<path d="M134.321 160.888H180.656V47H184.488V160.888H309.643V47H313.475V160.888H364.594V164.721H313.475V277.36H309.643V164.721H184.488V277.36H180.656V164.721H134.321V160.888Z" fill="white"/>
<path d="M373.768 277.082H125.148V284.743H373.768V277.082Z" fill="#F4F4F4"/>
<path opacity="0.1" d="M373.768 277.082H125.148V284.743H373.768V277.082Z" fill="#292A2E"/>
<path opacity="0.1" d="M125.148 277.082H121.558V284.743H125.148V277.082Z" fill="#292A2E"/>
<path opacity="0.1" d="M125.148 277.082H121.558V284.743H125.148V277.082Z" fill="#292A2E"/>
<path d="M131.682 56.8076L364.595 56.8076V51.1118L131.682 51.1118V56.8076Z" fill="white"/>
<path d="M131.682 67.4471L364.595 67.4471V61.7513L131.682 61.7513V67.4471Z" fill="white"/>
<path d="M131.682 78.0859L364.595 78.0859V72.3901L131.682 72.3901V78.0859Z" fill="white"/>
<path d="M131.682 88.7249L364.595 88.7249V83.029L131.682 83.029V88.7249Z" fill="white"/>
<path d="M131.682 99.363L364.595 99.363V93.6672L131.682 93.6672V99.363Z" fill="white"/>
<path d="M156.42 105.787H159.91V47H156.42V105.787Z" fill="white"/>
<path d="M157.869 114.23C160.518 114.23 162.665 112.082 162.665 109.433C162.665 106.783 160.518 104.636 157.869 104.636C155.221 104.636 153.074 106.783 153.074 109.433C153.074 112.082 155.221 114.23 157.869 114.23Z" fill="white"/>
<path d="M272.276 310.02L270.979 310.193L282.703 398.03L283.999 397.857L272.276 310.02Z" fill="#494949"/>
<path d="M137.714 310.019L136.418 310.192L148.141 398.029L149.437 397.856L137.714 310.019Z" fill="#494949"/>
<path d="M265.065 310.105H137.419C135.332 310.105 133.316 309.345 131.748 307.967C130.18 306.589 129.166 304.688 128.897 302.618L120.453 237.753C120.295 236.541 120.398 235.308 120.754 234.139C121.11 232.969 121.712 231.888 122.518 230.97C123.325 230.051 124.318 229.315 125.432 228.811C126.546 228.307 127.754 228.046 128.976 228.046H256.622C258.708 228.046 260.724 228.806 262.292 230.184C263.86 231.561 264.874 233.463 265.143 235.533L273.586 300.398C273.744 301.61 273.642 302.843 273.286 304.012C272.93 305.182 272.328 306.262 271.522 307.181C270.715 308.1 269.722 308.836 268.609 309.34C267.495 309.844 266.287 310.105 265.065 310.105Z" fill="#292A2E"/>
<path opacity="0.8" d="M265.065 310.105H137.419C135.332 310.105 133.316 309.345 131.748 307.967C130.18 306.589 129.166 304.688 128.897 302.618L120.453 237.753C120.295 236.541 120.398 235.308 120.754 234.139C121.11 232.969 121.712 231.888 122.518 230.97C123.325 230.051 124.318 229.315 125.432 228.811C126.546 228.307 127.754 228.046 128.976 228.046H256.622C258.708 228.046 260.724 228.806 262.292 230.184C263.86 231.561 264.874 233.463 265.143 235.533L273.586 300.398C273.744 301.61 273.642 302.843 273.286 304.012C272.93 305.182 272.328 306.262 271.522 307.181C270.715 308.1 269.722 308.836 268.609 309.34C267.495 309.844 266.287 310.105 265.065 310.105Z" fill="white"/>
<path d="M265.065 310.759H137.419C135.174 310.754 133.008 309.934 131.322 308.453C129.635 306.971 128.543 304.928 128.248 302.702L119.806 237.838C119.636 236.533 119.746 235.207 120.129 233.948C120.512 232.689 121.159 231.526 122.027 230.538C122.895 229.549 123.964 228.757 125.163 228.214C126.361 227.672 127.661 227.391 128.977 227.392H256.622C258.866 227.397 261.033 228.216 262.719 229.698C264.405 231.179 265.497 233.223 265.791 235.448L274.235 300.314C274.405 301.618 274.294 302.944 273.911 304.203C273.528 305.461 272.881 306.624 272.013 307.613C271.146 308.601 270.077 309.393 268.879 309.936C267.68 310.478 266.38 310.759 265.065 310.759ZM128.977 228.7C127.847 228.7 126.731 228.941 125.702 229.407C124.674 229.872 123.756 230.552 123.011 231.401C122.266 232.25 121.71 233.248 121.381 234.329C121.052 235.409 120.958 236.548 121.103 237.668L129.547 302.533C129.8 304.444 130.737 306.199 132.185 307.471C133.633 308.743 135.493 309.447 137.42 309.451H265.065C266.194 309.45 267.31 309.209 268.339 308.743C269.367 308.277 270.285 307.597 271.03 306.748C271.774 305.9 272.33 304.902 272.659 303.821C272.988 302.741 273.082 301.602 272.937 300.482L264.495 235.618C264.242 233.707 263.305 231.952 261.857 230.68C260.409 229.408 258.549 228.705 256.622 228.7L128.977 228.7Z" fill="#292A2E"/>
<path d="M272.283 310.105H144.636C142.549 310.105 140.534 309.345 138.966 307.967C137.398 306.589 136.385 304.688 136.115 302.618L127.669 237.753C127.511 236.541 127.614 235.308 127.97 234.139C128.326 232.969 128.927 231.889 129.734 230.97C130.54 230.052 131.534 229.316 132.647 228.811C133.761 228.307 134.969 228.046 136.191 228.046H263.84C265.927 228.046 267.942 228.806 269.51 230.184C271.078 231.561 272.092 233.463 272.361 235.533L280.805 300.398C280.962 301.61 280.86 302.843 280.504 304.012C280.148 305.182 279.546 306.262 278.74 307.181C277.933 308.1 276.94 308.836 275.827 309.34C274.713 309.844 273.505 310.105 272.283 310.105Z" fill="white"/>
<path d="M272.283 310.759H144.636C142.392 310.754 140.226 309.934 138.539 308.453C136.853 306.971 135.761 304.928 135.467 302.702L127.023 237.838C126.853 236.533 126.964 235.207 127.347 233.948C127.73 232.689 128.377 231.527 129.245 230.538C130.113 229.55 131.182 228.758 132.38 228.215C133.578 227.672 134.878 227.392 136.194 227.392H263.839C266.084 227.397 268.25 228.216 269.937 229.698C271.623 231.179 272.715 233.223 273.01 235.448L281.453 300.314C281.623 301.618 281.512 302.944 281.129 304.203C280.746 305.461 280.099 306.624 279.231 307.612C278.363 308.601 277.294 309.393 276.096 309.935C274.898 310.478 273.598 310.759 272.283 310.759ZM136.194 228.7C135.065 228.7 133.949 228.941 132.92 229.408C131.892 229.874 130.974 230.554 130.23 231.403C129.485 232.252 128.929 233.249 128.601 234.33C128.272 235.411 128.177 236.549 128.323 237.669L136.763 302.533C137.016 304.444 137.954 306.199 139.402 307.471C140.849 308.743 142.709 309.446 144.636 309.451H272.283C273.412 309.451 274.528 309.21 275.557 308.744C276.586 308.278 277.503 307.598 278.248 306.749C278.994 305.9 279.549 304.902 279.878 303.822C280.207 302.741 280.302 301.603 280.156 300.482L271.713 235.618C271.46 233.707 270.522 231.952 269.074 230.68C267.626 229.408 265.766 228.705 263.839 228.7L136.194 228.7Z" fill="#292A2E"/>
<path d="M371.506 324.915L370.205 325.046L397.766 597.999L399.067 597.867L371.506 324.915Z" fill="#494949"/>
<path d="M258.527 128.466C258.527 128.466 267.009 122.061 269.111 107.318C270.738 95.9039 260.212 103.299 260.212 103.299C260.212 103.299 261.304 95.068 255.309 95.8849C249.314 96.7018 245.96 105.348 245.96 105.348" fill="#0C0C0C"/>
<path d="M224.327 96.8483C224.327 96.8483 194.584 100.041 205.337 140.357L207.969 140.533L213.311 140.892" fill="#0C0C0C"/>
<path d="M253.545 182.463C253.414 182.446 251.963 206.531 223.991 204.434C204.626 202.982 197.722 182.429 197.278 182.429C199.366 181.986 201.946 181.312 202.972 181.081C205.206 180.562 207.23 179.374 208.774 177.677C210.317 175.979 211.308 173.851 211.613 171.577C212.18 168.163 211.221 150.695 211.514 147.241L241.239 153.878C240.824 161.174 237.917 178.087 248.104 181.081C249.802 181.576 251.628 182.031 253.545 182.463Z" fill="#E98862"/>
<path opacity="0.52" d="M241.657 174.169C241.191 172.667 240.891 171.12 240.762 169.553C240.436 165.979 240.502 162.379 240.959 158.819C234.917 158.003 229.225 155.509 224.53 151.619C223.978 153.658 220.943 162.568 221.784 164.506C223.37 168.17 230.834 174.169 241.657 174.169Z" fill="#0C0C0C"/>
<path d="M235.522 169.401C223.795 168.349 209.759 160.937 209.557 145.012L209.374 130.644C209.172 114.72 217.368 101.704 232.356 101.513C247.344 101.323 258.711 114.089 258.913 130.014L258.994 136.375C258.984 138.56 258.824 140.741 258.518 142.904C257.749 148.627 256.556 157.327 252.675 163.212C249.008 168.769 243.013 170.073 235.522 169.401Z" fill="#E98862"/>
<path d="M240.963 154.847C243.383 154.957 245.795 154.496 248.004 153.502C248.049 153.482 248.091 153.454 248.126 153.418C248.16 153.383 248.188 153.341 248.206 153.295C248.225 153.249 248.234 153.199 248.233 153.15C248.233 153.1 248.223 153.051 248.203 153.005C248.184 152.96 248.155 152.918 248.12 152.883C248.084 152.849 248.042 152.821 247.996 152.803C247.95 152.784 247.901 152.775 247.851 152.775C247.802 152.776 247.753 152.786 247.707 152.806C242.947 154.837 238.625 154.539 235.209 151.946C235.14 151.891 235.068 151.84 234.994 151.793C234.908 151.754 234.81 151.747 234.72 151.776C234.63 151.805 234.554 151.866 234.506 151.948C234.459 152.03 234.445 152.127 234.465 152.219C234.486 152.312 234.54 152.393 234.618 152.447C234.645 152.464 234.689 152.499 234.749 152.547C236.545 153.915 238.709 154.716 240.963 154.847Z" fill="#0C0C0C"/>
<path d="M240.849 158.433C241.287 158.46 241.725 158.449 242.161 158.402C242.261 158.391 242.352 158.341 242.415 158.263C242.478 158.185 242.508 158.085 242.497 157.986C242.486 157.886 242.437 157.794 242.359 157.731C242.281 157.668 242.181 157.639 242.081 157.649C239.462 157.928 238.212 156.727 238.159 156.676C238.088 156.605 237.992 156.565 237.891 156.564C237.791 156.564 237.695 156.604 237.624 156.675C237.553 156.746 237.513 156.842 237.513 156.942C237.513 157.043 237.552 157.139 237.623 157.21C238.525 157.978 239.665 158.41 240.849 158.433Z" fill="#0C0C0C"/>
<path d="M253.963 139.437C254.983 139.437 255.81 138.61 255.81 137.59C255.81 136.57 254.983 135.743 253.963 135.743C252.944 135.743 252.117 136.57 252.117 137.59C252.117 138.61 252.944 139.437 253.963 139.437Z" fill="#0C0C0C"/>
<path d="M235.927 138.305C236.947 138.305 237.774 137.478 237.774 136.458C237.774 135.438 236.947 134.611 235.927 134.611C234.908 134.611 234.081 135.438 234.081 136.458C234.081 137.478 234.908 138.305 235.927 138.305Z" fill="#0C0C0C"/>
<path d="M210.549 149.852C205.994 149.91 202.24 145.082 202.181 140.526C202.121 135.969 205.783 133.41 210.338 133.352L212.724 136.375L214.464 149.802L210.549 149.852Z" fill="#E98862"/>
<path d="M215.078 142.531C215.078 142.531 216.616 119.998 223.446 118.606C227.995 117.679 239.026 124.134 249.243 122.185C253.714 121.335 257.958 122.439 258.389 124.551C258.56 125.388 261.345 113.367 254.345 104.248C248.771 96.985 230.533 94.9346 222.235 97.3152C199.26 103.909 209.398 134.344 209.398 134.344L210.423 142.112L215.078 142.531Z" fill="#0C0C0C"/>
<path d="M243.713 149.528H243.743C245.211 149.513 247.671 149.324 247.661 148.226C247.651 147.315 245.062 137.516 244.766 136.402C244.738 136.309 244.675 136.231 244.59 136.184C244.505 136.137 244.406 136.125 244.313 136.15C244.219 136.174 244.139 136.234 244.089 136.317C244.038 136.4 244.022 136.499 244.044 136.593C245.194 140.933 246.906 147.615 246.914 148.235C246.772 148.496 245.256 148.766 243.736 148.782C243.64 148.784 243.548 148.822 243.48 148.89C243.412 148.957 243.373 149.049 243.37 149.144C243.367 149.24 243.401 149.334 243.465 149.405C243.529 149.477 243.618 149.521 243.713 149.528V149.528Z" fill="#0C0C0C"/>
<path d="M248.724 127.575C250.266 127.15 251.895 127.15 253.437 127.575C254.195 127.778 254.918 128.095 255.582 128.514C256.238 128.924 256.84 129.415 257.372 129.976C257.475 130.075 257.534 130.21 257.538 130.352C257.542 130.494 257.49 130.633 257.393 130.737C257.296 130.841 257.163 130.903 257.021 130.91C256.878 130.917 256.739 130.868 256.633 130.774L256.6 130.745C256.106 130.288 255.557 129.895 254.965 129.575C254.385 129.257 253.759 129.029 253.11 128.898C251.833 128.63 250.508 128.704 249.268 129.113L249.216 129.131C249.011 129.203 248.787 129.192 248.591 129.098C248.395 129.004 248.245 128.837 248.172 128.632C248.1 128.428 248.112 128.203 248.205 128.007C248.299 127.811 248.466 127.661 248.671 127.588L248.724 127.575Z" fill="#0C0C0C"/>
<path d="M237.8 128.503C236.627 127.932 235.323 127.682 234.022 127.777C233.361 127.82 232.711 127.963 232.093 128.201C231.465 128.44 230.869 128.756 230.32 129.143L230.285 129.166C230.167 129.242 230.024 129.269 229.887 129.242C229.749 129.216 229.627 129.137 229.546 129.023C229.466 128.908 229.432 128.767 229.452 128.629C229.472 128.49 229.545 128.364 229.656 128.278C230.259 127.793 230.921 127.386 231.626 127.067C232.339 126.741 233.098 126.524 233.876 126.422C235.461 126.206 237.076 126.422 238.548 127.049C238.748 127.135 238.905 127.298 238.984 127.5C239.064 127.703 239.06 127.928 238.973 128.128C238.887 128.327 238.724 128.484 238.522 128.564C238.32 128.644 238.094 128.64 237.895 128.553L237.85 128.531L237.8 128.503Z" fill="#0C0C0C"/>
<path d="M246.528 112.064C249.899 111.359 251.792 106.764 250.755 101.8C249.718 96.8357 246.145 93.3827 242.773 94.0874C239.402 94.792 237.509 99.3875 238.546 104.352C239.583 109.316 243.156 112.769 246.528 112.064Z" fill="#0C0C0C"/>
<path d="M274.745 546.98L323.94 391.723H234.766C216.853 391.723 209.386 376.527 209.386 358.608C209.386 340.69 226.996 324.982 244.908 324.982H365.26C376.185 324.982 388.435 331.666 394.432 340.802C400.428 349.939 398.807 364.096 394.462 374.125L315.683 565.533" fill="#262626"/>
<path opacity="0.8" d="M274.745 546.98L323.94 391.723H234.766C216.853 391.723 209.386 376.527 209.386 358.608C209.386 340.69 226.996 324.982 244.908 324.982H365.26C376.185 324.982 388.435 331.666 394.432 340.802C400.428 349.939 398.807 364.096 394.462 374.125L315.683 565.533" fill="#0A0A0A"/>
<path d="M399.652 580.381L317.393 391.723L209.385 391.716C184.077 389.731 172.486 375.856 172.855 357.941C173.218 340.254 182.171 322.783 199.772 322.783H345.348C358.371 323.05 368.617 337.448 373.449 349.548L441.833 568.832" fill="#262626"/>
<path d="M165.488 322.999C165.488 322.999 160.691 354.291 168.295 371.689C177.787 393.409 213.37 391.716 213.37 391.716L211.365 322.783L165.488 322.999Z" fill="#262626"/>
<path d="M376.543 322.384L300.248 306.568C297.069 305.909 294.108 304.459 291.637 302.351C289.167 300.243 287.268 297.546 286.117 294.51L256.109 215.405C255.195 213.031 254.759 210.499 254.826 207.956C254.893 205.413 255.462 202.908 256.499 200.586C257.537 198.263 259.023 196.169 260.872 194.422C262.721 192.676 264.897 191.312 267.275 190.41C269.652 189.507 272.185 189.083 274.727 189.163C277.268 189.242 279.769 189.823 282.086 190.872C284.403 191.921 286.489 193.418 288.226 195.276C289.963 197.134 291.316 199.318 292.206 201.7L318.457 270.895L384.379 284.56C384.379 284.56 377.866 322.658 376.543 322.384Z" fill="#367CFF"/>
<path d="M288.3 235.493C287.42 245.848 281.174 310.449 280.324 323.204H165.538C164.878 311.701 162.737 262.861 160.236 240.366C157.849 218.9 156.983 206.65 159.733 199.98C164.582 188.214 176.718 183.981 187.172 182.565C193.555 181.701 203.155 181.081 203.155 181.081C203.155 181.081 203.969 197.531 223.351 198.447C249.737 199.689 247.975 181.081 248.106 181.081C252.38 181.081 275.648 184.191 281.466 187.984C289.684 193.342 292.112 200.644 292.208 207.352C292.318 215.076 289.299 223.749 288.3 235.493Z" fill="#367CFF"/>
<path d="M283.789 288.28H283.762C283.719 288.276 283.677 288.264 283.639 288.244C283.601 288.225 283.567 288.198 283.539 288.165C283.512 288.132 283.491 288.094 283.477 288.053C283.464 288.012 283.459 287.969 283.463 287.926L286.443 252.117C286.445 252.073 286.457 252.031 286.476 251.992C286.495 251.954 286.522 251.919 286.555 251.891C286.588 251.863 286.626 251.842 286.668 251.83C286.709 251.817 286.752 251.813 286.795 251.818C286.838 251.821 286.88 251.833 286.918 251.853C286.956 251.873 286.99 251.9 287.018 251.932C287.046 251.965 287.067 252.003 287.08 252.044C287.093 252.085 287.098 252.128 287.094 252.171L284.114 287.981C284.107 288.062 284.07 288.138 284.01 288.193C283.95 288.249 283.871 288.279 283.789 288.28Z" fill="#0C0C0C"/>
<path d="M338.456 309.772L363.642 232.321C364.085 230.96 364.947 229.774 366.104 228.933C367.262 228.092 368.656 227.639 370.086 227.639H479.234C480.304 227.639 481.359 227.892 482.312 228.378C483.265 228.864 484.089 229.568 484.718 230.434C485.346 231.3 485.761 232.302 485.928 233.359C486.095 234.416 486.01 235.498 485.679 236.515L453.955 313.969C453.513 315.33 452.651 316.516 451.493 317.357C450.336 318.198 448.942 318.651 447.511 318.651H344.901C343.831 318.651 342.776 318.398 341.823 317.912C340.869 317.426 340.045 316.721 339.416 315.855C338.787 314.989 338.373 313.986 338.206 312.929C338.039 311.871 338.125 310.79 338.456 309.772Z" fill="#292A2E"/>
<path d="M338.456 309.772L363.642 232.321C364.085 230.96 364.947 229.774 366.104 228.933C367.262 228.092 368.656 227.639 370.086 227.639H479.234C480.304 227.639 481.359 227.892 482.312 228.378C483.265 228.864 484.089 229.568 484.718 230.434C485.346 231.3 485.761 232.302 485.928 233.359C486.095 234.416 486.01 235.498 485.679 236.515L453.955 313.969C453.513 315.33 452.651 316.516 451.493 317.357C450.336 318.198 448.942 318.651 447.511 318.651H344.901C343.831 318.651 342.776 318.398 341.823 317.912C340.869 317.426 340.045 316.721 339.416 315.855C338.787 314.989 338.373 313.986 338.206 312.929C338.039 311.871 338.125 310.79 338.456 309.772Z" fill="#292A2E"/>
<path d="M359.002 312.368H290.314C288.603 312.368 287.215 313.756 287.215 315.468V315.547C287.215 317.26 288.603 318.648 290.314 318.648H359.002C360.713 318.648 362.101 317.26 362.101 315.547V315.468C362.101 313.756 360.713 312.368 359.002 312.368Z" fill="#292A2E"/>
<path d="M359.002 312.368H290.314C288.603 312.368 287.215 313.756 287.215 315.468V315.547C287.215 317.26 288.603 318.648 290.314 318.648H359.002C360.713 318.648 362.101 317.26 362.101 315.547V315.468C362.101 313.756 360.713 312.368 359.002 312.368Z" fill="#292A2E"/>
<path d="M408.799 287.688C414.742 287.688 419.56 282.868 419.56 276.922C419.56 270.976 414.742 266.156 408.799 266.156C402.855 266.156 398.037 270.976 398.037 276.922C398.037 282.868 402.855 287.688 408.799 287.688Z" fill="white"/>
<path d="M332.715 291.629L315.573 285.618L318.033 285.448C318.827 285.377 319.564 285.008 320.095 284.414C320.627 283.821 320.913 283.048 320.897 282.251C320.874 281.84 320.768 281.438 320.585 281.07C320.402 280.702 320.145 280.374 319.832 280.108C319.518 279.842 319.153 279.643 318.76 279.523C318.367 279.402 317.953 279.363 317.544 279.408L287.215 282.632L288 292.382C288.245 295.41 289.388 298.297 291.283 300.671C293.178 303.045 295.739 304.798 298.637 305.707L311.771 309.8C312.449 310.026 313.185 310.011 313.853 309.756C314.521 309.502 315.081 309.025 315.438 308.405C315.748 307.838 315.869 307.188 315.783 306.548C315.698 305.907 315.41 305.311 314.962 304.846C314.991 304.826 315.016 304.8 315.034 304.769C315.053 304.739 315.065 304.705 315.07 304.669C315.075 304.634 315.072 304.598 315.063 304.564C315.053 304.53 315.037 304.498 315.015 304.47L317.434 305.229C318.189 305.483 319.012 305.44 319.737 305.11C320.462 304.78 321.034 304.186 321.338 303.45C321.587 302.782 321.592 302.048 321.353 301.377C321.114 300.706 320.646 300.14 320.031 299.78C320.059 299.765 320.084 299.745 320.105 299.72L321.1 300.032C321.779 300.258 322.514 300.243 323.182 299.989C323.851 299.734 324.411 299.257 324.767 298.637C325.143 297.95 325.239 297.144 325.034 296.388C324.829 295.632 324.34 294.985 323.669 294.582C323.674 294.562 323.678 294.541 323.678 294.52L330.817 297.023C331.172 297.152 331.549 297.208 331.926 297.19C332.303 297.172 332.673 297.079 333.014 296.918C333.355 296.756 333.66 296.528 333.912 296.247C334.165 295.966 334.359 295.638 334.484 295.282C334.609 294.925 334.662 294.548 334.64 294.171C334.618 293.794 334.521 293.425 334.356 293.086C334.191 292.746 333.96 292.443 333.676 292.193C333.393 291.944 333.063 291.753 332.706 291.631L332.715 291.629Z" fill="#E98862"/>
<path opacity="0.2" d="M323.408 294.797C323.374 294.797 323.341 294.791 323.31 294.78L316.405 292.268C316.334 292.242 316.276 292.189 316.245 292.12C316.213 292.051 316.21 291.973 316.236 291.902C316.262 291.831 316.315 291.774 316.383 291.742C316.452 291.71 316.53 291.707 316.601 291.733L323.507 294.245C323.57 294.268 323.623 294.312 323.656 294.37C323.69 294.428 323.702 294.496 323.69 294.562C323.678 294.628 323.644 294.687 323.593 294.73C323.541 294.773 323.476 294.797 323.409 294.797H323.408Z" fill="#0A0A0A"/>
<path opacity="0.2" d="M319.915 299.819C319.883 299.819 319.851 299.814 319.82 299.803L314.377 297.871C314.341 297.859 314.308 297.84 314.28 297.815C314.251 297.79 314.228 297.76 314.211 297.726C314.194 297.692 314.184 297.655 314.182 297.617C314.18 297.579 314.185 297.541 314.198 297.506C314.211 297.47 314.23 297.437 314.256 297.409C314.281 297.381 314.312 297.358 314.346 297.342C314.381 297.326 314.418 297.317 314.456 297.316C314.494 297.315 314.532 297.321 314.567 297.334L320.01 299.266C320.073 299.289 320.127 299.333 320.161 299.391C320.195 299.449 320.207 299.517 320.196 299.583C320.184 299.649 320.15 299.709 320.099 299.752C320.047 299.795 319.983 299.819 319.915 299.819Z" fill="#0A0A0A"/>
<path opacity="0.2" d="M314.79 304.916C314.755 304.916 314.721 304.909 314.689 304.897L312.139 303.924C312.068 303.897 312.012 303.843 311.981 303.774C311.95 303.706 311.948 303.627 311.975 303.557C312.002 303.486 312.056 303.429 312.125 303.399C312.193 303.368 312.272 303.366 312.342 303.393L314.892 304.365C314.954 304.389 315.006 304.433 315.039 304.491C315.072 304.549 315.083 304.617 315.071 304.683C315.059 304.748 315.024 304.808 314.973 304.85C314.922 304.893 314.857 304.916 314.791 304.916H314.79Z" fill="#0A0A0A"/>
<path d="M300.639 276.862L228.725 276.813L201.519 210.423L160.934 227.493L194.876 306.288L195.208 307.073C196.869 310.903 199.666 314.129 203.221 316.316C206.776 318.502 210.917 319.543 215.082 319.297L301.725 314.177L300.639 276.862Z" fill="#367CFF"/>
<path d="M213.892 319.659C209.861 319.652 205.918 318.47 202.547 316.258C199.176 314.046 196.522 310.899 194.91 307.202L194.578 306.417L165.653 239.28L166.253 239.019L195.51 306.945C197.151 310.708 199.905 313.877 203.401 316.027C206.897 318.176 210.967 319.204 215.064 318.971L301.389 313.869L300.32 277.19L228.505 277.142L207.584 226.094L208.189 225.847L228.942 276.488L300.955 276.537L302.061 314.485L301.744 314.504L215.104 319.623C214.7 319.647 214.294 319.659 213.892 319.659Z" fill="#0C0C0C"/>
<path d="M133.903 324.919L106.323 597.869L107.624 598.001L135.204 325.05L133.903 324.919Z" fill="#494949"/>
<path d="M247.854 324.919L220.273 597.869L221.574 598.001L249.155 325.05L247.854 324.919Z" fill="#494949"/>
<path d="M485.456 324.915L484.155 325.046L511.716 597.999L513.017 597.867L485.456 324.915Z" fill="#494949"/>
<path d="M510.31 319.623H110.855C107.896 319.623 105.498 322.022 105.498 324.981C105.498 327.941 107.896 330.34 110.855 330.34H510.31C513.268 330.34 515.667 327.941 515.667 324.981C515.667 322.022 513.268 319.623 510.31 319.623Z" fill="#292A2E"/>
<path opacity="0.8" d="M510.31 319.623H110.855C107.896 319.623 105.498 322.022 105.498 324.981C105.498 327.941 107.896 330.34 110.855 330.34H510.31C513.268 330.34 515.667 327.941 515.667 324.981C515.667 322.022 513.268 319.623 510.31 319.623Z" fill="white"/>
<path d="M510.31 330.994H110.858C110.063 331.002 109.275 330.853 108.538 330.554C107.802 330.256 107.132 329.814 106.567 329.255C106.002 328.696 105.554 328.03 105.248 327.297C104.942 326.563 104.784 325.776 104.784 324.981C104.784 324.186 104.942 323.399 105.248 322.666C105.554 321.932 106.002 321.266 106.567 320.707C107.132 320.148 107.802 319.707 108.538 319.408C109.275 319.11 110.063 318.96 110.858 318.969H510.31C511.105 318.96 511.893 319.11 512.63 319.408C513.366 319.707 514.036 320.148 514.601 320.707C515.166 321.266 515.614 321.932 515.92 322.666C516.226 323.399 516.384 324.186 516.384 324.981C516.384 325.776 516.226 326.563 515.92 327.297C515.614 328.03 515.166 328.696 514.601 329.255C514.036 329.814 513.366 330.256 512.63 330.554C511.893 330.853 511.105 331.002 510.31 330.994ZM110.858 320.277C110.235 320.269 109.618 320.386 109.041 320.619C108.464 320.852 107.939 321.197 107.496 321.635C107.054 322.072 106.702 322.594 106.462 323.168C106.222 323.742 106.099 324.359 106.099 324.981C106.099 325.604 106.222 326.22 106.462 326.795C106.702 327.369 107.054 327.89 107.496 328.328C107.939 328.765 108.464 329.111 109.041 329.344C109.618 329.577 110.235 329.693 110.858 329.686H510.31C510.933 329.693 511.55 329.577 512.127 329.344C512.704 329.111 513.229 328.765 513.672 328.328C514.114 327.89 514.466 327.369 514.706 326.795C514.945 326.22 515.069 325.604 515.069 324.981C515.069 324.359 514.945 323.742 514.706 323.168C514.466 322.594 514.114 322.072 513.672 321.635C513.229 321.197 512.704 320.852 512.127 320.619C511.55 320.386 510.933 320.269 510.31 320.277H110.858Z" fill="#292A2E"/>
<path d="M510.31 319.623H229.162C226.203 319.623 223.805 322.022 223.805 324.981C223.805 327.941 226.203 330.34 229.162 330.34H510.31C513.268 330.34 515.667 327.941 515.667 324.981C515.667 322.022 513.268 319.623 510.31 319.623Z" fill="white"/>
<path d="M510.31 330.994H229.161C227.578 330.977 226.065 330.337 224.952 329.211C223.838 328.085 223.213 326.565 223.213 324.981C223.213 323.397 223.838 321.877 224.952 320.752C226.065 319.626 227.578 318.985 229.161 318.969H510.31C511.105 318.96 511.893 319.11 512.629 319.408C513.366 319.707 514.036 320.148 514.601 320.707C515.166 321.266 515.614 321.932 515.92 322.666C516.226 323.399 516.384 324.186 516.384 324.981C516.384 325.776 516.226 326.563 515.92 327.297C515.614 328.03 515.166 328.696 514.601 329.255C514.036 329.814 513.366 330.256 512.629 330.554C511.893 330.853 511.105 331.002 510.31 330.994ZM229.161 320.277C227.924 320.291 226.742 320.793 225.872 321.674C225.002 322.555 224.514 323.743 224.514 324.981C224.514 326.22 225.002 327.408 225.872 328.289C226.742 329.169 227.924 329.671 229.161 329.686H510.31C510.932 329.693 511.55 329.577 512.127 329.344C512.704 329.111 513.229 328.765 513.672 328.328C514.114 327.89 514.466 327.369 514.705 326.795C514.945 326.22 515.069 325.604 515.069 324.981C515.069 324.359 514.945 323.742 514.705 323.168C514.466 322.594 514.114 322.072 513.672 321.635C513.229 321.197 512.704 320.852 512.127 320.619C511.55 320.386 510.932 320.269 510.31 320.277H229.161Z" fill="#292A2E"/>
<path d="M508.117 412.451C518.965 403.751 522.561 390.211 516.148 382.208C509.735 374.204 495.741 374.768 484.893 383.467C474.044 392.167 470.449 405.707 476.862 413.71C483.275 421.714 497.268 421.15 508.117 412.451Z" fill="#0CBC8B"/>
<path opacity="0.2" d="M508.117 412.451C518.965 403.751 522.561 390.211 516.148 382.208C509.735 374.204 495.741 374.768 484.893 383.467C474.044 392.167 470.449 405.707 476.862 413.71C483.275 421.714 497.268 421.15 508.117 412.451Z" fill="white"/>
</g>
</g>
<defs>
<clipPath id="clip0_49_161">
<path d="M0 25.6C0 16.6392 0 12.1587 1.7439 8.73615C3.27787 5.72556 5.72556 3.27787 8.73615 1.7439C12.1587 0 16.6392 0 25.6 0H646.4C655.361 0 659.841 0 663.264 1.7439C666.274 3.27787 668.722 5.72556 670.256 8.73615C672 12.1587 672 16.6392 672 25.6V376H0V25.6Z" fill="white"/>
</clipPath>
<clipPath id="clip1_49_161">
<rect width="484" height="551" fill="white" transform="translate(94 47)"/>
</clipPath>
</defs>
</svg>
