<svg width="672" height="376" viewBox="0 0 672 376" fill="none" xmlns="http://www.w3.org/2000/svg">
<g clip-path="url(#clip0_34_102)">
<path d="M0 25.6C0 16.6392 0 12.1587 1.7439 8.73615C3.27787 5.72556 5.72556 3.27787 8.73615 1.7439C12.1587 0 16.6392 0 25.6 0H646.4C655.361 0 659.841 0 663.264 1.7439C666.274 3.27787 668.722 5.72556 670.256 8.73615C672 12.1587 672 16.6392 672 25.6V376H0V25.6Z" fill="#F6B128"/>
<g style="mix-blend-mode:luminosity" clip-path="url(#clip1_34_102)">
<path d="M131.06 260.918L382.747 260.918C389.407 260.918 394.807 255.519 394.807 248.859V50.2889C394.807 43.6287 389.407 38.2295 382.747 38.2295L131.06 38.2295C124.4 38.2295 119.001 43.6287 119.001 50.2889V248.859C119.001 255.519 124.4 260.918 131.06 260.918Z" fill="white"/>
<path d="M118.596 248.859V50.2893C118.599 46.9854 119.914 43.8179 122.25 41.4817C124.586 39.1455 127.754 37.8314 131.057 37.8276H382.744C386.048 37.8315 389.215 39.1457 391.552 41.4819C393.888 43.818 395.202 46.9855 395.206 50.2893V248.859C395.202 252.163 393.888 255.33 391.552 257.667C389.216 260.003 386.048 261.317 382.744 261.321H131.057C127.753 261.317 124.586 260.003 122.25 257.667C119.913 255.33 118.599 252.163 118.596 248.859ZM131.057 38.6317C127.967 38.6352 125.004 39.8645 122.818 42.05C120.633 44.2355 119.403 47.1986 119.4 50.2893V248.859C119.403 251.95 120.633 254.913 122.818 257.098C125.004 259.284 127.967 260.513 131.057 260.517H382.744C385.835 260.513 388.798 259.284 390.984 257.098C393.169 254.913 394.398 251.95 394.402 248.859V50.2893C394.398 47.1986 393.169 44.2353 390.984 42.0498C388.798 39.8643 385.835 38.635 382.744 38.6317H131.057Z" fill="#292A2E"/>
<path d="M118.998 50.2867V62.4223H394.802V50.2867C394.802 47.0888 393.532 44.0218 391.271 41.7605C389.009 39.4992 385.942 38.2288 382.744 38.2288H131.057C129.474 38.2286 127.906 38.5403 126.443 39.1462C124.98 39.7521 123.65 40.6402 122.53 41.7599C121.41 42.8797 120.522 44.209 119.916 45.672C119.31 47.1351 118.998 48.7031 118.998 50.2867Z" fill="#292A2E"/>
<path d="M338.831 102.916C338.909 102.615 339.048 102.333 339.239 102.088C339.429 101.843 339.668 101.639 339.94 101.489C340.212 101.339 340.512 101.246 340.821 101.216C341.131 101.186 341.443 101.219 341.739 101.313C342.305 101.516 342.774 101.926 343.049 102.461C343.325 102.995 343.388 103.615 343.224 104.194L342.443 107.183L349.229 98.8793C349.968 97.943 351.475 97.2659 352.468 98.1641C352.874 98.4845 353.159 98.9329 353.276 99.436C353.394 99.939 353.337 100.467 353.116 100.934C353.128 100.939 353.138 100.945 353.148 100.953C353.155 100.959 353.16 100.966 353.166 100.973L354.305 99.5291C354.514 99.2632 354.781 99.0473 355.084 98.8968C355.388 98.7463 355.721 98.6651 356.06 98.6589C356.398 98.6528 356.734 98.7218 357.043 98.8612C357.352 99.0005 357.626 99.2066 357.845 99.4646C358.187 99.883 358.374 100.407 358.374 100.947C358.374 101.487 358.187 102.01 357.845 102.429L357.36 103.043C357.372 103.066 357.38 103.091 357.382 103.117C357.802 102.78 358.326 102.603 358.863 102.615C359.401 102.627 359.917 102.828 360.32 103.183C360.758 103.595 361.023 104.159 361.061 104.76C361.099 105.36 360.907 105.953 360.525 106.417L359.334 107.928C359.359 107.919 359.386 107.915 359.413 107.917C359.44 107.919 359.466 107.927 359.49 107.94C359.514 107.952 359.535 107.97 359.551 107.991C359.568 108.012 359.58 108.036 359.587 108.062C360.036 107.87 360.534 107.827 361.009 107.938C361.485 108.05 361.912 108.311 362.228 108.682C362.57 109.101 362.756 109.624 362.756 110.165C362.756 110.705 362.57 111.228 362.228 111.647L352.071 124.523C350.649 126.324 348.723 127.66 346.538 128.359C344.353 129.059 342.008 129.09 339.806 128.448L332.713 126.382L338.831 102.916Z" fill="#E98862"/>
<g opacity="0.2">
<path d="M346.443 109.188C346.486 109.222 346.541 109.237 346.596 109.231C346.651 109.225 346.701 109.197 346.736 109.155L353.18 101.25C353.215 101.206 353.232 101.151 353.226 101.095C353.22 101.039 353.193 100.988 353.149 100.953C353.106 100.918 353.05 100.901 352.995 100.907C352.939 100.912 352.888 100.94 352.853 100.983L346.409 108.888C346.373 108.932 346.357 108.987 346.362 109.043C346.368 109.099 346.396 109.15 346.439 109.185L346.443 109.188Z" fill="#0C0C0C"/>
</g>
<g opacity="0.2">
<path d="M349.853 112.127C349.897 112.161 349.952 112.176 350.006 112.17C350.061 112.164 350.111 112.137 350.146 112.094L357.339 103.272C357.374 103.229 357.391 103.173 357.385 103.117C357.38 103.061 357.352 103.01 357.309 102.975C357.264 102.941 357.209 102.926 357.154 102.932C357.099 102.937 357.048 102.963 357.012 103.005L349.819 111.827C349.784 111.87 349.767 111.926 349.773 111.982C349.778 112.038 349.806 112.089 349.849 112.124L349.853 112.127Z" fill="#0C0C0C"/>
</g>
<g opacity="0.2">
<path d="M353.525 115.331C353.568 115.365 353.623 115.381 353.678 115.374C353.733 115.368 353.783 115.341 353.818 115.298L359.556 108.261C359.588 108.217 359.603 108.163 359.596 108.109C359.589 108.055 359.562 108.006 359.519 107.971C359.477 107.937 359.423 107.92 359.369 107.925C359.315 107.929 359.265 107.954 359.228 107.994L353.491 115.032C353.473 115.053 353.46 115.078 353.452 115.104C353.444 115.131 353.442 115.159 353.444 115.186C353.447 115.214 353.455 115.24 353.469 115.265C353.482 115.289 353.5 115.311 353.521 115.328L353.525 115.331Z" fill="#0C0C0C"/>
</g>
<path d="M206.556 85.5786C206.556 85.5786 203.904 98.9439 200.234 103.441C189.67 116.387 185.079 131.902 192.747 141.314C200.415 150.726 256.177 158.099 262.879 139.613C268.521 124.049 261.111 121.332 260.975 107.87C260.913 101.778 260.233 88.9334 260.233 88.9334" fill="#0A0A0A"/>
<path d="M251.396 132.222C251.298 132.209 250.221 150.089 229.453 148.527C215.075 147.45 209.949 132.196 209.619 132.196C211.169 131.866 213.779 131.387 214.468 131.02C216.732 129.803 219.534 128.537 220.263 124.141C220.684 121.607 219.97 108.643 220.19 106.078L242.26 111.004C241.952 116.419 239.793 128.972 247.358 131.194C248.617 131.563 249.972 131.901 251.396 132.222Z" fill="#E98862"/>
<path opacity="0.5" d="M242.569 126.065C242.223 124.951 242 123.802 241.905 122.64C241.663 119.987 241.712 117.315 242.051 114.673C237.565 114.067 233.339 112.216 229.853 109.329C229.444 110.842 227.19 117.455 227.814 118.894C228.991 121.613 234.534 126.065 242.569 126.065Z" fill="#0C0C0C"/>
<path d="M238.734 121.808C229.996 121.52 219.281 116.616 218.463 104.824L217.726 94.1822C216.908 82.3908 222.438 72.4022 233.543 71.6323C244.645 70.8625 253.607 79.8459 254.424 91.6373L254.751 96.3478C255.062 100.875 254.322 122.321 238.734 121.808Z" fill="#E98862"/>
<path d="M237.835 108.443C239.055 109.048 241.594 109.858 245.117 108.633C245.501 108.499 245.794 108.937 245.599 109.37C244.852 111.029 243.144 112.945 240.146 112.289C239.377 112.156 238.671 111.778 238.134 111.21C237.597 110.643 237.259 109.917 237.169 109.141C237.088 108.697 237.492 108.273 237.835 108.443Z" fill="white"/>
<path d="M251.662 97.2607C252.419 97.2607 253.033 96.647 253.033 95.8899C253.033 95.1328 252.419 94.5191 251.662 94.5191C250.905 94.5191 250.291 95.1328 250.291 95.8899C250.291 96.647 250.905 97.2607 251.662 97.2607Z" fill="#0C0C0C"/>
<path d="M237.592 97.2608C238.349 97.2608 238.962 96.647 238.962 95.89C238.962 95.1329 238.349 94.5192 237.592 94.5192C236.834 94.5192 236.221 95.1329 236.221 95.89C236.221 96.647 236.834 97.2608 237.592 97.2608Z" fill="#0C0C0C"/>
<path opacity="0.5" d="M244.062 106.223H244.084C244.534 106.189 244.981 106.13 245.425 106.046C246.088 105.916 246.964 105.675 246.924 105.086C246.875 104.413 244.534 97.2919 244.267 96.482C244.242 96.4141 244.191 96.3586 244.125 96.3272C244.06 96.2959 243.985 96.2911 243.916 96.3139C243.847 96.3366 243.789 96.3852 243.755 96.4494C243.721 96.5136 243.714 96.5885 243.734 96.6583C244.734 99.6913 246.332 104.672 246.363 105.124C246.266 105.32 245.161 105.585 244.044 105.661C243.973 105.667 243.906 105.7 243.858 105.754C243.81 105.808 243.784 105.878 243.786 105.95C243.789 106.022 243.818 106.091 243.87 106.142C243.921 106.192 243.99 106.221 244.062 106.223V106.223Z" fill="#0C0C0C"/>
<path d="M208.61 96.7839L218.556 96.1493C226.281 94.0384 230.021 81.5396 230.021 81.5396C230.021 81.5396 237.943 91.3275 260.232 88.9316C260.232 88.9316 259.462 58.1525 226.361 63.1582C215.687 64.7722 207.035 74.3116 206.311 88.3443C205.804 98.1776 208.61 96.7839 208.61 96.7839Z" fill="#0A0A0A"/>
<path d="M219.403 108.37C216.029 108.603 213.043 105.184 212.81 101.809C212.576 98.4351 215.182 96.3853 218.555 96.1514L220.451 98.2916L222.306 108.168L219.403 108.37Z" fill="#E98862"/>
<path d="M246.948 90.8373C247.972 90.3325 249.113 90.1123 250.251 90.1997C250.813 90.239 251.365 90.3626 251.89 90.5664C252.411 90.7658 252.905 91.0302 253.359 91.3533C253.413 91.3897 253.45 91.4454 253.463 91.5087C253.476 91.5719 253.464 91.6378 253.429 91.6923C253.394 91.7467 253.34 91.7855 253.277 91.8005C253.214 91.8154 253.148 91.8052 253.092 91.7722L253.076 91.7624C252.648 91.4827 252.186 91.2579 251.702 91.0931C251.223 90.928 250.721 90.836 250.214 90.8202C249.208 90.782 248.21 91.0109 247.321 91.4836L247.296 91.4973C247.209 91.5452 247.107 91.5566 247.012 91.5292C246.917 91.5018 246.837 91.4377 246.789 91.3511C246.741 91.2645 246.729 91.1624 246.757 91.0673C246.784 90.9723 246.848 90.892 246.935 90.8441L246.948 90.8373Z" fill="#0C0C0C"/>
<path d="M238.012 92.1552C237.067 91.806 236.047 91.7127 235.055 91.8848C234.555 91.9678 234.07 92.1261 233.618 92.3544C233.16 92.582 232.732 92.8664 232.345 93.2009L232.331 93.2126C232.306 93.2337 232.277 93.2497 232.246 93.2596C232.215 93.2696 232.182 93.2733 232.15 93.2706C232.117 93.2679 232.086 93.2588 232.057 93.2439C232.028 93.229 232.002 93.2085 231.981 93.1836C231.96 93.1587 231.944 93.1298 231.934 93.0988C231.924 93.0677 231.92 93.0349 231.923 93.0024C231.925 92.9699 231.934 92.9382 231.949 92.9092C231.964 92.8802 231.985 92.8544 232.01 92.8333C232.417 92.4524 232.871 92.1243 233.361 91.8569C233.854 91.585 234.385 91.3887 234.936 91.2745C236.053 91.0363 237.213 91.1022 238.295 91.4654C238.389 91.4978 238.465 91.566 238.509 91.655C238.552 91.7441 238.558 91.8466 238.526 91.9402C238.493 92.0337 238.425 92.1106 238.336 92.1538C238.247 92.1971 238.145 92.2032 238.051 92.1708L238.039 92.1664L238.012 92.1552Z" fill="#0C0C0C"/>
<path d="M229.928 80.1756C229.928 80.1756 231.702 92.8565 218.561 95.89" stroke="#0C0C0C" stroke-width="0.244089" stroke-miterlimit="10"/>
<path opacity="0.1" d="M237.84 104.149C237.851 103.091 236.691 102.221 235.249 102.206C233.807 102.191 232.629 103.035 232.618 104.093C232.607 105.151 233.767 106.021 235.209 106.036C236.651 106.051 237.829 105.206 237.84 104.149Z" fill="#0C0C0C"/>
<path opacity="0.1" d="M250.76 103.825C250.752 104.882 251.911 105.75 253.354 105.768C253.603 105.77 253.852 105.747 254.096 105.698C254.324 104.467 254.483 103.274 254.59 102.165C254.209 102.015 253.802 101.938 253.393 101.937C251.948 101.92 250.77 102.767 250.76 103.825Z" fill="#0C0C0C"/>
<path d="M181.94 238.442L178.182 261.354H271.916L268.412 238.304L181.94 238.442Z" fill="#262626"/>
<path d="M228.981 144.084C214.593 143.406 213.987 131.197 213.987 131.197C213.987 131.197 206.86 131.657 202.119 132.298C194.36 133.348 189.242 135.979 185.168 140.053C181.379 143.842 179.073 147.941 181.513 174.115C183.281 193.067 181.94 238.444 181.94 238.444L268.412 238.306C268.412 238.306 276.48 180.115 277.206 171.583C278.591 155.297 275.639 141.529 272.258 138.148C265.306 131.197 253.339 131.197 247.361 131.198C247.265 131.195 248.575 145.008 228.981 144.084Z" fill="#367CFF"/>
<path d="M331.825 113.716L303.864 164.971L270.497 136.686L249.979 160.892L298.2 201.769L298.545 202.065C300.36 203.585 302.498 204.671 304.796 205.241C307.094 205.811 309.491 205.85 311.806 205.355C314.122 204.86 316.294 203.844 318.157 202.384C320.021 200.924 321.528 199.059 322.563 196.93L356.717 126.535L331.825 113.716Z" fill="#367CFF"/>
<path d="M190.296 217.31L195.56 260.517H163.832L158.54 214.615C158.522 212.648 158.87 210.695 159.565 208.854L182.543 143.986L212.708 154.243L190.296 217.31Z" fill="#367CFF"/>
<path d="M195.318 260.547L190.047 217.278L190.069 217.22L204.571 180.418L205.025 180.598L190.546 217.342L195.802 260.488L195.318 260.547Z" fill="#0C0C0C"/>
<path d="M277.334 169.659L275.584 183.568L276.003 183.621L277.753 169.711L277.334 169.659Z" fill="#0C0C0C"/>
<path opacity="0.49" d="M256.902 249.649C269.528 249.649 279.764 239.414 279.764 226.788C279.764 214.162 269.528 203.927 256.902 203.927C244.276 203.927 234.041 214.162 234.041 226.788C234.041 239.414 244.276 249.649 256.902 249.649Z" fill="white"/>
<path d="M256.903 243.718C266.253 243.718 273.833 236.138 273.833 226.788C273.833 217.438 266.253 209.858 256.903 209.858C247.552 209.858 239.973 217.438 239.973 226.788C239.973 236.138 247.552 243.718 256.903 243.718Z" fill="white"/>
<path d="M268.311 232.36C268.507 232.491 268.646 232.693 268.698 232.924C268.75 233.155 268.711 233.397 268.589 233.6L267.481 235.446C267.187 235.946 266.712 236.313 266.155 236.472C264.313 236.977 260.251 237.079 253.741 230.569C247.231 224.059 247.333 219.996 247.838 218.155C247.997 217.597 248.364 217.122 248.863 216.828L250.71 215.72C250.913 215.598 251.155 215.56 251.386 215.612C251.617 215.664 251.819 215.802 251.95 215.999L254.895 220.416C255.023 220.61 255.074 220.845 255.037 221.074C254.999 221.303 254.877 221.51 254.694 221.653L253.04 222.938C252.866 223.072 252.745 223.264 252.701 223.479C252.656 223.694 252.69 223.918 252.796 224.11C253.281 224.983 253.742 226.011 256.018 228.292C258.294 230.572 259.327 231.029 260.2 231.514C260.392 231.62 260.615 231.653 260.83 231.609C261.045 231.564 261.236 231.444 261.369 231.27L262.656 229.617C262.798 229.433 263.005 229.31 263.234 229.273C263.464 229.236 263.699 229.287 263.892 229.415L268.311 232.36Z" fill="#0CBC8B"/>
<path d="M517.513 279.44C493.205 279.44 473.5 286.072 473.5 294.252V311.886H561.526V294.252C561.526 286.072 541.82 279.44 517.513 279.44Z" fill="#367CFF"/>
<path opacity="0.49" d="M517.513 279.44C493.205 279.44 473.5 286.072 473.5 294.252V311.886H561.526V294.252C561.526 286.072 541.82 279.44 517.513 279.44Z" fill="white"/>
<path opacity="0.49" d="M549.535 294.254V311.885H473.498V294.254C473.498 286.756 490.047 280.561 511.516 279.582C532.987 280.56 549.535 286.756 549.535 294.254Z" fill="white"/>
<path d="M561.524 483.223L562.989 481.746L561.524 310.322L560.06 311.798L561.104 432.575L508.961 433.461L507.909 311.786L506.444 311.798L507.496 433.486L476.019 434.021L474.963 311.786L473.498 310.334L474.963 481.759L476.427 483.211L476.032 435.486L507.509 434.951L507.909 483.223L509.373 483.211L508.973 434.926L561.117 434.04L561.524 483.223Z" fill="#292A2E"/>
<path d="M450.15 425.333L417.326 301.487C414.836 287.806 418.585 281.875 424.36 276.114C434.507 265.993 476.555 244.45 476.555 244.45L526.998 244.313C540.374 244.313 553.522 257.502 553.522 270.877C553.522 284.252 539.924 295.596 526.549 295.596L464.433 301.796L481.27 415.193L450.15 425.333Z" fill="#262626"/>
<path d="M481.27 415.191L474.641 370.548L441.059 391.034L450.149 425.333L481.27 415.191Z" fill="#0C0C0C"/>
<path d="M488.882 269.512C488.882 269.512 467.677 274.238 446.676 295.239C433.943 307.972 434.986 331.014 436.897 375.332L457.755 344.523L480.633 303.26L488.882 269.512Z" fill="#0C0C0C"/>
<path d="M562.305 244.298L528.048 244.136L528.034 244.587H517.662C517.662 244.587 491.679 268.498 470.759 283.564C455.542 294.523 446.259 304.971 445.456 316.358C443.498 344.116 421.414 462.504 421.414 462.504L454.65 467.537L483.815 326.057C483.815 326.057 529.423 305.033 539.972 297.716C549.905 290.825 556.922 288.162 560.209 280.643C565.886 267.655 562.305 244.298 562.305 244.298Z" fill="#262626"/>
<path d="M497.586 94.3546C497.586 94.3546 492.205 88.5224 492.621 77.4149C492.942 68.8146 499.693 75.6462 499.693 75.6462C499.693 75.6462 499.986 69.4556 504.279 70.8523C508.572 72.249 509.893 79.0464 509.893 79.0464" fill="#0C0C0C"/>
<path d="M526.918 75.6797C526.918 75.6797 548.349 81.9772 535.088 110.163L533.13 109.942L529.158 109.495" fill="#0C0C0C"/>
<path d="M496.547 139.397C496.645 139.384 497.728 157.362 518.615 155.796C533.075 154.713 538.23 139.371 538.562 139.371C537.003 139.04 535.076 138.537 534.31 138.365C532.642 137.977 531.13 137.091 529.978 135.824C528.825 134.557 528.085 132.968 527.857 131.271C527.434 128.722 528.15 115.684 527.931 113.105L505.736 118.059C506.046 123.505 508.217 136.13 500.61 138.365C499.341 138.734 497.978 139.074 496.547 139.397Z" fill="#E98862"/>
<path opacity="0.52" d="M505.426 133.205C505.773 132.085 505.997 130.93 506.093 129.76C506.337 127.092 506.288 124.405 505.947 121.748C510.458 121.139 514.708 119.277 518.214 116.374C518.626 117.896 520.893 124.546 520.264 125.991C519.081 128.727 513.506 133.205 505.426 133.205Z" fill="#0C0C0C"/>
<path d="M509.048 127.481C517.804 128.268 529.103 124.69 531.368 113.021L533.413 102.491C535.679 90.8239 531.386 80.1723 520.399 78.039C509.411 75.9057 499.362 83.7707 497.097 95.4401L496.192 100.102C495.909 101.708 495.736 103.331 495.673 104.961C495.478 109.266 495.196 115.815 497.267 120.654C499.222 125.222 503.453 126.979 509.048 127.481Z" fill="#E98862"/>
<path d="M502.54 114.94C505.8 115.317 509.093 114.596 511.897 112.892C511.995 112.834 512.107 112.804 512.22 112.807C512.334 112.809 512.444 112.844 512.538 112.908C512.633 112.971 512.707 113.06 512.753 113.163C512.799 113.267 512.814 113.382 512.797 113.494C512.484 115.416 511.356 118.922 507.28 119.177C504.649 119.341 502.851 117.239 501.959 115.857C501.897 115.761 501.864 115.65 501.863 115.535C501.863 115.421 501.895 115.309 501.956 115.213C502.017 115.116 502.105 115.039 502.208 114.991C502.312 114.943 502.427 114.925 502.54 114.94Z" fill="white"/>
<path d="M499.726 103.042C500.488 103.042 501.105 102.425 501.105 101.663C501.105 100.902 500.488 100.285 499.726 100.285C498.965 100.285 498.348 100.902 498.348 101.663C498.348 102.425 498.965 103.042 499.726 103.042Z" fill="#0C0C0C"/>
<path d="M513.129 104.609C513.89 104.609 514.507 103.992 514.507 103.23C514.507 102.469 513.89 101.852 513.129 101.852C512.367 101.852 511.75 102.469 511.75 103.23C511.75 103.992 512.367 104.609 513.129 104.609Z" fill="#0C0C0C"/>
<path d="M529.995 116.443C533.335 117.092 536.735 114.045 537.384 110.706C538.032 107.367 535.682 105 532.344 104.352L530.188 106.255L527.125 115.887L529.995 116.443Z" fill="#E98862"/>
<path d="M527.64 110.463C527.64 110.463 529.505 93.7078 524.671 91.7776C521.452 90.4922 512.489 93.7659 505.242 90.9755C502.069 89.7551 498.806 90.0031 498.208 91.4969C497.971 92.0885 497.524 82.8908 503.879 77.122C508.939 72.5292 522.613 73.4485 528.393 76.3014C544.399 84.2001 532.903 105.206 532.903 105.206L531.117 110.775L527.64 110.463Z" fill="#0C0C0C"/>
<g opacity="0.52">
<path d="M505.669 111.797L505.647 111.794C504.573 111.587 502.788 111.122 502.941 110.316C503.069 109.649 506.275 102.795 506.64 102.017C506.655 101.983 506.677 101.952 506.704 101.926C506.731 101.9 506.763 101.88 506.798 101.867C506.833 101.854 506.87 101.847 506.907 101.849C506.945 101.85 506.982 101.859 507.015 101.875C507.049 101.891 507.08 101.914 507.105 101.941C507.13 101.969 507.149 102.002 507.161 102.037C507.173 102.073 507.178 102.11 507.175 102.147C507.173 102.185 507.163 102.221 507.146 102.255C505.724 105.289 503.577 109.968 503.49 110.422C503.559 110.633 504.637 111.032 505.752 111.246C505.822 111.26 505.884 111.301 505.926 111.36C505.967 111.418 505.984 111.491 505.973 111.562C505.963 111.633 505.925 111.697 505.868 111.741C505.812 111.785 505.74 111.805 505.669 111.798V111.797Z" fill="#0C0C0C"/>
</g>
<path d="M504.908 95.0033C503.831 94.4871 502.634 94.271 501.444 94.378C500.86 94.4271 500.287 94.5636 499.744 94.7827C499.207 94.9967 498.7 95.2777 498.233 95.6189C498.143 95.6772 498.079 95.7691 498.056 95.8744C498.033 95.9796 498.053 96.0897 498.111 96.1803C498.17 96.271 498.262 96.3347 498.367 96.3576C498.472 96.3805 498.582 96.3606 498.673 96.3024L498.701 96.2853C499.124 96.0155 499.579 95.7998 500.056 95.6433C500.525 95.4868 501.014 95.4022 501.509 95.3924C502.483 95.3657 503.447 95.5964 504.303 96.0612L504.339 96.0817C504.409 96.1215 504.486 96.1472 504.565 96.1573C504.645 96.1674 504.725 96.1617 504.803 96.1406C504.88 96.1194 504.953 96.0833 505.016 96.0342C505.08 95.985 505.133 95.9239 505.172 95.8542C505.212 95.7846 505.238 95.7078 505.248 95.6282C505.258 95.5486 505.252 95.4678 505.231 95.3905C505.21 95.3131 505.174 95.2406 505.125 95.1772C505.076 95.1138 505.015 95.0607 504.945 95.0209C504.933 95.0165 504.92 95.0097 504.908 95.0033Z" fill="#0C0C0C"/>
<path d="M512.809 97.1377C513.747 96.8749 514.738 96.8644 515.682 97.1074C516.162 97.2269 516.62 97.4183 517.043 97.6752C517.473 97.9337 517.868 98.2453 518.221 98.6027L518.243 98.6242C518.319 98.6997 518.422 98.7424 518.529 98.7428C518.636 98.7433 518.738 98.7015 518.815 98.6267C518.891 98.5518 518.935 98.4498 518.936 98.3428C518.938 98.2359 518.897 98.1326 518.823 98.0555C518.445 97.6192 518.012 97.2323 517.537 96.9038C517.056 96.5695 516.527 96.309 515.969 96.1311C514.833 95.7623 513.619 95.7065 512.454 95.9695C512.296 96.0064 512.16 96.1044 512.074 96.2421C511.989 96.3797 511.962 96.5457 511.998 96.7034C512.035 96.8612 512.133 96.9979 512.271 97.0833C512.409 97.1688 512.575 97.1961 512.732 97.1592C512.745 97.1562 512.757 97.1533 512.769 97.1494L512.809 97.1377Z" fill="#0C0C0C"/>
<path d="M515.473 79.2997C516.895 75.7915 516.116 72.1644 513.732 71.1985C511.348 70.2325 508.264 72.2934 506.842 75.8016C505.42 79.3098 506.2 82.9369 508.583 83.9028C510.967 84.8688 514.052 82.8079 515.473 79.2997Z" fill="#0C0C0C"/>
<path d="M470.598 178.98C471.256 186.709 475.919 234.93 476.554 244.45H562.265C562.757 235.863 564.968 198.317 566.836 181.526C568.618 165.504 571.117 158.212 569.064 153.233C565.442 144.451 553.916 140.53 546.11 139.473C541.343 138.827 534.175 138.365 534.175 138.365C534.175 138.365 533.568 150.644 519.094 151.327C499.391 152.255 500.707 138.365 500.609 138.365C497.418 138.365 480.044 140.686 475.699 143.518C469.563 147.517 467.75 152.967 467.678 157.975C467.596 163.739 469.85 170.214 470.598 178.98Z" fill="#367CFF"/>
<path d="M395.099 137.639C394.959 137.362 394.763 137.117 394.524 136.918C394.285 136.719 394.009 136.571 393.711 136.483C393.413 136.394 393.1 136.367 392.792 136.404C392.483 136.44 392.185 136.539 391.916 136.695C391.406 137.014 391.036 137.515 390.881 138.096C390.726 138.678 390.797 139.296 391.08 139.827L392.48 142.58L384.075 135.919C383.153 135.162 381.536 134.823 380.755 135.912C380.428 136.312 380.245 136.811 380.238 137.327C380.231 137.844 380.398 138.348 380.714 138.757C380.704 138.764 380.695 138.772 380.687 138.782C380.682 138.789 380.678 138.797 380.675 138.806L379.253 137.638C378.991 137.424 378.685 137.269 378.357 137.187C378.028 137.105 377.685 137.097 377.353 137.163C377.021 137.229 376.707 137.369 376.436 137.571C376.164 137.773 375.94 138.033 375.781 138.332C375.537 138.813 375.467 139.365 375.582 139.892C375.698 140.42 375.992 140.892 376.415 141.227L377.02 141.724C377.014 141.749 377.012 141.775 377.014 141.8C376.533 141.561 375.983 141.5 375.46 141.626C374.938 141.753 374.477 142.059 374.158 142.492C373.819 142.989 373.681 143.596 373.772 144.191C373.863 144.786 374.177 145.324 374.65 145.696L376.136 146.917C376.103 146.914 376.069 146.92 376.038 146.933C376.007 146.946 375.98 146.966 375.959 146.992C375.934 147.024 375.92 147.062 375.918 147.102C375.438 147.011 374.942 147.075 374.501 147.286C374.061 147.497 373.699 147.843 373.47 148.274C373.226 148.756 373.155 149.307 373.271 149.835C373.387 150.362 373.681 150.834 374.104 151.169L386.778 161.578C388.552 163.034 390.719 163.927 393.003 164.144C395.287 164.36 397.584 163.889 399.599 162.792L406.086 159.258L395.099 137.639Z" fill="#E98862"/>
<g opacity="0.2">
<path d="M389.004 145.394C388.969 145.436 388.919 145.463 388.864 145.468C388.809 145.474 388.755 145.458 388.711 145.424L380.726 139.078C380.705 139.06 380.686 139.039 380.673 139.015C380.66 138.991 380.651 138.964 380.648 138.936C380.645 138.909 380.647 138.881 380.655 138.854C380.662 138.828 380.675 138.803 380.692 138.781C380.71 138.759 380.731 138.741 380.755 138.728C380.779 138.714 380.806 138.706 380.834 138.703C380.861 138.7 380.889 138.702 380.916 138.71C380.942 138.717 380.967 138.73 380.989 138.747L388.974 145.093C388.996 145.111 389.014 145.132 389.027 145.156C389.041 145.18 389.049 145.207 389.052 145.235C389.056 145.262 389.053 145.29 389.046 145.317C389.038 145.343 389.025 145.368 389.008 145.39L389.004 145.394Z" fill="#0C0C0C"/>
</g>
<g opacity="0.2">
<path d="M386.304 148.993C386.269 149.035 386.219 149.061 386.164 149.067C386.109 149.073 386.055 149.057 386.011 149.023L377.099 141.941C377.078 141.924 377.059 141.903 377.046 141.879C377.033 141.854 377.024 141.828 377.021 141.8C377.018 141.773 377.02 141.745 377.028 141.718C377.035 141.691 377.048 141.667 377.066 141.645C377.101 141.603 377.152 141.576 377.207 141.569C377.262 141.563 377.317 141.578 377.362 141.611L386.274 148.692C386.295 148.71 386.313 148.731 386.327 148.755C386.34 148.779 386.349 148.806 386.352 148.833C386.355 148.861 386.353 148.889 386.345 148.916C386.337 148.942 386.325 148.967 386.307 148.989L386.304 148.993Z" fill="#0C0C0C"/>
</g>
<g opacity="0.2">
<path d="M383.398 152.907C383.363 152.949 383.313 152.976 383.258 152.982C383.203 152.987 383.149 152.971 383.106 152.937L375.996 147.287C375.952 147.252 375.924 147.201 375.917 147.146C375.911 147.09 375.927 147.034 375.962 146.99C375.997 146.947 376.047 146.918 376.103 146.912C376.159 146.906 376.215 146.922 376.258 146.957L383.367 152.605C383.411 152.64 383.439 152.691 383.445 152.746C383.452 152.802 383.436 152.858 383.401 152.902L383.398 152.907Z" fill="#0C0C0C"/>
</g>
<path d="M516.489 262.389C516.186 262.46 515.902 262.592 515.652 262.777C515.402 262.961 515.193 263.195 515.036 263.464C514.88 263.732 514.779 264.029 514.742 264.338C514.704 264.646 514.73 264.959 514.817 265.257C515.006 265.829 515.404 266.307 515.932 266.596C516.46 266.884 517.078 266.962 517.661 266.812L520.668 266.106L512.202 272.691C511.248 273.406 510.536 274.895 511.409 275.913C511.719 276.326 512.161 276.621 512.661 276.751C513.161 276.881 513.691 276.837 514.163 276.627C514.167 276.639 514.173 276.65 514.18 276.66C514.187 276.666 514.193 276.672 514.2 276.678L512.729 277.782C512.459 277.985 512.236 278.246 512.078 278.546C511.921 278.845 511.831 279.176 511.817 279.515C511.802 279.853 511.863 280.191 511.995 280.503C512.127 280.815 512.326 281.094 512.579 281.319C512.989 281.671 513.508 281.87 514.048 281.883C514.588 281.895 515.116 281.721 515.542 281.39L516.169 280.92C516.191 280.932 516.216 280.94 516.241 280.943C515.895 281.354 515.704 281.874 515.703 282.412C515.702 282.949 515.891 283.47 516.236 283.882C516.638 284.33 517.195 284.608 517.795 284.661C518.394 284.713 518.991 284.536 519.465 284.165L521.004 283.01C520.994 283.042 520.991 283.076 520.996 283.11C521.002 283.143 521.015 283.174 521.035 283.201C521.06 283.232 521.094 283.255 521.132 283.267C520.93 283.711 520.874 284.209 520.974 284.686C521.074 285.164 521.325 285.597 521.688 285.923C522.099 286.274 522.618 286.473 523.158 286.486C523.698 286.499 524.225 286.324 524.652 285.993L537.771 276.15C539.606 274.773 540.988 272.879 541.74 270.711C542.492 268.544 542.58 266.201 541.991 263.983L540.098 256.843L516.489 262.389Z" fill="#E98862"/>
<g opacity="0.2">
<path d="M522.572 270.153C522.605 270.197 522.619 270.253 522.612 270.307C522.604 270.362 522.575 270.412 522.532 270.446L514.471 276.697C514.449 276.714 514.424 276.726 514.398 276.733C514.371 276.741 514.343 276.743 514.315 276.739C514.288 276.736 514.261 276.727 514.237 276.713C514.213 276.7 514.192 276.681 514.175 276.659C514.158 276.637 514.146 276.612 514.138 276.586C514.131 276.559 514.129 276.531 514.133 276.504C514.136 276.476 514.145 276.45 514.159 276.425C514.172 276.401 514.191 276.38 514.213 276.363L522.273 270.113C522.317 270.079 522.373 270.064 522.429 270.071C522.484 270.078 522.535 270.106 522.569 270.151L522.572 270.153Z" fill="#0C0C0C"/>
</g>
<g opacity="0.2">
<path d="M525.432 273.631C525.465 273.675 525.479 273.731 525.472 273.785C525.464 273.84 525.435 273.89 525.391 273.924L516.398 280.902C516.354 280.936 516.298 280.951 516.242 280.944C516.187 280.937 516.136 280.909 516.102 280.864C516.069 280.819 516.055 280.764 516.062 280.709C516.069 280.654 516.097 280.604 516.139 280.568L525.133 273.591C525.177 273.557 525.233 273.542 525.288 273.549C525.344 273.556 525.394 273.584 525.429 273.628L525.432 273.631Z" fill="#0C0C0C"/>
</g>
<g opacity="0.2">
<path d="M528.546 277.38C528.579 277.424 528.594 277.48 528.586 277.534C528.579 277.589 528.55 277.639 528.506 277.673L521.33 283.238C521.286 283.269 521.231 283.283 521.177 283.275C521.123 283.267 521.074 283.238 521.04 283.195C521.007 283.152 520.991 283.098 520.997 283.043C521.003 282.989 521.03 282.939 521.071 282.904L528.248 277.338C528.292 277.304 528.348 277.289 528.403 277.295C528.459 277.302 528.509 277.331 528.543 277.375L528.546 277.38Z" fill="#0C0C0C"/>
</g>
<path d="M597.466 212.339L597.305 212.007L568.795 153.069L540.23 166.887L563.839 215.693L523.096 256.57L542.763 277.122L593.99 230.377C596.432 228.144 598.088 225.183 598.714 221.934C599.341 218.685 598.903 215.32 597.466 212.339Z" fill="#367CFF"/>
<path d="M535.173 244.694C535.125 244.694 535.078 244.679 535.038 244.652C534.998 244.625 534.966 244.587 534.948 244.542C534.93 244.498 534.925 244.449 534.935 244.401C534.944 244.354 534.968 244.31 535.002 244.276L564.025 215.644L542.447 172.368C542.431 172.339 542.421 172.307 542.417 172.274C542.413 172.241 542.417 172.208 542.426 172.176C542.436 172.145 542.452 172.115 542.473 172.09C542.495 172.065 542.521 172.044 542.551 172.029C542.581 172.015 542.613 172.006 542.646 172.004C542.679 172.002 542.712 172.007 542.743 172.018C542.774 172.03 542.803 172.047 542.827 172.07C542.851 172.093 542.87 172.12 542.884 172.151L564.542 215.583C564.565 215.629 564.573 215.682 564.564 215.732C564.555 215.783 564.53 215.83 564.494 215.865L535.343 244.622C535.298 244.667 535.237 244.693 535.173 244.694Z" fill="#0C0C0C"/>
<path d="M473.551 144.998L433.671 181.798L404.316 145.108L384.74 164.795L417.523 210.222C420.471 216.116 426.821 219.683 433.344 218.747C435.87 218.385 438.266 217.4 440.317 215.881L441.057 215.335L494.557 170.564L473.551 144.998Z" fill="#367CFF"/>
<path d="M471.749 189.665C471.69 189.666 471.632 189.644 471.587 189.605C471.542 189.566 471.513 189.512 471.505 189.453L469.65 175.54C469.643 175.477 469.66 175.412 469.7 175.362C469.739 175.311 469.797 175.278 469.86 175.27C469.924 175.261 469.988 175.278 470.039 175.316C470.09 175.355 470.124 175.412 470.134 175.475L471.989 189.388C471.993 189.42 471.991 189.453 471.983 189.484C471.975 189.515 471.961 189.544 471.941 189.569C471.922 189.595 471.897 189.616 471.869 189.632C471.842 189.649 471.811 189.659 471.779 189.663C471.769 189.664 471.759 189.665 471.749 189.665Z" fill="#0C0C0C"/>
<path d="M438.596 189.2C438.552 189.201 438.509 189.189 438.471 189.167C438.433 189.144 438.402 189.112 438.381 189.074L433.458 181.915C433.427 181.859 433.419 181.792 433.437 181.73C433.455 181.667 433.497 181.615 433.554 181.584C433.611 181.552 433.678 181.545 433.74 181.563C433.802 181.581 433.854 181.623 433.886 181.68L438.808 188.839C438.829 188.876 438.839 188.918 438.839 188.96C438.838 189.002 438.826 189.044 438.805 189.08C438.783 189.117 438.753 189.147 438.716 189.168C438.679 189.189 438.638 189.2 438.596 189.2Z" fill="#0C0C0C"/>
</g>
</g>
<defs>
<clipPath id="clip0_34_102">
<path d="M0 25.6C0 16.6392 0 12.1587 1.7439 8.73615C3.27787 5.72556 5.72556 3.27787 8.73615 1.7439C12.1587 0 16.6392 0 25.6 0H646.4C655.361 0 659.841 0 663.264 1.7439C666.274 3.27787 668.722 5.72556 670.256 8.73615C672 12.1587 672 16.6392 672 25.6V376H0V25.6Z" fill="white"/>
</clipPath>
<clipPath id="clip1_34_102">
<rect width="512.945" height="458.122" fill="white" transform="translate(86.0547 25.4387)"/>
</clipPath>
</defs>
</svg>
